<svg xmlns="http://www.w3.org/2000/svg" version="1.1" width = "1027" height = "1027" viewBox = "-1 -1 1026 1026" preserveAspectRatio = "none" shape-rendering="auto">
<rect x="0" y="0" width="1024" height="1024" style="fill:rgb(0,0,0);" /><rect x="101.136" y="0" width="821.72839" height="1024" style="fill:rgb(0,127,0);" /><g style="fill:rgb(229,229,229);">
 <rect x="164.346" y="25.2839" width="12.642" height="176.988"/>
 <rect x="240.198" y="25.2839" width="12.642" height="50.5679"/>
 <rect x="341.333" y="25.2839" width="113.778" height="88.4938"/>
 <rect x="151.704" y="37.9259" width="88.4938" height="164.346"/>
 <rect x="328.691" y="37.9259" width="126.42" height="12.642"/>
 <rect x="758.519" y="37.9259" width="37.9259" height="139.062"/>
 <rect x="796.444" y="37.9259" width="12.642" height="12.642"/>
 <rect x="139.062" y="63.2099" width="101.136" height="126.42"/>
 <rect x="455.111" y="63.2099" width="12.642" height="126.42"/>
 <rect x="733.235" y="63.2099" width="126.42" height="113.778"/>
 <rect x="126.42" y="88.4938" width="113.778" height="50.5679"/>
 <rect x="328.691" y="101.136" width="139.062" height="12.642"/>
 <rect x="556.247" y="101.136" width="37.926" height="88.4938"/>
 <rect x="644.741" y="101.136" width="37.926" height="88.4938"/>
 <rect x="859.654" y="101.136" width="25.2839" height="63.2099"/>
 <rect x="353.975" y="113.778" width="101.136" height="455.111"/>
 <rect x="594.173" y="113.778" width="12.642" height="63.2099"/>
 <rect x="720.593" y="113.778" width="151.704" height="63.2099"/>
 <rect x="467.753" y="126.42" width="12.642" height="63.2099"/>
 <rect x="530.963" y="126.42" width="341.333" height="50.5679"/>
 <rect x="240.198" y="139.062" width="50.5679" height="63.2099"/>
 <rect x="480.395" y="139.062" width="391.901" height="37.9259"/>
 <rect x="341.333" y="151.704" width="113.778" height="50.5679"/>
 <rect x="126.42" y="176.988" width="164.346" height="12.642"/>
 <rect x="543.605" y="176.988" width="50.5679" height="12.642"/>
 <rect x="632.099" y="176.988" width="63.2099" height="12.642"/>
 <rect x="733.235" y="176.988" width="50.5679" height="12.642"/>
 <rect x="151.704" y="202.272" width="12.642" height="101.136"/>
 <rect x="214.914" y="202.272" width="50.5679" height="101.136"/>
 <rect x="265.481" y="202.272" width="12.642" height="12.642"/>
 <rect x="328.691" y="227.556" width="139.062" height="50.5679"/>
 <rect x="265.481" y="240.198" width="202.272" height="37.9259"/>
 <rect x="556.247" y="240.198" width="50.5679" height="63.2099"/>
 <rect x="745.877" y="240.198" width="63.2099" height="151.704"/>
 <rect x="809.086" y="240.198" width="37.9259" height="12.642"/>
 <rect x="164.346" y="252.84" width="101.136" height="50.5679"/>
 <rect x="530.963" y="265.481" width="75.8519" height="37.9259"/>
 <rect x="139.062" y="278.123" width="126.42" height="25.2839"/>
 <rect x="341.333" y="278.123" width="126.42" height="265.481"/>
 <rect x="139.062" y="303.407" width="12.642" height="75.8519"/>
 <rect x="543.605" y="303.407" width="50.5679" height="88.4938"/>
 <rect x="126.42" y="316.049" width="25.284" height="63.2099"/>
 <rect x="467.753" y="328.691" width="12.642" height="467.753"/>
 <rect x="530.963" y="328.691" width="63.2099" height="63.2099"/>
 <rect x="480.395" y="341.333" width="328.691" height="37.926"/>
 <rect x="809.086" y="366.617" width="75.8518" height="25.284"/>
 <rect x="594.173" y="379.259" width="290.765" height="12.642"/>
 <rect x="328.691" y="417.185" width="151.704" height="63.2099"/>
 <rect x="480.395" y="442.469" width="63.2099" height="126.42"/>
 <rect x="632.099" y="455.111" width="50.5679" height="88.4938"/>
 <rect x="771.161" y="455.111" width="12.642" height="328.691"/>
 <rect x="543.605" y="467.753" width="50.5679" height="75.8518"/>
 <rect x="682.667" y="467.753" width="12.642" height="75.8518"/>
 <rect x="733.235" y="467.753" width="139.062" height="113.778"/>
 <rect x="872.296" y="467.753" width="25.284" height="25.284"/>
 <rect x="594.173" y="480.395" width="278.123" height="63.2099"/>
 <rect x="872.296" y="493.037" width="12.642" height="37.9259"/>
 <rect x="455.111" y="543.605" width="37.9259" height="37.926"/>
 <rect x="543.605" y="543.605" width="37.926" height="25.284"/>
 <rect x="695.309" y="543.605" width="176.988" height="37.926"/>
 <rect x="353.975" y="568.889" width="25.284" height="12.642"/>
 <rect x="429.827" y="568.889" width="63.2099" height="12.642"/>
 <rect x="530.963" y="568.889" width="25.2839" height="12.642"/>
 <rect x="872.296" y="568.889" width="12.642" height="12.642"/>
 <rect x="442.469" y="581.531" width="37.9259" height="214.914"/>
 <rect x="745.877" y="581.531" width="37.926" height="37.9259"/>
 <rect x="758.519" y="619.457" width="25.2839" height="164.346"/>
 <rect x="202.272" y="632.099" width="12.642" height="113.778"/>
 <rect x="303.407" y="632.099" width="12.642" height="88.4938"/>
 <rect x="429.827" y="632.099" width="63.2099" height="151.704"/>
 <rect x="606.815" y="632.099" width="12.642" height="151.704"/>
 <rect x="745.877" y="632.099" width="75.8519" height="139.062"/>
 <rect x="404.543" y="644.741" width="126.42" height="101.136"/>
 <rect x="214.914" y="657.383" width="12.642" height="88.4938"/>
 <rect x="821.728" y="657.383" width="12.642" height="113.778"/>
 <rect x="151.704" y="670.025" width="25.2839" height="63.2099"/>
 <rect x="265.481" y="670.025" width="12.642" height="50.5679"/>
 <rect x="316.049" y="670.025" width="25.2839" height="290.766"/>
 <rect x="379.259" y="670.025" width="303.407" height="63.2099"/>
 <rect x="834.37" y="670.025" width="25.2839" height="25.284"/>
 <rect x="126.42" y="682.667" width="139.062" height="50.5679"/>
 <rect x="278.123" y="682.667" width="404.543" height="37.9259"/>
 <rect x="834.37" y="695.309" width="12.642" height="75.8519"/>
 <rect x="290.765" y="720.593" width="12.642" height="12.642"/>
 <rect x="341.333" y="720.593" width="25.284" height="50.5679"/>
 <rect x="366.617" y="720.593" width="316.049" height="12.642"/>
 <rect x="733.235" y="720.593" width="63.2099" height="63.2099"/>
 <rect x="139.062" y="733.235" width="25.2839" height="75.8519"/>
 <rect x="189.63" y="733.235" width="75.8518" height="12.642"/>
 <rect x="391.901" y="733.235" width="290.765" height="12.642"/>
 <rect x="847.012" y="733.235" width="12.642" height="37.926"/>
 <rect x="859.654" y="733.235" width="12.642" height="12.642"/>
 <rect x="227.556" y="745.877" width="25.284" height="63.2099"/>
 <rect x="417.185" y="745.877" width="63.2099" height="50.5679"/>
 <rect x="493.037" y="745.877" width="37.9259" height="37.926"/>
 <rect x="657.383" y="745.877" width="25.284" height="12.642"/>
 <rect x="252.84" y="758.519" width="12.642" height="50.5679"/>
 <rect x="670.025" y="758.519" width="12.642" height="25.2839"/>
 <rect x="859.654" y="758.519" width="25.2839" height="12.642"/>
 <rect x="202.272" y="771.161" width="88.4938" height="37.9259"/>
 <rect x="341.333" y="771.161" width="12.642" height="189.63"/>
 <rect x="404.543" y="771.161" width="126.42" height="12.642"/>
 <rect x="872.296" y="771.161" width="12.642" height="12.642"/>
 <rect x="164.346" y="783.802" width="189.63" height="25.2839"/>
 <rect x="126.42" y="796.444" width="252.84" height="12.642"/>
 <rect x="404.543" y="796.444" width="50.5679" height="101.136"/>
 <rect x="278.123" y="809.086" width="101.136" height="151.704"/>
 <rect x="379.259" y="809.086" width="75.8518" height="88.4938"/>
 <rect x="771.161" y="821.728" width="88.4938" height="151.704"/>
 <rect x="455.111" y="834.37" width="25.2839" height="63.2099"/>
 <rect x="530.963" y="834.37" width="341.333" height="101.136"/>
 <rect x="480.395" y="847.012" width="391.901" height="37.9259"/>
 <rect x="176.988" y="859.654" width="50.5679" height="139.062"/>
 <rect x="227.556" y="859.654" width="12.642" height="25.2839"/>
 <rect x="872.296" y="872.296" width="25.284" height="126.42"/>
 <rect x="164.346" y="884.938" width="63.2099" height="113.778"/>
 <rect x="417.185" y="897.58" width="50.5679" height="25.2839"/>
 <rect x="455.111" y="922.864" width="25.2839" height="37.926"/>
 <rect x="556.247" y="935.506" width="37.926" height="63.2099"/>
 <rect x="594.173" y="935.506" width="303.407" height="37.926"/>
 <rect x="897.58" y="948.148" width="25.2839" height="25.2839"/>
 <rect x="227.556" y="960.79" width="75.8519" height="37.9259"/>
 <rect x="303.407" y="960.79" width="12.642" height="12.642"/>
 <rect x="353.975" y="960.79" width="25.284" height="37.9259"/>
 <rect x="455.111" y="960.79" width="12.642" height="12.642"/>
 <rect x="834.37" y="973.432" width="63.2099" height="25.2839"/>
 <rect x="897.58" y="973.432" width="25.2839" height="12.642"/>
 <rect x="379.259" y="986.074" width="25.2839" height="12.642"/>
</g><g style="fill:rgb(0,0,0);">
 <rect x="265.481" y="303.407" width="12.642" height="63.2099"/>
 <rect x="101.136" y="417.185" width="202.272" height="189.63"/>
 <rect x="303.407" y="417.185" width="12.642" height="88.4938"/>
 <rect x="859.654" y="632.099" width="12.642" height="37.9259"/>
</g>
</svg>