<svg xmlns="http://www.w3.org/2000/svg" version="1.1" width = "1027" height = "1027" viewBox = "-1 -1 1026 1026" preserveAspectRatio = "none" shape-rendering="auto">
<rect x="0" y="0" width="1024" height="1024" style="fill:rgb(0,0,0);" /><rect x="1.99222" y="0" width="1020.0156" height="1024" style="fill:rgb(0,127,0);" /><g style="fill:rgb(229,229,229);">
 <rect x="543.875" y="3.98444" width="11.9533" height="59.7665"/>
 <rect x="950.288" y="3.98444" width="31.8755" height="243.051"/>
 <rect x="946.303" y="23.9066" width="35.86" height="223.128"/>
 <rect x="934.35" y="27.8911" width="47.8132" height="219.144"/>
 <rect x="982.163" y="31.8755" width="15.9377" height="191.253"/>
 <rect x="496.062" y="35.8599" width="31.8755" height="31.8755"/>
 <rect x="930.366" y="39.8444" width="67.7355" height="11.9533"/>
 <rect x="998.101" y="43.8288" width="3.98438" height="179.3"/>
 <rect x="555.829" y="59.7665" width="3.98444" height="31.8755"/>
 <rect x="655.44" y="59.7665" width="23.9066" height="99.6109"/>
 <rect x="547.86" y="63.751" width="27.8911" height="27.8911"/>
 <rect x="651.455" y="63.751" width="27.8911" height="91.642"/>
 <rect x="496.062" y="67.7354" width="15.9377" height="75.7043"/>
 <rect x="519.969" y="67.7354" width="7.96887" height="59.7665"/>
 <rect x="575.751" y="67.7354" width="51.7977" height="51.7977"/>
 <rect x="627.549" y="67.7354" width="115.549" height="27.8911"/>
 <rect x="512" y="71.7198" width="3.98444" height="51.7977"/>
 <rect x="515.984" y="75.7043" width="11.9533" height="43.8288"/>
 <rect x="1002.09" y="75.7043" width="7.96887" height="35.8599"/>
 <rect x="543.875" y="79.6887" width="199.222" height="11.9533"/>
 <rect x="926.381" y="79.6887" width="75.7042" height="35.8599"/>
 <rect x="547.86" y="91.642" width="7.96887" height="3.98444"/>
 <rect x="551.844" y="95.6265" width="3.98444" height="27.8911"/>
 <rect x="639.502" y="95.6265" width="3.98444" height="51.7977"/>
 <rect x="643.486" y="95.6265" width="103.595" height="3.98444"/>
 <rect x="268.949" y="99.6109" width="3.98444" height="11.9533"/>
 <rect x="679.346" y="99.6109" width="3.98444" height="75.7043"/>
 <rect x="691.3" y="99.6109" width="3.98444" height="79.6887"/>
 <rect x="707.237" y="99.6109" width="39.8444" height="79.6887"/>
 <rect x="272.934" y="103.595" width="3.98444" height="15.9377"/>
 <rect x="555.829" y="103.595" width="3.98444" height="19.9222"/>
 <rect x="643.486" y="103.595" width="51.7977" height="43.8288"/>
 <rect x="543.875" y="107.58" width="15.9377" height="15.9377"/>
 <rect x="276.918" y="111.564" width="3.98444" height="282.895"/>
 <rect x="563.798" y="111.564" width="23.9066" height="11.9533"/>
 <rect x="627.549" y="111.564" width="67.7354" height="27.8911"/>
 <rect x="559.813" y="115.549" width="27.8911" height="7.96887"/>
 <rect x="695.284" y="115.549" width="51.7977" height="63.751"/>
 <rect x="818.802" y="115.549" width="7.96887" height="67.7354"/>
 <rect x="280.903" y="119.533" width="3.98444" height="274.926"/>
 <rect x="595.673" y="119.533" width="151.409" height="3.98444"/>
 <rect x="826.77" y="119.533" width="3.9845" height="63.751"/>
 <rect x="284.887" y="123.518" width="3.98444" height="266.957"/>
 <rect x="292.856" y="123.518" width="23.9066" height="119.533"/>
 <rect x="603.642" y="123.518" width="3.98444" height="3.98444"/>
 <rect x="615.595" y="123.518" width="131.486" height="3.98444"/>
 <rect x="854.661" y="123.518" width="23.9066" height="19.9222"/>
 <rect x="288.872" y="127.502" width="27.8911" height="115.549"/>
 <rect x="512" y="127.502" width="11.9533" height="67.7354"/>
 <rect x="619.58" y="127.502" width="258.988" height="3.98444"/>
 <rect x="272.934" y="131.486" width="63.751" height="111.564"/>
 <rect x="336.685" y="131.486" width="191.253" height="11.9533"/>
 <rect x="623.564" y="131.486" width="255.004" height="7.96887"/>
 <rect x="260.981" y="135.471" width="75.7043" height="107.58"/>
 <rect x="527.938" y="135.471" width="3.98444" height="75.7043"/>
 <rect x="245.043" y="139.455" width="91.642" height="103.595"/>
 <rect x="531.922" y="139.455" width="59.7665" height="51.7977"/>
 <rect x="631.533" y="139.455" width="247.035" height="3.98444"/>
 <rect x="1002.09" y="139.455" width="7.96887" height="43.8288"/>
 <rect x="237.074" y="143.44" width="99.6109" height="99.6109"/>
 <rect x="344.654" y="143.44" width="47.8132" height="71.7198"/>
 <rect x="396.451" y="143.44" width="51.7977" height="71.7198"/>
 <rect x="456.218" y="143.44" width="47.8132" height="47.8132"/>
 <rect x="508.016" y="143.44" width="91.642" height="47.8132"/>
 <rect x="747.082" y="143.44" width="35.8599" height="35.8599"/>
 <rect x="794.895" y="143.44" width="11.9534" height="31.8755"/>
 <rect x="806.848" y="143.44" width="43.8287" height="11.9533"/>
 <rect x="862.63" y="143.44" width="23.9066" height="39.8444"/>
 <rect x="922.397" y="143.44" width="87.6576" height="39.8444"/>
 <rect x="229.105" y="147.424" width="107.58" height="51.7977"/>
 <rect x="340.669" y="147.424" width="51.7977" height="67.7354"/>
 <rect x="452.233" y="147.424" width="51.7977" height="43.8288"/>
 <rect x="599.658" y="147.424" width="7.96887" height="55.7821"/>
 <rect x="647.471" y="147.424" width="135.471" height="3.98444"/>
 <rect x="221.136" y="151.409" width="270.942" height="43.8288"/>
 <rect x="504.031" y="151.409" width="47.8132" height="43.8288"/>
 <rect x="607.626" y="151.409" width="3.98444" height="51.7977"/>
 <rect x="683.331" y="151.409" width="103.595" height="23.9066"/>
 <rect x="217.152" y="155.393" width="394.459" height="31.8755"/>
 <rect x="786.926" y="155.393" width="19.9222" height="19.9222"/>
 <rect x="814.817" y="155.393" width="15.9377" height="23.9066"/>
 <rect x="838.724" y="155.393" width="47.8132" height="27.8911"/>
 <rect x="209.183" y="159.377" width="406.412" height="27.8911"/>
 <rect x="619.58" y="159.377" width="11.9533" height="51.7977"/>
 <rect x="659.424" y="159.377" width="227.113" height="3.98444"/>
 <rect x="205.198" y="163.362" width="434.303" height="23.9066"/>
 <rect x="667.393" y="163.362" width="219.144" height="3.98444"/>
 <rect x="197.23" y="167.346" width="446.257" height="19.9222"/>
 <rect x="671.377" y="167.346" width="215.16" height="3.98444"/>
 <rect x="643.486" y="171.331" width="3.98444" height="67.7354"/>
 <rect x="675.362" y="171.331" width="211.175" height="3.98444"/>
 <rect x="647.471" y="175.315" width="3.98444" height="63.751"/>
 <rect x="782.942" y="175.315" width="3.98438" height="3.98444"/>
 <rect x="830.755" y="175.315" width="55.7821" height="7.96887"/>
 <rect x="651.455" y="179.3" width="3.98444" height="59.7665"/>
 <rect x="711.222" y="179.3" width="39.8444" height="3.98444"/>
 <rect x="655.44" y="183.284" width="3.98444" height="51.7977"/>
 <rect x="715.206" y="183.284" width="31.8755" height="3.98444"/>
 <rect x="930.366" y="183.284" width="59.7666" height="63.751"/>
 <rect x="197.23" y="187.268" width="15.9377" height="171.331"/>
 <rect x="611.611" y="187.268" width="55.7821" height="15.9377"/>
 <rect x="719.191" y="187.268" width="23.9066" height="223.128"/>
 <rect x="213.167" y="191.253" width="3.98444" height="11.9533"/>
 <rect x="217.152" y="191.253" width="274.926" height="3.98444"/>
 <rect x="496.062" y="191.253" width="3.98444" height="19.9222"/>
 <rect x="500.047" y="191.253" width="51.7977" height="3.98444"/>
 <rect x="571.767" y="191.253" width="95.6265" height="3.98444"/>
 <rect x="743.097" y="191.253" width="3.98444" height="187.268"/>
 <rect x="225.121" y="195.237" width="262.973" height="3.98444"/>
 <rect x="492.078" y="195.237" width="7.96887" height="7.96887"/>
 <rect x="504.031" y="195.237" width="7.96887" height="3.98444"/>
 <rect x="515.984" y="195.237" width="35.8599" height="3.98444"/>
 <rect x="579.735" y="195.237" width="15.9377" height="3.98444"/>
 <rect x="667.393" y="195.237" width="3.98444" height="99.6109"/>
 <rect x="747.082" y="195.237" width="3.98444" height="183.284"/>
 <rect x="233.09" y="199.222" width="255.004" height="3.98444"/>
 <rect x="500.047" y="199.222" width="3.98444" height="15.9377"/>
 <rect x="512" y="199.222" width="3.98444" height="103.595"/>
 <rect x="519.969" y="199.222" width="31.8755" height="3.98444"/>
 <rect x="583.72" y="199.222" width="11.9533" height="3.98444"/>
 <rect x="671.377" y="199.222" width="3.98444" height="537.899"/>
 <rect x="715.206" y="199.222" width="39.8444" height="167.346"/>
 <rect x="336.685" y="203.206" width="39.8444" height="39.8444"/>
 <rect x="392.467" y="203.206" width="95.6265" height="11.9533"/>
 <rect x="488.093" y="203.206" width="3.98444" height="7.96887"/>
 <rect x="504.031" y="203.206" width="11.9533" height="19.9222"/>
 <rect x="523.953" y="203.206" width="51.7977" height="3.98444"/>
 <rect x="631.533" y="203.206" width="47.8132" height="31.8755"/>
 <rect x="711.222" y="203.206" width="43.8288" height="163.362"/>
 <rect x="818.802" y="203.206" width="63.751" height="163.362"/>
 <rect x="181.292" y="207.191" width="11.9533" height="27.8911"/>
 <rect x="233.09" y="207.191" width="59.7665" height="67.7354"/>
 <rect x="492.078" y="207.191" width="27.8911" height="3.98444"/>
 <rect x="531.922" y="207.191" width="43.8288" height="3.98444"/>
 <rect x="679.346" y="207.191" width="3.98444" height="529.93"/>
 <rect x="707.237" y="207.191" width="51.7977" height="159.377"/>
 <rect x="814.817" y="207.191" width="67.7354" height="159.377"/>
 <rect x="1002.09" y="207.191" width="7.96887" height="7.96887"/>
 <rect x="193.245" y="211.175" width="19.9222" height="143.44"/>
 <rect x="515.984" y="211.175" width="7.96887" height="23.9066"/>
 <rect x="627.549" y="211.175" width="55.7821" height="3.98444"/>
 <rect x="695.284" y="211.175" width="195.237" height="135.471"/>
 <rect x="918.412" y="211.175" width="55.7821" height="95.6265"/>
 <rect x="404.42" y="215.16" width="19.9222" height="11.9533"/>
 <rect x="492.078" y="215.16" width="7.96887" height="31.8755"/>
 <rect x="213.167" y="219.144" width="11.9533" height="143.44"/>
 <rect x="229.105" y="219.144" width="59.7665" height="159.377"/>
 <rect x="480.125" y="219.144" width="19.9222" height="27.8911"/>
 <rect x="523.953" y="219.144" width="3.98444" height="3.98444"/>
 <rect x="890.521" y="219.144" width="83.6732" height="87.6576"/>
 <rect x="225.121" y="223.128" width="63.7509" height="147.424"/>
 <rect x="376.529" y="223.128" width="11.9533" height="23.9066"/>
 <rect x="388.482" y="223.128" width="35.8599" height="3.98444"/>
 <rect x="476.14" y="223.128" width="27.8911" height="23.9066"/>
 <rect x="508.016" y="223.128" width="15.9377" height="7.96887"/>
 <rect x="683.331" y="223.128" width="274.926" height="123.518"/>
 <rect x="990.132" y="223.128" width="3.98438" height="7.96887"/>
 <rect x="504.031" y="231.097" width="3.98444" height="15.9377"/>
 <rect x="627.549" y="231.097" width="27.8911" height="7.96887"/>
 <rect x="185.276" y="235.082" width="103.595" height="119.533"/>
 <rect x="508.016" y="235.082" width="7.96887" height="63.751"/>
 <rect x="519.969" y="235.082" width="7.96887" height="51.7977"/>
 <rect x="659.424" y="235.082" width="314.77" height="59.7665"/>
 <rect x="177.307" y="239.066" width="111.564" height="91.642"/>
 <rect x="515.984" y="239.066" width="11.9533" height="47.8132"/>
 <rect x="173.323" y="243.051" width="115.549" height="79.6887"/>
 <rect x="292.856" y="243.051" width="7.96887" height="11.9533"/>
 <rect x="300.825" y="243.051" width="3.98444" height="3.98444"/>
 <rect x="308.794" y="243.051" width="35.8599" height="3.98444"/>
 <rect x="364.576" y="243.051" width="23.9066" height="3.98444"/>
 <rect x="169.339" y="247.035" width="119.533" height="75.7043"/>
 <rect x="320.747" y="247.035" width="23.9066" height="3.98444"/>
 <rect x="165.354" y="251.019" width="123.517" height="71.7198"/>
 <rect x="161.37" y="255.004" width="127.502" height="67.7354"/>
 <rect x="292.856" y="255.004" width="3.98444" height="11.9533"/>
 <rect x="133.479" y="262.973" width="155.393" height="39.8444"/>
 <rect x="651.455" y="274.926" width="322.739" height="11.9533"/>
 <rect x="643.486" y="278.911" width="330.708" height="7.96887"/>
 <rect x="37.8521" y="286.879" width="7.96887" height="11.9533"/>
 <rect x="45.821" y="286.879" width="243.051" height="3.98444"/>
 <rect x="523.953" y="286.879" width="3.98444" height="7.96887"/>
 <rect x="643.486" y="286.879" width="3.98444" height="426.335"/>
 <rect x="49.8055" y="290.864" width="251.019" height="3.98444"/>
 <rect x="320.747" y="290.864" width="7.96887" height="131.486"/>
 <rect x="53.7899" y="294.848" width="255.004" height="7.96887"/>
 <rect x="659.424" y="294.848" width="7.96887" height="434.303"/>
 <rect x="675.362" y="294.848" width="75.7043" height="83.6732"/>
 <rect x="49.8055" y="298.833" width="278.91" height="3.98444"/>
 <rect x="515.984" y="298.833" width="3.98444" height="3.98444"/>
 <rect x="974.195" y="298.833" width="15.9377" height="7.96887"/>
 <rect x="61.7588" y="302.817" width="71.7198" height="3.98444"/>
 <rect x="145.432" y="302.817" width="207.191" height="3.98444"/>
 <rect x="93.6342" y="306.802" width="15.9377" height="7.96887"/>
 <rect x="117.541" y="306.802" width="3.98444" height="3.98444"/>
 <rect x="149.416" y="306.802" width="195.237" height="11.9533"/>
 <rect x="344.654" y="306.802" width="7.96887" height="7.96887"/>
 <rect x="667.393" y="306.802" width="75.7043" height="103.595"/>
 <rect x="958.257" y="306.802" width="11.9532" height="19.9222"/>
 <rect x="352.623" y="310.786" width="11.9533" height="3.98444"/>
 <rect x="372.545" y="314.77" width="3.98444" height="127.502"/>
 <rect x="388.482" y="314.77" width="59.7665" height="11.9533"/>
 <rect x="464.187" y="314.77" width="11.9533" height="27.8911"/>
 <rect x="647.471" y="314.77" width="95.6265" height="95.6264"/>
 <rect x="288.872" y="318.755" width="63.751" height="67.7354"/>
 <rect x="352.623" y="318.755" width="3.98444" height="23.9066"/>
 <rect x="368.56" y="318.755" width="7.96887" height="119.533"/>
 <rect x="376.529" y="318.755" width="99.6109" height="7.96887"/>
 <rect x="488.093" y="318.755" width="3.98444" height="155.393"/>
 <rect x="161.37" y="322.739" width="11.9533" height="3.98444"/>
 <rect x="364.576" y="322.739" width="11.9533" height="23.9066"/>
 <rect x="492.078" y="322.739" width="3.98444" height="155.393"/>
 <rect x="165.354" y="326.724" width="11.9533" height="15.9377"/>
 <rect x="356.607" y="326.724" width="19.9222" height="15.9377"/>
 <rect x="404.42" y="326.724" width="19.9222" height="19.9222"/>
 <rect x="424.342" y="326.724" width="75.7043" height="15.9377"/>
 <rect x="627.549" y="326.724" width="95.6265" height="95.6264"/>
 <rect x="181.292" y="330.708" width="171.331" height="19.9222"/>
 <rect x="500.047" y="330.708" width="7.96887" height="127.502"/>
 <rect x="958.257" y="330.708" width="19.9221" height="143.44"/>
 <rect x="177.307" y="334.693" width="175.315" height="15.9377"/>
 <rect x="376.529" y="334.693" width="15.9377" height="111.564"/>
 <rect x="400.436" y="334.693" width="11.9533" height="119.533"/>
 <rect x="508.016" y="334.693" width="3.98444" height="119.533"/>
 <rect x="519.969" y="334.693" width="7.96887" height="111.564"/>
 <rect x="392.467" y="338.677" width="19.9222" height="111.564"/>
 <rect x="512" y="338.677" width="15.9377" height="107.58"/>
 <rect x="169.339" y="342.661" width="183.284" height="3.98444"/>
 <rect x="360.591" y="342.661" width="63.751" height="3.98444"/>
 <rect x="436.296" y="342.661" width="35.8599" height="3.98444"/>
 <rect x="484.109" y="342.661" width="43.8288" height="103.595"/>
 <rect x="173.323" y="346.646" width="179.3" height="3.98444"/>
 <rect x="440.28" y="346.646" width="31.8755" height="115.549"/>
 <rect x="759.035" y="346.646" width="7.96887" height="19.9222"/>
 <rect x="802.864" y="346.646" width="175.315" height="19.9222"/>
 <rect x="352.623" y="350.63" width="3.98444" height="87.6576"/>
 <rect x="412.389" y="350.63" width="3.98444" height="107.58"/>
 <rect x="420.358" y="350.63" width="3.98444" height="107.58"/>
 <rect x="436.296" y="350.63" width="35.8599" height="111.564"/>
 <rect x="356.607" y="354.615" width="3.98444" height="83.6731"/>
 <rect x="364.576" y="354.615" width="107.58" height="83.6731"/>
 <rect x="209.183" y="358.599" width="151.409" height="3.98444"/>
 <rect x="472.156" y="358.599" width="75.7043" height="79.6887"/>
 <rect x="547.86" y="358.599" width="19.9222" height="75.7043"/>
 <rect x="587.704" y="358.599" width="7.96887" height="95.6264"/>
 <rect x="603.642" y="358.599" width="115.549" height="115.549"/>
 <rect x="360.591" y="362.584" width="187.268" height="75.7043"/>
 <rect x="579.735" y="366.568" width="139.455" height="87.6576"/>
 <rect x="850.677" y="366.568" width="39.8444" height="51.7976"/>
 <rect x="890.521" y="366.568" width="55.7821" height="15.9377"/>
 <rect x="946.303" y="366.568" width="31.8755" height="11.9533"/>
 <rect x="567.782" y="370.553" width="151.409" height="83.6731"/>
 <rect x="233.09" y="378.521" width="510.008" height="3.98444"/>
 <rect x="237.074" y="382.506" width="51.7976" height="7.96884"/>
 <rect x="898.49" y="382.506" width="51.7977" height="143.44"/>
 <rect x="296.84" y="386.49" width="446.257" height="3.98444"/>
 <rect x="241.058" y="390.475" width="43.8288" height="3.98444"/>
 <rect x="300.825" y="390.475" width="442.272" height="7.96887"/>
 <rect x="890.521" y="390.475" width="87.6576" height="83.6732"/>
 <rect x="304.809" y="398.444" width="438.288" height="11.9533"/>
 <rect x="743.097" y="406.412" width="7.96887" height="7.96887"/>
 <rect x="308.794" y="410.397" width="422.35" height="3.98444"/>
 <rect x="735.128" y="410.397" width="15.9377" height="3.98444"/>
 <rect x="316.763" y="414.381" width="410.397" height="3.98444"/>
 <rect x="328.716" y="418.366" width="390.475" height="7.96887"/>
 <rect x="862.63" y="418.366" width="115.549" height="7.96887"/>
 <rect x="850.677" y="422.35" width="127.502" height="3.98444"/>
 <rect x="332.7" y="426.335" width="386.49" height="3.98444"/>
 <rect x="866.615" y="426.335" width="103.595" height="51.7977"/>
 <rect x="340.669" y="430.319" width="382.506" height="3.98444"/>
 <rect x="555.829" y="434.303" width="175.315" height="7.96887"/>
 <rect x="416.374" y="438.288" width="91.642" height="19.9222"/>
 <rect x="527.938" y="438.288" width="3.98444" height="7.96887"/>
 <rect x="531.922" y="438.288" width="7.96887" height="3.98444"/>
 <rect x="731.144" y="438.288" width="3.98444" height="286.879"/>
 <rect x="559.813" y="442.272" width="175.315" height="7.96887"/>
 <rect x="388.482" y="446.257" width="131.486" height="3.98444"/>
 <rect x="396.451" y="450.241" width="115.549" height="3.98444"/>
 <rect x="563.798" y="450.241" width="171.331" height="3.98444"/>
 <rect x="408.405" y="454.226" width="99.6109" height="3.98444"/>
 <rect x="567.782" y="454.226" width="7.96887" height="3.98444"/>
 <rect x="591.689" y="454.226" width="143.44" height="7.96887"/>
 <rect x="428.327" y="458.21" width="75.7043" height="3.98444"/>
 <rect x="444.265" y="462.195" width="59.7665" height="3.98444"/>
 <rect x="595.673" y="462.195" width="139.455" height="3.98444"/>
 <rect x="862.63" y="462.195" width="23.9066" height="63.7509"/>
 <rect x="456.218" y="466.179" width="51.7977" height="3.98444"/>
 <rect x="599.658" y="466.179" width="135.471" height="3.98444"/>
 <rect x="850.677" y="466.179" width="35.86" height="59.7665"/>
 <rect x="464.187" y="470.163" width="15.9377" height="11.9533"/>
 <rect x="480.125" y="470.163" width="7.96887" height="7.96887"/>
 <rect x="496.062" y="470.163" width="15.9377" height="7.96887"/>
 <rect x="719.191" y="470.163" width="15.9377" height="247.035"/>
 <rect x="607.626" y="474.148" width="127.502" height="3.98444"/>
 <rect x="615.595" y="478.132" width="119.533" height="3.98444"/>
 <rect x="890.521" y="478.132" width="79.6887" height="3.98444"/>
 <rect x="464.187" y="482.117" width="7.96887" height="3.98444"/>
 <rect x="619.58" y="482.117" width="115.549" height="7.96887"/>
 <rect x="894.506" y="482.117" width="75.7042" height="7.96887"/>
 <rect x="970.21" y="486.101" width="3.9845" height="11.9533"/>
 <rect x="623.564" y="490.086" width="111.564" height="15.9377"/>
 <rect x="950.288" y="490.086" width="15.9377" height="31.8755"/>
 <rect x="966.226" y="490.086" width="7.96887" height="7.96887"/>
 <rect x="974.195" y="494.07" width="7.96887" height="7.96887"/>
 <rect x="735.128" y="498.054" width="7.96887" height="227.113"/>
 <rect x="982.163" y="498.054" width="3.98438" height="3.98444"/>
 <rect x="990.132" y="498.054" width="19.9221" height="11.9533"/>
 <rect x="894.506" y="502.039" width="67.7354" height="23.9066"/>
 <rect x="974.195" y="502.039" width="3.98438" height="7.96887"/>
 <rect x="627.549" y="506.023" width="67.7354" height="11.9533"/>
 <rect x="695.284" y="506.023" width="47.8132" height="7.96884"/>
 <rect x="886.537" y="506.023" width="75.7042" height="19.9221"/>
 <rect x="966.226" y="510.008" width="7.96887" height="11.9533"/>
 <rect x="994.117" y="510.008" width="15.9377" height="67.7354"/>
 <rect x="699.268" y="513.992" width="43.8288" height="203.206"/>
 <rect x="743.097" y="513.992" width="7.96887" height="27.8911"/>
 <rect x="986.148" y="513.992" width="23.9066" height="55.7821"/>
 <rect x="631.533" y="517.977" width="63.751" height="11.9533"/>
 <rect x="974.195" y="517.977" width="35.8599" height="7.96887"/>
 <rect x="201.214" y="521.961" width="7.96887" height="199.222"/>
 <rect x="695.284" y="521.961" width="47.8132" height="195.237"/>
 <rect x="197.23" y="525.945" width="19.9222" height="195.237"/>
 <rect x="237.074" y="525.945" width="11.9533" height="171.331"/>
 <rect x="850.677" y="525.945" width="19.9222" height="23.9066"/>
 <rect x="185.276" y="529.93" width="67.7354" height="163.362"/>
 <rect x="635.518" y="529.93" width="107.58" height="179.3"/>
 <rect x="165.354" y="533.914" width="87.6576" height="159.377"/>
 <rect x="304.809" y="533.914" width="27.8911" height="386.49"/>
 <rect x="253.012" y="537.899" width="3.98441" height="195.237"/>
 <rect x="276.918" y="537.899" width="71.7198" height="378.521"/>
 <rect x="29.8833" y="541.883" width="7.96887" height="11.9533"/>
 <rect x="161.37" y="541.883" width="207.191" height="7.96887"/>
 <rect x="747.082" y="541.883" width="3.98444" height="3.98444"/>
 <rect x="25.8988" y="545.868" width="43.8288" height="3.98444"/>
 <rect x="368.56" y="545.868" width="15.9377" height="382.506"/>
 <rect x="631.533" y="545.868" width="111.564" height="163.362"/>
 <rect x="37.8521" y="549.852" width="35.8599" height="31.8755"/>
 <rect x="73.7121" y="549.852" width="3.98444" height="7.96887"/>
 <rect x="256.996" y="549.852" width="135.471" height="191.253"/>
 <rect x="623.564" y="549.852" width="123.518" height="127.502"/>
 <rect x="850.677" y="549.852" width="7.96887" height="3.98444"/>
 <rect x="866.615" y="549.852" width="3.9845" height="7.96887"/>
 <rect x="33.8677" y="553.837" width="39.8444" height="27.8911"/>
 <rect x="392.467" y="553.837" width="3.98444" height="151.409"/>
 <rect x="611.611" y="553.837" width="135.471" height="123.518"/>
 <rect x="121.525" y="557.821" width="19.9222" height="199.222"/>
 <rect x="161.37" y="557.821" width="243.051" height="135.471"/>
 <rect x="599.658" y="557.821" width="151.409" height="119.533"/>
 <rect x="751.066" y="557.821" width="11.9533" height="11.9533"/>
 <rect x="763.019" y="557.821" width="3.98444" height="3.98444"/>
 <rect x="73.7121" y="561.805" width="3.98444" height="294.848"/>
 <rect x="117.541" y="561.805" width="306.802" height="131.486"/>
 <rect x="583.72" y="561.805" width="175.315" height="15.9377"/>
 <rect x="29.8833" y="565.79" width="63.751" height="15.9377"/>
 <rect x="93.6342" y="569.774" width="15.9377" height="163.362"/>
 <rect x="990.132" y="569.774" width="19.9221" height="3.98444"/>
 <rect x="109.572" y="573.759" width="314.77" height="119.533"/>
 <rect x="587.704" y="577.743" width="163.362" height="99.6109"/>
 <rect x="751.066" y="577.743" width="3.98444" height="7.96887"/>
 <rect x="1002.09" y="577.743" width="19.9222" height="3.98444"/>
 <rect x="29.8833" y="581.728" width="3.98444" height="7.96887"/>
 <rect x="33.8677" y="581.728" width="3.98444" height="3.98444"/>
 <rect x="53.7899" y="581.728" width="370.553" height="3.98444"/>
 <rect x="1006.07" y="581.728" width="15.9377" height="3.98444"/>
 <rect x="25.8988" y="585.712" width="7.96887" height="3.98444"/>
 <rect x="57.7743" y="585.712" width="167.346" height="127.502"/>
 <rect x="527.938" y="585.712" width="7.96887" height="91.642"/>
 <rect x="1010.05" y="585.712" width="11.9534" height="3.98444"/>
 <rect x="424.342" y="589.696" width="3.98444" height="111.564"/>
 <rect x="515.984" y="589.696" width="19.9222" height="87.6576"/>
 <rect x="551.844" y="589.696" width="199.222" height="87.6576"/>
 <rect x="1014.04" y="589.696" width="7.96887" height="7.96887"/>
 <rect x="53.7899" y="593.681" width="119.533" height="135.471"/>
 <rect x="512" y="593.681" width="239.066" height="83.6732"/>
 <rect x="428.327" y="597.665" width="3.98444" height="103.595"/>
 <rect x="480.125" y="597.665" width="11.9533" height="103.595"/>
 <rect x="755.051" y="597.665" width="3.98444" height="119.533"/>
 <rect x="763.019" y="597.665" width="3.98444" height="119.533"/>
 <rect x="49.8055" y="601.65" width="123.518" height="127.502"/>
 <rect x="432.311" y="601.65" width="3.98444" height="99.6109"/>
 <rect x="472.156" y="601.65" width="23.9066" height="75.7043"/>
 <rect x="751.066" y="601.65" width="19.9221" height="111.564"/>
 <rect x="436.296" y="605.634" width="3.98444" height="95.6265"/>
 <rect x="464.187" y="605.634" width="314.77" height="71.7198"/>
 <rect x="440.28" y="609.619" width="342.661" height="67.7354"/>
 <rect x="45.821" y="613.603" width="123.518" height="119.533"/>
 <rect x="782.942" y="613.603" width="3.98438" height="119.533"/>
 <rect x="33.8677" y="617.588" width="761.027" height="39.8444"/>
 <rect x="25.8988" y="621.572" width="772.981" height="3.98444"/>
 <rect x="29.8833" y="625.556" width="765.012" height="27.8911"/>
 <rect x="794.895" y="625.556" width="11.9534" height="3.98444"/>
 <rect x="802.864" y="629.541" width="3.9845" height="3.98444"/>
 <rect x="794.895" y="637.51" width="3.9845" height="191.253"/>
 <rect x="798.879" y="641.494" width="3.98438" height="187.268"/>
 <rect x="802.864" y="649.463" width="3.9845" height="15.9377"/>
 <rect x="806.848" y="649.463" width="3.98438" height="3.98444"/>
 <rect x="37.8521" y="657.432" width="768.996" height="3.98444"/>
 <rect x="41.8366" y="661.416" width="127.502" height="71.7198"/>
 <rect x="786.926" y="661.416" width="15.9377" height="75.7043"/>
 <rect x="802.864" y="673.37" width="3.9845" height="159.377"/>
 <rect x="440.28" y="677.354" width="23.9066" height="23.9066"/>
 <rect x="464.187" y="677.354" width="3.98444" height="3.98444"/>
 <rect x="476.14" y="677.354" width="47.8132" height="23.9066"/>
 <rect x="531.922" y="677.354" width="87.6576" height="35.8599"/>
 <rect x="627.549" y="677.354" width="179.3" height="31.8755"/>
 <rect x="806.848" y="681.339" width="3.98438" height="155.393"/>
 <rect x="37.8521" y="685.323" width="187.268" height="27.8911"/>
 <rect x="464.187" y="685.323" width="3.98444" height="15.9377"/>
 <rect x="523.953" y="685.323" width="290.864" height="19.9222"/>
 <rect x="878.568" y="685.323" width="23.9066" height="91.642"/>
 <rect x="29.8833" y="689.307" width="195.237" height="19.9222"/>
 <rect x="468.171" y="689.307" width="350.63" height="11.9533"/>
 <rect x="902.475" y="689.307" width="3.98438" height="95.6265"/>
 <rect x="233.09" y="693.292" width="171.331" height="3.98444"/>
 <rect x="408.405" y="693.292" width="414.381" height="3.98444"/>
 <rect x="874.584" y="693.292" width="35.86" height="83.6732"/>
 <rect x="241.058" y="697.276" width="151.409" height="31.8755"/>
 <rect x="396.451" y="697.276" width="3.98444" height="3.98444"/>
 <rect x="412.389" y="697.276" width="3.98444" height="3.98444"/>
 <rect x="420.358" y="697.276" width="3.98444" height="7.96887"/>
 <rect x="818.802" y="697.276" width="7.96887" height="139.455"/>
 <rect x="866.615" y="697.276" width="47.8132" height="79.6887"/>
 <rect x="225.121" y="701.261" width="3.98444" height="31.8755"/>
 <rect x="237.074" y="701.261" width="155.393" height="27.8911"/>
 <rect x="814.817" y="701.261" width="23.9066" height="135.471"/>
 <rect x="854.661" y="701.261" width="63.751" height="75.7043"/>
 <rect x="527.938" y="705.245" width="394.459" height="3.98444"/>
 <rect x="33.8677" y="709.23" width="195.237" height="3.98444"/>
 <rect x="619.58" y="709.23" width="7.96887" height="7.96887"/>
 <rect x="639.502" y="709.23" width="282.895" height="3.98444"/>
 <rect x="193.245" y="713.214" width="203.206" height="3.98444"/>
 <rect x="535.907" y="713.214" width="35.8599" height="3.98444"/>
 <rect x="587.704" y="713.214" width="27.8911" height="15.9377"/>
 <rect x="615.595" y="713.214" width="7.96887" height="7.96887"/>
 <rect x="647.471" y="713.214" width="111.564" height="3.98444"/>
 <rect x="767.004" y="713.214" width="155.393" height="7.96887"/>
 <rect x="922.397" y="713.214" width="3.9845" height="3.98444"/>
 <rect x="217.152" y="717.198" width="15.9377" height="15.9377"/>
 <rect x="233.09" y="717.198" width="167.346" height="11.9533"/>
 <rect x="539.891" y="717.198" width="19.9222" height="3.98444"/>
 <rect x="651.455" y="717.198" width="63.751" height="3.98444"/>
 <rect x="723.175" y="717.198" width="31.8755" height="3.98444"/>
 <rect x="205.198" y="721.183" width="195.237" height="7.96887"/>
 <rect x="400.436" y="721.183" width="3.98444" height="3.98444"/>
 <rect x="615.595" y="721.183" width="3.98444" height="3.98444"/>
 <rect x="655.44" y="721.183" width="59.7665" height="3.98444"/>
 <rect x="774.973" y="721.183" width="147.424" height="3.98444"/>
 <rect x="930.366" y="721.183" width="3.9845" height="135.471"/>
 <rect x="37.8521" y="725.167" width="39.8444" height="131.486"/>
 <rect x="173.323" y="725.167" width="3.98444" height="3.98444"/>
 <rect x="667.393" y="725.167" width="51.7977" height="7.96887"/>
 <rect x="778.957" y="725.167" width="163.362" height="3.98444"/>
 <rect x="205.198" y="729.152" width="3.98444" height="3.98444"/>
 <rect x="392.467" y="729.152" width="7.96887" height="59.7665"/>
 <rect x="591.689" y="729.152" width="15.9377" height="11.9533"/>
 <rect x="607.626" y="729.152" width="3.98444" height="7.96887"/>
 <rect x="663.409" y="729.152" width="59.7665" height="3.98444"/>
 <rect x="810.833" y="729.152" width="67.7355" height="107.58"/>
 <rect x="918.412" y="729.152" width="27.891" height="127.502"/>
 <rect x="33.8677" y="733.136" width="43.8288" height="123.518"/>
 <rect x="77.6965" y="733.136" width="7.96887" height="11.9533"/>
 <rect x="109.572" y="733.136" width="43.8288" height="11.9533"/>
 <rect x="153.401" y="733.136" width="7.96887" height="3.98444"/>
 <rect x="221.136" y="733.136" width="3.98444" height="3.98444"/>
 <rect x="675.362" y="733.136" width="47.8132" height="3.98444"/>
 <rect x="946.303" y="733.136" width="3.9845" height="7.96887"/>
 <rect x="691.3" y="737.121" width="27.8911" height="3.98444"/>
 <rect x="790.911" y="737.121" width="155.393" height="11.9533"/>
 <rect x="950.288" y="737.121" width="3.98438" height="3.98444"/>
 <rect x="260.981" y="741.105" width="139.455" height="7.96887"/>
 <rect x="595.673" y="741.105" width="3.98444" height="7.96887"/>
 <rect x="599.658" y="741.105" width="3.98444" height="3.98444"/>
 <rect x="695.284" y="741.105" width="23.9066" height="3.98444"/>
 <rect x="29.8833" y="745.089" width="47.8132" height="63.751"/>
 <rect x="117.541" y="745.089" width="31.8755" height="3.98444"/>
 <rect x="703.253" y="745.089" width="11.9533" height="3.98444"/>
 <rect x="958.257" y="745.089" width="11.9532" height="67.7354"/>
 <rect x="141.447" y="749.074" width="7.96887" height="3.98444"/>
 <rect x="268.949" y="749.074" width="123.518" height="47.8132"/>
 <rect x="946.303" y="749.074" width="27.8911" height="59.7665"/>
 <rect x="974.195" y="753.058" width="3.98438" height="51.7977"/>
 <rect x="121.525" y="757.043" width="11.9533" height="3.98444"/>
 <rect x="978.179" y="757.043" width="3.9845" height="51.7977"/>
 <rect x="982.163" y="761.027" width="3.98438" height="43.8288"/>
 <rect x="986.148" y="765.012" width="7.96887" height="31.8755"/>
 <rect x="994.117" y="768.996" width="3.9845" height="23.9066"/>
 <rect x="790.911" y="772.981" width="87.6576" height="51.7977"/>
 <rect x="998.101" y="772.981" width="3.98438" height="15.9377"/>
 <rect x="878.568" y="776.965" width="7.96887" height="7.96887"/>
 <rect x="886.537" y="776.965" width="3.98438" height="3.98444"/>
 <rect x="894.506" y="776.965" width="111.564" height="3.98444"/>
 <rect x="898.49" y="780.949" width="107.58" height="3.98444"/>
 <rect x="786.926" y="784.934" width="91.6421" height="35.8599"/>
 <rect x="878.568" y="784.934" width="3.98438" height="7.96887"/>
 <rect x="906.459" y="784.934" width="51.7977" height="71.7198"/>
 <rect x="782.942" y="788.918" width="95.6265" height="27.8911"/>
 <rect x="392.467" y="792.903" width="3.98444" height="143.44"/>
 <rect x="778.957" y="792.903" width="99.611" height="19.9222"/>
 <rect x="902.475" y="792.903" width="55.7821" height="63.751"/>
 <rect x="25.8988" y="796.887" width="59.7665" height="11.9533"/>
 <rect x="348.638" y="796.887" width="51.7977" height="123.518"/>
 <rect x="774.973" y="796.887" width="107.58" height="11.9533"/>
 <rect x="986.148" y="796.887" width="3.9845" height="3.98444"/>
 <rect x="555.829" y="800.872" width="35.8599" height="111.564"/>
 <rect x="882.552" y="800.872" width="3.9845" height="99.6109"/>
 <rect x="898.49" y="800.872" width="59.7666" height="55.7821"/>
 <rect x="591.689" y="804.856" width="7.96887" height="107.58"/>
 <rect x="886.537" y="804.856" width="71.7198" height="51.7977"/>
 <rect x="599.658" y="808.84" width="3.98444" height="111.564"/>
 <rect x="878.568" y="808.84" width="51.7976" height="51.7977"/>
 <rect x="268.949" y="812.825" width="131.486" height="31.8755"/>
 <rect x="551.844" y="812.825" width="55.7821" height="23.9066"/>
 <rect x="958.257" y="812.825" width="3.98438" height="11.9533"/>
 <rect x="962.241" y="812.825" width="3.9845" height="3.98444"/>
 <rect x="547.86" y="816.809" width="59.7665" height="15.9377"/>
 <rect x="607.626" y="820.794" width="11.9533" height="107.58"/>
 <rect x="619.58" y="824.778" width="3.98444" height="111.564"/>
 <rect x="400.436" y="828.763" width="3.98444" height="107.58"/>
 <rect x="623.564" y="828.763" width="3.98444" height="107.58"/>
 <rect x="958.257" y="828.763" width="3.98438" height="31.8755"/>
 <rect x="404.42" y="832.747" width="3.98444" height="99.6109"/>
 <rect x="535.907" y="832.747" width="3.98444" height="95.6265"/>
 <rect x="627.549" y="832.747" width="3.98444" height="23.9066"/>
 <rect x="25.8988" y="836.732" width="59.7665" height="19.9222"/>
 <rect x="408.405" y="836.732" width="3.98444" height="95.6265"/>
 <rect x="539.891" y="836.732" width="3.98444" height="91.642"/>
 <rect x="603.642" y="836.732" width="23.9066" height="87.6576"/>
 <rect x="631.533" y="836.732" width="3.98444" height="15.9377"/>
 <rect x="810.833" y="836.732" width="7.96887" height="3.98444"/>
 <rect x="826.77" y="836.732" width="143.44" height="11.9533"/>
 <rect x="970.21" y="836.732" width="3.9845" height="7.96887"/>
 <rect x="412.389" y="840.716" width="3.98444" height="91.642"/>
 <rect x="635.518" y="840.716" width="3.98444" height="3.98444"/>
 <rect x="272.934" y="844.7" width="147.424" height="71.7198"/>
 <rect x="543.875" y="844.7" width="83.6732" height="67.7354"/>
 <rect x="420.358" y="848.685" width="107.58" height="63.751"/>
 <rect x="830.755" y="848.685" width="131.486" height="7.96887"/>
 <rect x="962.241" y="848.685" width="3.9845" height="3.98444"/>
 <rect x="268.949" y="852.669" width="71.7198" height="67.7354"/>
 <rect x="527.938" y="852.669" width="99.6109" height="59.7665"/>
 <rect x="834.739" y="856.654" width="95.6265" height="3.98444"/>
 <rect x="942.319" y="856.654" width="19.9221" height="3.98444"/>
 <rect x="627.549" y="860.638" width="3.98444" height="75.7043"/>
 <rect x="842.708" y="860.638" width="3.9845" height="3.98444"/>
 <rect x="858.646" y="860.638" width="59.7666" height="19.9222"/>
 <rect x="918.412" y="860.638" width="3.98438" height="7.96887"/>
 <rect x="922.397" y="860.638" width="3.9845" height="3.98444"/>
 <rect x="946.303" y="860.638" width="11.9534" height="3.98444"/>
 <rect x="950.288" y="864.623" width="3.98438" height="3.98444"/>
 <rect x="854.661" y="868.607" width="63.751" height="7.96887"/>
 <rect x="918.412" y="876.576" width="3.98438" height="3.98444"/>
 <rect x="866.615" y="880.56" width="51.7977" height="3.98444"/>
 <rect x="870.599" y="884.545" width="47.8132" height="3.98444"/>
 <rect x="874.584" y="888.529" width="15.9377" height="3.98444"/>
 <rect x="902.475" y="888.529" width="7.96887" height="7.96887"/>
 <rect x="910.444" y="888.529" width="3.98438" height="3.98444"/>
 <rect x="878.568" y="892.514" width="7.96887" height="3.98444"/>
 <rect x="217.152" y="896.498" width="414.381" height="3.98444"/>
 <rect x="902.475" y="896.498" width="3.98438" height="3.98444"/>
 <rect x="229.105" y="900.482" width="402.428" height="3.98444"/>
 <rect x="253.012" y="904.467" width="67.7354" height="19.9222"/>
 <rect x="420.358" y="912.436" width="31.8755" height="15.9377"/>
 <rect x="452.233" y="912.436" width="7.96887" height="7.96887"/>
 <rect x="460.202" y="912.436" width="3.98444" height="3.98444"/>
 <rect x="492.078" y="912.436" width="75.7043" height="3.98444"/>
 <rect x="595.673" y="912.436" width="35.8599" height="3.98444"/>
 <rect x="416.374" y="916.42" width="35.8599" height="11.9533"/>
 <rect x="496.062" y="916.42" width="3.98444" height="11.9533"/>
 <rect x="512" y="916.42" width="55.7821" height="3.98444"/>
 <rect x="332.7" y="920.405" width="3.98444" height="3.98444"/>
 <rect x="356.607" y="920.405" width="99.6109" height="3.98444"/>
 <rect x="492.078" y="920.405" width="11.9533" height="7.96887"/>
 <rect x="515.984" y="920.405" width="27.8911" height="7.96887"/>
 <rect x="543.875" y="920.405" width="15.9377" height="3.98444"/>
 <rect x="563.798" y="920.405" width="3.98444" height="7.96887"/>
 <rect x="256.996" y="924.389" width="11.9533" height="15.9377"/>
 <rect x="268.949" y="924.389" width="11.9533" height="11.9533"/>
 <rect x="280.903" y="924.389" width="35.8599" height="3.98444"/>
 <rect x="384.498" y="924.389" width="31.8755" height="7.96887"/>
 <rect x="504.031" y="924.389" width="3.98444" height="3.98444"/>
 <rect x="551.844" y="924.389" width="15.9377" height="3.98444"/>
 <rect x="376.529" y="928.374" width="39.8444" height="3.98444"/>
 <rect x="611.611" y="928.374" width="19.9222" height="3.98444"/>
 <rect x="396.451" y="932.358" width="7.96887" height="3.98444"/>
 <rect x="615.595" y="932.358" width="15.9377" height="3.98444"/>
 <rect x="276.918" y="936.342" width="3.98444" height="3.98444"/>
 <rect x="256.996" y="940.327" width="7.96887" height="7.96887"/>
 <rect x="260.981" y="948.296" width="3.98444" height="7.96887"/>
</g><g style="fill:rgb(0,0,0);">
 <rect x="1.99222" y="0" width="95.6265" height="163.362"/>
 <rect x="97.6187" y="0" width="75.7043" height="19.9222"/>
 <rect x="173.323" y="0" width="55.7821" height="7.96887"/>
 <rect x="229.105" y="0" width="346.646" height="3.98444"/>
 <rect x="759.035" y="0" width="262.973" height="3.98444"/>
 <rect x="268.949" y="3.98444" width="223.128" height="3.98444"/>
 <rect x="906.459" y="3.98444" width="11.9534" height="15.9377"/>
 <rect x="1010.05" y="3.98444" width="11.9534" height="7.96887"/>
 <rect x="173.323" y="7.96887" width="3.98444" height="7.96887"/>
 <rect x="304.809" y="7.96887" width="187.268" height="23.9066"/>
 <rect x="1014.04" y="11.9533" width="7.96887" height="7.96887"/>
 <rect x="129.494" y="19.9222" width="47.8132" height="3.98444"/>
 <rect x="906.459" y="19.9222" width="7.96887" height="11.9533"/>
 <rect x="1014.04" y="19.9222" width="7.96887" height="3.98444"/>
 <rect x="133.479" y="23.9066" width="43.8288" height="3.98444"/>
 <rect x="1018.02" y="23.9066" width="3.9845" height="3.98444"/>
 <rect x="137.463" y="27.8911" width="23.9066" height="3.98444"/>
 <rect x="165.354" y="27.8911" width="11.9533" height="67.7354"/>
 <rect x="1018.02" y="27.8911" width="3.9845" height="3.98444"/>
 <rect x="141.447" y="31.8755" width="19.9222" height="3.98444"/>
 <rect x="304.809" y="31.8755" width="11.9533" height="3.98444"/>
 <rect x="906.459" y="31.8755" width="3.9845" height="15.9377"/>
 <rect x="1018.02" y="31.8755" width="3.9845" height="3.98444"/>
 <rect x="145.432" y="35.8599" width="15.9377" height="3.98444"/>
 <rect x="1018.02" y="35.8599" width="3.9845" height="3.98444"/>
 <rect x="149.416" y="39.8444" width="11.9533" height="123.518"/>
 <rect x="579.735" y="59.7665" width="67.7354" height="3.98444"/>
 <rect x="683.331" y="59.7665" width="59.7665" height="3.98444"/>
 <rect x="161.37" y="75.7043" width="15.9377" height="19.9222"/>
 <rect x="304.809" y="75.7043" width="11.9533" height="3.98444"/>
 <rect x="312.778" y="87.6576" width="3.98444" height="7.96887"/>
 <rect x="308.794" y="91.642" width="7.96887" height="3.98444"/>
 <rect x="161.37" y="95.6265" width="11.9533" height="7.96887"/>
 <rect x="288.872" y="95.6265" width="19.9222" height="7.96887"/>
 <rect x="308.794" y="99.6109" width="7.96887" height="19.9222"/>
 <rect x="161.37" y="103.595" width="3.98444" height="23.9066"/>
 <rect x="169.339" y="103.595" width="3.98444" height="3.98444"/>
 <rect x="296.84" y="103.595" width="19.9222" height="3.98444"/>
 <rect x="165.354" y="107.58" width="3.98444" height="55.7821"/>
 <rect x="173.323" y="107.58" width="3.98444" height="3.98444"/>
 <rect x="304.809" y="107.58" width="11.9533" height="11.9533"/>
 <rect x="292.856" y="111.564" width="23.9066" height="7.96887"/>
 <rect x="751.066" y="111.564" width="63.751" height="11.9533"/>
 <rect x="830.755" y="111.564" width="55.7821" height="3.98444"/>
 <rect x="169.339" y="115.549" width="7.96887" height="47.8132"/>
 <rect x="288.872" y="115.549" width="27.8911" height="3.98444"/>
 <rect x="834.739" y="115.549" width="15.9377" height="7.96887"/>
 <rect x="850.677" y="115.549" width="27.8911" height="3.98444"/>
 <rect x="177.307" y="119.533" width="3.98444" height="43.8288"/>
 <rect x="181.292" y="127.502" width="3.98444" height="35.8599"/>
 <rect x="185.276" y="135.471" width="3.98444" height="27.8911"/>
 <rect x="189.261" y="143.44" width="3.98444" height="23.9066"/>
 <rect x="161.37" y="155.393" width="35.8599" height="7.96887"/>
 <rect x="1.99222" y="163.362" width="67.7354" height="59.7665"/>
 <rect x="69.7276" y="163.362" width="11.9533" height="55.7821"/>
 <rect x="181.292" y="167.346" width="3.98444" height="3.98444"/>
 <rect x="802.864" y="179.3" width="7.96887" height="3.98444"/>
 <rect x="699.268" y="183.284" width="7.96887" height="3.98444"/>
 <rect x="751.066" y="187.268" width="3.98444" height="3.98444"/>
 <rect x="711.222" y="191.253" width="3.98444" height="3.98444"/>
 <rect x="759.035" y="199.222" width="3.98444" height="3.98444"/>
 <rect x="763.019" y="203.206" width="11.9533" height="3.98444"/>
 <rect x="786.926" y="203.206" width="19.9222" height="3.98444"/>
 <rect x="595.673" y="207.191" width="19.9222" height="3.98444"/>
 <rect x="81.6809" y="215.16" width="47.8132" height="27.8911"/>
 <rect x="73.7121" y="219.144" width="55.7821" height="23.9066"/>
 <rect x="1.99222" y="223.128" width="31.8755" height="23.9066"/>
 <rect x="33.8677" y="223.128" width="3.98444" height="19.9222"/>
 <rect x="37.8521" y="223.128" width="15.9377" height="3.98444"/>
 <rect x="1002.09" y="227.113" width="7.96887" height="3.98444"/>
 <rect x="69.7276" y="231.097" width="59.7665" height="11.9533"/>
 <rect x="53.7899" y="235.082" width="19.9222" height="15.9377"/>
 <rect x="37.8521" y="239.066" width="3.98444" height="11.9533"/>
 <rect x="41.8366" y="239.066" width="87.6576" height="3.98444"/>
 <rect x="49.8055" y="243.051" width="23.9066" height="7.96887"/>
 <rect x="627.549" y="243.051" width="23.9066" height="19.9222"/>
 <rect x="1.99222" y="247.035" width="7.96887" height="31.8755"/>
 <rect x="25.8988" y="247.035" width="7.96887" height="31.8755"/>
 <rect x="33.8677" y="247.035" width="7.96887" height="3.98444"/>
 <rect x="73.7121" y="247.035" width="19.9222" height="3.98444"/>
 <rect x="627.549" y="262.973" width="15.9377" height="3.98444"/>
 <rect x="647.471" y="262.973" width="3.98444" height="7.96887"/>
 <rect x="639.502" y="266.957" width="7.96887" height="7.96887"/>
 <rect x="651.455" y="266.957" width="3.98444" height="3.98444"/>
 <rect x="324.732" y="278.911" width="3.98444" height="7.96887"/>
 <rect x="29.8833" y="282.895" width="3.98444" height="3.98444"/>
 <rect x="388.482" y="298.833" width="3.98444" height="3.98444"/>
 <rect x="1.99222" y="302.817" width="7.96887" height="47.8132"/>
 <rect x="25.8988" y="302.817" width="7.96887" height="11.9533"/>
 <rect x="519.969" y="302.817" width="7.96887" height="3.98444"/>
 <rect x="523.953" y="306.802" width="3.98444" height="23.9066"/>
 <rect x="25.8988" y="314.77" width="3.98444" height="11.9533"/>
 <rect x="519.969" y="314.77" width="7.96887" height="15.9377"/>
 <rect x="81.6809" y="318.755" width="11.9533" height="139.455"/>
 <rect x="93.6342" y="330.708" width="3.98444" height="127.502"/>
 <rect x="97.6187" y="342.661" width="3.98444" height="115.549"/>
 <rect x="101.603" y="358.599" width="3.98444" height="103.595"/>
 <rect x="29.8833" y="366.568" width="11.9533" height="15.9377"/>
 <rect x="41.8366" y="370.553" width="11.9533" height="11.9533"/>
 <rect x="105.588" y="370.553" width="3.98444" height="91.642"/>
 <rect x="53.7899" y="374.537" width="7.96887" height="7.96887"/>
 <rect x="1.99222" y="378.521" width="7.96887" height="3.98444"/>
 <rect x="25.8988" y="378.521" width="47.8132" height="3.98444"/>
 <rect x="197.23" y="378.521" width="3.98444" height="3.98444"/>
 <rect x="69.7276" y="382.506" width="43.8288" height="27.891"/>
 <rect x="181.292" y="386.49" width="7.96887" height="3.98444"/>
 <rect x="185.276" y="390.475" width="3.98444" height="7.96887"/>
 <rect x="205.198" y="394.459" width="3.98444" height="11.9533"/>
 <rect x="1.99222" y="398.444" width="7.96887" height="143.44"/>
 <rect x="25.8988" y="398.444" width="35.8599" height="55.7821"/>
 <rect x="61.7588" y="398.444" width="55.7821" height="11.9533"/>
 <rect x="189.261" y="398.444" width="3.98444" height="7.96887"/>
 <rect x="245.043" y="398.444" width="31.8755" height="3.98444"/>
 <rect x="209.183" y="402.428" width="3.98444" height="19.9222"/>
 <rect x="249.027" y="402.428" width="23.9066" height="3.98444"/>
 <rect x="77.6965" y="410.397" width="43.8288" height="47.8132"/>
 <rect x="125.51" y="410.397" width="7.96887" height="51.7977"/>
 <rect x="189.261" y="410.397" width="3.98444" height="55.7821"/>
 <rect x="213.167" y="410.397" width="3.98444" height="43.8288"/>
 <rect x="121.525" y="414.381" width="15.9377" height="47.8132"/>
 <rect x="181.292" y="414.381" width="11.9533" height="51.7977"/>
 <rect x="173.323" y="418.366" width="23.9066" height="47.8132"/>
 <rect x="217.152" y="418.366" width="3.98444" height="35.8599"/>
 <rect x="794.895" y="418.366" width="3.9845" height="87.6576"/>
 <rect x="9.96109" y="422.35" width="35.8599" height="51.7977"/>
 <rect x="137.463" y="422.35" width="3.98444" height="47.8132"/>
 <rect x="165.354" y="422.35" width="31.8755" height="43.8288"/>
 <rect x="296.84" y="422.35" width="3.98444" height="15.9377"/>
 <rect x="157.385" y="426.335" width="39.8444" height="39.8444"/>
 <rect x="221.136" y="426.335" width="3.98444" height="23.9066"/>
 <rect x="292.856" y="426.335" width="15.9377" height="11.9533"/>
 <rect x="320.747" y="426.335" width="3.98444" height="3.98444"/>
 <rect x="141.447" y="430.319" width="3.98444" height="39.8444"/>
 <rect x="149.416" y="430.319" width="39.8444" height="39.8444"/>
 <rect x="205.198" y="430.319" width="19.9222" height="19.9222"/>
 <rect x="288.872" y="430.319" width="23.9066" height="3.98444"/>
 <rect x="145.432" y="434.303" width="43.8288" height="35.8599"/>
 <rect x="197.23" y="434.303" width="23.9066" height="19.9222"/>
 <rect x="225.121" y="434.303" width="3.98444" height="15.9377"/>
 <rect x="308.794" y="434.303" width="3.98444" height="7.96887"/>
 <rect x="739.113" y="434.303" width="3.98444" height="3.98444"/>
 <rect x="300.825" y="438.288" width="15.9377" height="3.98444"/>
 <rect x="229.105" y="442.272" width="3.98444" height="3.98444"/>
 <rect x="45.821" y="454.226" width="3.98444" height="3.98444"/>
 <rect x="197.23" y="454.226" width="7.96887" height="7.96887"/>
 <rect x="205.198" y="454.226" width="7.96887" height="3.98444"/>
 <rect x="85.6654" y="458.21" width="3.98444" height="3.98444"/>
 <rect x="109.572" y="458.21" width="95.6265" height="3.98444"/>
 <rect x="133.479" y="462.195" width="63.751" height="3.98444"/>
 <rect x="153.401" y="470.163" width="27.8911" height="3.98444"/>
 <rect x="444.265" y="470.163" width="7.96887" height="27.8911"/>
 <rect x="9.96109" y="474.148" width="23.9066" height="35.8599"/>
 <rect x="33.8677" y="474.148" width="7.96887" height="11.9533"/>
 <rect x="452.233" y="474.148" width="7.96887" height="15.9377"/>
 <rect x="994.117" y="474.148" width="15.9377" height="3.98444"/>
 <rect x="512" y="482.117" width="7.96887" height="11.9533"/>
 <rect x="607.626" y="482.117" width="3.98444" height="11.9533"/>
 <rect x="33.8677" y="486.101" width="3.98444" height="11.9533"/>
 <rect x="519.969" y="486.101" width="3.98444" height="7.96887"/>
 <rect x="611.611" y="486.101" width="3.98444" height="15.9377"/>
 <rect x="452.233" y="490.086" width="3.98444" height="3.98444"/>
 <rect x="440.28" y="494.07" width="7.96887" height="7.96887"/>
 <rect x="615.595" y="494.07" width="3.98444" height="15.9377"/>
 <rect x="221.136" y="502.039" width="7.96887" height="11.9533"/>
 <rect x="229.105" y="502.039" width="3.98444" height="7.96887"/>
 <rect x="300.825" y="502.039" width="3.98444" height="3.98444"/>
 <rect x="440.28" y="502.039" width="3.98444" height="3.98444"/>
 <rect x="213.167" y="506.023" width="7.96887" height="11.9533"/>
 <rect x="233.09" y="506.023" width="3.98444" height="3.98444"/>
 <rect x="296.84" y="506.023" width="3.98444" height="15.9377"/>
 <rect x="9.96109" y="510.008" width="11.9533" height="15.9377"/>
 <rect x="21.9144" y="510.008" width="3.98444" height="7.96884"/>
 <rect x="25.8988" y="510.008" width="3.98444" height="3.98441"/>
 <rect x="209.183" y="510.008" width="11.9533" height="7.96884"/>
 <rect x="619.58" y="510.008" width="3.98444" height="7.96884"/>
 <rect x="292.856" y="513.992" width="7.96887" height="7.96887"/>
 <rect x="288.872" y="517.977" width="11.9533" height="3.98444"/>
 <rect x="623.564" y="521.961" width="3.98444" height="3.98444"/>
 <rect x="9.96109" y="525.945" width="7.96887" height="7.96887"/>
 <rect x="276.918" y="529.93" width="3.98444" height="3.98444"/>
 <rect x="9.96109" y="533.914" width="3.98444" height="3.98444"/>
 <rect x="1.99222" y="541.883" width="3.98444" height="3.98444"/>
 <rect x="623.564" y="541.883" width="3.98444" height="3.98444"/>
 <rect x="615.595" y="545.868" width="3.98444" height="3.98444"/>
 <rect x="603.642" y="549.852" width="3.98444" height="3.98444"/>
 <rect x="922.397" y="553.837" width="11.9534" height="23.9066"/>
 <rect x="778.957" y="557.821" width="3.9845" height="11.9533"/>
 <rect x="782.942" y="557.821" width="51.7976" height="3.98444"/>
 <rect x="806.848" y="561.805" width="27.891" height="3.98444"/>
 <rect x="767.004" y="565.79" width="3.98438" height="3.98444"/>
 <rect x="774.973" y="565.79" width="3.98438" height="7.96887"/>
 <rect x="822.786" y="565.79" width="11.9532" height="3.98444"/>
 <rect x="428.327" y="569.774" width="3.98444" height="15.9377"/>
 <rect x="830.755" y="569.774" width="3.98438" height="31.8755"/>
 <rect x="862.63" y="569.774" width="7.96887" height="3.98444"/>
 <rect x="432.311" y="577.743" width="3.98444" height="7.96887"/>
 <rect x="480.125" y="577.743" width="3.98444" height="11.9533"/>
 <rect x="834.739" y="577.743" width="3.9845" height="23.9066"/>
 <rect x="846.693" y="577.743" width="15.9377" height="19.9222"/>
 <rect x="914.428" y="577.743" width="7.96887" height="11.9533"/>
 <rect x="922.397" y="577.743" width="3.9845" height="7.96887"/>
 <rect x="926.381" y="577.743" width="3.98438" height="3.98444"/>
 <rect x="472.156" y="581.728" width="15.9377" height="7.96887"/>
 <rect x="770.988" y="581.728" width="15.9377" height="7.96887"/>
 <rect x="838.724" y="581.728" width="23.9066" height="15.9377"/>
 <rect x="468.171" y="585.712" width="19.9222" height="3.98444"/>
 <rect x="767.004" y="585.712" width="3.98438" height="7.96887"/>
 <rect x="496.062" y="589.696" width="7.96887" height="7.96887"/>
 <rect x="782.942" y="589.696" width="3.98438" height="3.98444"/>
 <rect x="504.031" y="593.681" width="3.98444" height="7.96887"/>
 <rect x="826.77" y="593.681" width="19.9222" height="7.96887"/>
 <rect x="500.047" y="597.665" width="7.96887" height="3.98444"/>
 <rect x="854.661" y="605.634" width="7.96887" height="19.9222"/>
 <rect x="826.77" y="609.619" width="35.86" height="15.9377"/>
 <rect x="814.817" y="613.603" width="15.9377" height="15.9377"/>
 <rect x="810.833" y="621.572" width="19.9222" height="7.96887"/>
 <rect x="814.817" y="629.541" width="3.98438" height="7.96887"/>
 <rect x="818.802" y="629.541" width="3.9845" height="3.98444"/>
 <rect x="982.163" y="633.525" width="15.9377" height="7.96887"/>
 <rect x="998.101" y="633.525" width="7.96887" height="3.98444"/>
 <rect x="810.833" y="637.51" width="3.9845" height="3.98444"/>
 <rect x="978.179" y="637.51" width="19.9222" height="3.98444"/>
 <rect x="1.99222" y="653.447" width="7.96887" height="27.8911"/>
 <rect x="25.8988" y="657.432" width="3.98444" height="23.9066"/>
 <rect x="29.8833" y="661.416" width="3.98444" height="23.9066"/>
 <rect x="958.257" y="661.416" width="51.7976" height="11.9533"/>
 <rect x="1018.02" y="661.416" width="3.9845" height="3.98444"/>
 <rect x="33.8677" y="665.401" width="3.98444" height="15.9377"/>
 <rect x="954.272" y="665.401" width="67.7355" height="7.96887"/>
 <rect x="962.241" y="673.37" width="59.7666" height="3.98444"/>
 <rect x="966.226" y="677.354" width="55.7821" height="3.98444"/>
 <rect x="970.21" y="681.339" width="51.7977" height="3.98444"/>
 <rect x="974.195" y="685.323" width="47.8132" height="3.98444"/>
 <rect x="978.179" y="689.307" width="43.8289" height="3.98444"/>
 <rect x="986.148" y="693.292" width="35.86" height="3.98444"/>
 <rect x="990.132" y="697.276" width="31.8755" height="3.98444"/>
 <rect x="994.117" y="701.261" width="27.8911" height="3.98444"/>
 <rect x="998.101" y="705.245" width="23.9066" height="3.98444"/>
 <rect x="1002.09" y="709.23" width="19.9222" height="3.98444"/>
 <rect x="1006.07" y="713.214" width="15.9377" height="3.98444"/>
 <rect x="1014.04" y="717.198" width="7.96887" height="3.98444"/>
 <rect x="1018.02" y="721.183" width="3.9845" height="3.98444"/>
 <rect x="727.16" y="725.167" width="3.98444" height="3.98444"/>
 <rect x="237.074" y="733.136" width="11.9533" height="15.9377"/>
 <rect x="229.105" y="737.121" width="23.9066" height="11.9533"/>
 <rect x="225.121" y="741.105" width="27.8911" height="7.96887"/>
 <rect x="253.012" y="745.089" width="3.98441" height="3.98444"/>
 <rect x="452.233" y="753.058" width="83.6732" height="43.8288"/>
 <rect x="587.704" y="753.058" width="3.98444" height="7.96887"/>
 <rect x="591.689" y="753.058" width="3.98444" height="3.98444"/>
 <rect x="695.284" y="753.058" width="7.96887" height="3.98444"/>
 <rect x="707.237" y="757.043" width="3.98444" height="7.96887"/>
 <rect x="711.222" y="761.027" width="3.98444" height="55.7821"/>
 <rect x="1.99222" y="772.981" width="7.96887" height="35.8599"/>
 <rect x="707.237" y="772.981" width="7.96887" height="43.8288"/>
 <rect x="703.253" y="776.965" width="15.9377" height="39.8444"/>
 <rect x="699.268" y="784.934" width="23.9066" height="31.8755"/>
 <rect x="695.284" y="788.918" width="31.8755" height="27.8911"/>
 <rect x="691.3" y="792.903" width="39.8444" height="23.9066"/>
 <rect x="687.315" y="796.887" width="43.8288" height="19.9222"/>
 <rect x="1018.02" y="796.887" width="3.9845" height="3.98444"/>
 <rect x="1014.04" y="800.872" width="7.96887" height="7.96887"/>
 <rect x="683.331" y="804.856" width="47.8132" height="11.9533"/>
 <rect x="1010.05" y="804.856" width="11.9534" height="11.9533"/>
 <rect x="1.99222" y="808.84" width="3.98444" height="15.9377"/>
 <rect x="679.346" y="808.84" width="7.96887" height="11.9533"/>
 <rect x="675.362" y="812.825" width="7.96887" height="11.9533"/>
 <rect x="1006.07" y="812.825" width="15.9377" height="15.9377"/>
 <rect x="161.37" y="816.809" width="7.96887" height="115.549"/>
 <rect x="671.377" y="816.809" width="7.96887" height="11.9533"/>
 <rect x="1002.09" y="816.809" width="19.9222" height="19.9222"/>
 <rect x="153.401" y="820.794" width="15.9377" height="111.564"/>
 <rect x="667.393" y="820.794" width="7.96887" height="11.9533"/>
 <rect x="998.101" y="820.794" width="23.9066" height="23.9066"/>
 <rect x="145.432" y="824.778" width="23.9066" height="107.58"/>
 <rect x="133.479" y="828.763" width="35.8599" height="103.595"/>
 <rect x="663.409" y="828.763" width="7.96887" height="7.96887"/>
 <rect x="994.117" y="828.763" width="27.8911" height="27.8911"/>
 <rect x="125.51" y="832.747" width="43.8288" height="99.6109"/>
 <rect x="659.424" y="832.747" width="11.9533" height="3.98444"/>
 <rect x="113.556" y="836.732" width="55.7821" height="39.8444"/>
 <rect x="663.409" y="836.732" width="3.98444" height="3.98444"/>
 <rect x="990.132" y="840.716" width="31.8755" height="31.8755"/>
 <rect x="986.148" y="844.7" width="35.86" height="35.8599"/>
 <rect x="982.163" y="848.685" width="39.8444" height="39.8444"/>
 <rect x="659.424" y="852.669" width="3.98444" height="11.9533"/>
 <rect x="978.179" y="852.669" width="43.8289" height="43.8288"/>
 <rect x="974.195" y="856.654" width="47.8132" height="47.8132"/>
 <rect x="25.8988" y="860.638" width="59.7665" height="15.9377"/>
 <rect x="655.44" y="860.638" width="7.96887" height="3.98444"/>
 <rect x="970.21" y="864.623" width="51.7977" height="47.8132"/>
 <rect x="966.226" y="868.607" width="55.7821" height="43.8288"/>
 <rect x="962.241" y="872.591" width="59.7666" height="39.8444"/>
 <rect x="29.8833" y="876.576" width="47.8132" height="67.7354"/>
 <rect x="121.525" y="876.576" width="47.8132" height="55.7821"/>
 <rect x="778.957" y="876.576" width="3.9845" height="63.751"/>
 <rect x="958.257" y="876.576" width="63.751" height="35.8599"/>
 <rect x="774.973" y="880.56" width="11.9532" height="55.7821"/>
 <rect x="954.272" y="880.56" width="67.7355" height="31.8755"/>
 <rect x="770.988" y="884.545" width="19.9222" height="47.8132"/>
 <rect x="946.303" y="884.545" width="3.9845" height="27.8911"/>
 <rect x="767.004" y="888.529" width="31.8755" height="39.8444"/>
 <rect x="942.319" y="888.529" width="79.6887" height="23.9066"/>
 <rect x="763.019" y="892.514" width="39.8443" height="35.8599"/>
 <rect x="938.335" y="892.514" width="83.6732" height="19.9222"/>
 <rect x="169.339" y="896.498" width="19.9222" height="23.9066"/>
 <rect x="189.261" y="896.498" width="11.9533" height="15.9377"/>
 <rect x="201.214" y="896.498" width="7.96887" height="11.9533"/>
 <rect x="209.183" y="896.498" width="3.98444" height="7.96887"/>
 <rect x="802.864" y="896.498" width="3.9845" height="63.751"/>
 <rect x="934.35" y="896.498" width="87.6576" height="15.9377"/>
 <rect x="759.035" y="900.482" width="51.7976" height="23.9066"/>
 <rect x="930.366" y="900.482" width="15.9377" height="15.9377"/>
 <rect x="25.8988" y="904.467" width="55.7821" height="31.8755"/>
 <rect x="117.541" y="904.467" width="91.642" height="3.98444"/>
 <rect x="755.051" y="904.467" width="59.7665" height="15.9377"/>
 <rect x="926.381" y="904.467" width="11.9532" height="15.9377"/>
 <rect x="751.066" y="908.451" width="71.7198" height="7.96887"/>
 <rect x="189.261" y="912.436" width="3.98444" height="3.98444"/>
 <rect x="822.786" y="912.436" width="3.98438" height="63.751"/>
 <rect x="922.397" y="912.436" width="11.9534" height="15.9377"/>
 <rect x="982.163" y="912.436" width="39.8444" height="3.98444"/>
 <rect x="814.817" y="916.42" width="15.9377" height="55.7821"/>
 <rect x="918.412" y="916.42" width="11.9532" height="19.9222"/>
 <rect x="986.148" y="916.42" width="35.86" height="3.98444"/>
 <rect x="169.339" y="920.405" width="3.98444" height="7.96887"/>
 <rect x="173.323" y="920.405" width="7.96887" height="3.98444"/>
 <rect x="810.833" y="920.405" width="23.9066" height="47.8132"/>
 <rect x="914.428" y="920.405" width="15.9377" height="15.9377"/>
 <rect x="990.132" y="920.405" width="31.8755" height="3.98444"/>
 <rect x="806.848" y="924.389" width="31.8755" height="39.8444"/>
 <rect x="910.444" y="924.389" width="15.9377" height="99.6109"/>
 <rect x="994.117" y="924.389" width="27.8911" height="3.98444"/>
 <rect x="1.99222" y="928.374" width="7.96887" height="7.96887"/>
 <rect x="790.911" y="928.374" width="51.7976" height="23.9066"/>
 <rect x="906.459" y="928.374" width="19.9222" height="95.6265"/>
 <rect x="998.101" y="928.374" width="23.9066" height="23.9066"/>
 <rect x="117.541" y="932.358" width="43.8288" height="3.98444"/>
 <rect x="786.926" y="932.358" width="63.751" height="15.9377"/>
 <rect x="902.475" y="932.358" width="23.9066" height="91.642"/>
 <rect x="121.525" y="936.342" width="27.8911" height="59.7665"/>
 <rect x="149.416" y="936.342" width="3.98444" height="3.98444"/>
 <rect x="782.942" y="936.342" width="71.7198" height="7.96887"/>
 <rect x="420.358" y="940.327" width="19.9222" height="55.7821"/>
 <rect x="854.661" y="940.327" width="3.98438" height="15.9377"/>
 <rect x="898.49" y="940.327" width="27.8911" height="83.6732"/>
 <rect x="416.374" y="944.311" width="23.9066" height="51.7977"/>
 <rect x="850.677" y="944.311" width="7.96887" height="11.9533"/>
 <rect x="858.646" y="944.311" width="3.9845" height="7.96887"/>
 <rect x="894.506" y="944.311" width="31.8755" height="79.6887"/>
 <rect x="29.8833" y="948.296" width="43.8288" height="75.7043"/>
 <rect x="149.416" y="948.296" width="3.98444" height="47.8132"/>
 <rect x="619.58" y="948.296" width="19.9222" height="47.8132"/>
 <rect x="842.708" y="948.296" width="11.9534" height="15.9377"/>
 <rect x="890.521" y="948.296" width="35.86" height="75.7043"/>
 <rect x="639.502" y="952.28" width="3.98444" height="55.7821"/>
 <rect x="798.879" y="952.28" width="59.7665" height="3.98444"/>
 <rect x="886.537" y="952.28" width="39.8444" height="71.7198"/>
 <rect x="998.101" y="952.28" width="23.9066" height="23.9066"/>
 <rect x="153.401" y="956.265" width="3.98444" height="39.8444"/>
 <rect x="412.389" y="956.265" width="27.8911" height="39.8444"/>
 <rect x="643.486" y="956.265" width="3.98444" height="51.7977"/>
 <rect x="838.724" y="956.265" width="11.9532" height="11.9533"/>
 <rect x="882.552" y="956.265" width="47.8132" height="67.7354"/>
 <rect x="157.385" y="960.249" width="3.98444" height="35.8599"/>
 <rect x="647.471" y="960.249" width="3.98444" height="47.8132"/>
 <rect x="1.99222" y="964.233" width="7.96887" height="35.8599"/>
 <rect x="25.8988" y="964.233" width="47.8132" height="35.8599"/>
 <rect x="77.6965" y="964.233" width="7.96887" height="31.8755"/>
 <rect x="113.556" y="964.233" width="47.8132" height="27.8911"/>
 <rect x="408.405" y="964.233" width="31.8755" height="31.8755"/>
 <rect x="651.455" y="964.233" width="63.751" height="31.8755"/>
 <rect x="715.206" y="964.233" width="15.9377" height="3.98444"/>
 <rect x="834.739" y="964.233" width="7.96887" height="11.9533"/>
 <rect x="878.568" y="964.233" width="51.7976" height="59.7665"/>
 <rect x="994.117" y="964.233" width="27.8911" height="27.8911"/>
 <rect x="161.37" y="968.218" width="3.98444" height="27.8911"/>
 <rect x="830.755" y="968.218" width="7.96887" height="11.9533"/>
 <rect x="842.708" y="968.218" width="3.9845" height="3.98444"/>
 <rect x="874.584" y="968.218" width="55.7821" height="55.7821"/>
 <rect x="930.366" y="968.218" width="3.9845" height="55.7821"/>
 <rect x="990.132" y="968.218" width="31.8755" height="31.8755"/>
 <rect x="826.77" y="972.202" width="11.9534" height="7.96887"/>
 <rect x="870.599" y="972.202" width="51.7976" height="51.7977"/>
 <rect x="934.35" y="972.202" width="3.98438" height="51.7977"/>
 <rect x="986.148" y="972.202" width="35.86" height="35.8599"/>
 <rect x="165.354" y="976.187" width="3.98444" height="19.9222"/>
 <rect x="404.42" y="976.187" width="35.8599" height="19.9222"/>
 <rect x="866.615" y="976.187" width="47.8132" height="47.8132"/>
 <rect x="938.335" y="976.187" width="7.96887" height="47.8132"/>
 <rect x="982.163" y="976.187" width="39.8444" height="39.8444"/>
 <rect x="492.078" y="980.171" width="75.7043" height="15.9377"/>
 <rect x="751.066" y="980.171" width="3.98444" height="27.8911"/>
 <rect x="830.755" y="980.171" width="3.98438" height="3.98444"/>
 <rect x="862.63" y="980.171" width="43.8287" height="43.8288"/>
 <rect x="946.303" y="980.171" width="7.96887" height="43.8288"/>
 <rect x="970.21" y="980.171" width="43.8289" height="43.8288"/>
 <rect x="169.339" y="984.156" width="3.98444" height="11.9533"/>
 <rect x="400.436" y="984.156" width="19.9222" height="27.8911"/>
 <rect x="755.051" y="984.156" width="3.98444" height="39.8444"/>
 <rect x="858.646" y="984.156" width="39.8444" height="39.8444"/>
 <rect x="954.272" y="984.156" width="39.8444" height="39.8444"/>
 <rect x="759.035" y="988.14" width="3.98444" height="35.8599"/>
 <rect x="117.541" y="992.125" width="55.7821" height="3.98444"/>
 <rect x="715.206" y="992.125" width="15.9377" height="15.9377"/>
 <rect x="763.019" y="992.125" width="3.98444" height="31.8755"/>
 <rect x="854.661" y="992.125" width="31.8755" height="31.8755"/>
 <rect x="284.887" y="996.109" width="67.7354" height="3.98444"/>
 <rect x="396.451" y="996.109" width="23.9066" height="15.9377"/>
 <rect x="512" y="996.109" width="47.8132" height="15.9377"/>
 <rect x="559.813" y="996.109" width="7.96887" height="11.9533"/>
 <rect x="651.455" y="996.109" width="23.9066" height="11.9533"/>
 <rect x="703.253" y="996.109" width="27.8911" height="11.9533"/>
 <rect x="767.004" y="996.109" width="3.98438" height="27.8911"/>
 <rect x="850.677" y="996.109" width="27.8911" height="27.8911"/>
 <rect x="288.872" y="1000.09" width="63.751" height="11.9533"/>
 <rect x="770.988" y="1000.09" width="7.96887" height="23.9066"/>
 <rect x="846.693" y="1000.09" width="23.9066" height="23.9066"/>
 <rect x="380.514" y="1004.08" width="7.96887" height="7.96887"/>
 <rect x="392.467" y="1004.08" width="27.8911" height="7.96887"/>
 <rect x="778.957" y="1004.08" width="3.9845" height="19.9222"/>
 <rect x="842.708" y="1004.08" width="19.9222" height="19.9222"/>
 <rect x="284.887" y="1008.06" width="67.7354" height="3.98444"/>
 <rect x="388.482" y="1008.06" width="31.8755" height="3.98444"/>
 <rect x="782.942" y="1008.06" width="3.98438" height="15.9377"/>
 <rect x="838.724" y="1008.06" width="15.9377" height="15.9377"/>
 <rect x="786.926" y="1012.05" width="3.9845" height="11.9533"/>
 <rect x="113.556" y="1016.03" width="7.96887" height="7.96887"/>
 <rect x="121.525" y="1016.03" width="7.96887" height="7.96887"/>
 <rect x="129.494" y="1016.03" width="7.96887" height="7.96887"/>
 <rect x="137.463" y="1016.03" width="7.96887" height="7.96887"/>
 <rect x="145.432" y="1016.03" width="7.96887" height="7.96887"/>
 <rect x="153.401" y="1016.03" width="7.96887" height="7.96887"/>
 <rect x="161.37" y="1016.03" width="7.96887" height="7.96887"/>
 <rect x="169.339" y="1016.03" width="7.96887" height="7.96887"/>
 <rect x="177.307" y="1016.03" width="7.96887" height="7.96887"/>
 <rect x="185.276" y="1016.03" width="7.96887" height="7.96887"/>
 <rect x="790.911" y="1016.03" width="3.98438" height="7.96887"/>
 <rect x="834.739" y="1016.03" width="7.96887" height="7.96887"/>
 <rect x="1014.04" y="1016.03" width="7.96887" height="7.96887"/>
 <rect x="798.879" y="1020.02" width="3.98438" height="3.98444"/>
 <rect x="830.755" y="1020.02" width="3.98438" height="3.98444"/>
</g>
</svg>