<svg xmlns="http://www.w3.org/2000/svg" version="1.1" width = "1027" height = "1027" viewBox = "-1 -1 1026 1026" preserveAspectRatio = "none" shape-rendering="auto">
<g style="fill:rgb(0,0,0);">
 <rect x="0" y="0" width="1024" height="1024"/>
 <rect x="0" y="66.3704" width="1024" height="891.259"/>
</g><g style="fill:rgb(229,229,229);">
 <rect x="448.79" y="85.3333" width="6.32098" height="183.309"/>
 <rect x="455.111" y="91.6543" width="18.963" height="176.988"/>
 <rect x="537.284" y="91.6543" width="6.32098" height="18.963"/>
 <rect x="474.074" y="97.9753" width="6.32098" height="170.667"/>
 <rect x="530.963" y="97.9753" width="12.642" height="12.642"/>
 <rect x="480.395" y="104.296" width="44.2469" height="164.346"/>
 <rect x="524.642" y="104.296" width="6.32098" height="25.284"/>
 <rect x="429.827" y="110.617" width="94.8148" height="31.6049"/>
 <rect x="524.642" y="142.222" width="6.32098" height="126.42"/>
 <rect x="316.049" y="148.543" width="18.963" height="25.2839"/>
 <rect x="335.012" y="148.543" width="6.32098" height="12.642"/>
 <rect x="530.963" y="154.864" width="12.642" height="113.778"/>
 <rect x="322.37" y="173.827" width="12.642" height="151.704"/>
 <rect x="423.506" y="173.827" width="120.099" height="94.8148"/>
 <rect x="158.025" y="186.469" width="44.2469" height="6.32098"/>
 <rect x="309.728" y="186.469" width="44.2469" height="75.8518"/>
 <rect x="417.185" y="186.469" width="126.42" height="82.1728"/>
 <rect x="176.988" y="192.79" width="63.2099" height="6.32098"/>
 <rect x="265.481" y="192.79" width="82.1729" height="75.8518"/>
 <rect x="353.975" y="192.79" width="12.642" height="69.5309"/>
 <rect x="543.605" y="192.79" width="101.136" height="75.8518"/>
 <rect x="183.309" y="199.111" width="56.8889" height="50.5679"/>
 <rect x="366.617" y="199.111" width="31.6049" height="126.42"/>
 <rect x="404.543" y="199.111" width="240.198" height="63.2099"/>
 <rect x="176.988" y="205.432" width="63.2099" height="37.9259"/>
 <rect x="398.222" y="205.432" width="246.518" height="56.8889"/>
 <rect x="170.667" y="218.074" width="69.5309" height="12.642"/>
 <rect x="158.025" y="224.395" width="82.1729" height="6.32101"/>
 <rect x="259.16" y="230.716" width="88.4938" height="37.9259"/>
 <rect x="644.741" y="230.716" width="6.32098" height="44.2469"/>
 <rect x="240.198" y="237.037" width="6.32098" height="31.6049"/>
 <rect x="195.951" y="249.679" width="50.5679" height="18.963"/>
 <rect x="246.519" y="249.679" width="404.543" height="12.642"/>
 <rect x="360.296" y="262.321" width="37.9259" height="12.642"/>
 <rect x="410.864" y="262.321" width="31.6049" height="12.642"/>
 <rect x="303.407" y="268.642" width="44.2469" height="6.32098"/>
 <rect x="606.815" y="268.642" width="44.2469" height="6.32098"/>
 <rect x="316.049" y="274.963" width="31.6049" height="50.5679"/>
 <rect x="417.185" y="274.963" width="25.284" height="50.5679"/>
 <rect x="158.025" y="287.605" width="44.2469" height="37.926"/>
 <rect x="613.136" y="287.605" width="37.9259" height="44.2469"/>
 <rect x="202.272" y="293.926" width="94.8148" height="69.5309"/>
 <rect x="297.086" y="293.926" width="353.975" height="31.605"/>
 <rect x="164.346" y="325.531" width="56.8889" height="94.8148"/>
 <rect x="613.136" y="331.852" width="25.2839" height="398.222"/>
 <rect x="638.42" y="331.852" width="6.32098" height="6.32098"/>
 <rect x="316.049" y="344.494" width="158.025" height="75.8518"/>
 <rect x="474.074" y="350.815" width="126.42" height="69.5309"/>
 <rect x="284.444" y="363.457" width="12.642" height="56.8889"/>
 <rect x="221.235" y="376.099" width="75.8519" height="25.284"/>
 <rect x="638.42" y="376.099" width="6.32098" height="265.482"/>
 <rect x="771.161" y="388.741" width="31.6049" height="37.9259"/>
 <rect x="600.494" y="395.062" width="44.2469" height="227.556"/>
 <rect x="802.765" y="395.062" width="25.2839" height="227.556"/>
 <rect x="834.37" y="395.062" width="12.642" height="25.2839"/>
 <rect x="828.049" y="401.383" width="25.284" height="18.963"/>
 <rect x="221.235" y="414.025" width="69.5309" height="12.642"/>
 <rect x="164.346" y="420.346" width="25.284" height="309.728"/>
 <rect x="214.914" y="420.346" width="75.8519" height="6.32098"/>
 <rect x="316.049" y="420.346" width="25.2839" height="252.84"/>
 <rect x="467.753" y="420.346" width="6.32098" height="6.32098"/>
 <rect x="486.716" y="420.346" width="6.32098" height="246.519"/>
 <rect x="518.321" y="420.346" width="25.2839" height="246.519"/>
 <rect x="568.889" y="420.346" width="75.8518" height="202.272"/>
 <rect x="790.123" y="426.667" width="37.926" height="195.951"/>
 <rect x="480.395" y="432.988" width="12.642" height="132.741"/>
 <rect x="372.938" y="439.309" width="18.963" height="139.062"/>
 <rect x="417.185" y="439.309" width="6.32098" height="139.062"/>
 <rect x="474.074" y="439.309" width="18.963" height="82.1729"/>
 <rect x="828.049" y="439.309" width="31.6049" height="132.741"/>
 <rect x="967.111" y="439.309" width="37.926" height="25.2839"/>
 <rect x="189.63" y="445.63" width="6.32098" height="126.42"/>
 <rect x="265.481" y="445.63" width="31.6049" height="31.6049"/>
 <rect x="366.617" y="445.63" width="56.8889" height="126.42"/>
 <rect x="493.037" y="445.63" width="6.32098" height="126.42"/>
 <rect x="512" y="445.63" width="37.9259" height="126.42"/>
 <rect x="562.568" y="445.63" width="120.099" height="126.42"/>
 <rect x="733.235" y="445.63" width="151.704" height="126.42"/>
 <rect x="941.827" y="445.63" width="44.2469" height="126.42"/>
 <rect x="360.296" y="451.951" width="63.2099" height="113.778"/>
 <rect x="499.358" y="451.951" width="183.309" height="113.778"/>
 <rect x="259.16" y="458.272" width="37.9259" height="12.642"/>
 <rect x="423.506" y="458.272" width="12.642" height="69.5309"/>
 <rect x="682.667" y="458.272" width="6.32098" height="94.8148"/>
 <rect x="726.914" y="458.272" width="164.346" height="107.457"/>
 <rect x="935.506" y="458.272" width="50.5679" height="107.457"/>
 <rect x="436.148" y="464.593" width="12.642" height="63.2099"/>
 <rect x="688.988" y="464.593" width="6.32098" height="82.1729"/>
 <rect x="707.951" y="464.593" width="189.63" height="82.1729"/>
 <rect x="916.543" y="464.593" width="69.5309" height="82.1729"/>
 <rect x="309.728" y="470.914" width="37.9259" height="75.8519"/>
 <rect x="695.309" y="470.914" width="290.765" height="75.8519"/>
 <rect x="284.444" y="477.235" width="12.642" height="31.6049"/>
 <rect x="986.074" y="477.235" width="12.642" height="63.2099"/>
 <rect x="297.086" y="489.877" width="151.704" height="37.9259"/>
 <rect x="467.753" y="496.198" width="530.963" height="25.284"/>
 <rect x="290.765" y="508.84" width="158.025" height="18.963"/>
 <rect x="278.123" y="521.482" width="18.963" height="50.5679"/>
 <rect x="423.506" y="527.802" width="6.32098" height="25.2839"/>
 <rect x="474.074" y="534.123" width="524.642" height="6.32098"/>
 <rect x="429.827" y="540.444" width="6.32098" height="12.642"/>
 <rect x="436.148" y="546.765" width="12.642" height="6.32098"/>
 <rect x="701.63" y="546.765" width="12.642" height="6.32098"/>
 <rect x="720.593" y="546.765" width="176.988" height="6.32098"/>
 <rect x="922.864" y="546.765" width="63.2099" height="6.32098"/>
 <rect x="265.481" y="553.086" width="31.6049" height="6.32098"/>
 <rect x="474.074" y="553.086" width="208.593" height="6.32098"/>
 <rect x="986.074" y="553.086" width="18.963" height="25.2839"/>
 <rect x="271.802" y="559.407" width="25.2839" height="12.642"/>
 <rect x="884.938" y="565.728" width="6.32104" height="6.32098"/>
 <rect x="758.519" y="572.049" width="69.5308" height="6.32098"/>
 <rect x="960.79" y="572.049" width="44.2469" height="6.32098"/>
 <rect x="480.395" y="584.691" width="12.642" height="82.1729"/>
 <rect x="214.914" y="591.012" width="75.8519" height="12.642"/>
 <rect x="474.074" y="591.012" width="18.963" height="75.8519"/>
 <rect x="828.049" y="591.012" width="44.2469" height="31.605"/>
 <rect x="897.58" y="591.012" width="6.32098" height="31.605"/>
 <rect x="189.63" y="597.333" width="31.6049" height="126.42"/>
 <rect x="290.765" y="597.333" width="6.32098" height="126.42"/>
 <rect x="341.333" y="597.333" width="132.741" height="75.8519"/>
 <rect x="493.037" y="597.333" width="107.457" height="69.5309"/>
 <rect x="771.161" y="597.333" width="132.741" height="18.963"/>
 <rect x="284.444" y="603.654" width="12.642" height="120.099"/>
 <rect x="221.235" y="616.296" width="75.8519" height="25.284"/>
 <rect x="771.161" y="616.296" width="6.32092" height="6.32104"/>
 <rect x="872.296" y="616.296" width="25.284" height="12.642"/>
 <rect x="790.123" y="622.617" width="25.284" height="6.32098"/>
 <rect x="834.37" y="622.617" width="18.963" height="6.32098"/>
 <rect x="865.975" y="622.617" width="31.6049" height="6.32098"/>
 <rect x="221.235" y="654.222" width="75.8519" height="69.5308"/>
 <rect x="638.42" y="679.506" width="6.32098" height="50.5679"/>
 <rect x="158.025" y="685.827" width="37.9259" height="44.2469"/>
 <rect x="297.086" y="692.148" width="353.975" height="31.6049"/>
 <rect x="303.407" y="723.753" width="139.062" height="6.32104"/>
 <rect x="606.815" y="723.753" width="44.2469" height="6.32104"/>
 <rect x="316.049" y="730.074" width="31.6049" height="101.136"/>
 <rect x="366.617" y="730.074" width="31.6049" height="94.8148"/>
 <rect x="417.185" y="730.074" width="25.284" height="158.025"/>
 <rect x="613.136" y="742.716" width="18.963" height="88.4938"/>
 <rect x="632.099" y="742.716" width="18.963" height="18.963"/>
 <rect x="170.667" y="749.037" width="69.5309" height="69.5308"/>
 <rect x="240.198" y="749.037" width="6.32098" height="37.9259"/>
 <rect x="259.16" y="749.037" width="88.4938" height="31.6049"/>
 <rect x="360.296" y="749.037" width="37.9259" height="75.8519"/>
 <rect x="410.864" y="749.037" width="139.062" height="75.8519"/>
 <rect x="549.926" y="749.037" width="31.605" height="31.6049"/>
 <rect x="581.531" y="749.037" width="50.5679" height="25.2839"/>
 <rect x="246.519" y="755.358" width="385.58" height="12.642"/>
 <rect x="347.654" y="768" width="202.272" height="56.8889"/>
 <rect x="164.346" y="774.321" width="75.8519" height="25.284"/>
 <rect x="587.852" y="774.321" width="44.2469" height="6.32098"/>
 <rect x="265.481" y="780.642" width="284.444" height="44.2469"/>
 <rect x="600.494" y="780.642" width="31.6049" height="44.2469"/>
 <rect x="549.926" y="799.605" width="12.642" height="25.2839"/>
 <rect x="575.21" y="799.605" width="56.8889" height="25.2839"/>
 <rect x="562.568" y="805.926" width="69.5309" height="18.963"/>
 <rect x="632.099" y="812.247" width="18.963" height="18.9629"/>
 <rect x="183.309" y="818.568" width="56.8889" height="6.32104"/>
 <rect x="189.63" y="824.889" width="6.32098" height="6.32092"/>
 <rect x="303.407" y="824.889" width="44.2469" height="6.32092"/>
 <rect x="442.469" y="824.889" width="75.8518" height="82.1729"/>
 <rect x="518.321" y="824.889" width="25.2839" height="63.2098"/>
 <rect x="606.815" y="824.889" width="44.2469" height="6.32092"/>
 <rect x="322.37" y="831.21" width="12.642" height="25.284"/>
 <rect x="316.049" y="843.852" width="18.963" height="12.642"/>
 <rect x="335.012" y="843.852" width="6.32098" height="6.32104"/>
 <rect x="442.469" y="907.062" width="25.2839" height="18.9629"/>
 <rect x="467.753" y="907.062" width="31.6049" height="6.32092"/>
 <rect x="505.679" y="907.062" width="12.642" height="6.32092"/>
</g><g style="fill:rgb(0,127,0);">
 <rect x="448.79" y="79.0124" width="6.32098" height="6.32098"/>
 <rect x="442.469" y="85.3333" width="6.32098" height="25.2839"/>
 <rect x="455.111" y="85.3333" width="18.963" height="6.32098"/>
 <rect x="537.284" y="85.3333" width="6.32098" height="6.32098"/>
 <rect x="474.074" y="91.6543" width="6.32098" height="6.32098"/>
 <rect x="530.963" y="91.6543" width="6.32098" height="6.32098"/>
 <rect x="543.605" y="91.6543" width="6.32098" height="18.963"/>
 <rect x="480.395" y="97.9753" width="50.5679" height="6.32098"/>
 <rect x="429.827" y="104.296" width="18.963" height="6.32098"/>
 <rect x="423.506" y="110.617" width="6.32098" height="31.6049"/>
 <rect x="530.963" y="110.617" width="6.32098" height="18.963"/>
 <rect x="537.284" y="110.617" width="6.32098" height="6.32098"/>
 <rect x="524.642" y="129.58" width="6.32098" height="12.642"/>
 <rect x="316.049" y="142.222" width="25.2839" height="6.32098"/>
 <rect x="429.827" y="142.222" width="18.963" height="6.32098"/>
 <rect x="530.963" y="142.222" width="6.32098" height="12.642"/>
 <rect x="309.728" y="148.543" width="6.32098" height="25.2839"/>
 <rect x="341.333" y="148.543" width="6.32101" height="12.642"/>
 <rect x="442.469" y="148.543" width="6.32098" height="25.2839"/>
 <rect x="537.284" y="148.543" width="6.32098" height="6.32098"/>
 <rect x="543.605" y="154.864" width="6.32098" height="37.9259"/>
 <rect x="335.012" y="161.185" width="6.32098" height="25.284"/>
 <rect x="423.506" y="167.506" width="25.284" height="6.32098"/>
 <rect x="316.049" y="173.827" width="6.32098" height="12.642"/>
 <rect x="417.185" y="173.827" width="6.32098" height="12.642"/>
 <rect x="158.025" y="180.148" width="44.2469" height="6.32098"/>
 <rect x="309.728" y="180.148" width="12.642" height="6.32098"/>
 <rect x="341.333" y="180.148" width="12.642" height="6.32098"/>
 <rect x="151.704" y="186.469" width="6.32098" height="6.32098"/>
 <rect x="202.272" y="186.469" width="37.9259" height="6.32098"/>
 <rect x="265.481" y="186.469" width="44.2469" height="6.32098"/>
 <rect x="353.975" y="186.469" width="12.642" height="6.32098"/>
 <rect x="410.864" y="186.469" width="6.32098" height="12.642"/>
 <rect x="549.926" y="186.469" width="94.8148" height="6.32098"/>
 <rect x="158.025" y="192.79" width="18.963" height="6.32098"/>
 <rect x="240.198" y="192.79" width="6.32098" height="44.2469"/>
 <rect x="259.16" y="192.79" width="6.32098" height="37.9259"/>
 <rect x="366.617" y="192.79" width="31.6049" height="6.32098"/>
 <rect x="404.543" y="192.79" width="12.642" height="6.32098"/>
 <rect x="644.741" y="192.79" width="6.32098" height="37.9259"/>
 <rect x="176.988" y="199.111" width="6.32101" height="6.32098"/>
 <rect x="398.222" y="199.111" width="6.32098" height="6.32098"/>
 <rect x="170.667" y="205.432" width="6.32098" height="12.642"/>
 <rect x="158.025" y="218.074" width="12.642" height="6.32098"/>
 <rect x="151.704" y="224.395" width="6.32098" height="6.32101"/>
 <rect x="158.025" y="230.716" width="18.963" height="6.32098"/>
 <rect x="252.84" y="230.716" width="6.32098" height="18.963"/>
 <rect x="651.062" y="230.716" width="6.32098" height="44.2469"/>
 <rect x="170.667" y="237.037" width="6.32098" height="6.32098"/>
 <rect x="246.519" y="237.037" width="12.642" height="12.642"/>
 <rect x="176.988" y="243.358" width="6.32101" height="6.32098"/>
 <rect x="183.309" y="249.679" width="12.642" height="6.32098"/>
 <rect x="189.63" y="256" width="6.32098" height="12.642"/>
 <rect x="246.519" y="262.321" width="12.642" height="6.32098"/>
 <rect x="347.654" y="262.321" width="12.642" height="12.642"/>
 <rect x="398.222" y="262.321" width="12.642" height="12.642"/>
 <rect x="195.951" y="268.642" width="50.5679" height="6.32098"/>
 <rect x="259.16" y="268.642" width="44.2469" height="6.32098"/>
 <rect x="442.469" y="268.642" width="6.32098" height="25.2839"/>
 <rect x="448.79" y="268.642" width="158.025" height="6.32098"/>
 <rect x="303.407" y="274.963" width="12.642" height="6.32098"/>
 <rect x="347.654" y="274.963" width="6.32098" height="18.963"/>
 <rect x="360.296" y="274.963" width="6.32098" height="18.963"/>
 <rect x="398.222" y="274.963" width="6.32098" height="18.963"/>
 <rect x="410.864" y="274.963" width="6.32098" height="18.963"/>
 <rect x="606.815" y="274.963" width="44.2469" height="6.32098"/>
 <rect x="158.025" y="281.284" width="44.2469" height="6.32098"/>
 <rect x="309.728" y="281.284" width="6.32098" height="12.642"/>
 <rect x="613.136" y="281.284" width="37.9259" height="6.32098"/>
 <rect x="151.704" y="287.605" width="6.32098" height="37.926"/>
 <rect x="202.272" y="287.605" width="113.778" height="6.32098"/>
 <rect x="353.975" y="287.605" width="12.642" height="6.32098"/>
 <rect x="404.543" y="287.605" width="12.642" height="6.32098"/>
 <rect x="448.79" y="287.605" width="164.346" height="6.32098"/>
 <rect x="651.062" y="287.605" width="6.32098" height="44.2469"/>
 <rect x="158.025" y="325.531" width="6.32098" height="360.296"/>
 <rect x="297.086" y="325.531" width="6.32098" height="94.8148"/>
 <rect x="303.407" y="325.531" width="309.728" height="6.32098"/>
 <rect x="606.815" y="331.852" width="6.32098" height="63.2099"/>
 <rect x="644.741" y="331.852" width="6.32098" height="6.32098"/>
 <rect x="316.049" y="338.173" width="158.025" height="6.32098"/>
 <rect x="638.42" y="338.173" width="6.32098" height="37.9259"/>
 <rect x="309.728" y="344.494" width="6.32098" height="126.42"/>
 <rect x="474.074" y="344.494" width="126.42" height="6.32098"/>
 <rect x="600.494" y="350.815" width="12.642" height="44.2469"/>
 <rect x="221.235" y="363.457" width="63.2099" height="12.642"/>
 <rect x="644.741" y="376.099" width="6.32098" height="69.5309"/>
 <rect x="771.161" y="382.42" width="31.6049" height="6.32098"/>
 <rect x="764.839" y="388.741" width="6.32104" height="37.9259"/>
 <rect x="802.765" y="388.741" width="25.2839" height="6.32101"/>
 <rect x="834.37" y="388.741" width="6.32098" height="6.32101"/>
 <rect x="828.049" y="395.062" width="6.32098" height="6.32098"/>
 <rect x="221.235" y="401.383" width="63.2099" height="12.642"/>
 <rect x="853.333" y="401.383" width="6.32092" height="18.963"/>
 <rect x="189.63" y="420.346" width="6.32098" height="25.284"/>
 <rect x="195.951" y="420.346" width="18.963" height="6.32098"/>
 <rect x="290.765" y="420.346" width="6.32098" height="6.32098"/>
 <rect x="341.333" y="420.346" width="6.32101" height="50.5679"/>
 <rect x="347.654" y="420.346" width="120.099" height="6.32098"/>
 <rect x="474.074" y="420.346" width="12.642" height="6.32098"/>
 <rect x="493.037" y="420.346" width="6.32098" height="25.284"/>
 <rect x="499.358" y="420.346" width="18.963" height="6.32098"/>
 <rect x="543.605" y="420.346" width="6.32098" height="25.284"/>
 <rect x="549.926" y="420.346" width="18.963" height="6.32098"/>
 <rect x="828.049" y="420.346" width="6.32098" height="18.963"/>
 <rect x="834.37" y="420.346" width="18.963" height="6.32098"/>
 <rect x="214.914" y="426.667" width="75.8519" height="6.32101"/>
 <rect x="467.753" y="426.667" width="6.32098" height="6.32101"/>
 <rect x="480.395" y="426.667" width="6.32101" height="6.32101"/>
 <rect x="512" y="426.667" width="6.32098" height="18.963"/>
 <rect x="562.568" y="426.667" width="6.32104" height="18.963"/>
 <rect x="771.161" y="426.667" width="18.9629" height="6.32101"/>
 <rect x="372.938" y="432.988" width="18.963" height="6.32098"/>
 <rect x="417.185" y="432.988" width="6.32098" height="6.32098"/>
 <rect x="474.074" y="432.988" width="6.32098" height="6.32098"/>
 <rect x="783.802" y="432.988" width="6.32092" height="12.642"/>
 <rect x="834.37" y="432.988" width="25.2839" height="6.32098"/>
 <rect x="967.111" y="432.988" width="37.926" height="6.32098"/>
 <rect x="265.481" y="439.309" width="31.6049" height="6.32098"/>
 <rect x="366.617" y="439.309" width="6.32101" height="6.32098"/>
 <rect x="391.901" y="439.309" width="25.2839" height="6.32098"/>
 <rect x="423.506" y="439.309" width="6.32098" height="18.963"/>
 <rect x="467.753" y="439.309" width="6.32098" height="56.8889"/>
 <rect x="651.062" y="439.309" width="31.605" height="6.32098"/>
 <rect x="733.235" y="439.309" width="56.8889" height="6.32098"/>
 <rect x="859.654" y="439.309" width="25.2839" height="6.32098"/>
 <rect x="941.827" y="439.309" width="25.2839" height="6.32098"/>
 <rect x="1005.04" y="439.309" width="6.32098" height="25.2839"/>
 <rect x="195.951" y="445.63" width="6.32098" height="126.42"/>
 <rect x="259.16" y="445.63" width="6.32098" height="12.642"/>
 <rect x="297.086" y="445.63" width="6.32098" height="44.2469"/>
 <rect x="360.296" y="445.63" width="6.32098" height="6.32098"/>
 <rect x="499.358" y="445.63" width="12.642" height="6.32098"/>
 <rect x="549.926" y="445.63" width="12.642" height="6.32098"/>
 <rect x="682.667" y="445.63" width="6.32098" height="12.642"/>
 <rect x="726.914" y="445.63" width="6.32098" height="12.642"/>
 <rect x="884.938" y="445.63" width="6.32104" height="12.642"/>
 <rect x="935.506" y="445.63" width="6.32098" height="12.642"/>
 <rect x="353.975" y="451.951" width="6.32098" height="37.9259"/>
 <rect x="429.827" y="451.951" width="6.32098" height="6.32098"/>
 <rect x="252.84" y="458.272" width="6.32098" height="12.642"/>
 <rect x="436.148" y="458.272" width="12.642" height="6.32098"/>
 <rect x="688.988" y="458.272" width="6.32098" height="6.32098"/>
 <rect x="707.951" y="458.272" width="18.963" height="6.32098"/>
 <rect x="891.259" y="458.272" width="6.32098" height="6.32098"/>
 <rect x="916.543" y="458.272" width="18.963" height="6.32098"/>
 <rect x="448.79" y="464.593" width="6.32098" height="63.2099"/>
 <rect x="695.309" y="464.593" width="12.642" height="6.32098"/>
 <rect x="897.58" y="464.593" width="18.963" height="6.32098"/>
 <rect x="986.074" y="464.593" width="12.642" height="12.642"/>
 <rect x="998.716" y="464.593" width="6.32098" height="6.32098"/>
 <rect x="259.16" y="470.914" width="6.32098" height="6.32098"/>
 <rect x="303.407" y="470.914" width="6.32098" height="18.963"/>
 <rect x="347.654" y="470.914" width="12.642" height="18.963"/>
 <rect x="265.481" y="477.235" width="18.963" height="6.32098"/>
 <rect x="998.716" y="477.235" width="6.32098" height="63.2099"/>
 <rect x="278.123" y="483.556" width="6.32098" height="25.284"/>
 <rect x="461.432" y="496.198" width="6.32098" height="25.284"/>
 <rect x="284.444" y="508.84" width="6.32098" height="12.642"/>
 <rect x="278.123" y="515.161" width="12.642" height="6.32098"/>
 <rect x="271.802" y="521.482" width="6.32098" height="31.6049"/>
 <rect x="467.753" y="521.482" width="12.642" height="6.32098"/>
 <rect x="297.086" y="527.802" width="12.642" height="18.963"/>
 <rect x="347.654" y="527.802" width="12.642" height="18.963"/>
 <rect x="429.827" y="527.802" width="6.32098" height="12.642"/>
 <rect x="436.148" y="527.802" width="12.642" height="6.32098"/>
 <rect x="474.074" y="527.802" width="6.32098" height="6.32098"/>
 <rect x="467.753" y="534.123" width="6.32098" height="6.32098"/>
 <rect x="436.148" y="540.444" width="12.642" height="6.32098"/>
 <rect x="474.074" y="540.444" width="6.32098" height="12.642"/>
 <rect x="986.074" y="540.444" width="12.642" height="12.642"/>
 <rect x="265.481" y="546.765" width="12.642" height="6.32098"/>
 <rect x="297.086" y="546.765" width="6.32098" height="25.2839"/>
 <rect x="309.728" y="546.765" width="6.32098" height="126.42"/>
 <rect x="341.333" y="546.765" width="6.32101" height="50.5679"/>
 <rect x="353.975" y="546.765" width="6.32098" height="18.963"/>
 <rect x="448.79" y="546.765" width="6.32098" height="6.32098"/>
 <rect x="688.988" y="546.765" width="12.642" height="6.32098"/>
 <rect x="714.272" y="546.765" width="6.32098" height="6.32098"/>
 <rect x="897.58" y="546.765" width="25.2839" height="6.32098"/>
 <rect x="998.716" y="546.765" width="6.32098" height="6.32098"/>
 <rect x="259.16" y="553.086" width="6.32098" height="6.32098"/>
 <rect x="423.506" y="553.086" width="6.32098" height="25.2839"/>
 <rect x="429.827" y="553.086" width="18.963" height="6.32098"/>
 <rect x="682.667" y="553.086" width="6.32098" height="18.963"/>
 <rect x="701.63" y="553.086" width="12.642" height="6.32098"/>
 <rect x="720.593" y="553.086" width="6.32098" height="12.642"/>
 <rect x="891.259" y="553.086" width="6.32098" height="18.963"/>
 <rect x="922.864" y="553.086" width="12.642" height="6.32098"/>
 <rect x="1005.04" y="553.086" width="6.32098" height="25.2839"/>
 <rect x="265.481" y="559.407" width="6.32101" height="12.642"/>
 <rect x="474.074" y="559.407" width="6.32098" height="6.32098"/>
 <rect x="929.185" y="559.407" width="6.32098" height="6.32098"/>
 <rect x="360.296" y="565.728" width="6.32098" height="6.32098"/>
 <rect x="480.395" y="565.728" width="6.32101" height="18.963"/>
 <rect x="499.358" y="565.728" width="12.642" height="6.32098"/>
 <rect x="549.926" y="565.728" width="12.642" height="6.32098"/>
 <rect x="726.914" y="565.728" width="6.32098" height="6.32098"/>
 <rect x="935.506" y="565.728" width="6.32098" height="6.32098"/>
 <rect x="189.63" y="572.049" width="6.32098" height="25.2839"/>
 <rect x="271.802" y="572.049" width="25.2839" height="6.32098"/>
 <rect x="366.617" y="572.049" width="6.32101" height="6.32098"/>
 <rect x="391.901" y="572.049" width="25.2839" height="6.32098"/>
 <rect x="493.037" y="572.049" width="6.32098" height="25.2839"/>
 <rect x="512" y="572.049" width="6.32098" height="25.2839"/>
 <rect x="543.605" y="572.049" width="6.32098" height="25.2839"/>
 <rect x="562.568" y="572.049" width="6.32104" height="25.2839"/>
 <rect x="644.741" y="572.049" width="6.32098" height="69.5309"/>
 <rect x="651.062" y="572.049" width="31.605" height="6.32098"/>
 <rect x="733.235" y="572.049" width="25.284" height="6.32098"/>
 <rect x="828.049" y="572.049" width="6.32098" height="18.963"/>
 <rect x="834.37" y="572.049" width="56.8889" height="6.32098"/>
 <rect x="941.827" y="572.049" width="18.963" height="6.32098"/>
 <rect x="372.938" y="578.37" width="18.963" height="6.32098"/>
 <rect x="417.185" y="578.37" width="6.32098" height="6.32098"/>
 <rect x="758.519" y="578.37" width="31.6049" height="6.32098"/>
 <rect x="960.79" y="578.37" width="44.2469" height="6.32098"/>
 <rect x="214.914" y="584.691" width="75.8519" height="6.32098"/>
 <rect x="474.074" y="584.691" width="6.32098" height="6.32098"/>
 <rect x="783.802" y="584.691" width="6.32092" height="12.642"/>
 <rect x="834.37" y="584.691" width="37.9259" height="6.32098"/>
 <rect x="897.58" y="584.691" width="6.32098" height="6.32098"/>
 <rect x="195.951" y="591.012" width="18.963" height="6.32098"/>
 <rect x="290.765" y="591.012" width="6.32098" height="6.32098"/>
 <rect x="347.654" y="591.012" width="126.42" height="6.32098"/>
 <rect x="499.358" y="591.012" width="18.963" height="6.32098"/>
 <rect x="549.926" y="591.012" width="18.963" height="6.32098"/>
 <rect x="771.161" y="591.012" width="18.9629" height="6.32098"/>
 <rect x="872.296" y="591.012" width="25.284" height="6.32098"/>
 <rect x="903.901" y="591.012" width="6.32098" height="31.605"/>
 <rect x="297.086" y="597.333" width="6.32098" height="94.8148"/>
 <rect x="764.839" y="597.333" width="6.32104" height="25.284"/>
 <rect x="221.235" y="603.654" width="63.2099" height="12.642"/>
 <rect x="777.481" y="616.296" width="12.642" height="6.32104"/>
 <rect x="600.494" y="622.617" width="12.642" height="44.2469"/>
 <rect x="783.802" y="622.617" width="6.32092" height="6.32098"/>
 <rect x="815.407" y="622.617" width="18.963" height="6.32098"/>
 <rect x="853.333" y="622.617" width="12.642" height="6.32098"/>
 <rect x="897.58" y="622.617" width="6.32098" height="6.32098"/>
 <rect x="790.123" y="628.938" width="25.284" height="6.32098"/>
 <rect x="834.37" y="628.938" width="18.963" height="6.32098"/>
 <rect x="865.975" y="628.938" width="31.6049" height="6.32098"/>
 <rect x="221.235" y="641.58" width="63.2099" height="12.642"/>
 <rect x="638.42" y="641.58" width="6.32098" height="37.9259"/>
 <rect x="474.074" y="666.864" width="126.42" height="6.32098"/>
 <rect x="606.815" y="666.864" width="6.32098" height="25.2839"/>
 <rect x="316.049" y="673.185" width="158.025" height="6.32098"/>
 <rect x="644.741" y="679.506" width="6.32098" height="12.642"/>
 <rect x="151.704" y="685.827" width="6.32098" height="44.2469"/>
 <rect x="303.407" y="685.827" width="309.728" height="6.32098"/>
 <rect x="651.062" y="692.148" width="6.32098" height="37.926"/>
 <rect x="195.951" y="723.753" width="107.457" height="6.32104"/>
 <rect x="442.469" y="723.753" width="6.32098" height="25.284"/>
 <rect x="448.79" y="723.753" width="158.025" height="6.32104"/>
 <rect x="158.025" y="730.074" width="37.9259" height="6.32098"/>
 <rect x="303.407" y="730.074" width="12.642" height="6.32098"/>
 <rect x="347.654" y="730.074" width="6.32098" height="25.2839"/>
 <rect x="353.975" y="730.074" width="12.642" height="6.32098"/>
 <rect x="398.222" y="730.074" width="6.32098" height="25.2839"/>
 <rect x="404.543" y="730.074" width="12.642" height="6.32098"/>
 <rect x="606.815" y="730.074" width="44.2469" height="6.32098"/>
 <rect x="309.728" y="736.395" width="6.32098" height="12.642"/>
 <rect x="360.296" y="736.395" width="6.32098" height="12.642"/>
 <rect x="410.864" y="736.395" width="6.32098" height="12.642"/>
 <rect x="613.136" y="736.395" width="37.9259" height="6.32098"/>
 <rect x="170.667" y="742.716" width="75.8519" height="6.32098"/>
 <rect x="259.16" y="742.716" width="56.8889" height="6.32098"/>
 <rect x="448.79" y="742.716" width="164.346" height="6.32098"/>
 <rect x="651.062" y="742.716" width="6.32098" height="18.963"/>
 <rect x="164.346" y="749.037" width="6.32098" height="25.2839"/>
 <rect x="246.519" y="749.037" width="12.642" height="6.32098"/>
 <rect x="353.975" y="749.037" width="6.32098" height="6.32098"/>
 <rect x="404.543" y="749.037" width="6.32098" height="6.32098"/>
 <rect x="632.099" y="761.679" width="6.32098" height="50.5679"/>
 <rect x="638.42" y="761.679" width="12.642" height="6.32098"/>
 <rect x="246.519" y="768" width="12.642" height="12.642"/>
 <rect x="158.025" y="774.321" width="6.32098" height="25.284"/>
 <rect x="581.531" y="774.321" width="6.32098" height="6.32098"/>
 <rect x="246.519" y="780.642" width="6.32098" height="6.32098"/>
 <rect x="259.16" y="780.642" width="6.32098" height="44.2469"/>
 <rect x="549.926" y="780.642" width="6.32098" height="18.963"/>
 <rect x="556.247" y="780.642" width="25.284" height="6.32098"/>
 <rect x="587.852" y="780.642" width="12.642" height="6.32098"/>
 <rect x="240.198" y="786.963" width="6.32098" height="37.926"/>
 <rect x="594.173" y="786.963" width="6.32098" height="12.642"/>
 <rect x="556.247" y="793.284" width="6.32098" height="6.32104"/>
 <rect x="575.21" y="793.284" width="25.2839" height="6.32104"/>
 <rect x="164.346" y="799.605" width="6.32098" height="18.9629"/>
 <rect x="562.568" y="799.605" width="12.642" height="6.32092"/>
 <rect x="638.42" y="805.926" width="12.642" height="6.32104"/>
 <rect x="651.062" y="812.247" width="6.32098" height="18.9629"/>
 <rect x="170.667" y="818.568" width="12.642" height="6.32104"/>
 <rect x="183.309" y="824.889" width="6.32098" height="6.32092"/>
 <rect x="195.951" y="824.889" width="44.2469" height="6.32092"/>
 <rect x="265.481" y="824.889" width="37.9259" height="6.32092"/>
 <rect x="347.654" y="824.889" width="69.5309" height="6.32092"/>
 <rect x="543.605" y="824.889" width="6.32098" height="63.2098"/>
 <rect x="549.926" y="824.889" width="56.8889" height="6.32092"/>
 <rect x="189.63" y="831.21" width="6.32098" height="6.32104"/>
 <rect x="303.407" y="831.21" width="18.963" height="6.32104"/>
 <rect x="335.012" y="831.21" width="6.32098" height="12.642"/>
 <rect x="341.333" y="831.21" width="6.32101" height="6.32104"/>
 <rect x="410.864" y="831.21" width="6.32098" height="56.8889"/>
 <rect x="606.815" y="831.21" width="44.2469" height="6.32104"/>
 <rect x="316.049" y="837.531" width="6.32098" height="6.32092"/>
 <rect x="309.728" y="843.852" width="6.32098" height="12.642"/>
 <rect x="341.333" y="843.852" width="6.32101" height="6.32104"/>
 <rect x="335.012" y="850.173" width="6.32098" height="6.32098"/>
 <rect x="316.049" y="856.494" width="18.963" height="6.32098"/>
 <rect x="417.185" y="888.099" width="25.284" height="6.32098"/>
 <rect x="518.321" y="888.099" width="6.32098" height="25.2839"/>
 <rect x="524.642" y="888.099" width="18.963" height="6.32098"/>
 <rect x="436.148" y="894.42" width="6.32101" height="31.6049"/>
 <rect x="499.358" y="907.062" width="6.32098" height="6.32092"/>
 <rect x="467.753" y="913.383" width="6.32098" height="12.642"/>
 <rect x="474.074" y="913.383" width="25.284" height="6.32104"/>
 <rect x="505.679" y="913.383" width="12.642" height="6.32104"/>
 <rect x="442.469" y="926.025" width="25.2839" height="6.32104"/>
</g>
</svg>