<svg xmlns="http://www.w3.org/2000/svg" version="1.1" width = "1027" height = "1027" viewBox = "-1 -1 1026 1026" preserveAspectRatio = "none" shape-rendering="auto">
<g style="fill:rgb(0,0,0);">
 <rect x="0" y="0" width="1024" height="1024"/>
 <rect x="259.793" y="0" width="504.415" height="1024"/>
</g><g style="fill:rgb(229,229,229);">
 <rect x="419.081" y="132.741" width="34.1333" height="45.5111"/>
 <rect x="328.059" y="136.533" width="3.7926" height="64.4741"/>
 <rect x="354.607" y="136.533" width="7.58517" height="109.985"/>
 <rect x="415.289" y="136.533" width="37.9259" height="41.7185"/>
 <rect x="517.689" y="136.533" width="41.7185" height="53.0963"/>
 <rect x="559.407" y="136.533" width="30.3408" height="30.3408"/>
 <rect x="589.748" y="136.533" width="7.58514" height="15.1704"/>
 <rect x="604.919" y="136.533" width="60.6815" height="18.963"/>
 <rect x="680.77" y="136.533" width="11.3777" height="75.8519"/>
 <rect x="703.526" y="136.533" width="11.3777" height="98.6074"/>
 <rect x="362.193" y="140.326" width="3.79257" height="106.193"/>
 <rect x="411.496" y="140.326" width="41.7185" height="37.9259"/>
 <rect x="502.519" y="140.326" width="56.8889" height="49.3037"/>
 <rect x="597.333" y="140.326" width="94.8148" height="7.58517"/>
 <rect x="293.926" y="144.119" width="37.926" height="56.8889"/>
 <rect x="335.644" y="144.119" width="15.1704" height="102.4"/>
 <rect x="407.704" y="144.119" width="45.5111" height="34.1333"/>
 <rect x="692.148" y="144.119" width="26.5482" height="83.437"/>
 <rect x="733.867" y="144.119" width="3.79254" height="68.2667"/>
 <rect x="274.963" y="147.911" width="94.8148" height="11.3778"/>
 <rect x="403.911" y="147.911" width="56.8889" height="30.3408"/>
 <rect x="665.6" y="147.911" width="53.0963" height="30.3408"/>
 <rect x="730.074" y="147.911" width="11.3777" height="18.963"/>
 <rect x="741.452" y="147.911" width="3.7926" height="7.58521"/>
 <rect x="369.778" y="151.704" width="3.7926" height="41.7185"/>
 <rect x="377.363" y="151.704" width="7.58517" height="37.9259"/>
 <rect x="400.119" y="151.704" width="68.2667" height="26.5482"/>
 <rect x="491.141" y="151.704" width="68.2667" height="37.9259"/>
 <rect x="726.281" y="151.704" width="15.1703" height="15.1704"/>
 <rect x="373.57" y="155.496" width="11.3778" height="34.1333"/>
 <rect x="392.533" y="155.496" width="26.5482" height="26.5481"/>
 <rect x="616.296" y="155.496" width="121.363" height="15.1703"/>
 <rect x="286.341" y="159.289" width="98.6074" height="11.3778"/>
 <rect x="468.385" y="159.289" width="7.58517" height="30.3408"/>
 <rect x="483.556" y="159.289" width="75.8519" height="26.5482"/>
 <rect x="589.748" y="163.081" width="3.7926" height="11.3778"/>
 <rect x="574.578" y="166.874" width="18.963" height="3.79257"/>
 <rect x="331.852" y="170.667" width="34.1333" height="41.7185"/>
 <rect x="365.985" y="170.667" width="18.963" height="18.963"/>
 <rect x="384.948" y="170.667" width="174.459" height="7.58521"/>
 <rect x="578.37" y="170.667" width="15.1704" height="3.7926"/>
 <rect x="623.881" y="170.667" width="113.778" height="3.7926"/>
 <rect x="627.674" y="174.459" width="26.5482" height="3.7926"/>
 <rect x="718.696" y="174.459" width="18.963" height="37.9259"/>
 <rect x="430.459" y="178.252" width="34.1333" height="45.5111"/>
 <rect x="464.593" y="178.252" width="11.3778" height="11.3778"/>
 <rect x="631.467" y="178.252" width="3.7926" height="3.79257"/>
 <rect x="642.844" y="178.252" width="11.3777" height="3.79257"/>
 <rect x="673.185" y="178.252" width="64.4741" height="15.1703"/>
 <rect x="274.963" y="182.044" width="91.0222" height="18.963"/>
 <rect x="559.407" y="182.044" width="3.7926" height="7.58521"/>
 <rect x="737.659" y="182.044" width="3.7926" height="30.3408"/>
 <rect x="487.348" y="185.837" width="75.8519" height="3.7926"/>
 <rect x="741.452" y="185.837" width="3.7926" height="26.5482"/>
 <rect x="373.57" y="189.63" width="7.58517" height="3.79257"/>
 <rect x="426.667" y="189.63" width="34.1333" height="56.8889"/>
 <rect x="464.593" y="189.63" width="3.7926" height="22.7556"/>
 <rect x="468.385" y="189.63" width="3.79257" height="3.79257"/>
 <rect x="513.896" y="189.63" width="22.7556" height="37.9259"/>
 <rect x="365.985" y="193.422" width="3.7926" height="18.963"/>
 <rect x="377.363" y="193.422" width="3.79257" height="3.7926"/>
 <rect x="676.978" y="193.422" width="72.0593" height="3.7926"/>
 <rect x="578.37" y="197.215" width="22.7556" height="18.963"/>
 <rect x="608.711" y="197.215" width="15.1703" height="56.8889"/>
 <rect x="745.244" y="197.215" width="3.7926" height="15.1704"/>
 <rect x="293.926" y="201.007" width="15.1704" height="3.79257"/>
 <rect x="536.652" y="201.007" width="26.5482" height="26.5481"/>
 <rect x="601.126" y="201.007" width="41.7186" height="41.7185"/>
 <rect x="487.348" y="204.8" width="75.8519" height="18.963"/>
 <rect x="642.844" y="208.593" width="7.58514" height="45.5111"/>
 <rect x="350.815" y="212.385" width="15.1703" height="34.1333"/>
 <rect x="688.356" y="212.385" width="26.5481" height="18.963"/>
 <rect x="718.696" y="212.385" width="7.58521" height="7.58517"/>
 <rect x="365.985" y="216.178" width="11.3778" height="11.3778"/>
 <rect x="377.363" y="216.178" width="3.79257" height="7.58521"/>
 <rect x="582.163" y="216.178" width="68.2667" height="26.5482"/>
 <rect x="483.556" y="219.97" width="79.6445" height="3.7926"/>
 <rect x="578.37" y="219.97" width="75.8519" height="22.7556"/>
 <rect x="718.696" y="219.97" width="3.7926" height="3.7926"/>
 <rect x="365.985" y="227.556" width="3.7926" height="7.58521"/>
 <rect x="517.689" y="227.556" width="15.1703" height="3.7926"/>
 <rect x="536.652" y="227.556" width="15.1703" height="11.3778"/>
 <rect x="551.822" y="227.556" width="3.7926" height="7.58521"/>
 <rect x="555.615" y="227.556" width="3.7926" height="3.7926"/>
 <rect x="460.8" y="231.348" width="3.7926" height="15.1704"/>
 <rect x="521.482" y="231.348" width="7.58514" height="7.58517"/>
 <rect x="517.689" y="235.141" width="11.3777" height="3.79257"/>
 <rect x="703.526" y="235.141" width="3.79254" height="3.79257"/>
 <rect x="540.444" y="238.933" width="7.58514" height="7.58521"/>
 <rect x="464.593" y="242.726" width="11.3778" height="3.7926"/>
 <rect x="578.37" y="242.726" width="18.963" height="3.7926"/>
 <rect x="623.881" y="242.726" width="22.7556" height="26.5482"/>
 <rect x="650.43" y="242.726" width="3.7926" height="11.3778"/>
 <rect x="339.437" y="246.519" width="7.58517" height="201.007"/>
 <rect x="430.459" y="246.519" width="7.58517" height="144.118"/>
 <rect x="582.163" y="246.519" width="7.58521" height="147.911"/>
 <rect x="331.852" y="254.104" width="41.7185" height="144.119"/>
 <rect x="396.326" y="254.104" width="7.58517" height="7.58521"/>
 <rect x="419.081" y="254.104" width="30.3407" height="7.58521"/>
 <rect x="574.578" y="254.104" width="18.963" height="140.326"/>
 <rect x="616.296" y="254.104" width="30.3408" height="15.1704"/>
 <rect x="312.889" y="257.896" width="60.6815" height="128.948"/>
 <rect x="403.911" y="257.896" width="75.8519" height="3.7926"/>
 <rect x="510.104" y="257.896" width="34.1334" height="18.963"/>
 <rect x="309.096" y="261.689" width="64.4741" height="26.5481"/>
 <rect x="392.533" y="261.689" width="7.58521" height="3.79257"/>
 <rect x="407.704" y="261.689" width="3.7926" height="3.79257"/>
 <rect x="422.874" y="261.689" width="83.437" height="117.57"/>
 <rect x="506.311" y="261.689" width="56.8889" height="15.1703"/>
 <rect x="377.363" y="265.481" width="3.79257" height="15.1704"/>
 <rect x="396.326" y="265.481" width="3.7926" height="18.963"/>
 <rect x="305.304" y="269.274" width="72.0593" height="15.1704"/>
 <rect x="381.156" y="269.274" width="3.7926" height="11.3778"/>
 <rect x="419.081" y="273.067" width="87.2296" height="106.193"/>
 <rect x="415.289" y="276.859" width="91.0222" height="91.0222"/>
 <rect x="544.237" y="276.859" width="18.963" height="113.778"/>
 <rect x="407.704" y="280.652" width="98.6074" height="79.6444"/>
 <rect x="373.57" y="284.444" width="3.7926" height="113.778"/>
 <rect x="400.119" y="284.444" width="132.741" height="75.8518"/>
 <rect x="604.919" y="288.237" width="15.1703" height="79.6444"/>
 <rect x="620.089" y="288.237" width="3.7926" height="3.7926"/>
 <rect x="661.807" y="288.237" width="30.3408" height="56.8889"/>
 <rect x="593.541" y="292.03" width="26.5481" height="72.0592"/>
 <rect x="692.148" y="292.03" width="30.3408" height="72.0592"/>
 <rect x="642.844" y="295.822" width="98.6074" height="49.3037"/>
 <rect x="620.089" y="299.615" width="3.7926" height="53.0963"/>
 <rect x="309.096" y="303.407" width="68.2667" height="45.5111"/>
 <rect x="563.2" y="303.407" width="3.7926" height="45.5111"/>
 <rect x="305.304" y="307.2" width="72.0593" height="37.9259"/>
 <rect x="396.326" y="307.2" width="136.533" height="37.9259"/>
 <rect x="301.511" y="310.993" width="79.6444" height="26.5481"/>
 <rect x="392.533" y="310.993" width="140.326" height="26.5481"/>
 <rect x="635.259" y="310.993" width="106.193" height="30.3407"/>
 <rect x="741.452" y="310.993" width="3.7926" height="26.5481"/>
 <rect x="381.156" y="314.785" width="3.7926" height="26.5481"/>
 <rect x="566.993" y="314.785" width="60.6815" height="22.7556"/>
 <rect x="384.948" y="322.37" width="147.911" height="7.58521"/>
 <rect x="627.674" y="322.37" width="117.57" height="7.58521"/>
 <rect x="377.363" y="337.541" width="7.58517" height="3.79257"/>
 <rect x="623.881" y="337.541" width="3.7926" height="15.1704"/>
 <rect x="639.052" y="341.333" width="26.5481" height="15.1704"/>
 <rect x="722.489" y="345.126" width="22.7556" height="26.5482"/>
 <rect x="642.844" y="356.504" width="37.9259" height="3.79257"/>
 <rect x="688.356" y="356.504" width="56.8889" height="7.58514"/>
 <rect x="400.119" y="360.296" width="3.79257" height="15.1704"/>
 <rect x="506.311" y="360.296" width="26.5482" height="7.58517"/>
 <rect x="620.089" y="360.296" width="7.58521" height="7.58517"/>
 <rect x="661.807" y="360.296" width="18.963" height="3.79257"/>
 <rect x="309.096" y="364.089" width="68.2667" height="22.7556"/>
 <rect x="403.911" y="364.089" width="3.7926" height="11.3778"/>
 <rect x="699.733" y="364.089" width="11.3777" height="26.5482"/>
 <rect x="711.111" y="364.089" width="34.1334" height="7.58521"/>
 <rect x="305.304" y="367.881" width="72.0593" height="15.1704"/>
 <rect x="396.326" y="367.881" width="11.3778" height="7.58521"/>
 <rect x="377.363" y="371.674" width="3.79257" height="15.1704"/>
 <rect x="733.867" y="371.674" width="11.3777" height="18.963"/>
 <rect x="381.156" y="375.467" width="3.7926" height="11.3778"/>
 <rect x="396.326" y="375.467" width="3.7926" height="18.963"/>
 <rect x="506.311" y="375.467" width="56.8889" height="15.1703"/>
 <rect x="593.541" y="375.467" width="3.79254" height="18.963"/>
 <rect x="745.244" y="375.467" width="3.7926" height="22.7556"/>
 <rect x="411.496" y="379.259" width="3.79257" height="15.1703"/>
 <rect x="426.667" y="379.259" width="136.533" height="11.3777"/>
 <rect x="604.919" y="379.259" width="34.1334" height="18.963"/>
 <rect x="639.052" y="379.259" width="3.7926" height="3.79257"/>
 <rect x="407.704" y="383.052" width="7.58517" height="11.3778"/>
 <rect x="597.333" y="383.052" width="41.7186" height="7.58517"/>
 <rect x="309.096" y="386.844" width="3.79257" height="3.79257"/>
 <rect x="316.681" y="386.844" width="60.6815" height="7.58517"/>
 <rect x="400.119" y="386.844" width="18.963" height="7.58517"/>
 <rect x="422.874" y="386.844" width="140.326" height="3.79257"/>
 <rect x="639.052" y="386.844" width="3.7926" height="45.5111"/>
 <rect x="449.422" y="390.637" width="26.5482" height="7.58521"/>
 <rect x="475.97" y="390.637" width="3.7926" height="3.7926"/>
 <rect x="510.104" y="390.637" width="34.1334" height="3.7926"/>
 <rect x="642.844" y="390.637" width="3.79254" height="41.7185"/>
 <rect x="328.059" y="394.43" width="49.3037" height="3.7926"/>
 <rect x="460.8" y="398.222" width="7.58521" height="208.593"/>
 <rect x="608.711" y="398.222" width="37.9259" height="34.1333"/>
 <rect x="646.637" y="402.015" width="7.58521" height="30.3407"/>
 <rect x="335.644" y="405.807" width="22.7556" height="37.9259"/>
 <rect x="445.63" y="405.807" width="34.1333" height="75.8519"/>
 <rect x="384.948" y="409.6" width="15.1704" height="41.7185"/>
 <rect x="479.763" y="409.6" width="15.1703" height="72.0593"/>
 <rect x="654.222" y="409.6" width="7.58514" height="22.7556"/>
 <rect x="676.978" y="409.6" width="7.58521" height="18.963"/>
 <rect x="358.4" y="413.393" width="11.3778" height="37.9259"/>
 <rect x="373.57" y="413.393" width="30.3407" height="37.9259"/>
 <rect x="438.044" y="413.393" width="56.8889" height="68.2667"/>
 <rect x="661.807" y="413.393" width="18.963" height="18.963"/>
 <rect x="369.778" y="417.185" width="37.9259" height="34.1333"/>
 <rect x="494.933" y="417.185" width="7.58521" height="7.58521"/>
 <rect x="407.704" y="420.978" width="3.7926" height="34.1333"/>
 <rect x="430.459" y="420.978" width="68.2667" height="60.6815"/>
 <rect x="422.874" y="428.563" width="75.8518" height="53.0963"/>
 <rect x="411.496" y="432.356" width="3.79257" height="22.7556"/>
 <rect x="604.919" y="432.356" width="34.1334" height="11.3778"/>
 <rect x="665.6" y="432.356" width="15.1704" height="18.963"/>
 <rect x="680.77" y="436.148" width="3.7926" height="15.1704"/>
 <rect x="521.482" y="439.941" width="18.963" height="3.7926"/>
 <rect x="566.993" y="439.941" width="22.7556" height="26.5482"/>
 <rect x="589.748" y="439.941" width="3.7926" height="15.1704"/>
 <rect x="347.022" y="443.733" width="15.1704" height="11.3778"/>
 <rect x="415.289" y="443.733" width="94.8148" height="7.58517"/>
 <rect x="525.274" y="443.733" width="22.7556" height="72.0593"/>
 <rect x="559.407" y="443.733" width="22.7556" height="72.0593"/>
 <rect x="612.504" y="443.733" width="11.3777" height="3.7926"/>
 <rect x="635.259" y="443.733" width="3.7926" height="11.3778"/>
 <rect x="343.23" y="447.526" width="174.459" height="3.79257"/>
 <rect x="548.03" y="447.526" width="34.1334" height="64.4741"/>
 <rect x="616.296" y="447.526" width="7.58521" height="3.79257"/>
 <rect x="737.659" y="447.526" width="3.7926" height="144.119"/>
 <rect x="388.741" y="451.319" width="26.5482" height="3.7926"/>
 <rect x="498.726" y="451.319" width="83.437" height="30.3408"/>
 <rect x="620.089" y="451.319" width="3.7926" height="7.58521"/>
 <rect x="665.6" y="451.319" width="7.58521" height="3.7926"/>
 <rect x="733.867" y="451.319" width="7.58514" height="140.326"/>
 <rect x="726.281" y="455.111" width="15.1703" height="136.533"/>
 <rect x="741.452" y="455.111" width="7.58521" height="7.58517"/>
 <rect x="714.904" y="458.904" width="26.5482" height="11.3778"/>
 <rect x="711.111" y="462.696" width="34.1334" height="3.7926"/>
 <rect x="608.711" y="470.281" width="22.7556" height="41.7185"/>
 <rect x="703.526" y="470.281" width="7.58514" height="113.778"/>
 <rect x="722.489" y="470.281" width="18.963" height="117.57"/>
 <rect x="597.333" y="474.074" width="34.1334" height="37.9259"/>
 <rect x="699.733" y="474.074" width="11.3777" height="98.6074"/>
 <rect x="582.163" y="477.867" width="3.7926" height="128.948"/>
 <rect x="589.748" y="477.867" width="49.3037" height="34.1333"/>
 <rect x="673.185" y="477.867" width="7.58521" height="79.6444"/>
 <rect x="711.111" y="477.867" width="30.3408" height="109.985"/>
 <rect x="422.874" y="481.659" width="18.963" height="7.58517"/>
 <rect x="449.422" y="481.659" width="26.5482" height="7.58517"/>
 <rect x="475.97" y="481.659" width="3.7926" height="3.79257"/>
 <rect x="487.348" y="481.659" width="15.1704" height="3.79257"/>
 <rect x="521.482" y="481.659" width="30.3407" height="34.1333"/>
 <rect x="585.956" y="481.659" width="53.0963" height="30.3407"/>
 <rect x="680.77" y="481.659" width="60.6815" height="79.6444"/>
 <rect x="639.052" y="485.452" width="11.3777" height="30.3408"/>
 <rect x="669.393" y="485.452" width="72.0593" height="68.2667"/>
 <rect x="650.43" y="489.244" width="7.58521" height="26.5482"/>
 <rect x="665.6" y="493.037" width="75.8519" height="26.5482"/>
 <rect x="741.452" y="493.037" width="3.7926" height="3.79257"/>
 <rect x="331.852" y="496.83" width="7.58517" height="3.7926"/>
 <rect x="354.607" y="496.83" width="3.79257" height="37.9259"/>
 <rect x="453.215" y="496.83" width="41.7185" height="109.985"/>
 <rect x="494.933" y="496.83" width="7.58521" height="30.3407"/>
 <rect x="335.644" y="500.622" width="22.7556" height="7.58517"/>
 <rect x="388.741" y="500.622" width="30.3408" height="15.1704"/>
 <rect x="449.422" y="500.622" width="53.0963" height="22.7556"/>
 <rect x="517.689" y="500.622" width="18.963" height="18.963"/>
 <rect x="358.4" y="504.415" width="22.7556" height="22.7555"/>
 <rect x="381.156" y="504.415" width="121.363" height="11.3778"/>
 <rect x="658.015" y="504.415" width="83.437" height="7.58517"/>
 <rect x="339.437" y="508.207" width="18.963" height="26.5482"/>
 <rect x="335.644" y="512" width="166.874" height="3.7926"/>
 <rect x="585.956" y="512" width="11.3777" height="7.58521"/>
 <rect x="597.333" y="512" width="15.1704" height="3.7926"/>
 <rect x="620.089" y="512" width="37.926" height="3.7926"/>
 <rect x="381.156" y="515.793" width="3.7926" height="7.58521"/>
 <rect x="392.533" y="515.793" width="3.7926" height="7.58521"/>
 <rect x="396.326" y="515.793" width="106.193" height="3.7926"/>
 <rect x="570.785" y="515.793" width="26.5482" height="3.7926"/>
 <rect x="335.644" y="519.585" width="18.963" height="18.963"/>
 <rect x="407.704" y="519.585" width="18.963" height="3.7926"/>
 <rect x="585.956" y="519.585" width="3.7926" height="87.2296"/>
 <rect x="741.452" y="519.585" width="3.7926" height="34.1333"/>
 <rect x="411.496" y="523.378" width="11.3778" height="79.6444"/>
 <rect x="369.778" y="527.17" width="11.3778" height="75.8519"/>
 <rect x="559.407" y="527.17" width="41.7185" height="26.5482"/>
 <rect x="635.259" y="527.17" width="7.58521" height="11.3778"/>
 <rect x="381.156" y="530.963" width="113.778" height="45.5111"/>
 <rect x="555.615" y="530.963" width="56.8889" height="22.7556"/>
 <rect x="612.504" y="530.963" width="34.1333" height="7.58521"/>
 <rect x="551.822" y="534.756" width="60.6815" height="18.963"/>
 <rect x="646.637" y="534.756" width="3.7926" height="68.2667"/>
 <rect x="335.644" y="538.548" width="15.1704" height="49.3037"/>
 <rect x="548.03" y="538.548" width="64.4741" height="15.1703"/>
 <rect x="642.844" y="538.548" width="11.3777" height="3.7926"/>
 <rect x="350.815" y="542.341" width="3.7926" height="7.58514"/>
 <rect x="544.237" y="542.341" width="68.2667" height="7.58514"/>
 <rect x="650.43" y="542.341" width="7.58521" height="11.3777"/>
 <rect x="354.607" y="546.133" width="3.79257" height="3.79254"/>
 <rect x="612.504" y="546.133" width="3.79254" height="41.7185"/>
 <rect x="620.089" y="546.133" width="3.7926" height="37.9259"/>
 <rect x="639.052" y="546.133" width="15.1703" height="37.9259"/>
 <rect x="616.296" y="549.926" width="37.926" height="30.3408"/>
 <rect x="548.03" y="553.719" width="7.58521" height="45.5111"/>
 <rect x="563.2" y="553.719" width="91.0222" height="3.7926"/>
 <rect x="566.993" y="557.511" width="45.5111" height="49.3037"/>
 <rect x="350.815" y="561.304" width="7.58517" height="7.58521"/>
 <rect x="563.2" y="561.304" width="91.0222" height="3.7926"/>
 <rect x="688.356" y="561.304" width="53.0963" height="3.7926"/>
 <rect x="563.2" y="572.681" width="91.0222" height="3.7926"/>
 <rect x="350.815" y="576.474" width="7.58517" height="30.3408"/>
 <rect x="358.4" y="580.267" width="22.7556" height="22.7556"/>
 <rect x="494.933" y="580.267" width="7.58521" height="30.3408"/>
 <rect x="563.2" y="580.267" width="49.3037" height="26.5482"/>
 <rect x="616.296" y="580.267" width="7.58521" height="3.7926"/>
 <rect x="635.259" y="580.267" width="18.963" height="3.7926"/>
 <rect x="741.452" y="580.267" width="3.7926" height="11.3778"/>
 <rect x="544.237" y="584.059" width="68.2667" height="11.3777"/>
 <rect x="642.844" y="584.059" width="11.3777" height="15.1703"/>
 <rect x="339.437" y="587.852" width="18.963" height="18.963"/>
 <rect x="381.156" y="587.852" width="3.7926" height="15.1703"/>
 <rect x="407.704" y="587.852" width="22.7556" height="15.1703"/>
 <rect x="449.422" y="587.852" width="53.0963" height="18.963"/>
 <rect x="654.222" y="587.852" width="3.7926" height="7.58514"/>
 <rect x="711.111" y="587.852" width="11.3778" height="3.7926"/>
 <rect x="335.644" y="591.644" width="166.874" height="3.79254"/>
 <rect x="612.504" y="591.644" width="3.79254" height="15.1703"/>
 <rect x="623.881" y="591.644" width="3.7926" height="15.1703"/>
 <rect x="631.467" y="591.644" width="3.7926" height="18.963"/>
 <rect x="384.948" y="595.437" width="117.57" height="7.58521"/>
 <rect x="555.615" y="595.437" width="91.0222" height="11.3778"/>
 <rect x="551.822" y="599.23" width="98.6074" height="3.7926"/>
 <rect x="388.741" y="603.022" width="30.3408" height="3.7926"/>
 <rect x="479.763" y="606.815" width="22.7556" height="3.7926"/>
 <rect x="559.407" y="606.815" width="7.58521" height="3.7926"/>
 <rect x="635.259" y="606.815" width="7.58521" height="3.7926"/>
</g><g style="fill:rgb(0,127,0);">
 <rect x="419.081" y="128.948" width="34.1333" height="3.7926"/>
 <rect x="328.059" y="132.741" width="3.7926" height="3.79257"/>
 <rect x="354.607" y="132.741" width="7.58517" height="3.79257"/>
 <rect x="415.289" y="132.741" width="3.7926" height="3.79257"/>
 <rect x="453.215" y="132.741" width="3.7926" height="15.1703"/>
 <rect x="517.689" y="132.741" width="79.6444" height="3.79257"/>
 <rect x="604.919" y="132.741" width="60.6815" height="3.79257"/>
 <rect x="680.77" y="132.741" width="11.3777" height="3.79257"/>
 <rect x="703.526" y="132.741" width="11.3777" height="3.79257"/>
 <rect x="324.267" y="136.533" width="3.7926" height="7.58521"/>
 <rect x="331.852" y="136.533" width="3.79257" height="11.3778"/>
 <rect x="350.815" y="136.533" width="3.7926" height="11.3778"/>
 <rect x="362.193" y="136.533" width="3.79257" height="3.7926"/>
 <rect x="411.496" y="136.533" width="3.79257" height="3.7926"/>
 <rect x="502.519" y="136.533" width="15.1704" height="3.7926"/>
 <rect x="597.333" y="136.533" width="7.58521" height="3.7926"/>
 <rect x="665.6" y="136.533" width="15.1704" height="3.7926"/>
 <rect x="692.148" y="136.533" width="3.7926" height="7.58521"/>
 <rect x="699.733" y="136.533" width="3.7926" height="7.58521"/>
 <rect x="714.904" y="136.533" width="3.7926" height="7.58521"/>
 <rect x="293.926" y="140.326" width="34.1334" height="3.7926"/>
 <rect x="335.644" y="140.326" width="18.963" height="3.7926"/>
 <rect x="365.985" y="140.326" width="3.7926" height="7.58517"/>
 <rect x="407.704" y="140.326" width="3.7926" height="3.7926"/>
 <rect x="498.726" y="140.326" width="3.7926" height="11.3778"/>
 <rect x="695.941" y="140.326" width="7.58521" height="3.7926"/>
 <rect x="733.867" y="140.326" width="3.79254" height="3.7926"/>
 <rect x="274.963" y="144.119" width="18.963" height="3.79257"/>
 <rect x="403.911" y="144.119" width="3.7926" height="3.79257"/>
 <rect x="457.007" y="144.119" width="3.79257" height="3.79257"/>
 <rect x="718.696" y="144.119" width="3.7926" height="11.3778"/>
 <rect x="730.074" y="144.119" width="3.7926" height="3.79257"/>
 <rect x="737.659" y="144.119" width="7.58521" height="3.79257"/>
 <rect x="271.17" y="147.911" width="3.7926" height="11.3778"/>
 <rect x="369.778" y="147.911" width="3.7926" height="3.7926"/>
 <rect x="377.363" y="147.911" width="7.58517" height="3.7926"/>
 <rect x="400.119" y="147.911" width="3.79257" height="3.7926"/>
 <rect x="460.8" y="147.911" width="7.58521" height="3.7926"/>
 <rect x="491.141" y="147.911" width="11.3778" height="3.7926"/>
 <rect x="597.333" y="147.911" width="7.58521" height="3.7926"/>
 <rect x="726.281" y="147.911" width="3.7926" height="3.7926"/>
 <rect x="745.244" y="147.911" width="3.7926" height="7.58521"/>
 <rect x="373.57" y="151.704" width="3.7926" height="3.7926"/>
 <rect x="384.948" y="151.704" width="3.79257" height="18.963"/>
 <rect x="392.533" y="151.704" width="7.58521" height="3.7926"/>
 <rect x="468.385" y="151.704" width="3.79257" height="7.58517"/>
 <rect x="487.348" y="151.704" width="3.7926" height="7.58517"/>
 <rect x="589.748" y="151.704" width="3.7926" height="11.3778"/>
 <rect x="593.541" y="151.704" width="3.79254" height="3.7926"/>
 <rect x="601.126" y="151.704" width="3.7926" height="3.7926"/>
 <rect x="722.489" y="151.704" width="3.7926" height="3.7926"/>
 <rect x="388.741" y="155.496" width="3.7926" height="15.1703"/>
 <rect x="472.178" y="155.496" width="3.7926" height="3.79257"/>
 <rect x="483.556" y="155.496" width="7.58521" height="3.79257"/>
 <rect x="604.919" y="155.496" width="11.3777" height="3.79257"/>
 <rect x="741.452" y="155.496" width="3.7926" height="11.3778"/>
 <rect x="274.963" y="159.289" width="11.3778" height="3.7926"/>
 <rect x="475.97" y="159.289" width="7.58517" height="11.3778"/>
 <rect x="612.504" y="159.289" width="3.79254" height="11.3778"/>
 <rect x="282.548" y="163.081" width="3.7926" height="7.58517"/>
 <rect x="593.541" y="163.081" width="3.79254" height="11.3778"/>
 <rect x="559.407" y="166.874" width="3.7926" height="15.1703"/>
 <rect x="563.2" y="166.874" width="11.3777" height="3.79257"/>
 <rect x="737.659" y="166.874" width="3.7926" height="15.1703"/>
 <rect x="286.341" y="170.667" width="7.58514" height="3.7926"/>
 <rect x="574.578" y="170.667" width="3.7926" height="3.7926"/>
 <rect x="616.296" y="170.667" width="7.58521" height="3.7926"/>
 <rect x="290.133" y="174.459" width="3.79257" height="7.58517"/>
 <rect x="578.37" y="174.459" width="15.1704" height="3.7926"/>
 <rect x="623.881" y="174.459" width="3.7926" height="3.7926"/>
 <rect x="654.222" y="174.459" width="3.7926" height="7.58517"/>
 <rect x="658.015" y="174.459" width="7.58514" height="3.7926"/>
 <rect x="274.963" y="178.252" width="18.963" height="3.79257"/>
 <rect x="384.948" y="178.252" width="3.79257" height="11.3778"/>
 <rect x="388.741" y="178.252" width="3.7926" height="3.79257"/>
 <rect x="419.081" y="178.252" width="11.3778" height="3.79257"/>
 <rect x="475.97" y="178.252" width="7.58517" height="7.58517"/>
 <rect x="627.674" y="178.252" width="3.7926" height="3.79257"/>
 <rect x="635.259" y="178.252" width="7.58521" height="3.79257"/>
 <rect x="665.6" y="178.252" width="7.58521" height="3.79257"/>
 <rect x="271.17" y="182.044" width="3.7926" height="18.963"/>
 <rect x="392.533" y="182.044" width="26.5482" height="3.7926"/>
 <rect x="426.667" y="182.044" width="3.7926" height="7.58521"/>
 <rect x="563.2" y="182.044" width="3.7926" height="7.58521"/>
 <rect x="631.467" y="182.044" width="3.7926" height="3.7926"/>
 <rect x="642.844" y="182.044" width="11.3777" height="3.7926"/>
 <rect x="669.393" y="182.044" width="3.7926" height="11.3778"/>
 <rect x="741.452" y="182.044" width="3.7926" height="3.7926"/>
 <rect x="475.97" y="185.837" width="3.7926" height="3.7926"/>
 <rect x="483.556" y="185.837" width="3.7926" height="3.7926"/>
 <rect x="745.244" y="185.837" width="3.7926" height="7.58517"/>
 <rect x="365.985" y="189.63" width="3.7926" height="3.79257"/>
 <rect x="381.156" y="189.63" width="3.7926" height="7.58517"/>
 <rect x="422.874" y="189.63" width="3.79257" height="56.8889"/>
 <rect x="472.178" y="189.63" width="3.7926" height="3.79257"/>
 <rect x="487.348" y="189.63" width="26.5482" height="3.79257"/>
 <rect x="536.652" y="189.63" width="3.7926" height="11.3778"/>
 <rect x="540.444" y="189.63" width="22.7556" height="3.79257"/>
 <rect x="369.778" y="193.422" width="3.7926" height="22.7556"/>
 <rect x="373.57" y="193.422" width="3.7926" height="3.7926"/>
 <rect x="468.385" y="193.422" width="3.79257" height="18.963"/>
 <rect x="510.104" y="193.422" width="3.7926" height="11.3778"/>
 <rect x="578.37" y="193.422" width="22.7556" height="3.7926"/>
 <rect x="608.711" y="193.422" width="15.1703" height="3.7926"/>
 <rect x="673.185" y="193.422" width="3.7926" height="3.7926"/>
 <rect x="749.037" y="193.422" width="3.7926" height="18.963"/>
 <rect x="377.363" y="197.215" width="3.79257" height="3.7926"/>
 <rect x="540.444" y="197.215" width="22.7556" height="3.7926"/>
 <rect x="574.578" y="197.215" width="3.7926" height="18.963"/>
 <rect x="601.126" y="197.215" width="7.58521" height="3.7926"/>
 <rect x="623.881" y="197.215" width="18.963" height="3.7926"/>
 <rect x="676.978" y="197.215" width="3.7926" height="15.1704"/>
 <rect x="274.963" y="201.007" width="18.963" height="3.79257"/>
 <rect x="309.096" y="201.007" width="22.7556" height="3.79257"/>
 <rect x="487.348" y="201.007" width="26.5482" height="3.79257"/>
 <rect x="563.2" y="201.007" width="3.7926" height="26.5481"/>
 <rect x="642.844" y="201.007" width="3.79254" height="7.58517"/>
 <rect x="293.926" y="204.8" width="15.1704" height="3.7926"/>
 <rect x="328.059" y="204.8" width="3.7926" height="7.58521"/>
 <rect x="483.556" y="204.8" width="3.7926" height="15.1704"/>
 <rect x="646.637" y="204.8" width="3.7926" height="3.7926"/>
 <rect x="650.43" y="208.593" width="3.7926" height="11.3778"/>
 <rect x="331.852" y="212.385" width="3.79257" height="34.1333"/>
 <rect x="365.985" y="212.385" width="15.1704" height="3.79257"/>
 <rect x="464.593" y="212.385" width="3.7926" height="11.3778"/>
 <rect x="680.77" y="212.385" width="7.58521" height="3.79257"/>
 <rect x="726.281" y="212.385" width="3.7926" height="7.58517"/>
 <rect x="730.074" y="212.385" width="18.963" height="3.79257"/>
 <rect x="381.156" y="216.178" width="3.7926" height="7.58521"/>
 <rect x="578.37" y="216.178" width="3.7926" height="3.7926"/>
 <rect x="684.563" y="216.178" width="3.7926" height="15.1704"/>
 <rect x="479.763" y="219.97" width="3.79257" height="3.7926"/>
 <rect x="574.578" y="219.97" width="3.7926" height="26.5482"/>
 <rect x="654.222" y="219.97" width="3.7926" height="34.1333"/>
 <rect x="722.489" y="219.97" width="3.7926" height="3.7926"/>
 <rect x="377.363" y="223.763" width="3.79257" height="3.79257"/>
 <rect x="460.8" y="223.763" width="3.7926" height="7.58517"/>
 <rect x="483.556" y="223.763" width="30.3408" height="3.79257"/>
 <rect x="718.696" y="223.763" width="3.7926" height="3.79257"/>
 <rect x="369.778" y="227.556" width="3.7926" height="7.58521"/>
 <rect x="373.57" y="227.556" width="3.7926" height="3.7926"/>
 <rect x="513.896" y="227.556" width="3.7926" height="3.7926"/>
 <rect x="532.859" y="227.556" width="3.7926" height="11.3778"/>
 <rect x="559.407" y="227.556" width="3.7926" height="3.7926"/>
 <rect x="714.904" y="227.556" width="3.7926" height="7.58521"/>
 <rect x="464.593" y="231.348" width="3.7926" height="11.3778"/>
 <rect x="517.689" y="231.348" width="3.7926" height="3.7926"/>
 <rect x="529.067" y="231.348" width="7.58521" height="7.58517"/>
 <rect x="555.615" y="231.348" width="3.7926" height="3.7926"/>
 <rect x="688.356" y="231.348" width="15.1703" height="3.7926"/>
 <rect x="365.985" y="235.141" width="3.7926" height="11.3778"/>
 <rect x="513.896" y="235.141" width="3.7926" height="3.79257"/>
 <rect x="551.822" y="235.141" width="3.7926" height="3.79257"/>
 <rect x="699.733" y="235.141" width="3.7926" height="3.79257"/>
 <rect x="707.318" y="235.141" width="7.58521" height="3.79257"/>
 <rect x="468.385" y="238.933" width="7.58517" height="3.7926"/>
 <rect x="517.689" y="238.933" width="11.3777" height="3.7926"/>
 <rect x="536.652" y="238.933" width="3.7926" height="7.58521"/>
 <rect x="548.03" y="238.933" width="3.7926" height="7.58521"/>
 <rect x="703.526" y="238.933" width="3.79254" height="3.7926"/>
 <rect x="475.97" y="242.726" width="3.7926" height="3.7926"/>
 <rect x="597.333" y="242.726" width="11.3778" height="3.7926"/>
 <rect x="335.644" y="246.519" width="3.7926" height="7.58517"/>
 <rect x="347.022" y="246.519" width="18.963" height="7.58517"/>
 <rect x="426.667" y="246.519" width="3.7926" height="7.58517"/>
 <rect x="438.044" y="246.519" width="11.3778" height="7.58517"/>
 <rect x="449.422" y="246.519" width="26.5482" height="3.79257"/>
 <rect x="540.444" y="246.519" width="7.58514" height="3.79257"/>
 <rect x="578.37" y="246.519" width="3.7926" height="7.58517"/>
 <rect x="589.748" y="246.519" width="3.7926" height="7.58517"/>
 <rect x="593.541" y="246.519" width="3.79254" height="3.79257"/>
 <rect x="604.919" y="246.519" width="3.7926" height="7.58517"/>
 <rect x="331.852" y="250.311" width="7.58517" height="3.7926"/>
 <rect x="365.985" y="250.311" width="7.58521" height="3.7926"/>
 <rect x="396.326" y="250.311" width="7.58517" height="3.7926"/>
 <rect x="419.081" y="250.311" width="11.3778" height="3.7926"/>
 <rect x="574.578" y="250.311" width="7.58521" height="3.7926"/>
 <rect x="312.889" y="254.104" width="18.963" height="3.7926"/>
 <rect x="373.57" y="254.104" width="3.7926" height="15.1704"/>
 <rect x="392.533" y="254.104" width="3.7926" height="7.58521"/>
 <rect x="403.911" y="254.104" width="15.1704" height="3.7926"/>
 <rect x="449.422" y="254.104" width="30.3408" height="3.7926"/>
 <rect x="510.104" y="254.104" width="34.1334" height="3.7926"/>
 <rect x="570.785" y="254.104" width="3.7926" height="60.6815"/>
 <rect x="593.541" y="254.104" width="3.79254" height="37.9259"/>
 <rect x="608.711" y="254.104" width="7.58514" height="3.7926"/>
 <rect x="646.637" y="254.104" width="3.7926" height="15.1704"/>
 <rect x="650.43" y="254.104" width="3.7926" height="3.7926"/>
 <rect x="309.096" y="257.896" width="3.79257" height="3.7926"/>
 <rect x="479.763" y="257.896" width="30.3407" height="3.7926"/>
 <rect x="544.237" y="257.896" width="18.963" height="3.7926"/>
 <rect x="612.504" y="257.896" width="3.79254" height="11.3778"/>
 <rect x="305.304" y="261.689" width="3.7926" height="7.58517"/>
 <rect x="377.363" y="261.689" width="3.79257" height="3.79257"/>
 <rect x="388.741" y="261.689" width="3.7926" height="3.79257"/>
 <rect x="400.119" y="261.689" width="3.79257" height="22.7556"/>
 <rect x="403.911" y="261.689" width="3.7926" height="3.79257"/>
 <rect x="411.496" y="261.689" width="11.3778" height="3.79257"/>
 <rect x="563.2" y="261.689" width="3.7926" height="41.7185"/>
 <rect x="381.156" y="265.481" width="3.7926" height="3.7926"/>
 <rect x="392.533" y="265.481" width="3.7926" height="18.963"/>
 <rect x="407.704" y="265.481" width="3.7926" height="3.7926"/>
 <rect x="419.081" y="265.481" width="3.7926" height="7.58517"/>
 <rect x="301.511" y="269.274" width="3.7926" height="15.1704"/>
 <rect x="384.948" y="269.274" width="3.79257" height="11.3778"/>
 <rect x="616.296" y="269.274" width="30.3408" height="3.79257"/>
 <rect x="415.289" y="273.067" width="3.7926" height="3.7926"/>
 <rect x="407.704" y="276.859" width="7.58517" height="3.7926"/>
 <rect x="506.311" y="276.859" width="26.5482" height="7.58521"/>
 <rect x="532.859" y="276.859" width="11.3778" height="3.7926"/>
 <rect x="377.363" y="280.652" width="3.79257" height="30.3408"/>
 <rect x="381.156" y="280.652" width="3.7926" height="3.7926"/>
 <rect x="403.911" y="280.652" width="3.7926" height="3.7926"/>
 <rect x="540.444" y="280.652" width="3.7926" height="94.8148"/>
 <rect x="305.304" y="284.444" width="3.7926" height="3.79257"/>
 <rect x="396.326" y="284.444" width="3.7926" height="22.7556"/>
 <rect x="532.859" y="284.444" width="3.7926" height="83.437"/>
 <rect x="604.919" y="284.444" width="18.963" height="3.79257"/>
 <rect x="661.807" y="284.444" width="30.3408" height="3.79257"/>
 <rect x="309.096" y="288.237" width="3.79257" height="15.1704"/>
 <rect x="597.333" y="288.237" width="7.58521" height="3.7926"/>
 <rect x="623.881" y="288.237" width="3.7926" height="3.7926"/>
 <rect x="658.015" y="288.237" width="3.79254" height="7.58517"/>
 <rect x="692.148" y="288.237" width="30.3408" height="3.7926"/>
 <rect x="620.089" y="292.03" width="3.7926" height="7.58517"/>
 <rect x="642.844" y="292.03" width="18.9629" height="3.79257"/>
 <rect x="722.489" y="292.03" width="18.963" height="3.79257"/>
 <rect x="639.052" y="295.822" width="3.7926" height="15.1704"/>
 <rect x="741.452" y="295.822" width="3.7926" height="15.1704"/>
 <rect x="623.881" y="299.615" width="3.7926" height="15.1704"/>
 <rect x="305.304" y="303.407" width="3.7926" height="3.7926"/>
 <rect x="566.993" y="303.407" width="7.58514" height="11.3778"/>
 <rect x="301.511" y="307.2" width="3.7926" height="3.7926"/>
 <rect x="392.533" y="307.2" width="3.7926" height="3.7926"/>
 <rect x="635.259" y="307.2" width="7.58521" height="3.7926"/>
 <rect x="297.719" y="310.993" width="3.7926" height="26.5481"/>
 <rect x="381.156" y="310.993" width="3.7926" height="3.79257"/>
 <rect x="388.741" y="310.993" width="3.7926" height="11.3777"/>
 <rect x="631.467" y="310.993" width="3.7926" height="11.3777"/>
 <rect x="745.244" y="310.993" width="3.7926" height="26.5481"/>
 <rect x="384.948" y="314.785" width="7.58517" height="7.58517"/>
 <rect x="627.674" y="314.785" width="7.58521" height="7.58517"/>
 <rect x="384.948" y="329.956" width="7.58517" height="7.58517"/>
 <rect x="627.674" y="329.956" width="7.58521" height="11.3777"/>
 <rect x="301.511" y="337.541" width="3.7926" height="7.58517"/>
 <rect x="384.948" y="337.541" width="3.79257" height="3.79257"/>
 <rect x="392.533" y="337.541" width="3.7926" height="7.58517"/>
 <rect x="566.993" y="337.541" width="7.58514" height="11.3778"/>
 <rect x="741.452" y="337.541" width="3.7926" height="7.58517"/>
 <rect x="377.363" y="341.333" width="3.79257" height="30.3408"/>
 <rect x="381.156" y="341.333" width="3.7926" height="3.7926"/>
 <rect x="627.674" y="341.333" width="3.7926" height="11.3778"/>
 <rect x="635.259" y="341.333" width="3.7926" height="15.1704"/>
 <rect x="305.304" y="345.126" width="3.7926" height="3.7926"/>
 <rect x="396.326" y="345.126" width="3.7926" height="22.7556"/>
 <rect x="665.6" y="345.126" width="3.7926" height="11.3778"/>
 <rect x="669.393" y="345.126" width="22.7556" height="3.7926"/>
 <rect x="745.244" y="345.126" width="3.7926" height="30.3408"/>
 <rect x="309.096" y="348.919" width="3.79257" height="15.1703"/>
 <rect x="563.2" y="348.919" width="3.7926" height="41.7185"/>
 <rect x="570.785" y="348.919" width="3.7926" height="45.5111"/>
 <rect x="688.356" y="348.919" width="3.79254" height="7.58521"/>
 <rect x="620.089" y="352.711" width="7.58521" height="7.58517"/>
 <rect x="669.393" y="352.711" width="11.3778" height="3.7926"/>
 <rect x="639.052" y="356.504" width="3.7926" height="3.79257"/>
 <rect x="680.77" y="356.504" width="7.58521" height="7.58514"/>
 <rect x="403.911" y="360.296" width="11.3778" height="3.79257"/>
 <rect x="627.674" y="360.296" width="3.7926" height="7.58517"/>
 <rect x="642.844" y="360.296" width="18.9629" height="3.79257"/>
 <rect x="305.304" y="364.089" width="3.7926" height="3.7926"/>
 <rect x="407.704" y="364.089" width="3.7926" height="11.3778"/>
 <rect x="411.496" y="364.089" width="3.79257" height="3.7926"/>
 <rect x="593.541" y="364.089" width="3.79254" height="11.3778"/>
 <rect x="597.333" y="364.089" width="7.58521" height="3.7926"/>
 <rect x="661.807" y="364.089" width="18.963" height="3.7926"/>
 <rect x="688.356" y="364.089" width="11.3777" height="3.7926"/>
 <rect x="301.511" y="367.881" width="3.7926" height="15.1704"/>
 <rect x="392.533" y="367.881" width="3.7926" height="26.5482"/>
 <rect x="415.289" y="367.881" width="3.7926" height="18.963"/>
 <rect x="506.311" y="367.881" width="26.5482" height="7.58521"/>
 <rect x="604.919" y="367.881" width="22.7556" height="3.7926"/>
 <rect x="695.941" y="367.881" width="3.7926" height="22.7556"/>
 <rect x="381.156" y="371.674" width="3.7926" height="3.7926"/>
 <rect x="532.859" y="371.674" width="11.3778" height="3.7926"/>
 <rect x="711.111" y="371.674" width="3.7926" height="18.963"/>
 <rect x="714.904" y="371.674" width="18.963" height="3.7926"/>
 <rect x="384.948" y="375.467" width="3.79257" height="11.3778"/>
 <rect x="400.119" y="375.467" width="3.79257" height="11.3778"/>
 <rect x="403.911" y="375.467" width="3.7926" height="3.7926"/>
 <rect x="411.496" y="375.467" width="7.58517" height="3.7926"/>
 <rect x="597.333" y="375.467" width="3.7926" height="7.58517"/>
 <rect x="604.919" y="375.467" width="37.926" height="3.7926"/>
 <rect x="730.074" y="375.467" width="3.7926" height="15.1703"/>
 <rect x="749.037" y="375.467" width="3.7926" height="22.7556"/>
 <rect x="407.704" y="379.259" width="3.7926" height="3.79257"/>
 <rect x="419.081" y="379.259" width="7.58517" height="3.79257"/>
 <rect x="601.126" y="379.259" width="3.7926" height="3.79257"/>
 <rect x="642.844" y="379.259" width="3.79254" height="3.79257"/>
 <rect x="305.304" y="383.052" width="3.7926" height="7.58517"/>
 <rect x="403.911" y="383.052" width="3.7926" height="3.7926"/>
 <rect x="422.874" y="383.052" width="3.79257" height="3.7926"/>
 <rect x="639.052" y="383.052" width="3.7926" height="3.7926"/>
 <rect x="312.889" y="386.844" width="3.7926" height="7.58517"/>
 <rect x="377.363" y="386.844" width="3.79257" height="11.3778"/>
 <rect x="381.156" y="386.844" width="3.7926" height="3.79257"/>
 <rect x="419.081" y="386.844" width="3.7926" height="7.58517"/>
 <rect x="642.844" y="386.844" width="3.79254" height="3.79257"/>
 <rect x="309.096" y="390.637" width="7.58517" height="3.7926"/>
 <rect x="422.874" y="390.637" width="26.5481" height="3.7926"/>
 <rect x="479.763" y="390.637" width="30.3407" height="3.7926"/>
 <rect x="544.237" y="390.637" width="18.963" height="3.7926"/>
 <rect x="597.333" y="390.637" width="7.58521" height="3.7926"/>
 <rect x="646.637" y="390.637" width="3.7926" height="11.3778"/>
 <rect x="699.733" y="390.637" width="11.3777" height="3.7926"/>
 <rect x="733.867" y="390.637" width="11.3777" height="3.7926"/>
 <rect x="316.681" y="394.43" width="11.3778" height="3.7926"/>
 <rect x="396.326" y="394.43" width="22.7556" height="3.7926"/>
 <rect x="445.63" y="394.43" width="3.79257" height="3.7926"/>
 <rect x="475.97" y="394.43" width="3.7926" height="3.7926"/>
 <rect x="510.104" y="394.43" width="34.1334" height="3.7926"/>
 <rect x="574.578" y="394.43" width="22.7556" height="3.7926"/>
 <rect x="601.126" y="394.43" width="3.7926" height="3.7926"/>
 <rect x="741.452" y="394.43" width="3.7926" height="3.7926"/>
 <rect x="328.059" y="398.222" width="11.3778" height="3.7926"/>
 <rect x="347.022" y="398.222" width="11.3778" height="7.58517"/>
 <rect x="358.4" y="398.222" width="18.963" height="3.7926"/>
 <rect x="449.422" y="398.222" width="11.3778" height="7.58517"/>
 <rect x="468.385" y="398.222" width="7.58517" height="7.58517"/>
 <rect x="604.919" y="398.222" width="3.7926" height="34.1333"/>
 <rect x="650.43" y="398.222" width="3.7926" height="3.7926"/>
 <rect x="745.244" y="398.222" width="3.7926" height="3.7926"/>
 <rect x="335.644" y="402.015" width="3.7926" height="3.79257"/>
 <rect x="445.63" y="402.015" width="15.1703" height="3.79257"/>
 <rect x="475.97" y="402.015" width="3.7926" height="3.79257"/>
 <rect x="654.222" y="402.015" width="3.7926" height="7.58517"/>
 <rect x="331.852" y="405.807" width="3.79257" height="37.9259"/>
 <rect x="358.4" y="405.807" width="3.7926" height="7.58517"/>
 <rect x="384.948" y="405.807" width="15.1704" height="3.7926"/>
 <rect x="441.837" y="405.807" width="3.7926" height="7.58517"/>
 <rect x="479.763" y="405.807" width="15.1703" height="3.7926"/>
 <rect x="658.015" y="405.807" width="3.79254" height="3.7926"/>
 <rect x="676.978" y="405.807" width="7.58521" height="3.7926"/>
 <rect x="362.193" y="409.6" width="7.58517" height="3.79257"/>
 <rect x="373.57" y="409.6" width="11.3778" height="3.79257"/>
 <rect x="400.119" y="409.6" width="3.79257" height="3.79257"/>
 <rect x="438.044" y="409.6" width="7.58521" height="3.79257"/>
 <rect x="494.933" y="409.6" width="3.7926" height="7.58517"/>
 <rect x="661.807" y="409.6" width="15.1704" height="3.79257"/>
 <rect x="684.563" y="409.6" width="3.7926" height="18.963"/>
 <rect x="369.778" y="413.393" width="3.7926" height="3.7926"/>
 <rect x="403.911" y="413.393" width="3.7926" height="3.7926"/>
 <rect x="434.252" y="413.393" width="3.79257" height="7.58521"/>
 <rect x="498.726" y="413.393" width="3.7926" height="3.7926"/>
 <rect x="407.704" y="417.185" width="3.7926" height="3.7926"/>
 <rect x="430.459" y="417.185" width="7.58517" height="3.7926"/>
 <rect x="502.519" y="417.185" width="3.79257" height="7.58521"/>
 <rect x="411.496" y="420.978" width="3.79257" height="11.3778"/>
 <rect x="426.667" y="420.978" width="3.7926" height="7.58517"/>
 <rect x="422.874" y="424.77" width="7.58517" height="3.79257"/>
 <rect x="498.726" y="424.77" width="3.7926" height="18.963"/>
 <rect x="419.081" y="428.563" width="3.7926" height="15.1704"/>
 <rect x="680.77" y="428.563" width="3.7926" height="7.58517"/>
 <rect x="415.289" y="432.356" width="7.58521" height="11.3778"/>
 <rect x="601.126" y="432.356" width="3.7926" height="11.3778"/>
 <rect x="639.052" y="432.356" width="3.7926" height="22.7556"/>
 <rect x="642.844" y="432.356" width="22.7555" height="3.79257"/>
 <rect x="521.482" y="436.148" width="18.963" height="3.7926"/>
 <rect x="566.993" y="436.148" width="26.5482" height="3.7926"/>
 <rect x="661.807" y="436.148" width="3.7926" height="18.963"/>
 <rect x="684.563" y="436.148" width="3.7926" height="15.1704"/>
 <rect x="502.519" y="439.941" width="7.58517" height="3.7926"/>
 <rect x="517.689" y="439.941" width="3.7926" height="3.7926"/>
 <rect x="540.444" y="439.941" width="7.58514" height="3.7926"/>
 <rect x="559.407" y="439.941" width="7.58521" height="3.7926"/>
 <rect x="593.541" y="439.941" width="3.79254" height="15.1704"/>
 <rect x="335.644" y="443.733" width="3.7926" height="3.7926"/>
 <rect x="510.104" y="443.733" width="7.58521" height="3.7926"/>
 <rect x="521.482" y="443.733" width="3.79254" height="7.58517"/>
 <rect x="548.03" y="443.733" width="11.3778" height="3.7926"/>
 <rect x="604.919" y="443.733" width="7.58521" height="3.7926"/>
 <rect x="623.881" y="443.733" width="3.7926" height="15.1704"/>
 <rect x="627.674" y="443.733" width="7.58521" height="3.7926"/>
 <rect x="737.659" y="443.733" width="3.7926" height="3.7926"/>
 <rect x="339.437" y="447.526" width="3.79257" height="3.79257"/>
 <rect x="517.689" y="447.526" width="7.58514" height="3.79257"/>
 <rect x="612.504" y="447.526" width="3.79254" height="3.79257"/>
 <rect x="631.467" y="447.526" width="3.7926" height="7.58517"/>
 <rect x="733.867" y="447.526" width="3.79254" height="3.79257"/>
 <rect x="741.452" y="447.526" width="3.7926" height="7.58517"/>
 <rect x="343.23" y="451.319" width="3.7926" height="3.7926"/>
 <rect x="362.193" y="451.319" width="26.5481" height="3.7926"/>
 <rect x="415.289" y="451.319" width="7.58521" height="3.7926"/>
 <rect x="616.296" y="451.319" width="3.7926" height="7.58521"/>
 <rect x="673.185" y="451.319" width="11.3778" height="3.7926"/>
 <rect x="726.281" y="451.319" width="7.58521" height="3.7926"/>
 <rect x="745.244" y="451.319" width="3.7926" height="3.7926"/>
 <rect x="347.022" y="455.111" width="15.1704" height="3.7926"/>
 <rect x="388.741" y="455.111" width="26.5482" height="3.7926"/>
 <rect x="419.081" y="455.111" width="3.7926" height="34.1333"/>
 <rect x="589.748" y="455.111" width="3.7926" height="11.3778"/>
 <rect x="635.259" y="455.111" width="3.7926" height="3.7926"/>
 <rect x="665.6" y="455.111" width="7.58521" height="3.7926"/>
 <rect x="714.904" y="455.111" width="11.3778" height="3.7926"/>
 <rect x="749.037" y="455.111" width="3.7926" height="7.58517"/>
 <rect x="620.089" y="458.904" width="3.7926" height="3.79257"/>
 <rect x="711.111" y="458.904" width="3.7926" height="3.79257"/>
 <rect x="707.318" y="462.696" width="3.7926" height="7.58521"/>
 <rect x="745.244" y="462.696" width="3.7926" height="3.7926"/>
 <rect x="582.163" y="466.489" width="3.7926" height="11.3778"/>
 <rect x="585.956" y="466.489" width="3.7926" height="3.7926"/>
 <rect x="608.711" y="466.489" width="22.7556" height="3.7926"/>
 <rect x="703.526" y="466.489" width="11.3777" height="3.7926"/>
 <rect x="741.452" y="466.489" width="3.7926" height="26.5482"/>
 <rect x="597.333" y="470.281" width="11.3778" height="3.79257"/>
 <rect x="631.467" y="470.281" width="3.7926" height="7.58517"/>
 <rect x="699.733" y="470.281" width="3.7926" height="3.79257"/>
 <rect x="711.111" y="470.281" width="11.3778" height="7.58517"/>
 <rect x="589.748" y="474.074" width="7.58514" height="3.7926"/>
 <rect x="635.259" y="474.074" width="3.7926" height="3.7926"/>
 <rect x="673.185" y="474.074" width="7.58521" height="3.7926"/>
 <rect x="695.941" y="474.074" width="3.7926" height="7.58521"/>
 <rect x="585.956" y="477.867" width="3.7926" height="3.7926"/>
 <rect x="639.052" y="477.867" width="3.7926" height="7.58517"/>
 <rect x="669.393" y="477.867" width="3.7926" height="7.58517"/>
 <rect x="680.77" y="477.867" width="18.963" height="3.7926"/>
 <rect x="441.837" y="481.659" width="7.58517" height="7.58517"/>
 <rect x="479.763" y="481.659" width="7.58517" height="3.79257"/>
 <rect x="502.519" y="481.659" width="18.963" height="3.79257"/>
 <rect x="642.844" y="481.659" width="7.58514" height="3.79257"/>
 <rect x="475.97" y="485.452" width="3.7926" height="3.7926"/>
 <rect x="487.348" y="485.452" width="15.1704" height="3.7926"/>
 <rect x="517.689" y="485.452" width="3.7926" height="15.1704"/>
 <rect x="650.43" y="485.452" width="7.58521" height="3.7926"/>
 <rect x="665.6" y="485.452" width="3.7926" height="7.58521"/>
 <rect x="422.874" y="489.244" width="18.963" height="3.7926"/>
 <rect x="449.422" y="489.244" width="11.3778" height="3.7926"/>
 <rect x="468.385" y="489.244" width="7.58517" height="7.58517"/>
 <rect x="658.015" y="489.244" width="3.79254" height="15.1704"/>
 <rect x="331.852" y="493.037" width="7.58517" height="3.79257"/>
 <rect x="354.607" y="493.037" width="3.79257" height="3.79257"/>
 <rect x="453.215" y="493.037" width="7.58517" height="3.79257"/>
 <rect x="475.97" y="493.037" width="26.5482" height="3.79257"/>
 <rect x="661.807" y="493.037" width="3.7926" height="11.3778"/>
 <rect x="745.244" y="493.037" width="3.7926" height="3.79257"/>
 <rect x="328.059" y="496.83" width="3.7926" height="3.7926"/>
 <rect x="339.437" y="496.83" width="15.1704" height="3.7926"/>
 <rect x="358.4" y="496.83" width="3.7926" height="7.58521"/>
 <rect x="388.741" y="496.83" width="30.3408" height="3.7926"/>
 <rect x="449.422" y="496.83" width="3.7926" height="3.7926"/>
 <rect x="502.519" y="496.83" width="3.79257" height="30.3407"/>
 <rect x="331.852" y="500.622" width="3.79257" height="7.58517"/>
 <rect x="362.193" y="500.622" width="26.5481" height="3.7926"/>
 <rect x="419.081" y="500.622" width="30.3407" height="3.7926"/>
 <rect x="513.896" y="500.622" width="3.7926" height="18.963"/>
 <rect x="335.644" y="508.207" width="3.7926" height="3.7926"/>
 <rect x="331.852" y="512" width="3.79257" height="3.7926"/>
 <rect x="551.822" y="512" width="7.58521" height="3.7926"/>
 <rect x="612.504" y="512" width="7.58514" height="3.7926"/>
 <rect x="658.015" y="512" width="7.58514" height="3.7926"/>
 <rect x="335.644" y="515.793" width="3.7926" height="3.7926"/>
 <rect x="384.948" y="515.793" width="7.58517" height="7.58521"/>
 <rect x="536.652" y="515.793" width="15.1703" height="3.7926"/>
 <rect x="559.407" y="515.793" width="11.3777" height="3.7926"/>
 <rect x="597.333" y="515.793" width="15.1704" height="3.7926"/>
 <rect x="620.089" y="515.793" width="37.926" height="3.7926"/>
 <rect x="661.807" y="515.793" width="3.7926" height="3.7926"/>
 <rect x="741.452" y="515.793" width="3.7926" height="3.7926"/>
 <rect x="331.852" y="519.585" width="3.79257" height="68.2667"/>
 <rect x="396.326" y="519.585" width="11.3778" height="3.7926"/>
 <rect x="426.667" y="519.585" width="22.7556" height="3.7926"/>
 <rect x="517.689" y="519.585" width="18.963" height="3.7926"/>
 <rect x="570.785" y="519.585" width="11.3778" height="7.58514"/>
 <rect x="589.748" y="519.585" width="7.58514" height="7.58514"/>
 <rect x="665.6" y="519.585" width="3.7926" height="34.1333"/>
 <rect x="745.244" y="519.585" width="3.7926" height="34.1333"/>
 <rect x="381.156" y="523.378" width="3.7926" height="7.58514"/>
 <rect x="392.533" y="523.378" width="3.7926" height="7.58514"/>
 <rect x="407.704" y="523.378" width="3.7926" height="7.58514"/>
 <rect x="422.874" y="523.378" width="3.79257" height="7.58514"/>
 <rect x="449.422" y="523.378" width="3.7926" height="7.58514"/>
 <rect x="559.407" y="523.378" width="22.7556" height="3.79254"/>
 <rect x="597.333" y="523.378" width="3.7926" height="3.79254"/>
 <rect x="635.259" y="523.378" width="7.58521" height="3.79254"/>
 <rect x="358.4" y="527.17" width="3.7926" height="7.58521"/>
 <rect x="362.193" y="527.17" width="7.58517" height="3.7926"/>
 <rect x="384.948" y="527.17" width="26.5482" height="3.7926"/>
 <rect x="426.667" y="527.17" width="26.5482" height="3.7926"/>
 <rect x="494.933" y="527.17" width="3.7926" height="53.0963"/>
 <rect x="498.726" y="527.17" width="3.7926" height="3.7926"/>
 <rect x="555.615" y="527.17" width="3.7926" height="3.7926"/>
 <rect x="601.126" y="527.17" width="34.1334" height="3.7926"/>
 <rect x="642.844" y="527.17" width="3.79254" height="3.7926"/>
 <rect x="365.985" y="530.963" width="3.7926" height="49.3037"/>
 <rect x="551.822" y="530.963" width="3.7926" height="3.7926"/>
 <rect x="646.637" y="530.963" width="3.7926" height="3.7926"/>
 <rect x="354.607" y="534.756" width="3.79257" height="3.7926"/>
 <rect x="548.03" y="534.756" width="3.7926" height="3.7926"/>
 <rect x="650.43" y="534.756" width="3.7926" height="3.7926"/>
 <rect x="350.815" y="538.548" width="3.7926" height="3.7926"/>
 <rect x="544.237" y="538.548" width="3.79254" height="3.7926"/>
 <rect x="612.504" y="538.548" width="3.79254" height="7.58521"/>
 <rect x="616.296" y="538.548" width="26.5482" height="3.7926"/>
 <rect x="654.222" y="538.548" width="3.7926" height="3.7926"/>
 <rect x="354.607" y="542.341" width="3.79257" height="3.7926"/>
 <rect x="540.444" y="542.341" width="3.7926" height="7.58514"/>
 <rect x="620.089" y="542.341" width="3.7926" height="3.7926"/>
 <rect x="639.052" y="542.341" width="7.58514" height="3.7926"/>
 <rect x="658.015" y="542.341" width="3.79254" height="11.3777"/>
 <rect x="358.4" y="546.133" width="3.7926" height="3.79254"/>
 <rect x="616.296" y="546.133" width="3.7926" height="3.79254"/>
 <rect x="623.881" y="546.133" width="15.1704" height="3.79254"/>
 <rect x="350.815" y="549.926" width="3.7926" height="11.3778"/>
 <rect x="354.607" y="549.926" width="3.79257" height="3.7926"/>
 <rect x="544.237" y="549.926" width="3.79254" height="34.1334"/>
 <rect x="555.615" y="553.719" width="3.7926" height="30.3408"/>
 <rect x="559.407" y="553.719" width="3.7926" height="3.7926"/>
 <rect x="654.222" y="553.719" width="3.7926" height="34.1334"/>
 <rect x="669.393" y="553.719" width="3.7926" height="3.7926"/>
 <rect x="741.452" y="553.719" width="3.7926" height="26.5482"/>
 <rect x="354.607" y="557.511" width="3.79257" height="3.7926"/>
 <rect x="563.2" y="557.511" width="3.7926" height="3.7926"/>
 <rect x="673.185" y="557.511" width="7.58521" height="3.7926"/>
 <rect x="358.4" y="561.304" width="3.7926" height="7.58521"/>
 <rect x="559.407" y="561.304" width="3.7926" height="3.7926"/>
 <rect x="680.77" y="561.304" width="7.58521" height="3.7926"/>
 <rect x="563.2" y="565.096" width="3.7926" height="7.58514"/>
 <rect x="688.356" y="565.096" width="11.3777" height="3.7926"/>
 <rect x="350.815" y="568.889" width="7.58517" height="7.58514"/>
 <rect x="695.941" y="568.889" width="3.7926" height="3.79254"/>
 <rect x="559.407" y="572.681" width="3.7926" height="3.7926"/>
 <rect x="699.733" y="572.681" width="3.7926" height="11.3778"/>
 <rect x="358.4" y="576.474" width="11.3778" height="3.7926"/>
 <rect x="381.156" y="576.474" width="3.7926" height="11.3778"/>
 <rect x="384.948" y="576.474" width="26.5482" height="3.7926"/>
 <rect x="422.874" y="576.474" width="3.79257" height="11.3778"/>
 <rect x="426.667" y="576.474" width="26.5482" height="3.7926"/>
 <rect x="498.726" y="576.474" width="3.7926" height="3.7926"/>
 <rect x="563.2" y="576.474" width="3.7926" height="3.7926"/>
 <rect x="407.704" y="580.267" width="3.7926" height="7.58521"/>
 <rect x="449.422" y="580.267" width="3.7926" height="7.58521"/>
 <rect x="502.519" y="580.267" width="3.79257" height="30.3408"/>
 <rect x="559.407" y="580.267" width="3.7926" height="3.7926"/>
 <rect x="623.881" y="580.267" width="11.3778" height="3.7926"/>
 <rect x="745.244" y="580.267" width="3.7926" height="11.3778"/>
 <rect x="426.667" y="584.059" width="3.7926" height="3.7926"/>
 <rect x="540.444" y="584.059" width="3.7926" height="11.3777"/>
 <rect x="616.296" y="584.059" width="7.58521" height="3.7926"/>
 <rect x="635.259" y="584.059" width="7.58521" height="3.7926"/>
 <rect x="703.526" y="584.059" width="7.58514" height="3.7926"/>
 <rect x="335.644" y="587.852" width="3.7926" height="3.7926"/>
 <rect x="384.948" y="587.852" width="22.7556" height="3.7926"/>
 <rect x="430.459" y="587.852" width="18.963" height="3.7926"/>
 <rect x="612.504" y="587.852" width="3.79254" height="3.7926"/>
 <rect x="623.881" y="587.852" width="3.7926" height="3.7926"/>
 <rect x="631.467" y="587.852" width="3.7926" height="3.7926"/>
 <rect x="639.052" y="587.852" width="3.7926" height="7.58514"/>
 <rect x="658.015" y="587.852" width="3.79254" height="7.58514"/>
 <rect x="707.318" y="587.852" width="3.7926" height="3.7926"/>
 <rect x="722.489" y="587.852" width="3.7926" height="3.7926"/>
 <rect x="331.852" y="591.644" width="3.79257" height="3.79254"/>
 <rect x="616.296" y="591.644" width="7.58521" height="3.79254"/>
 <rect x="627.674" y="591.644" width="3.7926" height="3.79254"/>
 <rect x="635.259" y="591.644" width="7.58521" height="3.79254"/>
 <rect x="711.111" y="591.644" width="11.3778" height="3.79254"/>
 <rect x="726.281" y="591.644" width="18.963" height="3.79254"/>
 <rect x="335.644" y="595.437" width="3.7926" height="11.3778"/>
 <rect x="544.237" y="595.437" width="3.79254" height="3.7926"/>
 <rect x="654.222" y="595.437" width="3.7926" height="3.7926"/>
 <rect x="548.03" y="599.23" width="3.7926" height="3.7926"/>
 <rect x="650.43" y="599.23" width="3.7926" height="3.7926"/>
 <rect x="358.4" y="603.022" width="30.3407" height="3.7926"/>
 <rect x="419.081" y="603.022" width="30.3407" height="3.7926"/>
 <rect x="551.822" y="603.022" width="3.7926" height="3.7926"/>
 <rect x="646.637" y="603.022" width="3.7926" height="3.7926"/>
 <rect x="339.437" y="606.815" width="18.963" height="3.7926"/>
 <rect x="388.741" y="606.815" width="30.3408" height="3.7926"/>
 <rect x="449.422" y="606.815" width="30.3408" height="3.7926"/>
 <rect x="555.615" y="606.815" width="3.7926" height="3.7926"/>
 <rect x="566.993" y="606.815" width="64.4741" height="3.7926"/>
 <rect x="642.844" y="606.815" width="3.79254" height="3.7926"/>
 <rect x="479.763" y="610.607" width="22.7556" height="3.7926"/>
 <rect x="559.407" y="610.607" width="7.58521" height="3.7926"/>
 <rect x="631.467" y="610.607" width="11.3778" height="3.7926"/>
</g>
</svg>