<svg xmlns="http://www.w3.org/2000/svg" version="1.1" width = "1027" height = "1027" viewBox = "-1 -1 1026 1026" preserveAspectRatio = "none" shape-rendering="auto">
<g style="fill:rgb(0,0,0);">
 <rect x="0" y="0" width="1024" height="1024"/>
 <rect x="0" y="144.829" width="1024" height="734.343"/>
</g><g style="fill:rgb(229,229,229);">
 <rect x="603.793" y="303.936" width="40.7968" height="363.092"/>
 <rect x="599.713" y="320.255" width="48.9562" height="16.3187"/>
 <rect x="534.438" y="356.972" width="44.8765" height="53.0359"/>
 <rect x="669.068" y="356.972" width="44.8765" height="53.0359"/>
 <rect x="579.315" y="361.052" width="106.072" height="114.231"/>
 <rect x="526.279" y="385.53" width="195.825" height="24.4781"/>
 <rect x="534.438" y="410.008" width="24.4781" height="69.3546"/>
 <rect x="562.996" y="410.008" width="122.39" height="65.2749"/>
 <rect x="689.466" y="410.008" width="24.4781" height="65.2749"/>
 <rect x="81.5936" y="430.406" width="12.239" height="195.825"/>
 <rect x="73.4343" y="434.486" width="24.4781" height="8.15936"/>
 <rect x="97.9124" y="438.566" width="20.3984" height="212.143"/>
 <rect x="93.8327" y="442.645" width="24.4781" height="208.064"/>
 <rect x="440.606" y="446.725" width="12.239" height="8.15936"/>
 <rect x="775.139" y="446.725" width="24.4781" height="101.992"/>
 <rect x="840.414" y="446.725" width="24.4781" height="106.072"/>
 <rect x="432.446" y="450.805" width="8.15936" height="8.15936"/>
 <rect x="452.845" y="450.805" width="4.07971" height="8.15936"/>
 <rect x="428.367" y="454.884" width="4.07971" height="40.7968"/>
 <rect x="448.765" y="454.884" width="12.239" height="4.07968"/>
 <rect x="746.582" y="454.884" width="163.187" height="20.3984"/>
 <rect x="407.968" y="458.964" width="24.4781" height="16.3187"/>
 <rect x="456.924" y="458.964" width="4.07965" height="36.7171"/>
 <rect x="73.4343" y="463.044" width="106.072" height="150.948"/>
 <rect x="461.004" y="463.044" width="12.2391" height="32.6375"/>
 <rect x="473.243" y="463.044" width="12.239" height="8.15936"/>
 <rect x="44.8765" y="467.124" width="134.629" height="4.07968"/>
 <rect x="199.904" y="467.124" width="8.15936" height="146.869"/>
 <rect x="208.064" y="467.124" width="16.3187" height="4.07968"/>
 <rect x="738.422" y="467.124" width="12.2391" height="89.753"/>
 <rect x="69.3546" y="471.203" width="138.709" height="142.789"/>
 <rect x="220.303" y="471.203" width="4.07968" height="150.948"/>
 <rect x="730.263" y="471.203" width="20.3984" height="81.5936"/>
 <rect x="412.048" y="475.283" width="61.1953" height="4.07968"/>
 <rect x="567.076" y="475.283" width="4.07971" height="93.8327"/>
 <rect x="575.235" y="475.283" width="97.9124" height="65.2749"/>
 <rect x="681.307" y="475.283" width="4.07971" height="4.07968"/>
 <rect x="693.546" y="475.283" width="20.3984" height="191.745"/>
 <rect x="758.821" y="475.283" width="57.1155" height="73.4343"/>
 <rect x="824.096" y="475.283" width="57.1156" height="77.5139"/>
 <rect x="889.37" y="475.283" width="20.3984" height="93.8327"/>
 <rect x="416.128" y="479.363" width="57.1155" height="12.239"/>
 <rect x="534.438" y="479.363" width="20.3984" height="187.665"/>
 <rect x="571.155" y="483.442" width="110.151" height="57.1155"/>
 <rect x="750.661" y="483.442" width="159.108" height="57.1155"/>
 <rect x="926.088" y="487.522" width="16.3187" height="48.9562"/>
 <rect x="416.128" y="491.602" width="8.15936" height="4.07968"/>
 <rect x="432.446" y="491.602" width="24.4781" height="12.239"/>
 <rect x="469.163" y="495.681" width="4.07971" height="4.07968"/>
 <rect x="456.924" y="499.761" width="4.07965" height="4.07968"/>
 <rect x="909.769" y="499.761" width="32.6375" height="24.4781"/>
 <rect x="440.606" y="503.841" width="8.15936" height="114.231"/>
 <rect x="208.064" y="507.92" width="16.3187" height="73.4343"/>
 <rect x="713.944" y="507.92" width="228.462" height="8.15939"/>
 <rect x="310.056" y="516.08" width="8.15936" height="110.151"/>
 <rect x="305.976" y="520.159" width="69.3546" height="48.9562"/>
 <rect x="375.331" y="520.159" width="81.5936" height="4.07965"/>
 <rect x="240.701" y="524.239" width="20.3984" height="40.7969"/>
 <rect x="269.259" y="524.239" width="106.072" height="40.7969"/>
 <rect x="383.49" y="524.239" width="73.4343" height="44.8765"/>
 <rect x="456.924" y="524.239" width="48.9562" height="40.7969"/>
 <rect x="514.04" y="524.239" width="4.07965" height="40.7969"/>
 <rect x="261.1" y="532.398" width="257.02" height="24.478"/>
 <rect x="224.382" y="540.558" width="330.454" height="8.15942"/>
 <rect x="575.235" y="540.558" width="16.3187" height="28.5578"/>
 <rect x="595.633" y="540.558" width="57.1155" height="65.2749"/>
 <rect x="660.908" y="540.558" width="16.3187" height="28.5578"/>
 <rect x="571.155" y="548.717" width="20.3984" height="20.3984"/>
 <rect x="677.227" y="548.717" width="4.07965" height="20.3984"/>
 <rect x="750.661" y="548.717" width="8.15936" height="8.1593"/>
 <rect x="758.821" y="548.717" width="8.15936" height="4.07965"/>
 <rect x="783.299" y="548.717" width="126.47" height="4.07965"/>
 <rect x="791.458" y="552.797" width="28.5578" height="4.07965"/>
 <rect x="848.574" y="552.797" width="61.1952" height="4.07965"/>
 <rect x="746.582" y="556.876" width="4.07971" height="12.2391"/>
 <rect x="799.618" y="556.876" width="12.239" height="12.2391"/>
 <rect x="860.813" y="556.876" width="48.9562" height="12.2391"/>
 <rect x="375.331" y="565.036" width="81.5936" height="4.07965"/>
 <rect x="742.502" y="565.036" width="8.15936" height="4.07965"/>
 <rect x="811.857" y="565.036" width="8.15936" height="4.07965"/>
 <rect x="852.653" y="565.036" width="57.1155" height="4.07965"/>
 <rect x="926.088" y="565.036" width="20.3984" height="89.7529"/>
 <rect x="946.486" y="565.036" width="8.1593" height="8.1593"/>
 <rect x="979.124" y="565.036" width="16.3187" height="8.1593"/>
 <rect x="864.892" y="569.116" width="8.1593" height="163.187"/>
 <rect x="954.645" y="569.116" width="4.07971" height="81.5936"/>
 <rect x="962.805" y="569.116" width="16.3187" height="85.6733"/>
 <rect x="958.725" y="573.195" width="20.3984" height="73.4343"/>
 <rect x="987.283" y="573.195" width="4.07971" height="81.5936"/>
 <rect x="991.363" y="577.275" width="4.07971" height="77.5139"/>
 <rect x="946.486" y="581.355" width="48.9562" height="57.1155"/>
 <rect x="293.737" y="585.434" width="40.7968" height="36.7171"/>
 <rect x="334.534" y="585.434" width="4.07965" height="32.6375"/>
 <rect x="403.888" y="585.434" width="81.5936" height="4.07965"/>
 <rect x="730.263" y="585.434" width="36.7172" height="44.8765"/>
 <rect x="766.98" y="585.434" width="142.789" height="4.07965"/>
 <rect x="412.048" y="589.514" width="4.07971" height="44.8765"/>
 <rect x="428.367" y="589.514" width="36.7172" height="4.07971"/>
 <rect x="477.323" y="589.514" width="4.07971" height="12.2391"/>
 <rect x="775.139" y="589.514" width="57.1156" height="44.8765"/>
 <rect x="840.414" y="589.514" width="69.3546" height="44.8765"/>
 <rect x="995.442" y="589.514" width="12.239" height="4.07971"/>
 <rect x="416.128" y="593.594" width="4.07965" height="40.7968"/>
 <rect x="432.446" y="593.594" width="28.5577" height="24.4781"/>
 <rect x="473.243" y="593.594" width="8.15936" height="8.15936"/>
 <rect x="289.657" y="597.673" width="57.1155" height="12.239"/>
 <rect x="420.207" y="597.673" width="57.1155" height="20.3984"/>
 <rect x="766.98" y="597.673" width="142.789" height="24.478"/>
 <rect x="599.713" y="605.833" width="53.0359" height="57.1156"/>
 <rect x="713.944" y="605.833" width="281.498" height="8.15942"/>
 <rect x="338.614" y="609.912" width="8.15936" height="4.07971"/>
 <rect x="77.5139" y="613.992" width="122.39" height="4.07965"/>
 <rect x="212.143" y="613.992" width="12.239" height="8.1593"/>
 <rect x="554.837" y="613.992" width="159.108" height="48.9562"/>
 <rect x="118.311" y="618.072" width="65.2749" height="8.15936"/>
 <rect x="420.207" y="618.072" width="12.2391" height="16.3187"/>
 <rect x="456.924" y="618.072" width="24.4781" height="16.3187"/>
 <rect x="305.976" y="622.151" width="4.07971" height="8.15942"/>
 <rect x="318.215" y="622.151" width="12.239" height="4.07971"/>
 <rect x="995.442" y="622.151" width="4.07965" height="8.15942"/>
 <rect x="999.522" y="622.151" width="8.15936" height="4.07971"/>
 <rect x="85.6733" y="626.231" width="32.6375" height="24.4781"/>
 <rect x="403.888" y="630.311" width="36.7172" height="4.07965"/>
 <rect x="448.765" y="630.311" width="8.15936" height="8.1593"/>
 <rect x="481.402" y="630.311" width="4.07965" height="4.07965"/>
 <rect x="758.821" y="630.311" width="150.948" height="4.07965"/>
 <rect x="73.4343" y="634.39" width="24.4781" height="20.3984"/>
 <rect x="432.446" y="634.39" width="8.15936" height="4.07965"/>
 <rect x="783.299" y="634.39" width="8.1593" height="195.825"/>
 <rect x="436.526" y="638.47" width="12.2391" height="4.07971"/>
 <rect x="762.9" y="646.63" width="4.07971" height="183.586"/>
 <rect x="807.777" y="646.63" width="4.07971" height="183.586"/>
 <rect x="946.486" y="646.63" width="4.07965" height="8.1593"/>
 <rect x="950.566" y="646.63" width="8.15936" height="4.07965"/>
 <rect x="979.124" y="646.63" width="16.3187" height="8.1593"/>
 <rect x="766.98" y="650.709" width="44.8765" height="36.7171"/>
 <rect x="844.494" y="650.709" width="48.9562" height="81.5936"/>
 <rect x="77.5139" y="654.789" width="12.239" height="4.07971"/>
 <rect x="962.805" y="654.789" width="4.07965" height="4.07971"/>
 <rect x="554.837" y="662.948" width="24.4781" height="4.07965"/>
 <rect x="599.713" y="662.948" width="48.9562" height="4.07965"/>
 <rect x="669.068" y="662.948" width="44.8765" height="4.07965"/>
 <rect x="620.112" y="667.028" width="8.15936" height="199.904"/>
 <rect x="599.713" y="683.347" width="48.9562" height="85.6733"/>
 <rect x="775.139" y="687.426" width="24.4781" height="142.789"/>
 <rect x="766.98" y="695.586" width="44.8765" height="24.478"/>
 <rect x="766.98" y="728.223" width="44.8765" height="24.478"/>
 <rect x="546.677" y="740.462" width="24.4781" height="89.753"/>
 <rect x="677.227" y="740.462" width="24.4781" height="89.753"/>
 <rect x="538.518" y="748.622" width="40.7968" height="81.5936"/>
 <rect x="579.315" y="748.622" width="134.629" height="20.3984"/>
 <rect x="766.98" y="760.861" width="44.8765" height="69.3546"/>
 <rect x="497.721" y="764.94" width="16.3187" height="48.9562"/>
 <rect x="481.402" y="769.02" width="97.9124" height="40.7969"/>
 <rect x="603.793" y="769.02" width="36.7171" height="93.8327"/>
 <rect x="664.988" y="769.02" width="48.9562" height="61.1953"/>
 <rect x="579.315" y="777.179" width="167.267" height="24.478"/>
 <rect x="811.857" y="781.259" width="4.07971" height="16.3187"/>
 <rect x="746.582" y="785.339" width="69.3546" height="8.15942"/>
 <rect x="579.315" y="809.817" width="134.629" height="20.3984"/>
 <rect x="599.713" y="830.215" width="48.9562" height="8.15936"/>
 <rect x="640.51" y="838.375" width="4.07971" height="24.4781"/>
 <rect x="599.713" y="842.454" width="48.9562" height="20.3984"/>
</g><g style="fill:rgb(0,127,0);">
 <rect x="603.793" y="299.857" width="40.7968" height="4.07968"/>
 <rect x="599.713" y="303.936" width="4.07971" height="16.3187"/>
 <rect x="644.59" y="303.936" width="4.07965" height="16.3187"/>
 <rect x="595.633" y="320.255" width="4.07965" height="16.3187"/>
 <rect x="648.669" y="320.255" width="4.07971" height="16.3187"/>
 <rect x="599.713" y="336.574" width="4.07971" height="24.4781"/>
 <rect x="644.59" y="336.574" width="4.07965" height="24.4781"/>
 <rect x="534.438" y="352.892" width="44.8765" height="4.07968"/>
 <rect x="669.068" y="352.892" width="44.8765" height="4.07968"/>
 <rect x="530.359" y="356.972" width="4.07965" height="28.5578"/>
 <rect x="579.315" y="356.972" width="24.4781" height="4.07968"/>
 <rect x="648.669" y="356.972" width="20.3984" height="4.07968"/>
 <rect x="713.944" y="356.972" width="4.07971" height="28.5578"/>
 <rect x="526.279" y="381.45" width="8.15936" height="4.07968"/>
 <rect x="718.024" y="381.45" width="4.07965" height="4.07968"/>
 <rect x="522.199" y="385.53" width="4.07965" height="24.4781"/>
 <rect x="722.104" y="385.53" width="4.07971" height="24.4781"/>
 <rect x="526.279" y="410.008" width="8.15936" height="4.07968"/>
 <rect x="558.916" y="410.008" width="4.07971" height="69.3546"/>
 <rect x="685.386" y="410.008" width="4.07965" height="69.3546"/>
 <rect x="713.944" y="410.008" width="4.07971" height="97.9124"/>
 <rect x="718.024" y="410.008" width="4.07965" height="4.07968"/>
 <rect x="530.359" y="414.088" width="4.07965" height="126.47"/>
 <rect x="81.5936" y="426.327" width="12.239" height="4.07968"/>
 <rect x="73.4343" y="430.406" width="8.15936" height="4.07968"/>
 <rect x="93.8327" y="430.406" width="4.07968" height="4.07968"/>
 <rect x="69.3546" y="434.486" width="4.07968" height="8.15936"/>
 <rect x="97.9124" y="434.486" width="20.3984" height="4.07968"/>
 <rect x="73.4343" y="442.645" width="8.15936" height="4.07968"/>
 <rect x="440.606" y="442.645" width="12.239" height="4.07968"/>
 <rect x="775.139" y="442.645" width="24.4781" height="4.07968"/>
 <rect x="840.414" y="442.645" width="24.4781" height="4.07968"/>
 <rect x="77.5139" y="446.725" width="4.07968" height="16.3187"/>
 <rect x="432.446" y="446.725" width="8.15936" height="4.07968"/>
 <rect x="452.845" y="446.725" width="4.07971" height="4.07968"/>
 <rect x="771.06" y="446.725" width="4.07965" height="8.15936"/>
 <rect x="799.618" y="446.725" width="4.07965" height="8.15936"/>
 <rect x="836.335" y="446.725" width="4.07965" height="8.15936"/>
 <rect x="864.892" y="446.725" width="4.07965" height="8.15936"/>
 <rect x="428.367" y="450.805" width="4.07971" height="4.07968"/>
 <rect x="456.924" y="450.805" width="4.07965" height="4.07968"/>
 <rect x="746.582" y="450.805" width="28.5577" height="4.07968"/>
 <rect x="803.697" y="450.805" width="36.7171" height="4.07968"/>
 <rect x="868.972" y="450.805" width="40.7968" height="4.07968"/>
 <rect x="407.968" y="454.884" width="20.3984" height="4.07968"/>
 <rect x="440.606" y="454.884" width="8.15936" height="4.07968"/>
 <rect x="461.004" y="454.884" width="4.07971" height="8.15936"/>
 <rect x="742.502" y="454.884" width="4.07965" height="12.239"/>
 <rect x="909.769" y="454.884" width="4.07971" height="44.8765"/>
 <rect x="73.4343" y="458.964" width="8.15936" height="4.07968"/>
 <rect x="403.888" y="458.964" width="4.07971" height="16.3187"/>
 <rect x="432.446" y="458.964" width="4.07965" height="16.3187"/>
 <rect x="436.526" y="458.964" width="4.07971" height="4.07968"/>
 <rect x="448.765" y="458.964" width="8.15936" height="4.07968"/>
 <rect x="465.084" y="458.964" width="20.3984" height="4.07968"/>
 <rect x="44.8765" y="463.044" width="28.5578" height="4.07968"/>
 <rect x="199.904" y="463.044" width="24.4781" height="4.07968"/>
 <rect x="452.845" y="463.044" width="4.07971" height="12.239"/>
 <rect x="485.482" y="463.044" width="4.07971" height="8.15936"/>
 <rect x="738.422" y="463.044" width="8.15936" height="4.07968"/>
 <rect x="40.7968" y="467.124" width="4.07968" height="4.07968"/>
 <rect x="179.506" y="467.124" width="20.3984" height="4.07968"/>
 <rect x="224.382" y="467.124" width="4.07968" height="73.4342"/>
 <rect x="730.263" y="467.124" width="8.15936" height="4.07968"/>
 <rect x="208.064" y="471.203" width="4.07968" height="36.7171"/>
 <rect x="212.143" y="471.203" width="8.15936" height="4.07968"/>
 <rect x="436.526" y="471.203" width="20.3984" height="4.07968"/>
 <rect x="473.243" y="471.203" width="4.07965" height="28.5578"/>
 <rect x="477.323" y="471.203" width="8.15936" height="4.07968"/>
 <rect x="726.183" y="471.203" width="4.07965" height="36.7171"/>
 <rect x="216.223" y="475.283" width="4.07968" height="32.6375"/>
 <rect x="407.968" y="475.283" width="4.07965" height="4.07968"/>
 <rect x="562.996" y="475.283" width="4.07965" height="93.8327"/>
 <rect x="571.155" y="475.283" width="4.07965" height="8.15936"/>
 <rect x="673.147" y="475.283" width="8.15936" height="8.15936"/>
 <rect x="689.466" y="475.283" width="4.07971" height="138.709"/>
 <rect x="750.661" y="475.283" width="8.15936" height="8.15936"/>
 <rect x="815.936" y="475.283" width="8.1593" height="8.15936"/>
 <rect x="881.211" y="475.283" width="8.1593" height="8.15936"/>
 <rect x="412.048" y="479.363" width="4.07971" height="16.3187"/>
 <rect x="554.837" y="479.363" width="4.07965" height="134.63"/>
 <rect x="681.307" y="479.363" width="4.07971" height="61.1952"/>
 <rect x="926.088" y="483.442" width="16.3187" height="4.07968"/>
 <rect x="922.008" y="487.522" width="4.07971" height="12.239"/>
 <rect x="942.406" y="487.522" width="4.07971" height="48.9562"/>
 <rect x="424.287" y="491.602" width="4.07965" height="4.07968"/>
 <rect x="416.128" y="495.681" width="8.15936" height="4.07968"/>
 <rect x="428.367" y="495.681" width="4.07971" height="8.15936"/>
 <rect x="456.924" y="495.681" width="12.239" height="4.07968"/>
 <rect x="913.849" y="495.681" width="12.239" height="4.07968"/>
 <rect x="461.004" y="499.761" width="4.07971" height="4.07968"/>
 <rect x="469.163" y="499.761" width="4.07971" height="4.07968"/>
 <rect x="212.143" y="503.841" width="8.15936" height="4.07968"/>
 <rect x="432.446" y="503.841" width="8.15936" height="4.07968"/>
 <rect x="448.765" y="503.841" width="4.07965" height="16.3187"/>
 <rect x="452.845" y="503.841" width="8.15936" height="4.07968"/>
 <rect x="718.024" y="503.841" width="12.239" height="4.07968"/>
 <rect x="436.526" y="507.92" width="4.07971" height="12.239"/>
 <rect x="310.056" y="512" width="8.15936" height="4.07971"/>
 <rect x="305.976" y="516.08" width="4.07971" height="4.07965"/>
 <rect x="318.215" y="516.08" width="122.39" height="4.07965"/>
 <rect x="452.845" y="516.08" width="4.07971" height="4.07965"/>
 <rect x="713.944" y="516.08" width="4.07971" height="89.7529"/>
 <rect x="718.024" y="516.08" width="12.239" height="4.07965"/>
 <rect x="240.701" y="520.159" width="20.3984" height="4.07965"/>
 <rect x="269.259" y="520.159" width="36.7171" height="4.07965"/>
 <rect x="456.924" y="520.159" width="48.9562" height="4.07965"/>
 <rect x="514.04" y="520.159" width="4.07965" height="4.07965"/>
 <rect x="726.183" y="520.159" width="4.07965" height="32.6375"/>
 <rect x="236.622" y="524.239" width="4.07968" height="16.3187"/>
 <rect x="261.1" y="524.239" width="8.15936" height="8.15942"/>
 <rect x="375.331" y="524.239" width="8.15936" height="8.15942"/>
 <rect x="505.88" y="524.239" width="8.15936" height="8.15942"/>
 <rect x="518.12" y="524.239" width="4.07971" height="16.3187"/>
 <rect x="909.769" y="524.239" width="4.07971" height="44.8765"/>
 <rect x="913.849" y="524.239" width="12.239" height="4.07971"/>
 <rect x="922.008" y="528.319" width="4.07971" height="8.15936"/>
 <rect x="228.462" y="536.478" width="12.239" height="4.07965"/>
 <rect x="522.199" y="536.478" width="12.239" height="4.07965"/>
 <rect x="926.088" y="536.478" width="16.3187" height="4.07965"/>
 <rect x="571.155" y="540.558" width="4.07965" height="8.15942"/>
 <rect x="591.554" y="540.558" width="4.07971" height="65.2749"/>
 <rect x="652.749" y="540.558" width="8.15936" height="28.5578"/>
 <rect x="677.227" y="540.558" width="4.07965" height="8.15942"/>
 <rect x="750.661" y="540.558" width="8.15936" height="8.15942"/>
 <rect x="815.936" y="540.558" width="8.1593" height="8.15942"/>
 <rect x="881.211" y="540.558" width="8.1593" height="8.15942"/>
 <rect x="224.382" y="548.717" width="4.07968" height="73.4342"/>
 <rect x="228.462" y="548.717" width="12.239" height="4.07965"/>
 <rect x="518.12" y="548.717" width="4.07971" height="16.3187"/>
 <rect x="522.199" y="548.717" width="12.239" height="4.07965"/>
 <rect x="681.307" y="548.717" width="4.07971" height="20.3984"/>
 <rect x="766.98" y="548.717" width="16.3187" height="4.07965"/>
 <rect x="236.622" y="552.797" width="4.07968" height="12.2391"/>
 <rect x="530.359" y="552.797" width="4.07965" height="114.231"/>
 <rect x="730.263" y="552.797" width="8.15936" height="4.07965"/>
 <rect x="758.821" y="552.797" width="8.15936" height="4.07965"/>
 <rect x="783.299" y="552.797" width="8.1593" height="4.07965"/>
 <rect x="820.016" y="552.797" width="28.5578" height="4.07965"/>
 <rect x="261.1" y="556.876" width="8.15936" height="8.15942"/>
 <rect x="375.331" y="556.876" width="8.15936" height="8.15942"/>
 <rect x="505.88" y="556.876" width="8.15936" height="8.15942"/>
 <rect x="738.422" y="556.876" width="8.15936" height="4.07971"/>
 <rect x="750.661" y="556.876" width="4.07965" height="12.2391"/>
 <rect x="754.741" y="556.876" width="4.07971" height="4.07971"/>
 <rect x="791.458" y="556.876" width="8.15942" height="4.07971"/>
 <rect x="811.857" y="556.876" width="8.15936" height="8.15942"/>
 <rect x="848.574" y="556.876" width="12.239" height="4.07971"/>
 <rect x="742.502" y="560.956" width="4.07965" height="4.07971"/>
 <rect x="795.538" y="560.956" width="4.07971" height="8.15936"/>
 <rect x="852.653" y="560.956" width="8.15936" height="4.07971"/>
 <rect x="926.088" y="560.956" width="28.5577" height="4.07971"/>
 <rect x="979.124" y="560.956" width="16.3187" height="4.07971"/>
 <rect x="240.701" y="565.036" width="20.3984" height="4.07965"/>
 <rect x="269.259" y="565.036" width="36.7171" height="4.07965"/>
 <rect x="456.924" y="565.036" width="48.9562" height="4.07965"/>
 <rect x="514.04" y="565.036" width="4.07965" height="4.07965"/>
 <rect x="738.422" y="565.036" width="4.07971" height="4.07965"/>
 <rect x="820.016" y="565.036" width="4.07965" height="4.07965"/>
 <rect x="848.574" y="565.036" width="4.07965" height="4.07965"/>
 <rect x="922.008" y="565.036" width="4.07971" height="40.7968"/>
 <rect x="954.645" y="565.036" width="4.07971" height="4.07965"/>
 <rect x="962.805" y="565.036" width="16.3187" height="4.07965"/>
 <rect x="995.442" y="565.036" width="4.07965" height="8.1593"/>
 <rect x="305.976" y="569.116" width="4.07971" height="16.3187"/>
 <rect x="318.215" y="569.116" width="4.07965" height="16.3187"/>
 <rect x="322.295" y="569.116" width="118.311" height="4.07965"/>
 <rect x="448.765" y="569.116" width="4.07965" height="16.3187"/>
 <rect x="452.845" y="569.116" width="4.07971" height="4.07965"/>
 <rect x="567.076" y="569.116" width="28.5578" height="4.07965"/>
 <rect x="652.749" y="569.116" width="4.07965" height="44.8765"/>
 <rect x="660.908" y="569.116" width="20.3984" height="4.07965"/>
 <rect x="742.502" y="569.116" width="8.15936" height="4.07965"/>
 <rect x="799.618" y="569.116" width="20.3984" height="4.07965"/>
 <rect x="852.653" y="569.116" width="12.2391" height="4.07965"/>
 <rect x="873.052" y="569.116" width="4.07971" height="16.3187"/>
 <rect x="877.131" y="569.116" width="32.6375" height="4.07965"/>
 <rect x="958.725" y="569.116" width="4.07971" height="4.07965"/>
 <rect x="436.526" y="573.195" width="4.07971" height="12.2391"/>
 <rect x="860.813" y="573.195" width="4.07971" height="12.2391"/>
 <rect x="946.486" y="573.195" width="8.1593" height="8.15942"/>
 <rect x="979.124" y="573.195" width="8.1593" height="8.15942"/>
 <rect x="991.363" y="573.195" width="4.07971" height="4.07971"/>
 <rect x="995.442" y="577.275" width="4.07965" height="12.239"/>
 <rect x="208.064" y="581.355" width="4.07968" height="40.7968"/>
 <rect x="212.143" y="581.355" width="8.15936" height="4.07965"/>
 <rect x="293.737" y="581.355" width="16.3187" height="4.07965"/>
 <rect x="322.295" y="581.355" width="16.3187" height="4.07965"/>
 <rect x="403.888" y="581.355" width="36.7172" height="4.07965"/>
 <rect x="452.845" y="581.355" width="32.6375" height="4.07965"/>
 <rect x="730.263" y="581.355" width="134.63" height="4.07965"/>
 <rect x="877.131" y="581.355" width="32.6375" height="4.07965"/>
 <rect x="216.223" y="585.434" width="4.07968" height="28.5578"/>
 <rect x="289.657" y="585.434" width="4.07971" height="12.2391"/>
 <rect x="338.614" y="585.434" width="4.07971" height="12.2391"/>
 <rect x="399.809" y="585.434" width="4.07965" height="4.07965"/>
 <rect x="485.482" y="585.434" width="4.07971" height="4.07965"/>
 <rect x="726.183" y="585.434" width="4.07965" height="20.3984"/>
 <rect x="909.769" y="585.434" width="4.07971" height="20.3984"/>
 <rect x="999.522" y="585.434" width="8.15936" height="4.07965"/>
 <rect x="403.888" y="589.514" width="8.15936" height="4.07971"/>
 <rect x="416.128" y="589.514" width="12.239" height="4.07971"/>
 <rect x="465.084" y="589.514" width="8.15936" height="8.15942"/>
 <rect x="473.243" y="589.514" width="4.07965" height="4.07971"/>
 <rect x="481.402" y="589.514" width="4.07965" height="12.2391"/>
 <rect x="766.98" y="589.514" width="8.1593" height="8.15942"/>
 <rect x="832.255" y="589.514" width="8.1593" height="8.15942"/>
 <rect x="1007.68" y="589.514" width="4.07971" height="4.07971"/>
 <rect x="342.693" y="593.594" width="4.07965" height="4.07971"/>
 <rect x="407.968" y="593.594" width="4.07965" height="36.7172"/>
 <rect x="420.207" y="593.594" width="12.2391" height="4.07971"/>
 <rect x="461.004" y="593.594" width="12.2391" height="4.07971"/>
 <rect x="995.442" y="593.594" width="4.07965" height="28.5577"/>
 <rect x="999.522" y="593.594" width="8.15936" height="4.07971"/>
 <rect x="285.578" y="597.673" width="4.07965" height="12.239"/>
 <rect x="346.773" y="597.673" width="4.07971" height="16.3187"/>
 <rect x="477.323" y="601.753" width="4.07971" height="16.3187"/>
 <rect x="718.024" y="601.753" width="12.239" height="4.07965"/>
 <rect x="913.849" y="601.753" width="12.239" height="4.07965"/>
 <rect x="595.633" y="605.833" width="4.07965" height="8.15942"/>
 <rect x="212.143" y="609.912" width="8.15936" height="4.07971"/>
 <rect x="289.657" y="609.912" width="4.07971" height="12.239"/>
 <rect x="558.916" y="609.912" width="40.7968" height="4.07971"/>
 <rect x="656.829" y="609.912" width="36.7172" height="4.07971"/>
 <rect x="69.3546" y="613.992" width="8.15936" height="4.07965"/>
 <rect x="199.904" y="613.992" width="12.239" height="4.07965"/>
 <rect x="338.614" y="613.992" width="8.15936" height="4.07965"/>
 <rect x="713.944" y="613.992" width="4.07971" height="53.0358"/>
 <rect x="718.024" y="613.992" width="12.239" height="4.07965"/>
 <rect x="909.769" y="613.992" width="4.07971" height="20.3984"/>
 <rect x="913.849" y="613.992" width="12.239" height="4.07965"/>
 <rect x="77.5139" y="618.072" width="4.07968" height="8.15936"/>
 <rect x="183.586" y="618.072" width="4.07968" height="8.15936"/>
 <rect x="187.665" y="618.072" width="12.239" height="4.07965"/>
 <rect x="334.534" y="618.072" width="4.07965" height="4.07965"/>
 <rect x="432.446" y="618.072" width="4.07965" height="12.2391"/>
 <rect x="436.526" y="618.072" width="20.3984" height="4.07965"/>
 <rect x="481.402" y="618.072" width="4.07965" height="12.2391"/>
 <rect x="726.183" y="618.072" width="4.07965" height="12.2391"/>
 <rect x="922.008" y="618.072" width="4.07971" height="36.7171"/>
 <rect x="999.522" y="618.072" width="8.15936" height="4.07965"/>
 <rect x="212.143" y="622.151" width="12.239" height="4.07971"/>
 <rect x="293.737" y="622.151" width="12.239" height="4.07971"/>
 <rect x="330.454" y="622.151" width="4.07971" height="4.07971"/>
 <rect x="452.845" y="622.151" width="4.07971" height="8.15942"/>
 <rect x="766.98" y="622.151" width="8.1593" height="8.15942"/>
 <rect x="832.255" y="622.151" width="8.1593" height="8.15942"/>
 <rect x="1007.68" y="622.151" width="4.07971" height="4.07971"/>
 <rect x="81.5936" y="626.231" width="4.07968" height="8.15936"/>
 <rect x="301.896" y="626.231" width="4.07965" height="4.07971"/>
 <rect x="310.056" y="626.231" width="20.3984" height="4.07971"/>
 <rect x="403.888" y="626.231" width="8.15936" height="4.07971"/>
 <rect x="436.526" y="626.231" width="4.07971" height="4.07971"/>
 <rect x="448.765" y="626.231" width="8.15936" height="4.07971"/>
 <rect x="999.522" y="626.231" width="8.15936" height="4.07971"/>
 <rect x="73.4343" y="630.311" width="12.239" height="4.07965"/>
 <rect x="305.976" y="630.311" width="4.07971" height="4.07965"/>
 <rect x="399.809" y="630.311" width="4.07965" height="4.07965"/>
 <rect x="440.606" y="630.311" width="8.15936" height="8.1593"/>
 <rect x="485.482" y="630.311" width="4.07971" height="4.07965"/>
 <rect x="730.263" y="630.311" width="28.5578" height="4.07965"/>
 <rect x="995.442" y="630.311" width="4.07965" height="24.478"/>
 <rect x="69.3546" y="634.39" width="4.07968" height="20.3984"/>
 <rect x="403.888" y="634.39" width="28.5578" height="4.07965"/>
 <rect x="456.924" y="634.39" width="28.5577" height="4.07965"/>
 <rect x="758.821" y="634.39" width="24.4781" height="4.07965"/>
 <rect x="791.458" y="634.39" width="4.07971" height="16.3187"/>
 <rect x="795.538" y="634.39" width="69.3546" height="4.07965"/>
 <rect x="873.052" y="634.39" width="4.07971" height="16.3187"/>
 <rect x="877.131" y="634.39" width="32.6375" height="4.07965"/>
 <rect x="432.446" y="638.47" width="4.07965" height="4.07971"/>
 <rect x="448.765" y="638.47" width="8.15936" height="4.07971"/>
 <rect x="779.219" y="638.47" width="4.07971" height="12.2391"/>
 <rect x="860.813" y="638.47" width="4.07971" height="12.2391"/>
 <rect x="946.486" y="638.47" width="8.1593" height="8.15942"/>
 <rect x="979.124" y="638.47" width="8.1593" height="8.15942"/>
 <rect x="436.526" y="642.55" width="12.2391" height="4.07971"/>
 <rect x="762.9" y="642.55" width="4.07971" height="4.07971"/>
 <rect x="807.777" y="642.55" width="4.07971" height="4.07971"/>
 <rect x="758.821" y="646.63" width="4.07965" height="138.709"/>
 <rect x="766.98" y="646.63" width="16.3187" height="4.07965"/>
 <rect x="795.538" y="646.63" width="12.239" height="4.07965"/>
 <rect x="811.857" y="646.63" width="4.07971" height="134.629"/>
 <rect x="844.494" y="646.63" width="20.3984" height="4.07965"/>
 <rect x="877.131" y="646.63" width="16.3187" height="4.07965"/>
 <rect x="958.725" y="646.63" width="4.07971" height="12.239"/>
 <rect x="97.9124" y="650.709" width="20.3984" height="4.07965"/>
 <rect x="840.414" y="650.709" width="4.07971" height="81.5936"/>
 <rect x="893.45" y="650.709" width="4.07971" height="81.5936"/>
 <rect x="950.566" y="650.709" width="12.2391" height="4.07965"/>
 <rect x="73.4343" y="654.789" width="4.07968" height="4.07971"/>
 <rect x="89.753" y="654.789" width="8.15936" height="4.07971"/>
 <rect x="926.088" y="654.789" width="24.4781" height="4.07971"/>
 <rect x="966.884" y="654.789" width="28.5578" height="4.07971"/>
 <rect x="77.5139" y="658.869" width="12.239" height="4.07971"/>
 <rect x="962.805" y="658.869" width="4.07965" height="4.07971"/>
 <rect x="579.315" y="662.948" width="20.3984" height="4.07965"/>
 <rect x="648.669" y="662.948" width="20.3984" height="4.07965"/>
 <rect x="534.438" y="667.028" width="44.8765" height="4.07965"/>
 <rect x="599.713" y="667.028" width="20.3984" height="4.07965"/>
 <rect x="628.271" y="667.028" width="4.07965" height="16.3187"/>
 <rect x="632.351" y="667.028" width="16.3187" height="4.07965"/>
 <rect x="669.068" y="667.028" width="44.8765" height="4.07965"/>
 <rect x="616.032" y="671.108" width="4.07971" height="12.2391"/>
 <rect x="599.713" y="679.267" width="20.3984" height="4.07965"/>
 <rect x="632.351" y="679.267" width="16.3187" height="4.07965"/>
 <rect x="595.633" y="683.347" width="4.07965" height="65.2749"/>
 <rect x="648.669" y="683.347" width="4.07971" height="65.2749"/>
 <rect x="766.98" y="687.426" width="8.1593" height="8.15942"/>
 <rect x="799.618" y="687.426" width="8.1593" height="8.15942"/>
 <rect x="766.98" y="720.064" width="8.1593" height="8.15942"/>
 <rect x="799.618" y="720.064" width="8.1593" height="8.15942"/>
 <rect x="844.494" y="732.303" width="48.9562" height="4.07965"/>
 <rect x="546.677" y="736.382" width="24.4781" height="4.07971"/>
 <rect x="677.227" y="736.382" width="24.4781" height="4.07971"/>
 <rect x="542.598" y="740.462" width="4.07971" height="8.15936"/>
 <rect x="571.155" y="740.462" width="4.07965" height="8.15936"/>
 <rect x="673.147" y="740.462" width="4.07971" height="8.15936"/>
 <rect x="701.705" y="740.462" width="4.07965" height="8.15936"/>
 <rect x="538.518" y="744.542" width="8.15936" height="4.07965"/>
 <rect x="575.235" y="744.542" width="24.4781" height="4.07965"/>
 <rect x="652.749" y="744.542" width="24.4781" height="4.07965"/>
 <rect x="705.785" y="744.542" width="8.15936" height="4.07965"/>
 <rect x="534.438" y="748.622" width="4.07971" height="20.3984"/>
 <rect x="766.98" y="752.701" width="8.1593" height="8.15942"/>
 <rect x="799.618" y="752.701" width="8.1593" height="8.15942"/>
 <rect x="497.721" y="760.861" width="16.3187" height="4.07965"/>
 <rect x="481.402" y="764.94" width="16.3187" height="4.07965"/>
 <rect x="514.04" y="764.94" width="24.4781" height="4.07965"/>
 <rect x="477.323" y="769.02" width="4.07971" height="40.7969"/>
 <rect x="587.474" y="769.02" width="8.15936" height="8.15942"/>
 <rect x="648.669" y="769.02" width="8.15936" height="8.15942"/>
 <rect x="746.582" y="777.179" width="4.07971" height="8.1593"/>
 <rect x="750.661" y="781.259" width="12.239" height="4.07965"/>
 <rect x="815.936" y="781.259" width="4.07965" height="16.3187"/>
 <rect x="746.582" y="793.498" width="4.07971" height="8.1593"/>
 <rect x="750.661" y="793.498" width="12.239" height="4.07965"/>
 <rect x="758.821" y="797.578" width="4.07965" height="32.6375"/>
 <rect x="811.857" y="797.578" width="4.07971" height="32.6375"/>
 <rect x="587.474" y="801.657" width="8.15936" height="8.15942"/>
 <rect x="648.669" y="801.657" width="8.15936" height="4.07971"/>
 <rect x="652.749" y="805.737" width="4.07965" height="4.07971"/>
 <rect x="481.402" y="809.817" width="16.3187" height="4.07965"/>
 <rect x="514.04" y="809.817" width="24.4781" height="4.07965"/>
 <rect x="497.721" y="813.896" width="16.3187" height="4.07965"/>
 <rect x="534.438" y="813.896" width="4.07971" height="16.3187"/>
 <rect x="538.518" y="830.215" width="61.1952" height="4.07965"/>
 <rect x="648.669" y="830.215" width="4.07971" height="8.15936"/>
 <rect x="652.749" y="830.215" width="61.1952" height="4.07965"/>
 <rect x="762.9" y="830.215" width="48.9562" height="4.07965"/>
 <rect x="595.633" y="834.295" width="4.07965" height="4.07971"/>
 <rect x="599.713" y="838.375" width="4.07971" height="4.07971"/>
 <rect x="644.59" y="838.375" width="4.07965" height="4.07971"/>
 <rect x="595.633" y="842.454" width="4.07965" height="20.3984"/>
 <rect x="648.669" y="842.454" width="4.07971" height="20.3984"/>
 <rect x="599.713" y="862.853" width="20.3984" height="4.07965"/>
 <rect x="628.271" y="862.853" width="20.3984" height="4.07965"/>
 <rect x="620.112" y="866.932" width="8.15936" height="4.07971"/>
</g>
</svg>