<svg xmlns="http://www.w3.org/2000/svg" version="1.1" width = "1027" height = "1027" viewBox = "-1 -1 1026 1026" preserveAspectRatio = "none" shape-rendering="auto">
<rect x="0" y="0" width="1024" height="1024" style="fill:rgb(0,0,0);" /><rect x="0" y="0" width="1024" height="1024" style="fill:rgb(229,229,229);" /><g style="fill:rgb(0,0,0);">
 <rect x="0" y="0" width="8" height="1024"/>
 <rect x="8" y="0" width="1016" height="8"/>
 <rect x="352" y="8" width="8" height="176"/>
 <rect x="704" y="8" width="8" height="88"/>
 <rect x="968" y="8" width="8" height="264"/>
 <rect x="8" y="88" width="264" height="8"/>
 <rect x="440" y="88" width="8" height="184"/>
 <rect x="528" y="88" width="8" height="272"/>
 <rect x="616" y="88" width="96" height="8"/>
 <rect x="792" y="88" width="96" height="8"/>
 <rect x="880" y="96" width="8" height="264"/>
 <rect x="88" y="176" width="272" height="8"/>
 <rect x="448" y="176" width="176" height="8"/>
 <rect x="704" y="176" width="8" height="96"/>
 <rect x="712" y="176" width="176" height="8"/>
 <rect x="88" y="264" width="8" height="184"/>
 <rect x="96" y="264" width="352" height="8"/>
 <rect x="616" y="264" width="8" height="184"/>
 <rect x="624" y="264" width="88" height="8"/>
 <rect x="792" y="264" width="96" height="8"/>
 <rect x="96" y="352" width="176" height="8"/>
 <rect x="352" y="352" width="184" height="8"/>
 <rect x="624" y="352" width="176" height="8"/>
 <rect x="968" y="352" width="8" height="360"/>
 <rect x="264" y="360" width="8" height="88"/>
 <rect x="440" y="360" width="8" height="352"/>
 <rect x="704" y="360" width="8" height="352"/>
 <rect x="176" y="440" width="8" height="96"/>
 <rect x="272" y="440" width="88" height="8"/>
 <rect x="528" y="440" width="8" height="272"/>
 <rect x="536" y="440" width="88" height="8"/>
 <rect x="712" y="440" width="264" height="8"/>
 <rect x="352" y="448" width="8" height="88"/>
 <rect x="8" y="528" width="264" height="8"/>
 <rect x="536" y="528" width="88" height="8"/>
 <rect x="792" y="528" width="96" height="8"/>
 <rect x="264" y="536" width="8" height="352"/>
 <rect x="880" y="536" width="8" height="264"/>
 <rect x="88" y="616" width="272" height="8"/>
 <rect x="616" y="616" width="96" height="8"/>
 <rect x="792" y="616" width="8" height="96"/>
 <rect x="800" y="616" width="88" height="8"/>
 <rect x="88" y="704" width="8" height="96"/>
 <rect x="96" y="704" width="88" height="8"/>
 <rect x="352" y="704" width="184" height="8"/>
 <rect x="616" y="704" width="8" height="184"/>
 <rect x="624" y="704" width="176" height="8"/>
 <rect x="976" y="704" width="48" height="8"/>
 <rect x="8" y="792" width="88" height="8"/>
 <rect x="176" y="792" width="8" height="184"/>
 <rect x="352" y="792" width="184" height="8"/>
 <rect x="704" y="792" width="8" height="96"/>
 <rect x="712" y="792" width="264" height="8"/>
 <rect x="528" y="800" width="8" height="88"/>
 <rect x="8" y="880" width="88" height="8"/>
 <rect x="184" y="880" width="176" height="8"/>
 <rect x="440" y="880" width="8" height="96"/>
 <rect x="536" y="880" width="88" height="8"/>
 <rect x="712" y="880" width="88" height="8"/>
 <rect x="880" y="880" width="8" height="96"/>
 <rect x="968" y="880" width="56" height="8"/>
 <rect x="792" y="888" width="8" height="88"/>
 <rect x="88" y="968" width="96" height="8"/>
 <rect x="264" y="968" width="96" height="8"/>
 <rect x="448" y="968" width="88" height="8"/>
 <rect x="616" y="968" width="96" height="8"/>
 <rect x="800" y="968" width="176" height="8"/>
 <rect x="352" y="976" width="8" height="48"/>
 <rect x="528" y="976" width="8" height="48"/>
 <rect x="704" y="976" width="8" height="48"/>
</g>
</svg>