<svg xmlns="http://www.w3.org/2000/svg" version="1.1" width = "1027" height = "1027" viewBox = "-1 -1 1026 1026" preserveAspectRatio = "none" shape-rendering="auto">
<rect x="0" y="0" width="1024" height="1024" style="fill:rgb(0,0,0);" /><rect x="0" y="0" width="1024" height="1024" style="fill:rgb(229,229,229);" /><g style="fill:rgb(0,0,0);">
 <rect x="0" y="0" width="32" height="1024"/>
 <rect x="32" y="0" width="992" height="32"/>
 <rect x="96" y="32" width="32" height="96"/>
 <rect x="192" y="32" width="32" height="192"/>
 <rect x="288" y="96" width="416" height="32"/>
 <rect x="768" y="96" width="32" height="320"/>
 <rect x="800" y="96" width="96" height="32"/>
 <rect x="960" y="96" width="32" height="224"/>
 <rect x="672" y="128" width="32" height="96"/>
 <rect x="864" y="128" width="32" height="96"/>
 <rect x="96" y="192" width="224" height="32"/>
 <rect x="384" y="192" width="32" height="128"/>
 <rect x="416" y="192" width="288" height="32"/>
 <rect x="896" y="192" width="96" height="32"/>
 <rect x="32" y="288" width="384" height="32"/>
 <rect x="480" y="288" width="32" height="224"/>
 <rect x="512" y="288" width="96" height="32"/>
 <rect x="672" y="288" width="32" height="224"/>
 <rect x="704" y="288" width="96" height="32"/>
 <rect x="864" y="288" width="32" height="320"/>
 <rect x="896" y="288" width="128" height="32"/>
 <rect x="96" y="384" width="608" height="32"/>
 <rect x="896" y="384" width="96" height="32"/>
 <rect x="96" y="480" width="32" height="128"/>
 <rect x="128" y="480" width="192" height="32"/>
 <rect x="384" y="480" width="32" height="320"/>
 <rect x="416" y="480" width="96" height="32"/>
 <rect x="576" y="480" width="32" height="128"/>
 <rect x="704" y="480" width="96" height="32"/>
 <rect x="960" y="480" width="32" height="224"/>
 <rect x="992" y="480" width="32" height="32"/>
 <rect x="32" y="576" width="96" height="32"/>
 <rect x="192" y="576" width="32" height="128"/>
 <rect x="224" y="576" width="96" height="32"/>
 <rect x="480" y="576" width="32" height="224"/>
 <rect x="512" y="576" width="96" height="32"/>
 <rect x="672" y="576" width="32" height="224"/>
 <rect x="704" y="576" width="192" height="32"/>
 <rect x="96" y="672" width="32" height="320"/>
 <rect x="224" y="672" width="192" height="32"/>
 <rect x="576" y="672" width="32" height="128"/>
 <rect x="608" y="672" width="96" height="32"/>
 <rect x="768" y="672" width="32" height="224"/>
 <rect x="800" y="672" width="192" height="32"/>
 <rect x="128" y="768" width="96" height="32"/>
 <rect x="288" y="768" width="128" height="32"/>
 <rect x="512" y="768" width="96" height="32"/>
 <rect x="800" y="768" width="192" height="32"/>
 <rect x="192" y="800" width="32" height="224"/>
 <rect x="224" y="864" width="288" height="32"/>
 <rect x="576" y="864" width="32" height="128"/>
 <rect x="608" y="864" width="192" height="32"/>
 <rect x="864" y="864" width="32" height="128"/>
 <rect x="896" y="864" width="96" height="32"/>
 <rect x="480" y="896" width="32" height="96"/>
 <rect x="960" y="896" width="32" height="96"/>
 <rect x="224" y="960" width="96" height="32"/>
 <rect x="384" y="960" width="32" height="64"/>
 <rect x="608" y="960" width="96" height="32"/>
 <rect x="768" y="960" width="32" height="64"/>
 <rect x="800" y="960" width="96" height="32"/>
</g>
</svg>