<svg xmlns="http://www.w3.org/2000/svg" version="1.1" width = "1027" height = "1027" viewBox = "-1 -1 1026 1026" preserveAspectRatio = "none" shape-rendering="auto">
<rect x="0" y="0" width="1024" height="1024" style="fill:rgb(0,0,0);" /><rect x="0" y="0" width="1024" height="1024" style="fill:rgb(229,229,229);" /><g style="fill:rgb(0,0,0);">
 <rect x="0" y="0" width="8" height="1024"/>
 <rect x="8" y="0" width="1016" height="8"/>
 <rect x="264" y="8" width="8" height="24"/>
 <rect x="384" y="8" width="8" height="48"/>
 <rect x="552" y="8" width="8" height="24"/>
 <rect x="696" y="8" width="8" height="48"/>
 <rect x="768" y="8" width="8" height="48"/>
 <rect x="864" y="8" width="8" height="24"/>
 <rect x="24" y="24" width="8" height="32"/>
 <rect x="32" y="24" width="120" height="8"/>
 <rect x="168" y="24" width="8" height="32"/>
 <rect x="176" y="24" width="48" height="8"/>
 <rect x="240" y="24" width="8" height="80"/>
 <rect x="272" y="24" width="24" height="8"/>
 <rect x="312" y="24" width="8" height="32"/>
 <rect x="336" y="24" width="8" height="32"/>
 <rect x="344" y="24" width="48" height="8"/>
 <rect x="408" y="24" width="56" height="8"/>
 <rect x="480" y="24" width="8" height="32"/>
 <rect x="488" y="24" width="48" height="8"/>
 <rect x="560" y="24" width="24" height="8"/>
 <rect x="600" y="24" width="8" height="32"/>
 <rect x="608" y="24" width="96" height="8"/>
 <rect x="720" y="24" width="8" height="80"/>
 <rect x="728" y="24" width="24" height="8"/>
 <rect x="776" y="24" width="24" height="8"/>
 <rect x="816" y="24" width="8" height="56"/>
 <rect x="840" y="24" width="32" height="8"/>
 <rect x="888" y="24" width="8" height="32"/>
 <rect x="896" y="24" width="120" height="8"/>
 <rect x="96" y="32" width="8" height="24"/>
 <rect x="144" y="32" width="8" height="24"/>
 <rect x="216" y="32" width="8" height="48"/>
 <rect x="432" y="32" width="8" height="48"/>
 <rect x="528" y="32" width="8" height="24"/>
 <rect x="960" y="32" width="8" height="72"/>
 <rect x="48" y="48" width="8" height="80"/>
 <rect x="72" y="48" width="8" height="104"/>
 <rect x="80" y="48" width="24" height="8"/>
 <rect x="120" y="48" width="8" height="32"/>
 <rect x="152" y="48" width="24" height="8"/>
 <rect x="192" y="48" width="8" height="32"/>
 <rect x="264" y="48" width="8" height="80"/>
 <rect x="272" y="48" width="72" height="8"/>
 <rect x="360" y="48" width="8" height="32"/>
 <rect x="392" y="48" width="24" height="8"/>
 <rect x="456" y="48" width="8" height="80"/>
 <rect x="464" y="48" width="24" height="8"/>
 <rect x="504" y="48" width="56" height="8"/>
 <rect x="576" y="48" width="8" height="80"/>
 <rect x="584" y="48" width="24" height="8"/>
 <rect x="624" y="48" width="8" height="80"/>
 <rect x="632" y="48" width="48" height="8"/>
 <rect x="744" y="48" width="56" height="8"/>
 <rect x="824" y="48" width="24" height="8"/>
 <rect x="864" y="48" width="8" height="32"/>
 <rect x="872" y="48" width="72" height="8"/>
 <rect x="984" y="48" width="40" height="8"/>
 <rect x="552" y="56" width="8" height="24"/>
 <rect x="672" y="56" width="8" height="24"/>
 <rect x="840" y="56" width="8" height="24"/>
 <rect x="936" y="56" width="8" height="288"/>
 <rect x="8" y="72" width="48" height="8"/>
 <rect x="96" y="72" width="104" height="8"/>
 <rect x="288" y="72" width="8" height="32"/>
 <rect x="296" y="72" width="144" height="8"/>
 <rect x="464" y="72" width="72" height="8"/>
 <rect x="584" y="72" width="24" height="8"/>
 <rect x="648" y="72" width="8" height="56"/>
 <rect x="680" y="72" width="24" height="8"/>
 <rect x="728" y="72" width="96" height="8"/>
 <rect x="848" y="72" width="24" height="8"/>
 <rect x="888" y="72" width="32" height="8"/>
 <rect x="984" y="72" width="8" height="56"/>
 <rect x="992" y="72" width="24" height="8"/>
 <rect x="144" y="80" width="8" height="24"/>
 <rect x="336" y="80" width="8" height="24"/>
 <rect x="408" y="80" width="8" height="48"/>
 <rect x="528" y="80" width="8" height="24"/>
 <rect x="696" y="80" width="8" height="24"/>
 <rect x="792" y="80" width="8" height="48"/>
 <rect x="912" y="80" width="8" height="24"/>
 <rect x="24" y="96" width="32" height="8"/>
 <rect x="96" y="96" width="8" height="32"/>
 <rect x="104" y="96" width="24" height="8"/>
 <rect x="152" y="96" width="120" height="8"/>
 <rect x="312" y="96" width="8" height="32"/>
 <rect x="344" y="96" width="48" height="8"/>
 <rect x="416" y="96" width="24" height="8"/>
 <rect x="480" y="96" width="128" height="8"/>
 <rect x="672" y="96" width="80" height="8"/>
 <rect x="768" y="96" width="32" height="8"/>
 <rect x="816" y="96" width="104" height="8"/>
 <rect x="1008" y="96" width="8" height="80"/>
 <rect x="120" y="104" width="8" height="24"/>
 <rect x="840" y="104" width="8" height="24"/>
 <rect x="888" y="104" width="8" height="48"/>
 <rect x="24" y="120" width="32" height="8"/>
 <rect x="80" y="120" width="24" height="8"/>
 <rect x="128" y="120" width="96" height="8"/>
 <rect x="240" y="120" width="80" height="8"/>
 <rect x="336" y="120" width="80" height="8"/>
 <rect x="432" y="120" width="8" height="56"/>
 <rect x="440" y="120" width="120" height="8"/>
 <rect x="600" y="120" width="8" height="80"/>
 <rect x="608" y="120" width="24" height="8"/>
 <rect x="656" y="120" width="72" height="8"/>
 <rect x="744" y="120" width="80" height="8"/>
 <rect x="848" y="120" width="24" height="8"/>
 <rect x="912" y="120" width="32" height="8"/>
 <rect x="960" y="120" width="8" height="32"/>
 <rect x="968" y="120" width="24" height="8"/>
 <rect x="192" y="128" width="8" height="24"/>
 <rect x="216" y="128" width="8" height="72"/>
 <rect x="360" y="128" width="8" height="24"/>
 <rect x="552" y="128" width="8" height="24"/>
 <rect x="672" y="128" width="8" height="96"/>
 <rect x="720" y="128" width="8" height="48"/>
 <rect x="816" y="128" width="8" height="24"/>
 <rect x="24" y="144" width="8" height="32"/>
 <rect x="48" y="144" width="8" height="32"/>
 <rect x="56" y="144" width="24" height="8"/>
 <rect x="96" y="144" width="8" height="32"/>
 <rect x="104" y="144" width="24" height="8"/>
 <rect x="144" y="144" width="56" height="8"/>
 <rect x="224" y="144" width="168" height="8"/>
 <rect x="408" y="144" width="8" height="80"/>
 <rect x="456" y="144" width="8" height="128"/>
 <rect x="480" y="144" width="176" height="8"/>
 <rect x="696" y="144" width="8" height="56"/>
 <rect x="744" y="144" width="32" height="8"/>
 <rect x="792" y="144" width="56" height="8"/>
 <rect x="864" y="144" width="8" height="32"/>
 <rect x="872" y="144" width="48" height="8"/>
 <rect x="944" y="144" width="24" height="8"/>
 <rect x="984" y="144" width="32" height="8"/>
 <rect x="120" y="152" width="8" height="24"/>
 <rect x="312" y="152" width="8" height="24"/>
 <rect x="384" y="152" width="8" height="24"/>
 <rect x="504" y="152" width="8" height="48"/>
 <rect x="768" y="152" width="8" height="24"/>
 <rect x="8" y="168" width="24" height="8"/>
 <rect x="56" y="168" width="48" height="8"/>
 <rect x="128" y="168" width="48" height="8"/>
 <rect x="192" y="168" width="8" height="56"/>
 <rect x="240" y="168" width="80" height="8"/>
 <rect x="336" y="168" width="8" height="56"/>
 <rect x="360" y="168" width="8" height="56"/>
 <rect x="368" y="168" width="24" height="8"/>
 <rect x="416" y="168" width="24" height="8"/>
 <rect x="464" y="168" width="24" height="8"/>
 <rect x="528" y="168" width="32" height="8"/>
 <rect x="576" y="168" width="56" height="8"/>
 <rect x="648" y="168" width="32" height="8"/>
 <rect x="728" y="168" width="144" height="8"/>
 <rect x="888" y="168" width="8" height="32"/>
 <rect x="896" y="168" width="72" height="8"/>
 <rect x="984" y="168" width="40" height="8"/>
 <rect x="168" y="176" width="8" height="72"/>
 <rect x="552" y="176" width="8" height="72"/>
 <rect x="24" y="192" width="128" height="8"/>
 <rect x="224" y="192" width="120" height="8"/>
 <rect x="384" y="192" width="32" height="8"/>
 <rect x="432" y="192" width="8" height="32"/>
 <rect x="440" y="192" width="24" height="8"/>
 <rect x="480" y="192" width="32" height="8"/>
 <rect x="528" y="192" width="56" height="8"/>
 <rect x="608" y="192" width="24" height="8"/>
 <rect x="648" y="192" width="8" height="32"/>
 <rect x="656" y="192" width="24" height="8"/>
 <rect x="704" y="192" width="72" height="8"/>
 <rect x="792" y="192" width="8" height="32"/>
 <rect x="800" y="192" width="96" height="8"/>
 <rect x="912" y="192" width="8" height="80"/>
 <rect x="944" y="192" width="72" height="8"/>
 <rect x="48" y="200" width="8" height="120"/>
 <rect x="144" y="200" width="8" height="72"/>
 <rect x="744" y="200" width="8" height="24"/>
 <rect x="8" y="216" width="48" height="8"/>
 <rect x="72" y="216" width="8" height="32"/>
 <rect x="80" y="216" width="48" height="8"/>
 <rect x="200" y="216" width="48" height="8"/>
 <rect x="264" y="216" width="8" height="32"/>
 <rect x="272" y="216" width="48" height="8"/>
 <rect x="368" y="216" width="24" height="8"/>
 <rect x="480" y="216" width="80" height="8"/>
 <rect x="576" y="216" width="80" height="8"/>
 <rect x="680" y="216" width="48" height="8"/>
 <rect x="752" y="216" width="48" height="8"/>
 <rect x="816" y="216" width="8" height="56"/>
 <rect x="824" y="216" width="96" height="8"/>
 <rect x="960" y="216" width="8" height="32"/>
 <rect x="968" y="216" width="56" height="8"/>
 <rect x="120" y="224" width="8" height="24"/>
 <rect x="240" y="224" width="8" height="96"/>
 <rect x="288" y="224" width="8" height="24"/>
 <rect x="384" y="224" width="8" height="24"/>
 <rect x="504" y="224" width="8" height="48"/>
 <rect x="600" y="224" width="8" height="24"/>
 <rect x="888" y="224" width="8" height="24"/>
 <rect x="24" y="240" width="32" height="8"/>
 <rect x="96" y="240" width="8" height="56"/>
 <rect x="104" y="240" width="24" height="8"/>
 <rect x="176" y="240" width="48" height="8"/>
 <rect x="248" y="240" width="24" height="8"/>
 <rect x="296" y="240" width="192" height="8"/>
 <rect x="528" y="240" width="8" height="32"/>
 <rect x="576" y="240" width="8" height="32"/>
 <rect x="584" y="240" width="24" height="8"/>
 <rect x="624" y="240" width="8" height="32"/>
 <rect x="632" y="240" width="192" height="8"/>
 <rect x="840" y="240" width="8" height="32"/>
 <rect x="864" y="240" width="8" height="56"/>
 <rect x="984" y="240" width="32" height="8"/>
 <rect x="192" y="248" width="8" height="24"/>
 <rect x="696" y="248" width="8" height="24"/>
 <rect x="1008" y="248" width="8" height="24"/>
 <rect x="8" y="264" width="24" height="8"/>
 <rect x="56" y="264" width="24" height="8"/>
 <rect x="120" y="264" width="8" height="32"/>
 <rect x="128" y="264" width="48" height="8"/>
 <rect x="200" y="264" width="24" height="8"/>
 <rect x="264" y="264" width="176" height="8"/>
 <rect x="480" y="264" width="8" height="32"/>
 <rect x="512" y="264" width="72" height="8"/>
 <rect x="600" y="264" width="8" height="32"/>
 <rect x="608" y="264" width="24" height="8"/>
 <rect x="648" y="264" width="8" height="80"/>
 <rect x="672" y="264" width="56" height="8"/>
 <rect x="744" y="264" width="8" height="32"/>
 <rect x="752" y="264" width="48" height="8"/>
 <rect x="824" y="264" width="24" height="8"/>
 <rect x="872" y="264" width="48" height="8"/>
 <rect x="960" y="264" width="8" height="56"/>
 <rect x="968" y="264" width="48" height="8"/>
 <rect x="168" y="272" width="8" height="48"/>
 <rect x="312" y="272" width="8" height="144"/>
 <rect x="360" y="272" width="8" height="48"/>
 <rect x="384" y="272" width="8" height="24"/>
 <rect x="432" y="272" width="8" height="24"/>
 <rect x="552" y="272" width="8" height="24"/>
 <rect x="792" y="272" width="8" height="24"/>
 <rect x="8" y="288" width="24" height="8"/>
 <rect x="72" y="288" width="8" height="56"/>
 <rect x="80" y="288" width="24" height="8"/>
 <rect x="128" y="288" width="24" height="8"/>
 <rect x="192" y="288" width="8" height="32"/>
 <rect x="216" y="288" width="8" height="32"/>
 <rect x="248" y="288" width="48" height="8"/>
 <rect x="336" y="288" width="8" height="80"/>
 <rect x="408" y="288" width="152" height="8"/>
 <rect x="576" y="288" width="8" height="32"/>
 <rect x="584" y="288" width="24" height="8"/>
 <rect x="624" y="288" width="152" height="8"/>
 <rect x="800" y="288" width="24" height="8"/>
 <rect x="840" y="288" width="8" height="32"/>
 <rect x="848" y="288" width="24" height="8"/>
 <rect x="888" y="288" width="80" height="8"/>
 <rect x="984" y="288" width="8" height="128"/>
 <rect x="1008" y="288" width="16" height="8"/>
 <rect x="144" y="296" width="8" height="48"/>
 <rect x="264" y="296" width="8" height="24"/>
 <rect x="456" y="296" width="8" height="48"/>
 <rect x="528" y="296" width="8" height="24"/>
 <rect x="816" y="296" width="8" height="48"/>
 <rect x="24" y="312" width="32" height="8"/>
 <rect x="96" y="312" width="56" height="8"/>
 <rect x="176" y="312" width="48" height="8"/>
 <rect x="272" y="312" width="24" height="8"/>
 <rect x="384" y="312" width="56" height="8"/>
 <rect x="480" y="312" width="8" height="56"/>
 <rect x="488" y="312" width="24" height="8"/>
 <rect x="552" y="312" width="8" height="80"/>
 <rect x="560" y="312" width="72" height="8"/>
 <rect x="672" y="312" width="104" height="8"/>
 <rect x="792" y="312" width="32" height="8"/>
 <rect x="848" y="312" width="72" height="8"/>
 <rect x="1008" y="312" width="8" height="32"/>
 <rect x="1016" y="312" width="8" height="8"/>
 <rect x="288" y="320" width="8" height="48"/>
 <rect x="408" y="320" width="8" height="24"/>
 <rect x="504" y="320" width="8" height="24"/>
 <rect x="696" y="320" width="8" height="48"/>
 <rect x="864" y="320" width="8" height="24"/>
 <rect x="912" y="320" width="8" height="72"/>
 <rect x="24" y="336" width="8" height="32"/>
 <rect x="32" y="336" width="72" height="8"/>
 <rect x="120" y="336" width="176" height="8"/>
 <rect x="344" y="336" width="72" height="8"/>
 <rect x="432" y="336" width="8" height="80"/>
 <rect x="440" y="336" width="24" height="8"/>
 <rect x="512" y="336" width="24" height="8"/>
 <rect x="560" y="336" width="24" height="8"/>
 <rect x="600" y="336" width="8" height="32"/>
 <rect x="608" y="336" width="96" height="8"/>
 <rect x="720" y="336" width="8" height="104"/>
 <rect x="744" y="336" width="8" height="32"/>
 <rect x="752" y="336" width="72" height="8"/>
 <rect x="840" y="336" width="8" height="32"/>
 <rect x="848" y="336" width="24" height="8"/>
 <rect x="888" y="336" width="8" height="32"/>
 <rect x="960" y="336" width="56" height="8"/>
 <rect x="96" y="344" width="8" height="24"/>
 <rect x="384" y="344" width="8" height="48"/>
 <rect x="528" y="344" width="8" height="24"/>
 <rect x="32" y="360" width="24" height="8"/>
 <rect x="72" y="360" width="8" height="56"/>
 <rect x="80" y="360" width="192" height="8"/>
 <rect x="360" y="360" width="8" height="56"/>
 <rect x="408" y="360" width="8" height="80"/>
 <rect x="456" y="360" width="8" height="32"/>
 <rect x="464" y="360" width="24" height="8"/>
 <rect x="504" y="360" width="32" height="8"/>
 <rect x="576" y="360" width="32" height="8"/>
 <rect x="624" y="360" width="8" height="56"/>
 <rect x="632" y="360" width="24" height="8"/>
 <rect x="672" y="360" width="8" height="32"/>
 <rect x="680" y="360" width="24" height="8"/>
 <rect x="728" y="360" width="120" height="8"/>
 <rect x="864" y="360" width="8" height="104"/>
 <rect x="872" y="360" width="24" height="8"/>
 <rect x="920" y="360" width="48" height="8"/>
 <rect x="1008" y="360" width="8" height="32"/>
 <rect x="48" y="368" width="8" height="24"/>
 <rect x="264" y="368" width="8" height="24"/>
 <rect x="8" y="384" width="24" height="8"/>
 <rect x="96" y="384" width="152" height="8"/>
 <rect x="272" y="384" width="72" height="8"/>
 <rect x="368" y="384" width="24" height="8"/>
 <rect x="464" y="384" width="72" height="8"/>
 <rect x="560" y="384" width="48" height="8"/>
 <rect x="648" y="384" width="8" height="80"/>
 <rect x="680" y="384" width="24" height="8"/>
 <rect x="744" y="384" width="128" height="8"/>
 <rect x="888" y="384" width="8" height="56"/>
 <rect x="896" y="384" width="24" height="8"/>
 <rect x="936" y="384" width="8" height="56"/>
 <rect x="960" y="384" width="32" height="8"/>
 <rect x="1016" y="384" width="8" height="8"/>
 <rect x="24" y="392" width="8" height="24"/>
 <rect x="216" y="392" width="8" height="48"/>
 <rect x="240" y="392" width="8" height="24"/>
 <rect x="528" y="392" width="8" height="48"/>
 <rect x="600" y="392" width="8" height="24"/>
 <rect x="696" y="392" width="8" height="24"/>
 <rect x="32" y="408" width="24" height="8"/>
 <rect x="80" y="408" width="120" height="8"/>
 <rect x="248" y="408" width="24" height="8"/>
 <rect x="288" y="408" width="80" height="8"/>
 <rect x="384" y="408" width="8" height="56"/>
 <rect x="440" y="408" width="72" height="8"/>
 <rect x="536" y="408" width="48" height="8"/>
 <rect x="608" y="408" width="24" height="8"/>
 <rect x="656" y="408" width="24" height="8"/>
 <rect x="728" y="408" width="120" height="8"/>
 <rect x="912" y="408" width="104" height="8"/>
 <rect x="48" y="416" width="8" height="48"/>
 <rect x="96" y="416" width="8" height="48"/>
 <rect x="120" y="416" width="8" height="24"/>
 <rect x="168" y="416" width="8" height="96"/>
 <rect x="264" y="416" width="8" height="24"/>
 <rect x="480" y="416" width="8" height="24"/>
 <rect x="576" y="416" width="8" height="24"/>
 <rect x="24" y="432" width="8" height="32"/>
 <rect x="72" y="432" width="32" height="8"/>
 <rect x="144" y="432" width="8" height="80"/>
 <rect x="192" y="432" width="8" height="56"/>
 <rect x="200" y="432" width="24" height="8"/>
 <rect x="240" y="432" width="32" height="8"/>
 <rect x="288" y="432" width="8" height="56"/>
 <rect x="296" y="432" width="96" height="8"/>
 <rect x="416" y="432" width="72" height="8"/>
 <rect x="504" y="432" width="8" height="32"/>
 <rect x="512" y="432" width="24" height="8"/>
 <rect x="552" y="432" width="104" height="8"/>
 <rect x="672" y="432" width="8" height="32"/>
 <rect x="680" y="432" width="48" height="8"/>
 <rect x="744" y="432" width="128" height="8"/>
 <rect x="896" y="432" width="48" height="8"/>
 <rect x="960" y="432" width="8" height="32"/>
 <rect x="968" y="432" width="56" height="8"/>
 <rect x="336" y="440" width="8" height="48"/>
 <rect x="696" y="440" width="8" height="24"/>
 <rect x="792" y="440" width="8" height="120"/>
 <rect x="1008" y="440" width="8" height="24"/>
 <rect x="32" y="456" width="48" height="8"/>
 <rect x="120" y="456" width="8" height="32"/>
 <rect x="216" y="456" width="80" height="8"/>
 <rect x="312" y="456" width="8" height="104"/>
 <rect x="360" y="456" width="128" height="8"/>
 <rect x="512" y="456" width="48" height="8"/>
 <rect x="576" y="456" width="8" height="32"/>
 <rect x="584" y="456" width="48" height="8"/>
 <rect x="656" y="456" width="24" height="8"/>
 <rect x="704" y="456" width="72" height="8"/>
 <rect x="816" y="456" width="8" height="56"/>
 <rect x="824" y="456" width="24" height="8"/>
 <rect x="872" y="456" width="96" height="8"/>
 <rect x="984" y="456" width="8" height="56"/>
 <rect x="72" y="464" width="8" height="24"/>
 <rect x="456" y="464" width="8" height="48"/>
 <rect x="528" y="464" width="8" height="48"/>
 <rect x="720" y="464" width="8" height="24"/>
 <rect x="8" y="480" width="24" height="8"/>
 <rect x="48" y="480" width="8" height="32"/>
 <rect x="56" y="480" width="72" height="8"/>
 <rect x="200" y="480" width="48" height="8"/>
 <rect x="264" y="480" width="8" height="56"/>
 <rect x="272" y="480" width="24" height="8"/>
 <rect x="344" y="480" width="48" height="8"/>
 <rect x="408" y="480" width="8" height="32"/>
 <rect x="416" y="480" width="24" height="8"/>
 <rect x="464" y="480" width="72" height="8"/>
 <rect x="552" y="480" width="56" height="8"/>
 <rect x="624" y="480" width="104" height="8"/>
 <rect x="744" y="480" width="8" height="56"/>
 <rect x="752" y="480" width="24" height="8"/>
 <rect x="840" y="480" width="152" height="8"/>
 <rect x="1008" y="480" width="8" height="80"/>
 <rect x="216" y="488" width="8" height="24"/>
 <rect x="600" y="488" width="8" height="24"/>
 <rect x="648" y="488" width="8" height="24"/>
 <rect x="936" y="488" width="8" height="48"/>
 <rect x="960" y="488" width="8" height="24"/>
 <rect x="24" y="504" width="32" height="8"/>
 <rect x="72" y="504" width="8" height="32"/>
 <rect x="80" y="504" width="120" height="8"/>
 <rect x="224" y="504" width="48" height="8"/>
 <rect x="288" y="504" width="8" height="32"/>
 <rect x="296" y="504" width="24" height="8"/>
 <rect x="336" y="504" width="8" height="104"/>
 <rect x="344" y="504" width="96" height="8"/>
 <rect x="480" y="504" width="32" height="8"/>
 <rect x="536" y="504" width="24" height="8"/>
 <rect x="576" y="504" width="8" height="32"/>
 <rect x="584" y="504" width="24" height="8"/>
 <rect x="624" y="504" width="8" height="32"/>
 <rect x="632" y="504" width="24" height="8"/>
 <rect x="672" y="504" width="104" height="8"/>
 <rect x="824" y="504" width="96" height="8"/>
 <rect x="992" y="504" width="24" height="8"/>
 <rect x="192" y="512" width="8" height="24"/>
 <rect x="432" y="512" width="8" height="72"/>
 <rect x="504" y="512" width="8" height="168"/>
 <rect x="720" y="512" width="8" height="192"/>
 <rect x="888" y="512" width="8" height="24"/>
 <rect x="24" y="528" width="8" height="56"/>
 <rect x="32" y="528" width="48" height="8"/>
 <rect x="96" y="528" width="128" height="8"/>
 <rect x="240" y="528" width="8" height="32"/>
 <rect x="360" y="528" width="8" height="32"/>
 <rect x="368" y="528" width="48" height="8"/>
 <rect x="456" y="528" width="8" height="32"/>
 <rect x="464" y="528" width="24" height="8"/>
 <rect x="512" y="528" width="72" height="8"/>
 <rect x="600" y="528" width="8" height="32"/>
 <rect x="632" y="528" width="72" height="8"/>
 <rect x="768" y="528" width="32" height="8"/>
 <rect x="816" y="528" width="8" height="80"/>
 <rect x="824" y="528" width="72" height="8"/>
 <rect x="912" y="528" width="8" height="32"/>
 <rect x="920" y="528" width="72" height="8"/>
 <rect x="216" y="536" width="8" height="120"/>
 <rect x="408" y="536" width="8" height="48"/>
 <rect x="480" y="536" width="8" height="168"/>
 <rect x="648" y="536" width="8" height="48"/>
 <rect x="696" y="536" width="8" height="48"/>
 <rect x="32" y="552" width="144" height="8"/>
 <rect x="192" y="552" width="8" height="104"/>
 <rect x="224" y="552" width="96" height="8"/>
 <rect x="368" y="552" width="24" height="8"/>
 <rect x="528" y="552" width="128" height="8"/>
 <rect x="672" y="552" width="8" height="104"/>
 <rect x="744" y="552" width="32" height="8"/>
 <rect x="800" y="552" width="24" height="8"/>
 <rect x="840" y="552" width="80" height="8"/>
 <rect x="936" y="552" width="80" height="8"/>
 <rect x="96" y="560" width="8" height="72"/>
 <rect x="768" y="560" width="8" height="48"/>
 <rect x="864" y="560" width="8" height="48"/>
 <rect x="48" y="576" width="8" height="32"/>
 <rect x="72" y="576" width="8" height="32"/>
 <rect x="120" y="576" width="80" height="8"/>
 <rect x="240" y="576" width="8" height="32"/>
 <rect x="248" y="576" width="96" height="8"/>
 <rect x="360" y="576" width="8" height="32"/>
 <rect x="384" y="576" width="8" height="32"/>
 <rect x="392" y="576" width="24" height="8"/>
 <rect x="440" y="576" width="24" height="8"/>
 <rect x="512" y="576" width="24" height="8"/>
 <rect x="552" y="576" width="104" height="8"/>
 <rect x="728" y="576" width="72" height="8"/>
 <rect x="840" y="576" width="8" height="32"/>
 <rect x="888" y="576" width="136" height="8"/>
 <rect x="288" y="584" width="8" height="24"/>
 <rect x="528" y="584" width="8" height="24"/>
 <rect x="576" y="584" width="8" height="120"/>
 <rect x="912" y="584" width="8" height="48"/>
 <rect x="8" y="600" width="72" height="8"/>
 <rect x="120" y="600" width="8" height="32"/>
 <rect x="128" y="600" width="48" height="8"/>
 <rect x="264" y="600" width="8" height="32"/>
 <rect x="296" y="600" width="24" height="8"/>
 <rect x="344" y="600" width="144" height="8"/>
 <rect x="552" y="600" width="8" height="32"/>
 <rect x="560" y="600" width="24" height="8"/>
 <rect x="600" y="600" width="8" height="152"/>
 <rect x="608" y="600" width="120" height="8"/>
 <rect x="744" y="600" width="8" height="32"/>
 <rect x="792" y="600" width="8" height="32"/>
 <rect x="800" y="600" width="48" height="8"/>
 <rect x="872" y="600" width="24" height="8"/>
 <rect x="936" y="600" width="32" height="8"/>
 <rect x="984" y="600" width="40" height="8"/>
 <rect x="312" y="608" width="8" height="48"/>
 <rect x="408" y="608" width="8" height="72"/>
 <rect x="888" y="608" width="8" height="24"/>
 <rect x="960" y="608" width="8" height="72"/>
 <rect x="1008" y="608" width="8" height="24"/>
 <rect x="8" y="624" width="24" height="8"/>
 <rect x="48" y="624" width="80" height="8"/>
 <rect x="144" y="624" width="8" height="80"/>
 <rect x="152" y="624" width="48" height="8"/>
 <rect x="224" y="624" width="48" height="8"/>
 <rect x="288" y="624" width="104" height="8"/>
 <rect x="432" y="624" width="8" height="32"/>
 <rect x="456" y="624" width="32" height="8"/>
 <rect x="512" y="624" width="48" height="8"/>
 <rect x="608" y="624" width="24" height="8"/>
 <rect x="648" y="624" width="8" height="32"/>
 <rect x="696" y="624" width="8" height="32"/>
 <rect x="752" y="624" width="48" height="8"/>
 <rect x="816" y="624" width="8" height="32"/>
 <rect x="840" y="624" width="8" height="56"/>
 <rect x="848" y="624" width="48" height="8"/>
 <rect x="920" y="624" width="24" height="8"/>
 <rect x="984" y="624" width="32" height="8"/>
 <rect x="24" y="632" width="8" height="72"/>
 <rect x="72" y="632" width="8" height="24"/>
 <rect x="936" y="632" width="8" height="24"/>
 <rect x="48" y="648" width="8" height="56"/>
 <rect x="56" y="648" width="24" height="8"/>
 <rect x="96" y="648" width="80" height="8"/>
 <rect x="200" y="648" width="48" height="8"/>
 <rect x="264" y="648" width="56" height="8"/>
 <rect x="336" y="648" width="80" height="8"/>
 <rect x="440" y="648" width="24" height="8"/>
 <rect x="528" y="648" width="32" height="8"/>
 <rect x="624" y="648" width="8" height="56"/>
 <rect x="632" y="648" width="24" height="8"/>
 <rect x="680" y="648" width="24" height="8"/>
 <rect x="728" y="648" width="48" height="8"/>
 <rect x="792" y="648" width="8" height="32"/>
 <rect x="800" y="648" width="48" height="8"/>
 <rect x="864" y="648" width="80" height="8"/>
 <rect x="968" y="648" width="48" height="8"/>
 <rect x="240" y="656" width="8" height="96"/>
 <rect x="288" y="656" width="8" height="24"/>
 <rect x="456" y="656" width="8" height="24"/>
 <rect x="552" y="656" width="8" height="24"/>
 <rect x="768" y="656" width="8" height="24"/>
 <rect x="1008" y="656" width="8" height="48"/>
 <rect x="72" y="672" width="56" height="8"/>
 <rect x="168" y="672" width="80" height="8"/>
 <rect x="264" y="672" width="8" height="56"/>
 <rect x="272" y="672" width="96" height="8"/>
 <rect x="384" y="672" width="8" height="32"/>
 <rect x="416" y="672" width="48" height="8"/>
 <rect x="528" y="672" width="8" height="80"/>
 <rect x="536" y="672" width="24" height="8"/>
 <rect x="632" y="672" width="24" height="8"/>
 <rect x="672" y="672" width="8" height="32"/>
 <rect x="680" y="672" width="48" height="8"/>
 <rect x="744" y="672" width="8" height="32"/>
 <rect x="776" y="672" width="24" height="8"/>
 <rect x="816" y="672" width="152" height="8"/>
 <rect x="984" y="672" width="32" height="8"/>
 <rect x="96" y="680" width="8" height="72"/>
 <rect x="120" y="680" width="8" height="48"/>
 <rect x="360" y="680" width="8" height="48"/>
 <rect x="864" y="680" width="8" height="48"/>
 <rect x="936" y="680" width="8" height="24"/>
 <rect x="56" y="696" width="24" height="8"/>
 <rect x="152" y="696" width="72" height="8"/>
 <rect x="288" y="696" width="8" height="80"/>
 <rect x="312" y="696" width="32" height="8"/>
 <rect x="368" y="696" width="48" height="8"/>
 <rect x="432" y="696" width="8" height="32"/>
 <rect x="440" y="696" width="24" height="8"/>
 <rect x="488" y="696" width="48" height="8"/>
 <rect x="552" y="696" width="32" height="8"/>
 <rect x="632" y="696" width="48" height="8"/>
 <rect x="696" y="696" width="8" height="32"/>
 <rect x="752" y="696" width="24" height="8"/>
 <rect x="792" y="696" width="56" height="8"/>
 <rect x="872" y="696" width="24" height="8"/>
 <rect x="912" y="696" width="56" height="8"/>
 <rect x="984" y="696" width="8" height="56"/>
 <rect x="72" y="704" width="8" height="48"/>
 <rect x="336" y="704" width="8" height="120"/>
 <rect x="456" y="704" width="8" height="48"/>
 <rect x="768" y="704" width="8" height="48"/>
 <rect x="816" y="704" width="8" height="24"/>
 <rect x="960" y="704" width="8" height="24"/>
 <rect x="24" y="720" width="8" height="80"/>
 <rect x="32" y="720" width="24" height="8"/>
 <rect x="128" y="720" width="72" height="8"/>
 <rect x="216" y="720" width="8" height="176"/>
 <rect x="272" y="720" width="48" height="8"/>
 <rect x="368" y="720" width="48" height="8"/>
 <rect x="480" y="720" width="8" height="80"/>
 <rect x="488" y="720" width="24" height="8"/>
 <rect x="552" y="720" width="8" height="32"/>
 <rect x="560" y="720" width="48" height="8"/>
 <rect x="624" y="720" width="200" height="8"/>
 <rect x="840" y="720" width="8" height="32"/>
 <rect x="848" y="720" width="72" height="8"/>
 <rect x="936" y="720" width="56" height="8"/>
 <rect x="1008" y="720" width="8" height="128"/>
 <rect x="1016" y="720" width="8" height="8"/>
 <rect x="144" y="728" width="8" height="120"/>
 <rect x="192" y="728" width="8" height="24"/>
 <rect x="312" y="728" width="8" height="24"/>
 <rect x="408" y="728" width="8" height="72"/>
 <rect x="648" y="728" width="8" height="24"/>
 <rect x="912" y="728" width="8" height="24"/>
 <rect x="8" y="744" width="24" height="8"/>
 <rect x="48" y="744" width="8" height="32"/>
 <rect x="56" y="744" width="24" height="8"/>
 <rect x="104" y="744" width="24" height="8"/>
 <rect x="168" y="744" width="8" height="56"/>
 <rect x="224" y="744" width="24" height="8"/>
 <rect x="264" y="744" width="8" height="32"/>
 <rect x="344" y="744" width="48" height="8"/>
 <rect x="416" y="744" width="48" height="8"/>
 <rect x="504" y="744" width="8" height="32"/>
 <rect x="512" y="744" width="72" height="8"/>
 <rect x="608" y="744" width="24" height="8"/>
 <rect x="656" y="744" width="24" height="8"/>
 <rect x="696" y="744" width="8" height="56"/>
 <rect x="720" y="744" width="56" height="8"/>
 <rect x="792" y="744" width="8" height="56"/>
 <rect x="800" y="744" width="48" height="8"/>
 <rect x="864" y="744" width="32" height="8"/>
 <rect x="920" y="744" width="24" height="8"/>
 <rect x="960" y="744" width="8" height="32"/>
 <rect x="120" y="752" width="8" height="48"/>
 <rect x="384" y="752" width="8" height="72"/>
 <rect x="432" y="752" width="8" height="24"/>
 <rect x="624" y="752" width="8" height="24"/>
 <rect x="744" y="752" width="8" height="48"/>
 <rect x="888" y="752" width="8" height="24"/>
 <rect x="936" y="752" width="8" height="24"/>
 <rect x="56" y="768" width="48" height="8"/>
 <rect x="176" y="768" width="24" height="8"/>
 <rect x="240" y="768" width="8" height="32"/>
 <rect x="248" y="768" width="24" height="8"/>
 <rect x="296" y="768" width="24" height="8"/>
 <rect x="360" y="768" width="8" height="80"/>
 <rect x="456" y="768" width="56" height="8"/>
 <rect x="528" y="768" width="8" height="32"/>
 <rect x="536" y="768" width="72" height="8"/>
 <rect x="632" y="768" width="24" height="8"/>
 <rect x="672" y="768" width="104" height="8"/>
 <rect x="800" y="768" width="24" height="8"/>
 <rect x="840" y="768" width="8" height="32"/>
 <rect x="848" y="768" width="96" height="8"/>
 <rect x="968" y="768" width="24" height="8"/>
 <rect x="72" y="776" width="8" height="48"/>
 <rect x="96" y="776" width="8" height="24"/>
 <rect x="600" y="776" width="8" height="72"/>
 <rect x="984" y="776" width="8" height="144"/>
 <rect x="32" y="792" width="24" height="8"/>
 <rect x="176" y="792" width="24" height="8"/>
 <rect x="248" y="792" width="24" height="8"/>
 <rect x="288" y="792" width="8" height="152"/>
 <rect x="296" y="792" width="48" height="8"/>
 <rect x="416" y="792" width="48" height="8"/>
 <rect x="488" y="792" width="24" height="8"/>
 <rect x="536" y="792" width="48" height="8"/>
 <rect x="624" y="792" width="8" height="32"/>
 <rect x="632" y="792" width="72" height="8"/>
 <rect x="720" y="792" width="8" height="32"/>
 <rect x="768" y="792" width="8" height="32"/>
 <rect x="776" y="792" width="24" height="8"/>
 <rect x="816" y="792" width="32" height="8"/>
 <rect x="864" y="792" width="128" height="8"/>
 <rect x="48" y="800" width="8" height="48"/>
 <rect x="192" y="800" width="8" height="72"/>
 <rect x="264" y="800" width="8" height="24"/>
 <rect x="432" y="800" width="8" height="72"/>
 <rect x="504" y="800" width="8" height="96"/>
 <rect x="912" y="800" width="8" height="24"/>
 <rect x="8" y="816" width="24" height="8"/>
 <rect x="80" y="816" width="48" height="8"/>
 <rect x="152" y="816" width="24" height="8"/>
 <rect x="240" y="816" width="8" height="104"/>
 <rect x="272" y="816" width="24" height="8"/>
 <rect x="312" y="816" width="8" height="56"/>
 <rect x="392" y="816" width="24" height="8"/>
 <rect x="440" y="816" width="24" height="8"/>
 <rect x="480" y="816" width="104" height="8"/>
 <rect x="608" y="816" width="24" height="8"/>
 <rect x="648" y="816" width="8" height="56"/>
 <rect x="656" y="816" width="24" height="8"/>
 <rect x="696" y="816" width="8" height="80"/>
 <rect x="704" y="816" width="216" height="8"/>
 <rect x="936" y="816" width="8" height="32"/>
 <rect x="944" y="816" width="24" height="8"/>
 <rect x="120" y="824" width="8" height="24"/>
 <rect x="408" y="824" width="8" height="72"/>
 <rect x="456" y="824" width="8" height="24"/>
 <rect x="576" y="824" width="8" height="48"/>
 <rect x="864" y="824" width="8" height="24"/>
 <rect x="24" y="840" width="80" height="8"/>
 <rect x="128" y="840" width="24" height="8"/>
 <rect x="168" y="840" width="32" height="8"/>
 <rect x="264" y="840" width="8" height="32"/>
 <rect x="320" y="840" width="48" height="8"/>
 <rect x="384" y="840" width="32" height="8"/>
 <rect x="464" y="840" width="24" height="8"/>
 <rect x="528" y="840" width="8" height="80"/>
 <rect x="552" y="840" width="32" height="8"/>
 <rect x="608" y="840" width="24" height="8"/>
 <rect x="672" y="840" width="32" height="8"/>
 <rect x="720" y="840" width="8" height="32"/>
 <rect x="728" y="840" width="120" height="8"/>
 <rect x="888" y="840" width="8" height="104"/>
 <rect x="896" y="840" width="72" height="8"/>
 <rect x="336" y="848" width="8" height="48"/>
 <rect x="624" y="848" width="8" height="48"/>
 <rect x="768" y="848" width="8" height="48"/>
 <rect x="840" y="848" width="8" height="24"/>
 <rect x="24" y="864" width="200" height="8"/>
 <rect x="248" y="864" width="24" height="8"/>
 <rect x="360" y="864" width="8" height="80"/>
 <rect x="384" y="864" width="8" height="56"/>
 <rect x="456" y="864" width="8" height="128"/>
 <rect x="464" y="864" width="24" height="8"/>
 <rect x="536" y="864" width="24" height="8"/>
 <rect x="584" y="864" width="24" height="8"/>
 <rect x="656" y="864" width="24" height="8"/>
 <rect x="744" y="864" width="8" height="56"/>
 <rect x="792" y="864" width="32" height="8"/>
 <rect x="848" y="864" width="48" height="8"/>
 <rect x="912" y="864" width="80" height="8"/>
 <rect x="1008" y="864" width="8" height="32"/>
 <rect x="1016" y="864" width="8" height="8"/>
 <rect x="72" y="872" width="8" height="24"/>
 <rect x="552" y="872" width="8" height="24"/>
 <rect x="672" y="872" width="8" height="24"/>
 <rect x="816" y="872" width="8" height="24"/>
 <rect x="8" y="888" width="72" height="8"/>
 <rect x="96" y="888" width="8" height="56"/>
 <rect x="104" y="888" width="24" height="8"/>
 <rect x="144" y="888" width="8" height="32"/>
 <rect x="152" y="888" width="24" height="8"/>
 <rect x="192" y="888" width="8" height="128"/>
 <rect x="248" y="888" width="24" height="8"/>
 <rect x="312" y="888" width="8" height="56"/>
 <rect x="320" y="888" width="24" height="8"/>
 <rect x="368" y="888" width="24" height="8"/>
 <rect x="416" y="888" width="96" height="8"/>
 <rect x="560" y="888" width="96" height="8"/>
 <rect x="680" y="888" width="72" height="8"/>
 <rect x="776" y="888" width="48" height="8"/>
 <rect x="840" y="888" width="8" height="56"/>
 <rect x="848" y="888" width="24" height="8"/>
 <rect x="896" y="888" width="72" height="8"/>
 <rect x="264" y="896" width="8" height="24"/>
 <rect x="432" y="896" width="8" height="24"/>
 <rect x="648" y="896" width="8" height="24"/>
 <rect x="936" y="896" width="8" height="24"/>
 <rect x="960" y="896" width="8" height="48"/>
 <rect x="24" y="912" width="80" height="8"/>
 <rect x="120" y="912" width="8" height="32"/>
 <rect x="128" y="912" width="120" height="8"/>
 <rect x="296" y="912" width="24" height="8"/>
 <rect x="336" y="912" width="32" height="8"/>
 <rect x="392" y="912" width="24" height="8"/>
 <rect x="480" y="912" width="8" height="32"/>
 <rect x="488" y="912" width="24" height="8"/>
 <rect x="552" y="912" width="8" height="56"/>
 <rect x="560" y="912" width="96" height="8"/>
 <rect x="672" y="912" width="8" height="32"/>
 <rect x="680" y="912" width="48" height="8"/>
 <rect x="752" y="912" width="96" height="8"/>
 <rect x="864" y="912" width="32" height="8"/>
 <rect x="912" y="912" width="8" height="80"/>
 <rect x="1008" y="912" width="8" height="32"/>
 <rect x="1016" y="912" width="8" height="8"/>
 <rect x="48" y="920" width="8" height="24"/>
 <rect x="624" y="920" width="8" height="24"/>
 <rect x="720" y="920" width="8" height="24"/>
 <rect x="816" y="920" width="8" height="24"/>
 <rect x="24" y="936" width="8" height="32"/>
 <rect x="32" y="936" width="24" height="8"/>
 <rect x="72" y="936" width="8" height="32"/>
 <rect x="80" y="936" width="24" height="8"/>
 <rect x="128" y="936" width="24" height="8"/>
 <rect x="168" y="936" width="8" height="32"/>
 <rect x="200" y="936" width="96" height="8"/>
 <rect x="320" y="936" width="24" height="8"/>
 <rect x="368" y="936" width="72" height="8"/>
 <rect x="488" y="936" width="72" height="8"/>
 <rect x="576" y="936" width="8" height="56"/>
 <rect x="584" y="936" width="24" height="8"/>
 <rect x="632" y="936" width="24" height="8"/>
 <rect x="696" y="936" width="8" height="56"/>
 <rect x="704" y="936" width="48" height="8"/>
 <rect x="768" y="936" width="32" height="8"/>
 <rect x="848" y="936" width="24" height="8"/>
 <rect x="920" y="936" width="24" height="8"/>
 <rect x="968" y="936" width="24" height="8"/>
 <rect x="240" y="944" width="8" height="24"/>
 <rect x="336" y="944" width="8" height="24"/>
 <rect x="432" y="944" width="8" height="48"/>
 <rect x="648" y="944" width="8" height="48"/>
 <rect x="792" y="944" width="8" height="72"/>
 <rect x="864" y="944" width="8" height="24"/>
 <rect x="984" y="944" width="8" height="24"/>
 <rect x="32" y="960" width="24" height="8"/>
 <rect x="96" y="960" width="8" height="56"/>
 <rect x="104" y="960" width="72" height="8"/>
 <rect x="216" y="960" width="8" height="32"/>
 <rect x="264" y="960" width="8" height="32"/>
 <rect x="272" y="960" width="24" height="8"/>
 <rect x="312" y="960" width="8" height="56"/>
 <rect x="320" y="960" width="96" height="8"/>
 <rect x="480" y="960" width="8" height="32"/>
 <rect x="488" y="960" width="48" height="8"/>
 <rect x="560" y="960" width="24" height="8"/>
 <rect x="600" y="960" width="8" height="32"/>
 <rect x="624" y="960" width="8" height="32"/>
 <rect x="632" y="960" width="144" height="8"/>
 <rect x="800" y="960" width="72" height="8"/>
 <rect x="888" y="960" width="32" height="8"/>
 <rect x="936" y="960" width="80" height="8"/>
 <rect x="48" y="968" width="8" height="24"/>
 <rect x="144" y="968" width="8" height="24"/>
 <rect x="288" y="968" width="8" height="24"/>
 <rect x="360" y="968" width="8" height="48"/>
 <rect x="384" y="968" width="8" height="24"/>
 <rect x="528" y="968" width="8" height="56"/>
 <rect x="672" y="968" width="8" height="24"/>
 <rect x="1008" y="968" width="8" height="48"/>
 <rect x="24" y="984" width="8" height="32"/>
 <rect x="32" y="984" width="96" height="8"/>
 <rect x="168" y="984" width="32" height="8"/>
 <rect x="224" y="984" width="48" height="8"/>
 <rect x="336" y="984" width="8" height="40"/>
 <rect x="408" y="984" width="8" height="32"/>
 <rect x="440" y="984" width="48" height="8"/>
 <rect x="504" y="984" width="8" height="32"/>
 <rect x="552" y="984" width="8" height="32"/>
 <rect x="560" y="984" width="24" height="8"/>
 <rect x="608" y="984" width="24" height="8"/>
 <rect x="704" y="984" width="24" height="8"/>
 <rect x="744" y="984" width="56" height="8"/>
 <rect x="816" y="984" width="8" height="32"/>
 <rect x="824" y="984" width="72" height="8"/>
 <rect x="920" y="984" width="24" height="8"/>
 <rect x="960" y="984" width="8" height="32"/>
 <rect x="968" y="984" width="56" height="8"/>
 <rect x="72" y="992" width="8" height="32"/>
 <rect x="120" y="992" width="8" height="24"/>
 <rect x="240" y="992" width="8" height="24"/>
 <rect x="720" y="992" width="8" height="24"/>
 <rect x="888" y="992" width="8" height="24"/>
 <rect x="936" y="992" width="8" height="32"/>
 <rect x="48" y="1008" width="8" height="16"/>
 <rect x="128" y="1008" width="48" height="8"/>
 <rect x="200" y="1008" width="24" height="8"/>
 <rect x="248" y="1008" width="48" height="8"/>
 <rect x="368" y="1008" width="144" height="8"/>
 <rect x="560" y="1008" width="144" height="8"/>
 <rect x="728" y="1008" width="48" height="8"/>
 <rect x="824" y="1008" width="24" height="8"/>
 <rect x="864" y="1008" width="32" height="8"/>
 <rect x="912" y="1008" width="32" height="8"/>
 <rect x="984" y="1008" width="32" height="8"/>
 <rect x="264" y="1016" width="8" height="8"/>
 <rect x="768" y="1016" width="8" height="8"/>
 <rect x="840" y="1016" width="8" height="8"/>
</g>
</svg>