<svg xmlns="http://www.w3.org/2000/svg" version="1.1" width = "1027" height = "1027" viewBox = "-1 -1 1026 1026" preserveAspectRatio = "none" shape-rendering="auto">
<rect x="0" y="0" width="1024" height="1024" style="fill:rgb(0,0,0);" /><rect x="0" y="0" width="1024" height="1024" style="fill:rgb(229,229,229);" /><g style="fill:rgb(0,0,0);">
 <rect x="16" y="0" width="16" height="16"/>
 <rect x="80" y="0" width="16" height="16"/>
 <rect x="112" y="0" width="16" height="32"/>
 <rect x="512" y="0" width="16" height="16"/>
 <rect x="576" y="0" width="16" height="16"/>
 <rect x="672" y="0" width="16" height="16"/>
 <rect x="736" y="0" width="16" height="16"/>
 <rect x="336" y="16" width="16" height="16"/>
 <rect x="400" y="16" width="16" height="16"/>
 <rect x="560" y="16" width="16" height="16"/>
 <rect x="720" y="16" width="16" height="16"/>
 <rect x="800" y="16" width="16" height="16"/>
 <rect x="352" y="32" width="16" height="16"/>
 <rect x="512" y="32" width="16" height="16"/>
 <rect x="864" y="32" width="16" height="16"/>
 <rect x="944" y="32" width="16" height="16"/>
 <rect x="32" y="48" width="16" height="16"/>
 <rect x="64" y="48" width="16" height="16"/>
 <rect x="112" y="48" width="16" height="16"/>
 <rect x="560" y="48" width="32" height="16"/>
 <rect x="800" y="48" width="16" height="16"/>
 <rect x="832" y="48" width="16" height="16"/>
 <rect x="928" y="48" width="16" height="16"/>
 <rect x="1008" y="48" width="16" height="16"/>
 <rect x="96" y="64" width="16" height="16"/>
 <rect x="144" y="64" width="16" height="16"/>
 <rect x="304" y="64" width="16" height="16"/>
 <rect x="448" y="64" width="16" height="16"/>
 <rect x="80" y="80" width="16" height="16"/>
 <rect x="112" y="80" width="16" height="16"/>
 <rect x="256" y="80" width="32" height="16"/>
 <rect x="480" y="80" width="16" height="16"/>
 <rect x="544" y="80" width="16" height="16"/>
 <rect x="592" y="80" width="16" height="16"/>
 <rect x="704" y="80" width="16" height="16"/>
 <rect x="864" y="80" width="16" height="32"/>
 <rect x="960" y="80" width="16" height="16"/>
 <rect x="192" y="96" width="16" height="16"/>
 <rect x="336" y="96" width="16" height="16"/>
 <rect x="432" y="96" width="16" height="16"/>
 <rect x="736" y="96" width="16" height="16"/>
 <rect x="800" y="96" width="16" height="16"/>
 <rect x="880" y="96" width="16" height="16"/>
 <rect x="992" y="96" width="16" height="16"/>
 <rect x="32" y="112" width="16" height="16"/>
 <rect x="464" y="112" width="16" height="16"/>
 <rect x="640" y="112" width="16" height="16"/>
 <rect x="784" y="112" width="16" height="16"/>
 <rect x="96" y="128" width="16" height="16"/>
 <rect x="128" y="128" width="16" height="16"/>
 <rect x="368" y="128" width="16" height="48"/>
 <rect x="560" y="128" width="16" height="16"/>
 <rect x="896" y="128" width="16" height="16"/>
 <rect x="960" y="128" width="16" height="16"/>
 <rect x="0" y="144" width="32" height="16"/>
 <rect x="288" y="144" width="16" height="16"/>
 <rect x="800" y="144" width="16" height="16"/>
 <rect x="880" y="144" width="16" height="16"/>
 <rect x="1008" y="144" width="16" height="16"/>
 <rect x="80" y="160" width="16" height="16"/>
 <rect x="704" y="160" width="16" height="16"/>
 <rect x="784" y="160" width="16" height="16"/>
 <rect x="912" y="160" width="32" height="16"/>
 <rect x="16" y="176" width="16" height="32"/>
 <rect x="464" y="176" width="16" height="16"/>
 <rect x="688" y="176" width="16" height="16"/>
 <rect x="928" y="176" width="16" height="16"/>
 <rect x="64" y="192" width="16" height="16"/>
 <rect x="160" y="192" width="16" height="32"/>
 <rect x="448" y="192" width="16" height="16"/>
 <rect x="544" y="192" width="32" height="16"/>
 <rect x="992" y="192" width="16" height="16"/>
 <rect x="144" y="208" width="16" height="32"/>
 <rect x="272" y="208" width="16" height="16"/>
 <rect x="304" y="208" width="16" height="16"/>
 <rect x="528" y="208" width="16" height="16"/>
 <rect x="704" y="208" width="16" height="16"/>
 <rect x="976" y="208" width="16" height="16"/>
 <rect x="64" y="224" width="16" height="32"/>
 <rect x="384" y="224" width="16" height="16"/>
 <rect x="432" y="224" width="16" height="16"/>
 <rect x="640" y="224" width="16" height="16"/>
 <rect x="688" y="224" width="16" height="16"/>
 <rect x="752" y="224" width="16" height="16"/>
 <rect x="928" y="224" width="16" height="16"/>
 <rect x="272" y="240" width="16" height="16"/>
 <rect x="464" y="240" width="16" height="16"/>
 <rect x="496" y="240" width="16" height="16"/>
 <rect x="560" y="240" width="16" height="16"/>
 <rect x="704" y="240" width="16" height="16"/>
 <rect x="800" y="240" width="16" height="16"/>
 <rect x="736" y="256" width="16" height="48"/>
 <rect x="784" y="256" width="16" height="16"/>
 <rect x="32" y="272" width="16" height="16"/>
 <rect x="160" y="272" width="16" height="16"/>
 <rect x="224" y="272" width="16" height="16"/>
 <rect x="912" y="272" width="16" height="16"/>
 <rect x="352" y="288" width="16" height="16"/>
 <rect x="384" y="288" width="16" height="16"/>
 <rect x="496" y="288" width="16" height="16"/>
 <rect x="592" y="288" width="32" height="16"/>
 <rect x="800" y="288" width="16" height="16"/>
 <rect x="832" y="288" width="16" height="16"/>
 <rect x="0" y="304" width="16" height="32"/>
 <rect x="112" y="304" width="16" height="16"/>
 <rect x="288" y="304" width="16" height="16"/>
 <rect x="368" y="304" width="16" height="32"/>
 <rect x="864" y="304" width="16" height="16"/>
 <rect x="944" y="304" width="16" height="16"/>
 <rect x="32" y="320" width="16" height="16"/>
 <rect x="208" y="320" width="16" height="16"/>
 <rect x="320" y="320" width="16" height="16"/>
 <rect x="576" y="320" width="16" height="16"/>
 <rect x="624" y="320" width="16" height="16"/>
 <rect x="752" y="320" width="16" height="16"/>
 <rect x="848" y="320" width="16" height="16"/>
 <rect x="992" y="320" width="16" height="16"/>
 <rect x="64" y="336" width="16" height="16"/>
 <rect x="160" y="336" width="16" height="16"/>
 <rect x="224" y="336" width="16" height="16"/>
 <rect x="272" y="336" width="16" height="16"/>
 <rect x="464" y="336" width="16" height="16"/>
 <rect x="496" y="336" width="48" height="16"/>
 <rect x="704" y="336" width="32" height="16"/>
 <rect x="768" y="336" width="16" height="16"/>
 <rect x="912" y="336" width="16" height="16"/>
 <rect x="240" y="352" width="16" height="16"/>
 <rect x="336" y="352" width="32" height="16"/>
 <rect x="688" y="352" width="16" height="16"/>
 <rect x="944" y="352" width="16" height="16"/>
 <rect x="32" y="368" width="16" height="16"/>
 <rect x="64" y="368" width="16" height="16"/>
 <rect x="112" y="368" width="48" height="16"/>
 <rect x="176" y="368" width="16" height="16"/>
 <rect x="272" y="368" width="16" height="32"/>
 <rect x="512" y="368" width="16" height="32"/>
 <rect x="576" y="368" width="16" height="16"/>
 <rect x="736" y="368" width="16" height="16"/>
 <rect x="160" y="384" width="16" height="16"/>
 <rect x="656" y="384" width="16" height="16"/>
 <rect x="784" y="384" width="16" height="16"/>
 <rect x="848" y="384" width="16" height="32"/>
 <rect x="288" y="400" width="16" height="16"/>
 <rect x="880" y="400" width="16" height="16"/>
 <rect x="976" y="400" width="16" height="16"/>
 <rect x="0" y="416" width="16" height="16"/>
 <rect x="80" y="416" width="16" height="16"/>
 <rect x="144" y="416" width="32" height="16"/>
 <rect x="224" y="416" width="16" height="16"/>
 <rect x="400" y="416" width="16" height="16"/>
 <rect x="736" y="416" width="16" height="16"/>
 <rect x="128" y="432" width="16" height="16"/>
 <rect x="256" y="432" width="16" height="16"/>
 <rect x="288" y="432" width="16" height="16"/>
 <rect x="880" y="432" width="16" height="16"/>
 <rect x="944" y="432" width="16" height="16"/>
 <rect x="976" y="432" width="16" height="16"/>
 <rect x="1008" y="432" width="16" height="16"/>
 <rect x="0" y="448" width="16" height="16"/>
 <rect x="272" y="448" width="16" height="16"/>
 <rect x="432" y="448" width="16" height="16"/>
 <rect x="544" y="448" width="16" height="16"/>
 <rect x="592" y="448" width="16" height="16"/>
 <rect x="832" y="448" width="16" height="16"/>
 <rect x="64" y="464" width="16" height="16"/>
 <rect x="112" y="464" width="16" height="16"/>
 <rect x="160" y="464" width="32" height="16"/>
 <rect x="384" y="464" width="16" height="16"/>
 <rect x="784" y="464" width="16" height="32"/>
 <rect x="544" y="480" width="16" height="16"/>
 <rect x="592" y="480" width="16" height="16"/>
 <rect x="976" y="480" width="16" height="48"/>
 <rect x="128" y="496" width="16" height="16"/>
 <rect x="304" y="496" width="16" height="16"/>
 <rect x="464" y="496" width="16" height="16"/>
 <rect x="608" y="496" width="16" height="16"/>
 <rect x="704" y="496" width="16" height="16"/>
 <rect x="944" y="496" width="16" height="16"/>
 <rect x="256" y="512" width="16" height="16"/>
 <rect x="448" y="512" width="16" height="16"/>
 <rect x="688" y="512" width="16" height="16"/>
 <rect x="832" y="512" width="16" height="16"/>
 <rect x="48" y="528" width="16" height="16"/>
 <rect x="112" y="528" width="16" height="16"/>
 <rect x="304" y="528" width="16" height="32"/>
 <rect x="432" y="528" width="16" height="16"/>
 <rect x="784" y="528" width="16" height="16"/>
 <rect x="80" y="544" width="16" height="16"/>
 <rect x="624" y="544" width="16" height="16"/>
 <rect x="656" y="544" width="16" height="16"/>
 <rect x="928" y="544" width="16" height="16"/>
 <rect x="48" y="560" width="16" height="16"/>
 <rect x="144" y="560" width="16" height="16"/>
 <rect x="320" y="560" width="32" height="16"/>
 <rect x="512" y="560" width="16" height="16"/>
 <rect x="944" y="560" width="16" height="16"/>
 <rect x="64" y="576" width="16" height="16"/>
 <rect x="128" y="576" width="16" height="16"/>
 <rect x="368" y="576" width="16" height="16"/>
 <rect x="608" y="576" width="16" height="16"/>
 <rect x="640" y="576" width="16" height="16"/>
 <rect x="848" y="576" width="16" height="16"/>
 <rect x="976" y="576" width="16" height="16"/>
 <rect x="112" y="592" width="16" height="16"/>
 <rect x="704" y="592" width="16" height="16"/>
 <rect x="928" y="592" width="16" height="16"/>
 <rect x="272" y="608" width="32" height="16"/>
 <rect x="384" y="608" width="16" height="32"/>
 <rect x="464" y="608" width="16" height="32"/>
 <rect x="736" y="608" width="16" height="16"/>
 <rect x="80" y="624" width="16" height="16"/>
 <rect x="128" y="624" width="16" height="16"/>
 <rect x="304" y="624" width="16" height="32"/>
 <rect x="480" y="624" width="16" height="32"/>
 <rect x="640" y="624" width="16" height="16"/>
 <rect x="688" y="624" width="16" height="16"/>
 <rect x="768" y="624" width="16" height="16"/>
 <rect x="816" y="624" width="16" height="16"/>
 <rect x="976" y="624" width="16" height="16"/>
 <rect x="32" y="640" width="16" height="16"/>
 <rect x="160" y="640" width="16" height="16"/>
 <rect x="192" y="640" width="16" height="16"/>
 <rect x="512" y="640" width="32" height="16"/>
 <rect x="864" y="640" width="16" height="16"/>
 <rect x="944" y="640" width="16" height="16"/>
 <rect x="224" y="656" width="16" height="16"/>
 <rect x="672" y="656" width="16" height="16"/>
 <rect x="752" y="656" width="16" height="16"/>
 <rect x="80" y="672" width="16" height="16"/>
 <rect x="272" y="672" width="16" height="16"/>
 <rect x="496" y="672" width="16" height="16"/>
 <rect x="576" y="672" width="16" height="32"/>
 <rect x="976" y="672" width="16" height="16"/>
 <rect x="64" y="688" width="16" height="16"/>
 <rect x="176" y="688" width="16" height="16"/>
 <rect x="320" y="688" width="16" height="16"/>
 <rect x="464" y="688" width="16" height="16"/>
 <rect x="752" y="688" width="16" height="16"/>
 <rect x="848" y="688" width="16" height="16"/>
 <rect x="880" y="688" width="16" height="16"/>
 <rect x="32" y="704" width="32" height="16"/>
 <rect x="128" y="704" width="16" height="16"/>
 <rect x="304" y="704" width="16" height="16"/>
 <rect x="352" y="704" width="16" height="16"/>
 <rect x="608" y="704" width="16" height="16"/>
 <rect x="896" y="704" width="16" height="16"/>
 <rect x="944" y="704" width="16" height="16"/>
 <rect x="288" y="720" width="16" height="16"/>
 <rect x="448" y="720" width="32" height="16"/>
 <rect x="560" y="720" width="16" height="16"/>
 <rect x="848" y="720" width="16" height="16"/>
 <rect x="960" y="720" width="16" height="16"/>
 <rect x="304" y="736" width="16" height="16"/>
 <rect x="464" y="736" width="16" height="16"/>
 <rect x="528" y="736" width="16" height="16"/>
 <rect x="688" y="736" width="16" height="16"/>
 <rect x="832" y="736" width="16" height="16"/>
 <rect x="944" y="736" width="16" height="16"/>
 <rect x="32" y="752" width="16" height="16"/>
 <rect x="96" y="752" width="16" height="16"/>
 <rect x="192" y="752" width="16" height="16"/>
 <rect x="816" y="752" width="16" height="16"/>
 <rect x="960" y="752" width="16" height="16"/>
 <rect x="0" y="768" width="16" height="16"/>
 <rect x="240" y="768" width="16" height="16"/>
 <rect x="704" y="768" width="16" height="32"/>
 <rect x="800" y="768" width="16" height="16"/>
 <rect x="864" y="768" width="32" height="16"/>
 <rect x="448" y="784" width="16" height="16"/>
 <rect x="656" y="784" width="16" height="16"/>
 <rect x="816" y="784" width="16" height="16"/>
 <rect x="464" y="800" width="16" height="32"/>
 <rect x="496" y="800" width="32" height="16"/>
 <rect x="688" y="800" width="16" height="16"/>
 <rect x="768" y="800" width="16" height="16"/>
 <rect x="880" y="800" width="16" height="32"/>
 <rect x="928" y="800" width="16" height="32"/>
 <rect x="80" y="816" width="16" height="32"/>
 <rect x="176" y="816" width="16" height="16"/>
 <rect x="448" y="816" width="48" height="16"/>
 <rect x="512" y="816" width="16" height="48"/>
 <rect x="944" y="816" width="16" height="16"/>
 <rect x="48" y="832" width="16" height="16"/>
 <rect x="144" y="832" width="16" height="16"/>
 <rect x="304" y="832" width="16" height="16"/>
 <rect x="832" y="832" width="16" height="16"/>
 <rect x="64" y="848" width="16" height="16"/>
 <rect x="368" y="848" width="16" height="16"/>
 <rect x="496" y="848" width="32" height="16"/>
 <rect x="640" y="848" width="16" height="16"/>
 <rect x="688" y="848" width="16" height="16"/>
 <rect x="864" y="848" width="16" height="16"/>
 <rect x="944" y="848" width="16" height="16"/>
 <rect x="976" y="848" width="16" height="16"/>
 <rect x="336" y="864" width="32" height="16"/>
 <rect x="416" y="864" width="16" height="32"/>
 <rect x="464" y="864" width="16" height="16"/>
 <rect x="720" y="864" width="16" height="16"/>
 <rect x="848" y="864" width="16" height="16"/>
 <rect x="896" y="864" width="16" height="16"/>
 <rect x="1008" y="864" width="16" height="16"/>
 <rect x="304" y="880" width="16" height="16"/>
 <rect x="528" y="880" width="16" height="32"/>
 <rect x="736" y="880" width="16" height="16"/>
 <rect x="1008" y="880" width="16" height="16"/>
 <rect x="112" y="896" width="16" height="16"/>
 <rect x="160" y="896" width="16" height="16"/>
 <rect x="208" y="896" width="16" height="16"/>
 <rect x="240" y="896" width="16" height="16"/>
 <rect x="288" y="896" width="16" height="32"/>
 <rect x="320" y="896" width="16" height="16"/>
 <rect x="368" y="896" width="32" height="16"/>
 <rect x="432" y="896" width="16" height="16"/>
 <rect x="512" y="896" width="32" height="16"/>
 <rect x="704" y="896" width="16" height="16"/>
 <rect x="736" y="912" width="48" height="16"/>
 <rect x="832" y="912" width="16" height="16"/>
 <rect x="432" y="928" width="16" height="16"/>
 <rect x="512" y="928" width="16" height="16"/>
 <rect x="672" y="928" width="16" height="16"/>
 <rect x="128" y="944" width="16" height="16"/>
 <rect x="304" y="944" width="16" height="16"/>
 <rect x="416" y="944" width="16" height="16"/>
 <rect x="560" y="944" width="16" height="16"/>
 <rect x="496" y="960" width="16" height="16"/>
 <rect x="800" y="960" width="16" height="16"/>
 <rect x="832" y="960" width="16" height="16"/>
 <rect x="384" y="976" width="16" height="16"/>
 <rect x="720" y="976" width="16" height="16"/>
 <rect x="848" y="976" width="16" height="16"/>
 <rect x="992" y="976" width="16" height="16"/>
 <rect x="32" y="992" width="16" height="16"/>
 <rect x="464" y="992" width="16" height="16"/>
 <rect x="512" y="992" width="16" height="32"/>
 <rect x="576" y="992" width="16" height="16"/>
 <rect x="672" y="992" width="16" height="16"/>
 <rect x="704" y="992" width="16" height="16"/>
 <rect x="864" y="992" width="16" height="16"/>
 <rect x="0" y="1008" width="16" height="16"/>
 <rect x="16" y="1008" width="16" height="16"/>
 <rect x="176" y="1008" width="16" height="16"/>
 <rect x="192" y="1008" width="16" height="16"/>
 <rect x="208" y="1008" width="16" height="16"/>
 <rect x="432" y="1008" width="16" height="16"/>
 <rect x="816" y="1008" width="16" height="16"/>
 <rect x="960" y="1008" width="16" height="16"/>
 <rect x="992" y="1008" width="16" height="16"/>
 <rect x="1008" y="1008" width="16" height="16"/>
</g>
</svg>