<svg xmlns="http://www.w3.org/2000/svg" version="1.1" width = "1027" height = "1027" viewBox = "-1 -1 1026 1026" preserveAspectRatio = "none" shape-rendering="auto">
<rect x="0" y="0" width="1024" height="1024" style="fill:rgb(0,0,0);" /><rect x="0" y="0" width="1024" height="1024" style="fill:rgb(229,229,229);" /><rect x="960" y="544" width="32" height="32" style="fill:rgb(0,127,0);" /><g style="fill:rgb(0,0,0);">
 <rect x="320" y="0" width="32" height="32"/>
 <rect x="544" y="0" width="32" height="32"/>
 <rect x="672" y="0" width="32" height="64"/>
 <rect x="736" y="0" width="32" height="32"/>
 <rect x="0" y="32" width="32" height="32"/>
 <rect x="128" y="32" width="32" height="32"/>
 <rect x="192" y="32" width="64" height="32"/>
 <rect x="608" y="32" width="32" height="32"/>
 <rect x="800" y="32" width="32" height="32"/>
 <rect x="448" y="64" width="32" height="32"/>
 <rect x="736" y="64" width="64" height="32"/>
 <rect x="896" y="64" width="32" height="32"/>
 <rect x="160" y="96" width="32" height="32"/>
 <rect x="224" y="96" width="32" height="32"/>
 <rect x="576" y="96" width="32" height="32"/>
 <rect x="928" y="96" width="32" height="32"/>
 <rect x="32" y="128" width="64" height="32"/>
 <rect x="448" y="128" width="64" height="64"/>
 <rect x="544" y="128" width="32" height="32"/>
 <rect x="768" y="128" width="32" height="32"/>
 <rect x="864" y="128" width="32" height="96"/>
 <rect x="192" y="160" width="32" height="64"/>
 <rect x="288" y="160" width="32" height="64"/>
 <rect x="352" y="160" width="32" height="32"/>
 <rect x="704" y="160" width="32" height="32"/>
 <rect x="960" y="160" width="64" height="32"/>
 <rect x="320" y="192" width="32" height="32"/>
 <rect x="608" y="192" width="32" height="32"/>
 <rect x="992" y="192" width="32" height="32"/>
 <rect x="32" y="224" width="32" height="32"/>
 <rect x="160" y="224" width="32" height="32"/>
 <rect x="672" y="224" width="64" height="32"/>
 <rect x="832" y="224" width="32" height="64"/>
 <rect x="928" y="224" width="32" height="32"/>
 <rect x="192" y="256" width="32" height="32"/>
 <rect x="512" y="256" width="32" height="32"/>
 <rect x="768" y="256" width="32" height="32"/>
 <rect x="64" y="288" width="32" height="64"/>
 <rect x="128" y="288" width="32" height="32"/>
 <rect x="544" y="288" width="32" height="32"/>
 <rect x="608" y="288" width="32" height="32"/>
 <rect x="864" y="288" width="64" height="32"/>
 <rect x="0" y="320" width="32" height="32"/>
 <rect x="384" y="320" width="32" height="96"/>
 <rect x="448" y="320" width="32" height="32"/>
 <rect x="704" y="320" width="32" height="64"/>
 <rect x="832" y="320" width="32" height="32"/>
 <rect x="576" y="352" width="32" height="32"/>
 <rect x="640" y="352" width="32" height="32"/>
 <rect x="960" y="352" width="32" height="32"/>
 <rect x="64" y="384" width="32" height="32"/>
 <rect x="256" y="384" width="32" height="32"/>
 <rect x="320" y="384" width="32" height="32"/>
 <rect x="416" y="384" width="32" height="32"/>
 <rect x="480" y="384" width="32" height="32"/>
 <rect x="832" y="384" width="32" height="64"/>
 <rect x="32" y="416" width="32" height="32"/>
 <rect x="576" y="416" width="32" height="32"/>
 <rect x="640" y="416" width="32" height="32"/>
 <rect x="960" y="416" width="32" height="32"/>
 <rect x="96" y="448" width="96" height="32"/>
 <rect x="416" y="448" width="32" height="64"/>
 <rect x="736" y="448" width="32" height="32"/>
 <rect x="256" y="480" width="32" height="32"/>
 <rect x="480" y="480" width="32" height="96"/>
 <rect x="544" y="480" width="32" height="32"/>
 <rect x="640" y="480" width="32" height="96"/>
 <rect x="64" y="512" width="32" height="32"/>
 <rect x="192" y="512" width="32" height="32"/>
 <rect x="736" y="512" width="64" height="64"/>
 <rect x="800" y="512" width="32" height="32"/>
 <rect x="960" y="512" width="32" height="32"/>
 <rect x="32" y="544" width="32" height="32"/>
 <rect x="256" y="544" width="96" height="32"/>
 <rect x="416" y="544" width="32" height="32"/>
 <rect x="576" y="544" width="32" height="32"/>
 <rect x="928" y="544" width="32" height="64"/>
 <rect x="992" y="544" width="32" height="32"/>
 <rect x="0" y="576" width="32" height="32"/>
 <rect x="320" y="576" width="32" height="64"/>
 <rect x="608" y="576" width="32" height="32"/>
 <rect x="704" y="576" width="32" height="128"/>
 <rect x="960" y="576" width="64" height="32"/>
 <rect x="192" y="608" width="32" height="32"/>
 <rect x="416" y="608" width="32" height="32"/>
 <rect x="512" y="608" width="32" height="32"/>
 <rect x="576" y="608" width="32" height="32"/>
 <rect x="832" y="608" width="32" height="32"/>
 <rect x="32" y="640" width="32" height="32"/>
 <rect x="96" y="640" width="32" height="32"/>
 <rect x="384" y="640" width="32" height="32"/>
 <rect x="736" y="640" width="32" height="64"/>
 <rect x="800" y="640" width="32" height="32"/>
 <rect x="928" y="640" width="32" height="32"/>
 <rect x="224" y="672" width="32" height="96"/>
 <rect x="288" y="672" width="32" height="32"/>
 <rect x="576" y="672" width="32" height="32"/>
 <rect x="672" y="672" width="96" height="32"/>
 <rect x="832" y="672" width="96" height="32"/>
 <rect x="64" y="704" width="32" height="32"/>
 <rect x="128" y="704" width="32" height="32"/>
 <rect x="384" y="704" width="32" height="32"/>
 <rect x="608" y="704" width="32" height="32"/>
 <rect x="960" y="704" width="32" height="32"/>
 <rect x="416" y="736" width="32" height="32"/>
 <rect x="576" y="736" width="32" height="32"/>
 <rect x="704" y="736" width="32" height="32"/>
 <rect x="768" y="736" width="32" height="32"/>
 <rect x="832" y="736" width="32" height="64"/>
 <rect x="864" y="736" width="32" height="32"/>
 <rect x="544" y="768" width="32" height="32"/>
 <rect x="672" y="768" width="32" height="32"/>
 <rect x="736" y="768" width="32" height="32"/>
 <rect x="896" y="768" width="32" height="64"/>
 <rect x="512" y="800" width="32" height="32"/>
 <rect x="800" y="800" width="32" height="32"/>
 <rect x="992" y="800" width="32" height="32"/>
 <rect x="32" y="832" width="32" height="32"/>
 <rect x="256" y="832" width="32" height="64"/>
 <rect x="320" y="832" width="32" height="32"/>
 <rect x="640" y="832" width="64" height="32"/>
 <rect x="992" y="832" width="32" height="32"/>
 <rect x="64" y="864" width="32" height="32"/>
 <rect x="160" y="864" width="32" height="32"/>
 <rect x="0" y="896" width="32" height="128"/>
 <rect x="96" y="896" width="64" height="32"/>
 <rect x="352" y="896" width="32" height="32"/>
 <rect x="480" y="896" width="32" height="64"/>
 <rect x="608" y="896" width="32" height="64"/>
 <rect x="928" y="896" width="96" height="32"/>
 <rect x="160" y="928" width="32" height="32"/>
 <rect x="320" y="928" width="32" height="32"/>
 <rect x="544" y="928" width="32" height="32"/>
 <rect x="736" y="928" width="32" height="32"/>
 <rect x="960" y="928" width="64" height="32"/>
 <rect x="32" y="960" width="32" height="64"/>
 <rect x="96" y="960" width="32" height="32"/>
 <rect x="192" y="960" width="64" height="32"/>
 <rect x="288" y="960" width="32" height="32"/>
 <rect x="352" y="960" width="64" height="32"/>
 <rect x="576" y="960" width="32" height="64"/>
 <rect x="864" y="960" width="32" height="32"/>
 <rect x="480" y="992" width="32" height="32"/>
 <rect x="896" y="992" width="32" height="32"/>
</g>
</svg>