<svg xmlns="http://www.w3.org/2000/svg" version="1.1" width = "1027" height = "1027" viewBox = "-1 -1 1026 1026" preserveAspectRatio = "none" shape-rendering="auto">
<rect x="0" y="0" width="1024" height="1024" style="fill:rgb(0,0,0);" /><rect x="0" y="0" width="1024" height="1024" style="fill:rgb(229,229,229);" /><g style="fill:rgb(0,127,0);">
 <rect x="688" y="320" width="16" height="16"/>
 <rect x="0" y="576" width="16" height="32"/>
 <rect x="1008" y="656" width="16" height="16"/>
 <rect x="1008" y="672" width="16" height="16"/>
 <rect x="576" y="864" width="16" height="32"/>
</g><g style="fill:rgb(0,0,0);">
 <rect x="96" y="0" width="16" height="16"/>
 <rect x="144" y="0" width="16" height="32"/>
 <rect x="208" y="0" width="48" height="16"/>
 <rect x="272" y="0" width="16" height="16"/>
 <rect x="320" y="0" width="16" height="16"/>
 <rect x="400" y="0" width="16" height="16"/>
 <rect x="448" y="0" width="16" height="16"/>
 <rect x="528" y="0" width="16" height="16"/>
 <rect x="784" y="0" width="16" height="16"/>
 <rect x="960" y="0" width="32" height="16"/>
 <rect x="32" y="16" width="16" height="16"/>
 <rect x="128" y="16" width="32" height="16"/>
 <rect x="192" y="16" width="16" height="16"/>
 <rect x="480" y="16" width="16" height="16"/>
 <rect x="640" y="16" width="16" height="16"/>
 <rect x="704" y="16" width="16" height="16"/>
 <rect x="768" y="16" width="16" height="16"/>
 <rect x="800" y="16" width="16" height="16"/>
 <rect x="832" y="16" width="16" height="16"/>
 <rect x="864" y="16" width="16" height="16"/>
 <rect x="48" y="32" width="16" height="16"/>
 <rect x="80" y="32" width="16" height="16"/>
 <rect x="224" y="32" width="16" height="16"/>
 <rect x="400" y="32" width="32" height="16"/>
 <rect x="464" y="32" width="16" height="16"/>
 <rect x="560" y="32" width="32" height="16"/>
 <rect x="688" y="32" width="16" height="16"/>
 <rect x="752" y="32" width="16" height="16"/>
 <rect x="816" y="32" width="16" height="16"/>
 <rect x="240" y="48" width="32" height="16"/>
 <rect x="336" y="48" width="16" height="16"/>
 <rect x="368" y="48" width="16" height="16"/>
 <rect x="432" y="48" width="16" height="32"/>
 <rect x="640" y="48" width="16" height="16"/>
 <rect x="704" y="48" width="16" height="32"/>
 <rect x="800" y="48" width="16" height="16"/>
 <rect x="896" y="48" width="48" height="16"/>
 <rect x="1008" y="48" width="16" height="16"/>
 <rect x="32" y="64" width="16" height="16"/>
 <rect x="112" y="64" width="16" height="16"/>
 <rect x="160" y="64" width="16" height="16"/>
 <rect x="560" y="64" width="48" height="16"/>
 <rect x="848" y="64" width="16" height="16"/>
 <rect x="976" y="64" width="48" height="16"/>
 <rect x="80" y="80" width="32" height="16"/>
 <rect x="144" y="80" width="16" height="32"/>
 <rect x="176" y="80" width="16" height="16"/>
 <rect x="256" y="80" width="16" height="16"/>
 <rect x="480" y="80" width="16" height="32"/>
 <rect x="512" y="80" width="16" height="16"/>
 <rect x="576" y="80" width="16" height="16"/>
 <rect x="688" y="80" width="16" height="16"/>
 <rect x="784" y="80" width="16" height="32"/>
 <rect x="800" y="80" width="16" height="16"/>
 <rect x="832" y="80" width="16" height="48"/>
 <rect x="32" y="96" width="16" height="16"/>
 <rect x="224" y="96" width="16" height="16"/>
 <rect x="272" y="96" width="16" height="16"/>
 <rect x="304" y="96" width="16" height="16"/>
 <rect x="336" y="96" width="16" height="16"/>
 <rect x="400" y="96" width="16" height="48"/>
 <rect x="416" y="96" width="16" height="16"/>
 <rect x="560" y="96" width="16" height="16"/>
 <rect x="752" y="96" width="16" height="32"/>
 <rect x="768" y="96" width="32" height="16"/>
 <rect x="880" y="96" width="16" height="16"/>
 <rect x="928" y="96" width="16" height="16"/>
 <rect x="1008" y="96" width="16" height="16"/>
 <rect x="48" y="112" width="16" height="32"/>
 <rect x="64" y="112" width="32" height="16"/>
 <rect x="112" y="112" width="16" height="32"/>
 <rect x="208" y="112" width="16" height="32"/>
 <rect x="240" y="112" width="16" height="16"/>
 <rect x="320" y="112" width="16" height="16"/>
 <rect x="384" y="112" width="32" height="16"/>
 <rect x="464" y="112" width="16" height="16"/>
 <rect x="720" y="112" width="16" height="16"/>
 <rect x="912" y="112" width="16" height="16"/>
 <rect x="1008" y="112" width="16" height="16"/>
 <rect x="0" y="128" width="32" height="16"/>
 <rect x="304" y="128" width="16" height="16"/>
 <rect x="624" y="128" width="48" height="16"/>
 <rect x="704" y="128" width="16" height="16"/>
 <rect x="768" y="128" width="16" height="16"/>
 <rect x="880" y="128" width="16" height="16"/>
 <rect x="160" y="144" width="16" height="16"/>
 <rect x="224" y="144" width="32" height="16"/>
 <rect x="384" y="144" width="16" height="16"/>
 <rect x="448" y="144" width="16" height="16"/>
 <rect x="512" y="144" width="16" height="16"/>
 <rect x="592" y="144" width="16" height="16"/>
 <rect x="752" y="144" width="16" height="16"/>
 <rect x="912" y="144" width="16" height="16"/>
 <rect x="64" y="160" width="16" height="16"/>
 <rect x="192" y="160" width="16" height="16"/>
 <rect x="240" y="160" width="16" height="16"/>
 <rect x="480" y="160" width="16" height="32"/>
 <rect x="896" y="160" width="16" height="32"/>
 <rect x="960" y="160" width="32" height="16"/>
 <rect x="128" y="176" width="16" height="16"/>
 <rect x="160" y="176" width="32" height="16"/>
 <rect x="224" y="176" width="16" height="16"/>
 <rect x="432" y="176" width="32" height="16"/>
 <rect x="496" y="176" width="32" height="16"/>
 <rect x="576" y="176" width="16" height="16"/>
 <rect x="656" y="176" width="16" height="16"/>
 <rect x="704" y="176" width="16" height="16"/>
 <rect x="752" y="176" width="16" height="16"/>
 <rect x="784" y="176" width="32" height="32"/>
 <rect x="832" y="176" width="16" height="16"/>
 <rect x="880" y="176" width="32" height="16"/>
 <rect x="928" y="176" width="16" height="48"/>
 <rect x="976" y="176" width="16" height="32"/>
 <rect x="1008" y="176" width="16" height="16"/>
 <rect x="16" y="192" width="16" height="32"/>
 <rect x="64" y="192" width="48" height="16"/>
 <rect x="288" y="192" width="16" height="16"/>
 <rect x="528" y="192" width="16" height="16"/>
 <rect x="592" y="192" width="16" height="32"/>
 <rect x="768" y="192" width="64" height="16"/>
 <rect x="96" y="208" width="16" height="16"/>
 <rect x="160" y="208" width="16" height="16"/>
 <rect x="256" y="208" width="32" height="16"/>
 <rect x="368" y="208" width="16" height="32"/>
 <rect x="448" y="208" width="16" height="16"/>
 <rect x="512" y="208" width="16" height="16"/>
 <rect x="752" y="208" width="16" height="16"/>
 <rect x="800" y="208" width="48" height="16"/>
 <rect x="944" y="208" width="16" height="16"/>
 <rect x="1008" y="208" width="16" height="16"/>
 <rect x="112" y="224" width="16" height="48"/>
 <rect x="304" y="224" width="16" height="16"/>
 <rect x="560" y="224" width="32" height="16"/>
 <rect x="128" y="240" width="16" height="16"/>
 <rect x="208" y="240" width="16" height="16"/>
 <rect x="288" y="240" width="16" height="16"/>
 <rect x="336" y="240" width="16" height="16"/>
 <rect x="384" y="240" width="16" height="32"/>
 <rect x="432" y="240" width="32" height="16"/>
 <rect x="544" y="240" width="16" height="16"/>
 <rect x="576" y="240" width="16" height="16"/>
 <rect x="704" y="240" width="16" height="16"/>
 <rect x="816" y="240" width="16" height="16"/>
 <rect x="864" y="240" width="64" height="16"/>
 <rect x="992" y="240" width="16" height="16"/>
 <rect x="272" y="256" width="16" height="32"/>
 <rect x="304" y="256" width="16" height="16"/>
 <rect x="352" y="256" width="16" height="16"/>
 <rect x="528" y="256" width="16" height="16"/>
 <rect x="736" y="256" width="16" height="16"/>
 <rect x="880" y="256" width="16" height="16"/>
 <rect x="944" y="256" width="16" height="16"/>
 <rect x="48" y="272" width="16" height="16"/>
 <rect x="496" y="272" width="16" height="16"/>
 <rect x="576" y="272" width="16" height="16"/>
 <rect x="608" y="272" width="16" height="16"/>
 <rect x="720" y="272" width="16" height="16"/>
 <rect x="784" y="272" width="16" height="16"/>
 <rect x="1008" y="272" width="16" height="16"/>
 <rect x="224" y="288" width="32" height="16"/>
 <rect x="288" y="288" width="16" height="32"/>
 <rect x="304" y="288" width="16" height="16"/>
 <rect x="416" y="288" width="16" height="16"/>
 <rect x="464" y="288" width="16" height="16"/>
 <rect x="768" y="288" width="16" height="16"/>
 <rect x="848" y="288" width="16" height="16"/>
 <rect x="896" y="288" width="16" height="16"/>
 <rect x="976" y="288" width="16" height="32"/>
 <rect x="0" y="304" width="16" height="16"/>
 <rect x="32" y="304" width="16" height="16"/>
 <rect x="112" y="304" width="16" height="16"/>
 <rect x="160" y="304" width="16" height="16"/>
 <rect x="208" y="304" width="16" height="16"/>
 <rect x="240" y="304" width="16" height="16"/>
 <rect x="320" y="304" width="16" height="48"/>
 <rect x="336" y="304" width="16" height="16"/>
 <rect x="688" y="304" width="32" height="16"/>
 <rect x="960" y="304" width="32" height="16"/>
 <rect x="16" y="320" width="16" height="16"/>
 <rect x="144" y="320" width="16" height="16"/>
 <rect x="352" y="320" width="32" height="16"/>
 <rect x="512" y="320" width="16" height="16"/>
 <rect x="560" y="320" width="32" height="16"/>
 <rect x="672" y="320" width="16" height="16"/>
 <rect x="704" y="320" width="16" height="16"/>
 <rect x="816" y="320" width="16" height="16"/>
 <rect x="912" y="320" width="16" height="16"/>
 <rect x="48" y="336" width="16" height="16"/>
 <rect x="96" y="336" width="16" height="16"/>
 <rect x="160" y="336" width="16" height="16"/>
 <rect x="208" y="336" width="16" height="16"/>
 <rect x="272" y="336" width="16" height="16"/>
 <rect x="416" y="336" width="16" height="16"/>
 <rect x="656" y="336" width="16" height="16"/>
 <rect x="688" y="336" width="16" height="16"/>
 <rect x="720" y="336" width="16" height="16"/>
 <rect x="800" y="336" width="16" height="16"/>
 <rect x="848" y="336" width="16" height="16"/>
 <rect x="928" y="336" width="16" height="16"/>
 <rect x="128" y="352" width="32" height="16"/>
 <rect x="352" y="352" width="16" height="32"/>
 <rect x="448" y="352" width="16" height="16"/>
 <rect x="592" y="352" width="32" height="16"/>
 <rect x="32" y="368" width="16" height="16"/>
 <rect x="112" y="368" width="16" height="16"/>
 <rect x="672" y="368" width="16" height="16"/>
 <rect x="768" y="368" width="16" height="16"/>
 <rect x="864" y="368" width="32" height="16"/>
 <rect x="64" y="384" width="16" height="16"/>
 <rect x="96" y="384" width="16" height="16"/>
 <rect x="224" y="384" width="16" height="16"/>
 <rect x="272" y="384" width="16" height="16"/>
 <rect x="304" y="384" width="16" height="16"/>
 <rect x="496" y="384" width="16" height="32"/>
 <rect x="880" y="384" width="16" height="16"/>
 <rect x="976" y="384" width="32" height="16"/>
 <rect x="16" y="400" width="16" height="16"/>
 <rect x="112" y="400" width="16" height="32"/>
 <rect x="128" y="400" width="16" height="16"/>
 <rect x="320" y="400" width="32" height="16"/>
 <rect x="368" y="400" width="16" height="16"/>
 <rect x="400" y="400" width="16" height="32"/>
 <rect x="432" y="400" width="16" height="16"/>
 <rect x="464" y="400" width="16" height="16"/>
 <rect x="512" y="400" width="16" height="16"/>
 <rect x="576" y="400" width="16" height="32"/>
 <rect x="624" y="400" width="16" height="16"/>
 <rect x="656" y="400" width="16" height="16"/>
 <rect x="784" y="400" width="32" height="16"/>
 <rect x="960" y="400" width="16" height="32"/>
 <rect x="48" y="416" width="16" height="32"/>
 <rect x="144" y="416" width="32" height="16"/>
 <rect x="240" y="416" width="16" height="16"/>
 <rect x="416" y="416" width="16" height="16"/>
 <rect x="480" y="416" width="16" height="16"/>
 <rect x="896" y="416" width="16" height="48"/>
 <rect x="944" y="416" width="32" height="16"/>
 <rect x="0" y="432" width="16" height="16"/>
 <rect x="32" y="432" width="32" height="16"/>
 <rect x="80" y="432" width="16" height="32"/>
 <rect x="160" y="432" width="16" height="16"/>
 <rect x="288" y="432" width="16" height="16"/>
 <rect x="512" y="432" width="16" height="16"/>
 <rect x="560" y="432" width="16" height="16"/>
 <rect x="640" y="432" width="16" height="16"/>
 <rect x="352" y="448" width="32" height="16"/>
 <rect x="448" y="448" width="16" height="32"/>
 <rect x="480" y="448" width="16" height="32"/>
 <rect x="608" y="448" width="32" height="16"/>
 <rect x="768" y="448" width="16" height="16"/>
 <rect x="816" y="448" width="16" height="16"/>
 <rect x="992" y="448" width="16" height="16"/>
 <rect x="32" y="464" width="32" height="16"/>
 <rect x="160" y="464" width="16" height="32"/>
 <rect x="192" y="464" width="16" height="16"/>
 <rect x="224" y="464" width="16" height="16"/>
 <rect x="320" y="464" width="16" height="16"/>
 <rect x="384" y="464" width="32" height="16"/>
 <rect x="576" y="464" width="16" height="16"/>
 <rect x="944" y="464" width="16" height="16"/>
 <rect x="1008" y="464" width="16" height="16"/>
 <rect x="0" y="480" width="32" height="16"/>
 <rect x="96" y="480" width="16" height="16"/>
 <rect x="432" y="480" width="16" height="16"/>
 <rect x="656" y="480" width="16" height="16"/>
 <rect x="784" y="480" width="16" height="16"/>
 <rect x="848" y="480" width="16" height="16"/>
 <rect x="912" y="480" width="16" height="16"/>
 <rect x="960" y="480" width="16" height="16"/>
 <rect x="1008" y="480" width="16" height="16"/>
 <rect x="304" y="496" width="16" height="16"/>
 <rect x="336" y="496" width="16" height="32"/>
 <rect x="496" y="496" width="32" height="16"/>
 <rect x="608" y="496" width="16" height="16"/>
 <rect x="704" y="496" width="16" height="32"/>
 <rect x="800" y="496" width="16" height="16"/>
 <rect x="880" y="496" width="16" height="16"/>
 <rect x="976" y="496" width="16" height="16"/>
 <rect x="0" y="512" width="16" height="32"/>
 <rect x="32" y="512" width="32" height="16"/>
 <rect x="128" y="512" width="16" height="16"/>
 <rect x="160" y="512" width="16" height="16"/>
 <rect x="208" y="512" width="16" height="16"/>
 <rect x="240" y="512" width="16" height="16"/>
 <rect x="288" y="512" width="16" height="16"/>
 <rect x="512" y="512" width="16" height="16"/>
 <rect x="624" y="512" width="16" height="16"/>
 <rect x="656" y="512" width="16" height="16"/>
 <rect x="752" y="512" width="16" height="16"/>
 <rect x="816" y="512" width="16" height="16"/>
 <rect x="864" y="512" width="16" height="16"/>
 <rect x="96" y="528" width="16" height="16"/>
 <rect x="368" y="528" width="16" height="16"/>
 <rect x="400" y="528" width="16" height="16"/>
 <rect x="432" y="528" width="16" height="16"/>
 <rect x="528" y="528" width="32" height="16"/>
 <rect x="576" y="528" width="16" height="16"/>
 <rect x="640" y="528" width="16" height="32"/>
 <rect x="688" y="528" width="16" height="16"/>
 <rect x="784" y="528" width="16" height="16"/>
 <rect x="832" y="528" width="16" height="32"/>
 <rect x="208" y="544" width="16" height="16"/>
 <rect x="256" y="544" width="32" height="16"/>
 <rect x="336" y="544" width="16" height="16"/>
 <rect x="384" y="544" width="16" height="16"/>
 <rect x="448" y="544" width="64" height="16"/>
 <rect x="592" y="544" width="16" height="16"/>
 <rect x="768" y="544" width="16" height="16"/>
 <rect x="912" y="544" width="32" height="16"/>
 <rect x="1008" y="544" width="16" height="16"/>
 <rect x="0" y="560" width="16" height="16"/>
 <rect x="32" y="560" width="16" height="32"/>
 <rect x="160" y="560" width="16" height="16"/>
 <rect x="224" y="560" width="16" height="16"/>
 <rect x="272" y="560" width="16" height="16"/>
 <rect x="464" y="560" width="16" height="16"/>
 <rect x="512" y="560" width="16" height="32"/>
 <rect x="672" y="560" width="16" height="16"/>
 <rect x="752" y="560" width="16" height="32"/>
 <rect x="800" y="560" width="16" height="16"/>
 <rect x="848" y="560" width="16" height="32"/>
 <rect x="880" y="560" width="16" height="16"/>
 <rect x="16" y="576" width="16" height="32"/>
 <rect x="48" y="576" width="16" height="16"/>
 <rect x="96" y="576" width="16" height="32"/>
 <rect x="144" y="576" width="16" height="16"/>
 <rect x="400" y="576" width="16" height="16"/>
 <rect x="688" y="576" width="16" height="32"/>
 <rect x="816" y="576" width="16" height="16"/>
 <rect x="896" y="576" width="16" height="16"/>
 <rect x="944" y="576" width="32" height="32"/>
 <rect x="1008" y="576" width="16" height="16"/>
 <rect x="352" y="592" width="16" height="16"/>
 <rect x="448" y="592" width="16" height="16"/>
 <rect x="496" y="592" width="16" height="16"/>
 <rect x="544" y="592" width="32" height="16"/>
 <rect x="672" y="592" width="32" height="16"/>
 <rect x="0" y="608" width="16" height="16"/>
 <rect x="112" y="608" width="16" height="16"/>
 <rect x="144" y="608" width="32" height="32"/>
 <rect x="192" y="608" width="16" height="16"/>
 <rect x="240" y="608" width="32" height="16"/>
 <rect x="288" y="608" width="48" height="16"/>
 <rect x="384" y="608" width="16" height="16"/>
 <rect x="512" y="608" width="16" height="16"/>
 <rect x="624" y="608" width="16" height="48"/>
 <rect x="784" y="608" width="16" height="16"/>
 <rect x="864" y="608" width="16" height="16"/>
 <rect x="944" y="608" width="16" height="32"/>
 <rect x="176" y="624" width="16" height="16"/>
 <rect x="320" y="624" width="32" height="16"/>
 <rect x="528" y="624" width="16" height="16"/>
 <rect x="704" y="624" width="16" height="16"/>
 <rect x="736" y="624" width="16" height="16"/>
 <rect x="768" y="624" width="16" height="48"/>
 <rect x="848" y="624" width="16" height="16"/>
 <rect x="880" y="624" width="16" height="16"/>
 <rect x="256" y="640" width="16" height="16"/>
 <rect x="288" y="640" width="16" height="16"/>
 <rect x="336" y="640" width="32" height="16"/>
 <rect x="448" y="640" width="16" height="16"/>
 <rect x="512" y="640" width="16" height="16"/>
 <rect x="544" y="640" width="16" height="16"/>
 <rect x="576" y="640" width="16" height="16"/>
 <rect x="832" y="640" width="16" height="16"/>
 <rect x="1008" y="640" width="16" height="16"/>
 <rect x="48" y="656" width="16" height="16"/>
 <rect x="96" y="656" width="16" height="16"/>
 <rect x="144" y="656" width="16" height="16"/>
 <rect x="304" y="656" width="32" height="16"/>
 <rect x="416" y="656" width="16" height="16"/>
 <rect x="496" y="656" width="16" height="16"/>
 <rect x="656" y="656" width="16" height="16"/>
 <rect x="704" y="656" width="16" height="16"/>
 <rect x="784" y="656" width="32" height="16"/>
 <rect x="992" y="656" width="16" height="32"/>
 <rect x="32" y="672" width="16" height="16"/>
 <rect x="128" y="672" width="16" height="32"/>
 <rect x="192" y="672" width="16" height="16"/>
 <rect x="400" y="672" width="16" height="16"/>
 <rect x="448" y="672" width="16" height="32"/>
 <rect x="560" y="672" width="16" height="16"/>
 <rect x="640" y="672" width="16" height="32"/>
 <rect x="752" y="672" width="16" height="16"/>
 <rect x="848" y="672" width="48" height="16"/>
 <rect x="960" y="672" width="16" height="48"/>
 <rect x="224" y="688" width="32" height="16"/>
 <rect x="320" y="688" width="16" height="16"/>
 <rect x="416" y="688" width="16" height="16"/>
 <rect x="544" y="688" width="16" height="16"/>
 <rect x="672" y="688" width="16" height="16"/>
 <rect x="720" y="688" width="16" height="16"/>
 <rect x="1008" y="688" width="16" height="16"/>
 <rect x="48" y="704" width="16" height="48"/>
 <rect x="208" y="704" width="16" height="16"/>
 <rect x="288" y="704" width="16" height="16"/>
 <rect x="560" y="704" width="16" height="16"/>
 <rect x="592" y="704" width="32" height="16"/>
 <rect x="800" y="704" width="16" height="32"/>
 <rect x="896" y="704" width="16" height="16"/>
 <rect x="32" y="720" width="48" height="16"/>
 <rect x="176" y="720" width="32" height="16"/>
 <rect x="368" y="720" width="32" height="16"/>
 <rect x="672" y="720" width="16" height="16"/>
 <rect x="720" y="720" width="16" height="48"/>
 <rect x="784" y="720" width="32" height="16"/>
 <rect x="848" y="720" width="16" height="16"/>
 <rect x="976" y="720" width="16" height="16"/>
 <rect x="0" y="736" width="16" height="16"/>
 <rect x="192" y="736" width="16" height="16"/>
 <rect x="240" y="736" width="16" height="32"/>
 <rect x="272" y="736" width="16" height="48"/>
 <rect x="336" y="736" width="16" height="16"/>
 <rect x="416" y="736" width="16" height="16"/>
 <rect x="544" y="736" width="16" height="32"/>
 <rect x="656" y="736" width="16" height="16"/>
 <rect x="912" y="736" width="16" height="16"/>
 <rect x="80" y="752" width="16" height="16"/>
 <rect x="112" y="752" width="16" height="32"/>
 <rect x="288" y="752" width="16" height="16"/>
 <rect x="400" y="752" width="16" height="16"/>
 <rect x="496" y="752" width="16" height="16"/>
 <rect x="608" y="752" width="16" height="32"/>
 <rect x="736" y="752" width="16" height="32"/>
 <rect x="752" y="752" width="16" height="16"/>
 <rect x="848" y="752" width="16" height="16"/>
 <rect x="976" y="752" width="32" height="16"/>
 <rect x="32" y="768" width="16" height="16"/>
 <rect x="176" y="768" width="32" height="16"/>
 <rect x="304" y="768" width="16" height="16"/>
 <rect x="336" y="768" width="16" height="32"/>
 <rect x="352" y="768" width="32" height="16"/>
 <rect x="512" y="768" width="16" height="16"/>
 <rect x="576" y="768" width="16" height="48"/>
 <rect x="832" y="768" width="16" height="48"/>
 <rect x="928" y="768" width="16" height="16"/>
 <rect x="208" y="784" width="32" height="16"/>
 <rect x="320" y="784" width="32" height="16"/>
 <rect x="400" y="784" width="16" height="16"/>
 <rect x="528" y="784" width="32" height="16"/>
 <rect x="656" y="784" width="16" height="16"/>
 <rect x="688" y="784" width="16" height="16"/>
 <rect x="784" y="784" width="32" height="16"/>
 <rect x="848" y="784" width="16" height="32"/>
 <rect x="976" y="784" width="16" height="16"/>
 <rect x="32" y="800" width="16" height="16"/>
 <rect x="160" y="800" width="16" height="64"/>
 <rect x="272" y="800" width="16" height="16"/>
 <rect x="384" y="800" width="16" height="16"/>
 <rect x="592" y="800" width="16" height="48"/>
 <rect x="624" y="800" width="16" height="16"/>
 <rect x="800" y="800" width="16" height="16"/>
 <rect x="896" y="800" width="16" height="16"/>
 <rect x="944" y="800" width="16" height="16"/>
 <rect x="80" y="816" width="16" height="16"/>
 <rect x="176" y="816" width="16" height="16"/>
 <rect x="224" y="816" width="16" height="16"/>
 <rect x="288" y="816" width="16" height="16"/>
 <rect x="352" y="816" width="16" height="16"/>
 <rect x="480" y="816" width="16" height="48"/>
 <rect x="672" y="816" width="16" height="16"/>
 <rect x="720" y="816" width="32" height="16"/>
 <rect x="816" y="816" width="16" height="16"/>
 <rect x="880" y="816" width="16" height="16"/>
 <rect x="912" y="816" width="16" height="16"/>
 <rect x="32" y="832" width="16" height="16"/>
 <rect x="208" y="832" width="16" height="16"/>
 <rect x="432" y="832" width="16" height="16"/>
 <rect x="464" y="832" width="32" height="16"/>
 <rect x="608" y="832" width="16" height="16"/>
 <rect x="640" y="832" width="16" height="32"/>
 <rect x="704" y="832" width="16" height="16"/>
 <rect x="864" y="832" width="16" height="16"/>
 <rect x="1008" y="832" width="16" height="16"/>
 <rect x="0" y="848" width="32" height="16"/>
 <rect x="80" y="848" width="16" height="32"/>
 <rect x="192" y="848" width="16" height="16"/>
 <rect x="240" y="848" width="16" height="16"/>
 <rect x="272" y="848" width="16" height="16"/>
 <rect x="320" y="848" width="16" height="16"/>
 <rect x="368" y="848" width="16" height="16"/>
 <rect x="416" y="848" width="16" height="16"/>
 <rect x="448" y="848" width="16" height="16"/>
 <rect x="544" y="848" width="48" height="16"/>
 <rect x="672" y="848" width="16" height="16"/>
 <rect x="784" y="848" width="16" height="16"/>
 <rect x="832" y="848" width="16" height="16"/>
 <rect x="912" y="848" width="16" height="16"/>
 <rect x="992" y="848" width="16" height="16"/>
 <rect x="208" y="864" width="16" height="16"/>
 <rect x="336" y="864" width="16" height="32"/>
 <rect x="384" y="864" width="16" height="48"/>
 <rect x="560" y="864" width="16" height="32"/>
 <rect x="592" y="864" width="16" height="32"/>
 <rect x="800" y="864" width="16" height="32"/>
 <rect x="896" y="864" width="16" height="16"/>
 <rect x="928" y="864" width="16" height="16"/>
 <rect x="960" y="864" width="16" height="16"/>
 <rect x="48" y="880" width="16" height="16"/>
 <rect x="128" y="880" width="16" height="16"/>
 <rect x="240" y="880" width="16" height="48"/>
 <rect x="272" y="880" width="16" height="16"/>
 <rect x="432" y="880" width="16" height="16"/>
 <rect x="528" y="880" width="48" height="16"/>
 <rect x="656" y="880" width="16" height="16"/>
 <rect x="752" y="880" width="16" height="16"/>
 <rect x="832" y="880" width="16" height="16"/>
 <rect x="880" y="880" width="16" height="32"/>
 <rect x="944" y="880" width="16" height="32"/>
 <rect x="80" y="896" width="16" height="16"/>
 <rect x="176" y="896" width="16" height="16"/>
 <rect x="304" y="896" width="32" height="32"/>
 <rect x="448" y="896" width="32" height="16"/>
 <rect x="512" y="896" width="16" height="32"/>
 <rect x="576" y="896" width="16" height="16"/>
 <rect x="816" y="896" width="16" height="32"/>
 <rect x="976" y="896" width="32" height="16"/>
 <rect x="112" y="912" width="16" height="16"/>
 <rect x="192" y="912" width="16" height="32"/>
 <rect x="224" y="912" width="32" height="16"/>
 <rect x="352" y="912" width="16" height="32"/>
 <rect x="368" y="912" width="16" height="16"/>
 <rect x="592" y="912" width="16" height="16"/>
 <rect x="624" y="912" width="16" height="16"/>
 <rect x="656" y="912" width="48" height="16"/>
 <rect x="736" y="912" width="16" height="16"/>
 <rect x="896" y="912" width="32" height="16"/>
 <rect x="960" y="912" width="16" height="16"/>
 <rect x="96" y="928" width="16" height="16"/>
 <rect x="176" y="928" width="16" height="48"/>
 <rect x="272" y="928" width="32" height="16"/>
 <rect x="320" y="928" width="16" height="16"/>
 <rect x="432" y="928" width="16" height="16"/>
 <rect x="464" y="928" width="16" height="16"/>
 <rect x="496" y="928" width="16" height="16"/>
 <rect x="544" y="928" width="16" height="16"/>
 <rect x="576" y="928" width="16" height="16"/>
 <rect x="688" y="928" width="16" height="32"/>
 <rect x="752" y="928" width="16" height="16"/>
 <rect x="848" y="928" width="32" height="16"/>
 <rect x="112" y="944" width="32" height="16"/>
 <rect x="368" y="944" width="16" height="16"/>
 <rect x="448" y="944" width="16" height="16"/>
 <rect x="528" y="944" width="16" height="16"/>
 <rect x="640" y="944" width="16" height="16"/>
 <rect x="736" y="944" width="16" height="16"/>
 <rect x="800" y="944" width="16" height="16"/>
 <rect x="832" y="944" width="16" height="16"/>
 <rect x="864" y="944" width="48" height="16"/>
 <rect x="1008" y="944" width="16" height="16"/>
 <rect x="16" y="960" width="16" height="16"/>
 <rect x="256" y="960" width="16" height="16"/>
 <rect x="304" y="960" width="16" height="32"/>
 <rect x="400" y="960" width="16" height="16"/>
 <rect x="560" y="960" width="32" height="16"/>
 <rect x="624" y="960" width="16" height="16"/>
 <rect x="720" y="960" width="16" height="16"/>
 <rect x="816" y="960" width="16" height="32"/>
 <rect x="880" y="960" width="16" height="16"/>
 <rect x="928" y="960" width="16" height="16"/>
 <rect x="0" y="976" width="16" height="48"/>
 <rect x="32" y="976" width="16" height="16"/>
 <rect x="96" y="976" width="16" height="16"/>
 <rect x="160" y="976" width="16" height="16"/>
 <rect x="224" y="976" width="16" height="16"/>
 <rect x="288" y="976" width="16" height="32"/>
 <rect x="320" y="976" width="48" height="16"/>
 <rect x="384" y="976" width="16" height="16"/>
 <rect x="432" y="976" width="32" height="16"/>
 <rect x="784" y="976" width="16" height="16"/>
 <rect x="832" y="976" width="16" height="16"/>
 <rect x="896" y="976" width="16" height="16"/>
 <rect x="976" y="976" width="16" height="16"/>
 <rect x="176" y="992" width="32" height="16"/>
 <rect x="336" y="992" width="16" height="16"/>
 <rect x="400" y="992" width="16" height="16"/>
 <rect x="544" y="992" width="32" height="16"/>
 <rect x="592" y="992" width="16" height="32"/>
 <rect x="624" y="992" width="16" height="32"/>
 <rect x="704" y="992" width="16" height="16"/>
 <rect x="752" y="992" width="32" height="16"/>
 <rect x="32" y="1008" width="16" height="16"/>
 <rect x="112" y="1008" width="16" height="16"/>
 <rect x="368" y="1008" width="16" height="16"/>
 <rect x="512" y="1008" width="16" height="16"/>
 <rect x="560" y="1008" width="16" height="16"/>
 <rect x="608" y="1008" width="16" height="16"/>
 <rect x="848" y="1008" width="16" height="16"/>
 <rect x="864" y="1008" width="16" height="16"/>
 <rect x="896" y="1008" width="16" height="16"/>
</g>
</svg>