<svg xmlns="http://www.w3.org/2000/svg" version="1.1" width = "1024" height = "1024" viewBox = "0 0 1024 1024"  shape-rendering="crispEdges">
<rect x="0.000000" y="0.000000" width="1024.00000000" height="1024.00000000" style="fill:rgb(0,0,0);" /><rect x="0.000000" y="0.000000" width="1024.00000000" height="1024.00000000" style="fill:rgb(229,229,229);" /><g style="fill:rgb(0,0,0);">
 <rect x="0.000000" y="0.000000" width="16.000000" height="288.000000"/>
 <rect x="32.000000" y="0.000000" width="160.000000" height="16.000000"/>
 <rect x="208.000000" y="0.000000" width="192.000000" height="16.000000"/>
 <rect x="416.000000" y="0.000000" width="16.000000" height="16.000000"/>
 <rect x="448.000000" y="0.000000" width="192.000000" height="16.000000"/>
 <rect x="656.000000" y="0.000000" width="32.000000" height="16.000000"/>
 <rect x="704.000000" y="0.000000" width="240.000000" height="16.000000"/>
 <rect x="976.000000" y="0.000000" width="48.000000" height="16.000000"/>
 <rect x="256.000000" y="16.000000" width="16.000000" height="128.000000"/>
 <rect x="512.000000" y="16.000000" width="16.000000" height="160.000000"/>
 <rect x="768.000000" y="16.000000" width="16.000000" height="32.000000"/>
 <rect x="768.000000" y="64.000000" width="16.000000" height="48.000000"/>
 <rect x="768.000000" y="128.000000" width="16.000000" height="224.000000"/>
 <rect x="256.000000" y="160.000000" width="16.000000" height="16.000000"/>
 <rect x="256.000000" y="192.000000" width="16.000000" height="720.000000"/>
 <rect x="512.000000" y="192.000000" width="16.000000" height="32.000000"/>
 <rect x="512.000000" y="240.000000" width="16.000000" height="80.000000"/>
 <rect x="32.000000" y="256.000000" width="560.000000" height="16.000000"/>
 <rect x="608.000000" y="256.000000" width="48.000000" height="16.000000"/>
 <rect x="672.000000" y="256.000000" width="160.000000" height="16.000000"/>
 <rect x="848.000000" y="256.000000" width="160.000000" height="16.000000"/>
 <rect x="0.000000" y="304.000000" width="16.000000" height="16.000000"/>
 <rect x="0.000000" y="336.000000" width="16.000000" height="208.000000"/>
 <rect x="512.000000" y="336.000000" width="16.000000" height="256.000000"/>
 <rect x="768.000000" y="368.000000" width="16.000000" height="96.000000"/>
 <rect x="768.000000" y="480.000000" width="16.000000" height="48.000000"/>
 <rect x="16.000000" y="512.000000" width="96.000000" height="16.000000"/>
 <rect x="128.000000" y="512.000000" width="16.000000" height="16.000000"/>
 <rect x="160.000000" y="512.000000" width="544.000000" height="16.000000"/>
 <rect x="720.000000" y="512.000000" width="32.000000" height="16.000000"/>
 <rect x="784.000000" y="512.000000" width="240.000000" height="16.000000"/>
 <rect x="768.000000" y="544.000000" width="16.000000" height="160.000000"/>
 <rect x="0.000000" y="560.000000" width="16.000000" height="128.000000"/>
 <rect x="512.000000" y="608.000000" width="16.000000" height="48.000000"/>
 <rect x="512.000000" y="672.000000" width="16.000000" height="352.000000"/>
 <rect x="0.000000" y="704.000000" width="16.000000" height="224.000000"/>
 <rect x="768.000000" y="720.000000" width="16.000000" height="160.000000"/>
 <rect x="32.000000" y="768.000000" width="64.000000" height="16.000000"/>
 <rect x="112.000000" y="768.000000" width="416.000000" height="16.000000"/>
 <rect x="560.000000" y="768.000000" width="352.000000" height="16.000000"/>
 <rect x="928.000000" y="768.000000" width="16.000000" height="16.000000"/>
 <rect x="960.000000" y="768.000000" width="64.000000" height="16.000000"/>
 <rect x="768.000000" y="896.000000" width="16.000000" height="96.000000"/>
 <rect x="256.000000" y="928.000000" width="16.000000" height="80.000000"/>
 <rect x="0.000000" y="944.000000" width="16.000000" height="64.000000"/>
 <rect x="768.000000" y="1008.000000" width="16.000000" height="16.000000"/>
</g>
</svg>