<svg xmlns="http://www.w3.org/2000/svg" version="1.1" width = "1027" height = "1027" viewBox = "-1 -1 1026 1026" preserveAspectRatio = "none" shape-rendering="auto">
<rect x="0" y="0" width="1024" height="1024" style="fill:rgb(0,0,0);" /><rect x="0" y="0" width="1024" height="1024" style="fill:rgb(229,229,229);" /><g style="fill:rgb(0,0,0);">
 <rect x="0" y="0" width="32" height="96"/>
 <rect x="32" y="0" width="64" height="32"/>
 <rect x="128" y="0" width="32" height="160"/>
 <rect x="192" y="0" width="96" height="32"/>
 <rect x="320" y="0" width="96" height="32"/>
 <rect x="448" y="0" width="96" height="32"/>
 <rect x="576" y="0" width="96" height="32"/>
 <rect x="704" y="0" width="96" height="32"/>
 <rect x="832" y="0" width="96" height="32"/>
 <rect x="960" y="0" width="64" height="32"/>
 <rect x="384" y="32" width="32" height="64"/>
 <rect x="512" y="32" width="32" height="32"/>
 <rect x="768" y="32" width="32" height="64"/>
 <rect x="896" y="32" width="32" height="32"/>
 <rect x="256" y="64" width="32" height="128"/>
 <rect x="640" y="64" width="32" height="160"/>
 <rect x="512" y="96" width="32" height="64"/>
 <rect x="896" y="96" width="32" height="96"/>
 <rect x="0" y="128" width="32" height="64"/>
 <rect x="32" y="128" width="64" height="32"/>
 <rect x="160" y="128" width="32" height="32"/>
 <rect x="224" y="128" width="128" height="32"/>
 <rect x="384" y="128" width="64" height="32"/>
 <rect x="480" y="128" width="384" height="32"/>
 <rect x="928" y="128" width="32" height="32"/>
 <rect x="992" y="128" width="32" height="32"/>
 <rect x="768" y="160" width="32" height="128"/>
 <rect x="128" y="192" width="32" height="128"/>
 <rect x="384" y="192" width="32" height="160"/>
 <rect x="512" y="192" width="32" height="96"/>
 <rect x="0" y="224" width="32" height="64"/>
 <rect x="256" y="224" width="32" height="64"/>
 <rect x="896" y="224" width="32" height="96"/>
 <rect x="32" y="256" width="160" height="32"/>
 <rect x="224" y="256" width="224" height="32"/>
 <rect x="480" y="256" width="96" height="32"/>
 <rect x="608" y="256" width="128" height="32"/>
 <rect x="832" y="256" width="160" height="32"/>
 <rect x="640" y="288" width="32" height="64"/>
 <rect x="0" y="320" width="32" height="160"/>
 <rect x="256" y="320" width="32" height="96"/>
 <rect x="512" y="320" width="32" height="128"/>
 <rect x="768" y="320" width="32" height="256"/>
 <rect x="128" y="352" width="32" height="256"/>
 <rect x="896" y="352" width="32" height="96"/>
 <rect x="32" y="384" width="128" height="32"/>
 <rect x="192" y="384" width="96" height="32"/>
 <rect x="320" y="384" width="256" height="32"/>
 <rect x="608" y="384" width="96" height="32"/>
 <rect x="736" y="384" width="128" height="32"/>
 <rect x="928" y="384" width="64" height="32"/>
 <rect x="384" y="416" width="32" height="32"/>
 <rect x="256" y="448" width="32" height="128"/>
 <rect x="640" y="448" width="32" height="96"/>
 <rect x="384" y="480" width="32" height="256"/>
 <rect x="512" y="480" width="32" height="96"/>
 <rect x="896" y="480" width="32" height="96"/>
 <rect x="0" y="512" width="64" height="32"/>
 <rect x="96" y="512" width="96" height="32"/>
 <rect x="224" y="512" width="128" height="32"/>
 <rect x="416" y="512" width="160" height="32"/>
 <rect x="608" y="512" width="96" height="32"/>
 <rect x="736" y="512" width="128" height="32"/>
 <rect x="928" y="512" width="64" height="32"/>
 <rect x="0" y="576" width="32" height="160"/>
 <rect x="640" y="576" width="32" height="96"/>
 <rect x="256" y="608" width="32" height="64"/>
 <rect x="512" y="608" width="32" height="96"/>
 <rect x="768" y="608" width="32" height="192"/>
 <rect x="896" y="608" width="32" height="128"/>
 <rect x="32" y="640" width="32" height="32"/>
 <rect x="96" y="640" width="192" height="32"/>
 <rect x="320" y="640" width="384" height="32"/>
 <rect x="736" y="640" width="128" height="32"/>
 <rect x="928" y="640" width="64" height="32"/>
 <rect x="128" y="672" width="32" height="32"/>
 <rect x="256" y="704" width="32" height="256"/>
 <rect x="640" y="704" width="32" height="128"/>
 <rect x="128" y="736" width="32" height="96"/>
 <rect x="512" y="736" width="32" height="128"/>
 <rect x="0" y="768" width="32" height="64"/>
 <rect x="64" y="768" width="288" height="32"/>
 <rect x="384" y="768" width="32" height="96"/>
 <rect x="416" y="768" width="64" height="32"/>
 <rect x="576" y="768" width="160" height="32"/>
 <rect x="800" y="768" width="64" height="32"/>
 <rect x="896" y="768" width="32" height="224"/>
 <rect x="928" y="768" width="32" height="32"/>
 <rect x="992" y="768" width="32" height="32"/>
 <rect x="768" y="832" width="32" height="160"/>
 <rect x="0" y="864" width="32" height="64"/>
 <rect x="128" y="864" width="32" height="96"/>
 <rect x="640" y="864" width="32" height="128"/>
 <rect x="32" y="896" width="64" height="32"/>
 <rect x="160" y="896" width="160" height="32"/>
 <rect x="352" y="896" width="224" height="32"/>
 <rect x="608" y="896" width="128" height="32"/>
 <rect x="800" y="896" width="64" height="32"/>
 <rect x="928" y="896" width="64" height="32"/>
 <rect x="384" y="928" width="32" height="96"/>
 <rect x="512" y="928" width="32" height="64"/>
 <rect x="0" y="960" width="32" height="64"/>
 <rect x="128" y="992" width="32" height="32"/>
 <rect x="256" y="992" width="32" height="32"/>
</g>
</svg>