<svg xmlns="http://www.w3.org/2000/svg" version="1.1" width = "1027" height = "1027" viewBox = "-1 -1 1026 1026" preserveAspectRatio = "none" shape-rendering="auto">
<rect x="0" y="0" width="1024" height="1024" style="fill:rgb(0,0,0);" /><rect x="0" y="0" width="1024" height="1024" style="fill:rgb(229,229,229);" /><g style="fill:rgb(0,0,0);">
 <rect x="0" y="0" width="16" height="48"/>
 <rect x="16" y="0" width="32" height="16"/>
 <rect x="64" y="0" width="240" height="16"/>
 <rect x="320" y="0" width="96" height="16"/>
 <rect x="432" y="0" width="112" height="16"/>
 <rect x="560" y="0" width="224" height="16"/>
 <rect x="800" y="0" width="112" height="16"/>
 <rect x="928" y="0" width="96" height="16"/>
 <rect x="128" y="16" width="16" height="64"/>
 <rect x="256" y="16" width="16" height="64"/>
 <rect x="384" y="16" width="16" height="96"/>
 <rect x="512" y="16" width="16" height="96"/>
 <rect x="640" y="16" width="16" height="192"/>
 <rect x="768" y="16" width="16" height="96"/>
 <rect x="896" y="16" width="16" height="64"/>
 <rect x="0" y="64" width="16" height="128"/>
 <rect x="128" y="96" width="16" height="96"/>
 <rect x="256" y="96" width="16" height="592"/>
 <rect x="896" y="96" width="16" height="128"/>
 <rect x="32" y="128" width="176" height="16"/>
 <rect x="224" y="128" width="112" height="16"/>
 <rect x="352" y="128" width="48" height="16"/>
 <rect x="416" y="128" width="112" height="16"/>
 <rect x="544" y="128" width="208" height="16"/>
 <rect x="768" y="128" width="16" height="64"/>
 <rect x="784" y="128" width="80" height="16"/>
 <rect x="880" y="128" width="32" height="16"/>
 <rect x="928" y="128" width="96" height="16"/>
 <rect x="384" y="144" width="16" height="16"/>
 <rect x="512" y="144" width="16" height="16"/>
 <rect x="384" y="176" width="16" height="144"/>
 <rect x="512" y="176" width="16" height="256"/>
 <rect x="0" y="208" width="16" height="112"/>
 <rect x="128" y="208" width="16" height="144"/>
 <rect x="768" y="208" width="16" height="112"/>
 <rect x="640" y="224" width="16" height="64"/>
 <rect x="896" y="240" width="16" height="240"/>
 <rect x="16" y="256" width="96" height="16"/>
 <rect x="144" y="256" width="64" height="16"/>
 <rect x="224" y="256" width="256" height="16"/>
 <rect x="496" y="256" width="224" height="16"/>
 <rect x="736" y="256" width="144" height="16"/>
 <rect x="912" y="256" width="80" height="16"/>
 <rect x="1008" y="256" width="16" height="16"/>
 <rect x="640" y="304" width="16" height="304"/>
 <rect x="0" y="336" width="16" height="128"/>
 <rect x="384" y="336" width="16" height="160"/>
 <rect x="768" y="336" width="16" height="320"/>
 <rect x="128" y="368" width="16" height="32"/>
 <rect x="32" y="384" width="128" height="16"/>
 <rect x="176" y="384" width="160" height="16"/>
 <rect x="352" y="384" width="128" height="16"/>
 <rect x="496" y="384" width="112" height="16"/>
 <rect x="624" y="384" width="32" height="16"/>
 <rect x="672" y="384" width="112" height="16"/>
 <rect x="800" y="384" width="208" height="16"/>
 <rect x="128" y="416" width="16" height="160"/>
 <rect x="512" y="448" width="16" height="96"/>
 <rect x="0" y="480" width="16" height="128"/>
 <rect x="896" y="496" width="16" height="96"/>
 <rect x="16" y="512" width="272" height="16"/>
 <rect x="304" y="512" width="128" height="16"/>
 <rect x="448" y="512" width="432" height="16"/>
 <rect x="912" y="512" width="16" height="16"/>
 <rect x="944" y="512" width="80" height="16"/>
 <rect x="384" y="528" width="16" height="48"/>
 <rect x="512" y="560" width="16" height="112"/>
 <rect x="128" y="592" width="16" height="144"/>
 <rect x="384" y="592" width="16" height="80"/>
 <rect x="896" y="608" width="16" height="224"/>
 <rect x="0" y="624" width="16" height="128"/>
 <rect x="640" y="624" width="16" height="256"/>
 <rect x="16" y="640" width="96" height="16"/>
 <rect x="144" y="640" width="288" height="16"/>
 <rect x="448" y="640" width="96" height="16"/>
 <rect x="560" y="640" width="176" height="16"/>
 <rect x="752" y="640" width="80" height="16"/>
 <rect x="848" y="640" width="112" height="16"/>
 <rect x="976" y="640" width="48" height="16"/>
 <rect x="768" y="672" width="16" height="272"/>
 <rect x="384" y="688" width="16" height="192"/>
 <rect x="512" y="688" width="16" height="192"/>
 <rect x="256" y="704" width="16" height="176"/>
 <rect x="128" y="752" width="16" height="176"/>
 <rect x="0" y="768" width="64" height="16"/>
 <rect x="80" y="768" width="64" height="16"/>
 <rect x="160" y="768" width="128" height="16"/>
 <rect x="304" y="768" width="176" height="16"/>
 <rect x="496" y="768" width="240" height="16"/>
 <rect x="752" y="768" width="272" height="16"/>
 <rect x="0" y="800" width="16" height="192"/>
 <rect x="896" y="848" width="16" height="96"/>
 <rect x="16" y="896" width="160" height="16"/>
 <rect x="192" y="896" width="304" height="16"/>
 <rect x="512" y="896" width="16" height="128"/>
 <rect x="528" y="896" width="192" height="16"/>
 <rect x="736" y="896" width="144" height="16"/>
 <rect x="912" y="896" width="112" height="16"/>
 <rect x="256" y="912" width="16" height="16"/>
 <rect x="384" y="912" width="16" height="32"/>
 <rect x="640" y="912" width="16" height="96"/>
 <rect x="128" y="944" width="16" height="80"/>
 <rect x="256" y="944" width="16" height="80"/>
 <rect x="384" y="960" width="16" height="64"/>
 <rect x="768" y="960" width="16" height="64"/>
 <rect x="896" y="960" width="16" height="64"/>
 <rect x="0" y="1008" width="16" height="16"/>
</g>
</svg>