<svg xmlns="http://www.w3.org/2000/svg" version="1.1" width = "1027" height = "1027" viewBox = "-1 -1 1026 1026"  preserveAspectRatio = "none">
<rect x="0.000000" y="0.000000" width="1024.00000000" height="1024.00000000" style="fill:rgb(0,0,0);" /><rect x="0.000000" y="315.813080" width="1024.00000000" height="392.37380981" style="fill:rgb(229,229,229);" /><g style="fill:rgb(0,127,0);">
 <rect x="0.000000" y="315.813080" width="3.190033" height="392.373810"/>
 <rect x="3.190033" y="315.813080" width="1020.809937" height="3.190033"/>
 <rect x="1020.809937" y="319.003113" width="3.190063" height="3.190033"/>
 <rect x="162.691589" y="322.193146" width="31.900299" height="6.380066"/>
 <rect x="197.781921" y="322.193146" width="31.900330" height="6.380066"/>
 <rect x="232.872284" y="322.193146" width="31.900299" height="6.380066"/>
 <rect x="267.962616" y="322.193146" width="31.900299" height="6.380066"/>
 <rect x="303.052979" y="322.193146" width="31.900299" height="6.380066"/>
 <rect x="338.143311" y="322.193146" width="31.900299" height="6.380066"/>
 <rect x="373.233643" y="322.193146" width="31.900330" height="6.380066"/>
 <rect x="408.323975" y="322.193146" width="31.900330" height="6.380066"/>
 <rect x="443.414337" y="322.193146" width="31.900299" height="6.380066"/>
 <rect x="478.504669" y="322.193146" width="31.900330" height="6.380066"/>
 <rect x="513.595032" y="322.193146" width="31.900269" height="6.380066"/>
 <rect x="548.685364" y="322.193146" width="31.900330" height="6.380066"/>
 <rect x="583.775696" y="322.193146" width="31.900330" height="6.380066"/>
 <rect x="618.866028" y="322.193146" width="31.900330" height="6.380066"/>
 <rect x="653.956421" y="322.193146" width="31.900269" height="6.380066"/>
 <rect x="689.046753" y="322.193146" width="31.900269" height="6.380066"/>
 <rect x="724.137085" y="322.193146" width="31.900269" height="6.380066"/>
 <rect x="759.227417" y="322.193146" width="31.900269" height="6.380066"/>
 <rect x="794.317749" y="322.193146" width="31.900330" height="6.380066"/>
 <rect x="829.408081" y="322.193146" width="31.900330" height="6.380066"/>
 <rect x="1020.809937" y="322.193146" width="3.190063" height="3.190033"/>
 <rect x="1020.809937" y="325.383179" width="3.190063" height="3.190033"/>
 <rect x="1020.809937" y="328.573212" width="3.190063" height="3.190033"/>
 <rect x="162.691589" y="331.763245" width="31.900299" height="6.380066"/>
 <rect x="197.781921" y="331.763245" width="31.900330" height="6.380066"/>
 <rect x="232.872284" y="331.763245" width="31.900299" height="6.380066"/>
 <rect x="267.962616" y="331.763245" width="31.900299" height="6.380066"/>
 <rect x="303.052979" y="331.763245" width="31.900299" height="6.380066"/>
 <rect x="338.143311" y="331.763245" width="31.900299" height="6.380066"/>
 <rect x="373.233643" y="331.763245" width="31.900330" height="6.380066"/>
 <rect x="408.323975" y="331.763245" width="31.900330" height="6.380066"/>
 <rect x="443.414337" y="331.763245" width="31.900299" height="6.380066"/>
 <rect x="478.504669" y="331.763245" width="31.900330" height="6.380066"/>
 <rect x="513.595032" y="331.763245" width="31.900269" height="6.380066"/>
 <rect x="548.685364" y="331.763245" width="31.900330" height="6.380066"/>
 <rect x="583.775696" y="331.763245" width="31.900330" height="6.380066"/>
 <rect x="618.866028" y="331.763245" width="31.900330" height="6.380066"/>
 <rect x="653.956421" y="331.763245" width="31.900269" height="6.380066"/>
 <rect x="689.046753" y="331.763245" width="31.900269" height="6.380066"/>
 <rect x="724.137085" y="331.763245" width="31.900269" height="6.380066"/>
 <rect x="759.227417" y="331.763245" width="31.900269" height="6.380066"/>
 <rect x="794.317749" y="331.763245" width="31.900330" height="6.380066"/>
 <rect x="829.408081" y="331.763245" width="31.900330" height="6.380066"/>
 <rect x="1020.809937" y="331.763245" width="3.190063" height="3.190033"/>
 <rect x="1020.809937" y="334.953278" width="3.190063" height="3.190033"/>
 <rect x="1020.809937" y="338.143311" width="3.190063" height="3.190002"/>
 <rect x="162.691589" y="341.333313" width="31.900299" height="6.380066"/>
 <rect x="197.781921" y="341.333313" width="31.900330" height="6.380066"/>
 <rect x="232.872284" y="341.333313" width="31.900299" height="6.380066"/>
 <rect x="267.962616" y="341.333313" width="31.900299" height="6.380066"/>
 <rect x="303.052979" y="341.333313" width="31.900299" height="6.380066"/>
 <rect x="338.143311" y="341.333313" width="31.900299" height="6.380066"/>
 <rect x="373.233643" y="341.333313" width="31.900330" height="6.380066"/>
 <rect x="408.323975" y="341.333313" width="31.900330" height="6.380066"/>
 <rect x="443.414337" y="341.333313" width="31.900299" height="6.380066"/>
 <rect x="478.504669" y="341.333313" width="31.900330" height="6.380066"/>
 <rect x="513.595032" y="341.333313" width="31.900269" height="6.380066"/>
 <rect x="548.685364" y="341.333313" width="31.900330" height="6.380066"/>
 <rect x="583.775696" y="341.333313" width="31.900330" height="6.380066"/>
 <rect x="618.866028" y="341.333313" width="31.900330" height="6.380066"/>
 <rect x="653.956421" y="341.333313" width="31.900269" height="6.380066"/>
 <rect x="689.046753" y="341.333313" width="31.900269" height="6.380066"/>
 <rect x="724.137085" y="341.333313" width="31.900269" height="6.380066"/>
 <rect x="759.227417" y="341.333313" width="31.900269" height="6.380066"/>
 <rect x="794.317749" y="341.333313" width="31.900330" height="6.380066"/>
 <rect x="829.408081" y="341.333313" width="31.900330" height="6.380066"/>
 <rect x="1020.809937" y="341.333313" width="3.190063" height="3.190063"/>
 <rect x="1020.809937" y="344.523376" width="3.190063" height="3.190002"/>
 <rect x="1020.809937" y="347.713379" width="3.190063" height="3.190063"/>
 <rect x="162.691589" y="350.903442" width="31.900299" height="6.380066"/>
 <rect x="197.781921" y="350.903442" width="31.900330" height="6.380066"/>
 <rect x="232.872284" y="350.903442" width="31.900299" height="6.380066"/>
 <rect x="267.962616" y="350.903442" width="31.900299" height="6.380066"/>
 <rect x="303.052979" y="350.903442" width="31.900299" height="6.380066"/>
 <rect x="338.143311" y="350.903442" width="31.900299" height="6.380066"/>
 <rect x="373.233643" y="350.903442" width="31.900330" height="6.380066"/>
 <rect x="408.323975" y="350.903442" width="31.900330" height="6.380066"/>
 <rect x="443.414337" y="350.903442" width="31.900299" height="6.380066"/>
 <rect x="478.504669" y="350.903442" width="31.900330" height="6.380066"/>
 <rect x="513.595032" y="350.903442" width="31.900269" height="6.380066"/>
 <rect x="548.685364" y="350.903442" width="31.900330" height="6.380066"/>
 <rect x="583.775696" y="350.903442" width="31.900330" height="6.380066"/>
 <rect x="618.866028" y="350.903442" width="31.900330" height="6.380066"/>
 <rect x="653.956421" y="350.903442" width="31.900269" height="6.380066"/>
 <rect x="689.046753" y="350.903442" width="31.900269" height="6.380066"/>
 <rect x="724.137085" y="350.903442" width="31.900269" height="6.380066"/>
 <rect x="759.227417" y="350.903442" width="31.900269" height="6.380066"/>
 <rect x="794.317749" y="350.903442" width="31.900330" height="6.380066"/>
 <rect x="829.408081" y="350.903442" width="31.900330" height="6.380066"/>
 <rect x="1020.809937" y="350.903442" width="3.190063" height="3.190002"/>
 <rect x="1020.809937" y="354.093445" width="3.190063" height="3.190063"/>
 <rect x="1020.809937" y="357.283508" width="3.190063" height="3.190002"/>
 <rect x="162.691589" y="360.473511" width="31.900299" height="6.380066"/>
 <rect x="197.781921" y="360.473511" width="31.900330" height="6.380066"/>
 <rect x="232.872284" y="360.473511" width="31.900299" height="6.380066"/>
 <rect x="267.962616" y="360.473511" width="31.900299" height="6.380066"/>
 <rect x="303.052979" y="360.473511" width="31.900299" height="6.380066"/>
 <rect x="338.143311" y="360.473511" width="31.900299" height="6.380066"/>
 <rect x="373.233643" y="360.473511" width="31.900330" height="6.380066"/>
 <rect x="408.323975" y="360.473511" width="31.900330" height="6.380066"/>
 <rect x="443.414337" y="360.473511" width="31.900299" height="6.380066"/>
 <rect x="478.504669" y="360.473511" width="31.900330" height="6.380066"/>
 <rect x="513.595032" y="360.473511" width="31.900269" height="6.380066"/>
 <rect x="548.685364" y="360.473511" width="31.900330" height="6.380066"/>
 <rect x="583.775696" y="360.473511" width="31.900330" height="6.380066"/>
 <rect x="618.866028" y="360.473511" width="31.900330" height="6.380066"/>
 <rect x="653.956421" y="360.473511" width="31.900269" height="6.380066"/>
 <rect x="689.046753" y="360.473511" width="31.900269" height="6.380066"/>
 <rect x="724.137085" y="360.473511" width="31.900269" height="6.380066"/>
 <rect x="759.227417" y="360.473511" width="31.900269" height="6.380066"/>
 <rect x="794.317749" y="360.473511" width="31.900330" height="6.380066"/>
 <rect x="829.408081" y="360.473511" width="31.900330" height="6.380066"/>
 <rect x="1020.809937" y="360.473511" width="3.190063" height="3.190063"/>
 <rect x="1020.809937" y="363.663574" width="3.190063" height="3.190002"/>
 <rect x="1020.809937" y="366.853577" width="3.190063" height="3.190033"/>
 <rect x="162.691589" y="370.043610" width="31.900299" height="6.380066"/>
 <rect x="197.781921" y="370.043610" width="31.900330" height="6.380066"/>
 <rect x="232.872284" y="370.043610" width="31.900299" height="6.380066"/>
 <rect x="267.962616" y="370.043610" width="31.900299" height="6.380066"/>
 <rect x="303.052979" y="370.043610" width="31.900299" height="6.380066"/>
 <rect x="338.143311" y="370.043610" width="31.900299" height="6.380066"/>
 <rect x="373.233643" y="370.043610" width="31.900330" height="6.380066"/>
 <rect x="408.323975" y="370.043610" width="31.900330" height="6.380066"/>
 <rect x="443.414337" y="370.043610" width="31.900299" height="6.380066"/>
 <rect x="478.504669" y="370.043610" width="31.900330" height="6.380066"/>
 <rect x="513.595032" y="370.043610" width="31.900269" height="6.380066"/>
 <rect x="548.685364" y="370.043610" width="31.900330" height="6.380066"/>
 <rect x="583.775696" y="370.043610" width="31.900330" height="6.380066"/>
 <rect x="618.866028" y="370.043610" width="31.900330" height="6.380066"/>
 <rect x="653.956421" y="370.043610" width="31.900269" height="6.380066"/>
 <rect x="689.046753" y="370.043610" width="31.900269" height="6.380066"/>
 <rect x="724.137085" y="370.043610" width="31.900269" height="6.380066"/>
 <rect x="759.227417" y="370.043610" width="31.900269" height="6.380066"/>
 <rect x="794.317749" y="370.043610" width="31.900330" height="6.380066"/>
 <rect x="829.408081" y="370.043610" width="31.900330" height="6.380066"/>
 <rect x="1020.809937" y="370.043610" width="3.190063" height="3.190033"/>
 <rect x="1020.809937" y="373.233643" width="3.190063" height="3.190033"/>
 <rect x="1020.809937" y="376.423676" width="3.190063" height="3.190033"/>
 <rect x="162.691589" y="379.613708" width="31.900299" height="6.380066"/>
 <rect x="197.781921" y="379.613708" width="31.900330" height="6.380066"/>
 <rect x="232.872284" y="379.613708" width="31.900299" height="6.380066"/>
 <rect x="267.962616" y="379.613708" width="31.900299" height="6.380066"/>
 <rect x="303.052979" y="379.613708" width="31.900299" height="6.380066"/>
 <rect x="338.143311" y="379.613708" width="31.900299" height="6.380066"/>
 <rect x="373.233643" y="379.613708" width="31.900330" height="6.380066"/>
 <rect x="408.323975" y="379.613708" width="31.900330" height="6.380066"/>
 <rect x="443.414337" y="379.613708" width="31.900299" height="6.380066"/>
 <rect x="478.504669" y="379.613708" width="31.900330" height="6.380066"/>
 <rect x="513.595032" y="379.613708" width="31.900269" height="6.380066"/>
 <rect x="548.685364" y="379.613708" width="31.900330" height="6.380066"/>
 <rect x="583.775696" y="379.613708" width="31.900330" height="6.380066"/>
 <rect x="618.866028" y="379.613708" width="31.900330" height="6.380066"/>
 <rect x="653.956421" y="379.613708" width="31.900269" height="6.380066"/>
 <rect x="689.046753" y="379.613708" width="31.900269" height="6.380066"/>
 <rect x="724.137085" y="379.613708" width="31.900269" height="6.380066"/>
 <rect x="759.227417" y="379.613708" width="31.900269" height="6.380066"/>
 <rect x="794.317749" y="379.613708" width="31.900330" height="6.380066"/>
 <rect x="829.408081" y="379.613708" width="31.900330" height="6.380066"/>
 <rect x="1020.809937" y="379.613708" width="3.190063" height="3.190033"/>
 <rect x="1020.809937" y="382.803741" width="3.190063" height="3.190033"/>
 <rect x="1020.809937" y="385.993774" width="3.190063" height="3.190033"/>
 <rect x="162.691589" y="389.183807" width="31.900299" height="6.380066"/>
 <rect x="197.781921" y="389.183807" width="31.900330" height="6.380066"/>
 <rect x="232.872284" y="389.183807" width="31.900299" height="6.380066"/>
 <rect x="267.962616" y="389.183807" width="31.900299" height="6.380066"/>
 <rect x="303.052979" y="389.183807" width="31.900299" height="6.380066"/>
 <rect x="338.143311" y="389.183807" width="31.900299" height="6.380066"/>
 <rect x="373.233643" y="389.183807" width="31.900330" height="6.380066"/>
 <rect x="408.323975" y="389.183807" width="31.900330" height="6.380066"/>
 <rect x="443.414337" y="389.183807" width="31.900299" height="6.380066"/>
 <rect x="478.504669" y="389.183807" width="31.900330" height="6.380066"/>
 <rect x="513.595032" y="389.183807" width="31.900269" height="6.380066"/>
 <rect x="548.685364" y="389.183807" width="31.900330" height="6.380066"/>
 <rect x="583.775696" y="389.183807" width="31.900330" height="6.380066"/>
 <rect x="618.866028" y="389.183807" width="31.900330" height="6.380066"/>
 <rect x="653.956421" y="389.183807" width="31.900269" height="6.380066"/>
 <rect x="689.046753" y="389.183807" width="31.900269" height="6.380066"/>
 <rect x="724.137085" y="389.183807" width="31.900269" height="6.380066"/>
 <rect x="759.227417" y="389.183807" width="31.900269" height="6.380066"/>
 <rect x="794.317749" y="389.183807" width="31.900330" height="6.380066"/>
 <rect x="829.408081" y="389.183807" width="31.900330" height="6.380066"/>
 <rect x="1020.809937" y="389.183807" width="3.190063" height="3.190033"/>
 <rect x="1020.809937" y="392.373840" width="3.190063" height="3.190033"/>
 <rect x="1020.809937" y="395.563873" width="3.190063" height="3.190033"/>
 <rect x="162.691589" y="398.753906" width="31.900299" height="6.380066"/>
 <rect x="197.781921" y="398.753906" width="31.900330" height="6.380066"/>
 <rect x="232.872284" y="398.753906" width="31.900299" height="6.380066"/>
 <rect x="267.962616" y="398.753906" width="31.900299" height="6.380066"/>
 <rect x="303.052979" y="398.753906" width="31.900299" height="6.380066"/>
 <rect x="338.143311" y="398.753906" width="31.900299" height="6.380066"/>
 <rect x="373.233643" y="398.753906" width="31.900330" height="6.380066"/>
 <rect x="408.323975" y="398.753906" width="31.900330" height="6.380066"/>
 <rect x="443.414337" y="398.753906" width="31.900299" height="6.380066"/>
 <rect x="478.504669" y="398.753906" width="31.900330" height="6.380066"/>
 <rect x="513.595032" y="398.753906" width="31.900269" height="6.380066"/>
 <rect x="548.685364" y="398.753906" width="31.900330" height="6.380066"/>
 <rect x="583.775696" y="398.753906" width="31.900330" height="6.380066"/>
 <rect x="618.866028" y="398.753906" width="31.900330" height="6.380066"/>
 <rect x="653.956421" y="398.753906" width="31.900269" height="6.380066"/>
 <rect x="689.046753" y="398.753906" width="31.900269" height="6.380066"/>
 <rect x="724.137085" y="398.753906" width="31.900269" height="6.380066"/>
 <rect x="759.227417" y="398.753906" width="31.900269" height="6.380066"/>
 <rect x="794.317749" y="398.753906" width="31.900330" height="6.380066"/>
 <rect x="829.408081" y="398.753906" width="31.900330" height="6.380066"/>
 <rect x="1020.809937" y="398.753906" width="3.190063" height="3.190002"/>
 <rect x="1020.809937" y="401.943909" width="3.190063" height="3.190063"/>
 <rect x="1020.809937" y="405.133972" width="3.190063" height="3.190002"/>
 <rect x="162.691589" y="408.323975" width="31.900299" height="6.380066"/>
 <rect x="197.781921" y="408.323975" width="31.900330" height="6.380066"/>
 <rect x="232.872284" y="408.323975" width="31.900299" height="6.380066"/>
 <rect x="267.962616" y="408.323975" width="31.900299" height="6.380066"/>
 <rect x="303.052979" y="408.323975" width="31.900299" height="6.380066"/>
 <rect x="338.143311" y="408.323975" width="31.900299" height="6.380066"/>
 <rect x="373.233643" y="408.323975" width="31.900330" height="6.380066"/>
 <rect x="408.323975" y="408.323975" width="31.900330" height="6.380066"/>
 <rect x="443.414337" y="408.323975" width="31.900299" height="6.380066"/>
 <rect x="478.504669" y="408.323975" width="31.900330" height="6.380066"/>
 <rect x="513.595032" y="408.323975" width="31.900269" height="6.380066"/>
 <rect x="548.685364" y="408.323975" width="31.900330" height="6.380066"/>
 <rect x="583.775696" y="408.323975" width="31.900330" height="6.380066"/>
 <rect x="618.866028" y="408.323975" width="31.900330" height="6.380066"/>
 <rect x="653.956421" y="408.323975" width="31.900269" height="6.380066"/>
 <rect x="689.046753" y="408.323975" width="31.900269" height="6.380066"/>
 <rect x="724.137085" y="408.323975" width="31.900269" height="6.380066"/>
 <rect x="759.227417" y="408.323975" width="31.900269" height="6.380066"/>
 <rect x="794.317749" y="408.323975" width="31.900330" height="6.380066"/>
 <rect x="829.408081" y="408.323975" width="31.900330" height="6.380066"/>
 <rect x="1020.809937" y="408.323975" width="3.190063" height="3.190033"/>
 <rect x="1020.809937" y="411.514008" width="3.190063" height="3.190033"/>
 <rect x="1020.809937" y="414.704041" width="3.190063" height="3.190033"/>
 <rect x="162.691589" y="417.894073" width="31.900299" height="6.380066"/>
 <rect x="197.781921" y="417.894073" width="31.900330" height="6.380066"/>
 <rect x="232.872284" y="417.894073" width="31.900299" height="6.380066"/>
 <rect x="267.962616" y="417.894073" width="31.900299" height="6.380066"/>
 <rect x="303.052979" y="417.894073" width="31.900299" height="6.380066"/>
 <rect x="338.143311" y="417.894073" width="31.900299" height="6.380066"/>
 <rect x="373.233643" y="417.894073" width="31.900330" height="6.380066"/>
 <rect x="408.323975" y="417.894073" width="31.900330" height="6.380066"/>
 <rect x="443.414337" y="417.894073" width="31.900299" height="6.380066"/>
 <rect x="478.504669" y="417.894073" width="31.900330" height="6.380066"/>
 <rect x="513.595032" y="417.894073" width="31.900269" height="6.380066"/>
 <rect x="548.685364" y="417.894073" width="31.900330" height="6.380066"/>
 <rect x="583.775696" y="417.894073" width="31.900330" height="6.380066"/>
 <rect x="618.866028" y="417.894073" width="31.900330" height="6.380066"/>
 <rect x="653.956421" y="417.894073" width="31.900269" height="6.380066"/>
 <rect x="689.046753" y="417.894073" width="31.900269" height="6.380066"/>
 <rect x="724.137085" y="417.894073" width="31.900269" height="6.380066"/>
 <rect x="759.227417" y="417.894073" width="31.900269" height="6.380066"/>
 <rect x="794.317749" y="417.894073" width="31.900330" height="6.380066"/>
 <rect x="829.408081" y="417.894073" width="31.900330" height="6.380066"/>
 <rect x="1020.809937" y="417.894073" width="3.190063" height="3.190033"/>
 <rect x="1020.809937" y="421.084106" width="3.190063" height="3.190033"/>
 <rect x="1020.809937" y="424.274139" width="3.190063" height="3.190033"/>
 <rect x="162.691589" y="427.464172" width="31.900299" height="6.380066"/>
 <rect x="197.781921" y="427.464172" width="31.900330" height="6.380066"/>
 <rect x="232.872284" y="427.464172" width="31.900299" height="6.380066"/>
 <rect x="267.962616" y="427.464172" width="31.900299" height="6.380066"/>
 <rect x="303.052979" y="427.464172" width="31.900299" height="6.380066"/>
 <rect x="338.143311" y="427.464172" width="31.900299" height="6.380066"/>
 <rect x="373.233643" y="427.464172" width="31.900330" height="6.380066"/>
 <rect x="408.323975" y="427.464172" width="31.900330" height="6.380066"/>
 <rect x="443.414337" y="427.464172" width="31.900299" height="6.380066"/>
 <rect x="478.504669" y="427.464172" width="31.900330" height="6.380066"/>
 <rect x="513.595032" y="427.464172" width="31.900269" height="6.380066"/>
 <rect x="548.685364" y="427.464172" width="31.900330" height="6.380066"/>
 <rect x="583.775696" y="427.464172" width="31.900330" height="6.380066"/>
 <rect x="618.866028" y="427.464172" width="31.900330" height="6.380066"/>
 <rect x="653.956421" y="427.464172" width="31.900269" height="6.380066"/>
 <rect x="689.046753" y="427.464172" width="31.900269" height="6.380066"/>
 <rect x="724.137085" y="427.464172" width="31.900269" height="6.380066"/>
 <rect x="759.227417" y="427.464172" width="31.900269" height="6.380066"/>
 <rect x="794.317749" y="427.464172" width="31.900330" height="6.380066"/>
 <rect x="829.408081" y="427.464172" width="31.900330" height="6.380066"/>
 <rect x="1020.809937" y="427.464172" width="3.190063" height="3.190033"/>
 <rect x="1020.809937" y="430.654205" width="3.190063" height="3.190033"/>
 <rect x="1020.809937" y="433.844238" width="3.190063" height="3.190033"/>
 <rect x="162.691589" y="437.034271" width="31.900299" height="6.380066"/>
 <rect x="197.781921" y="437.034271" width="31.900330" height="6.380066"/>
 <rect x="232.872284" y="437.034271" width="31.900299" height="6.380066"/>
 <rect x="267.962616" y="437.034271" width="31.900299" height="6.380066"/>
 <rect x="303.052979" y="437.034271" width="31.900299" height="6.380066"/>
 <rect x="338.143311" y="437.034271" width="31.900299" height="6.380066"/>
 <rect x="373.233643" y="437.034271" width="31.900330" height="6.380066"/>
 <rect x="408.323975" y="437.034271" width="31.900330" height="6.380066"/>
 <rect x="443.414337" y="437.034271" width="31.900299" height="6.380066"/>
 <rect x="478.504669" y="437.034271" width="31.900330" height="6.380066"/>
 <rect x="513.595032" y="437.034271" width="31.900269" height="6.380066"/>
 <rect x="548.685364" y="437.034271" width="31.900330" height="6.380066"/>
 <rect x="583.775696" y="437.034271" width="31.900330" height="6.380066"/>
 <rect x="618.866028" y="437.034271" width="31.900330" height="6.380066"/>
 <rect x="653.956421" y="437.034271" width="31.900269" height="6.380066"/>
 <rect x="689.046753" y="437.034271" width="31.900269" height="6.380066"/>
 <rect x="724.137085" y="437.034271" width="31.900269" height="6.380066"/>
 <rect x="759.227417" y="437.034271" width="31.900269" height="6.380066"/>
 <rect x="794.317749" y="437.034271" width="31.900330" height="6.380066"/>
 <rect x="829.408081" y="437.034271" width="31.900330" height="6.380066"/>
 <rect x="1020.809937" y="437.034271" width="3.190063" height="3.190033"/>
 <rect x="1020.809937" y="440.224304" width="3.190063" height="3.190033"/>
 <rect x="1020.809937" y="443.414337" width="3.190063" height="3.190033"/>
 <rect x="162.691589" y="446.604370" width="31.900299" height="6.380066"/>
 <rect x="197.781921" y="446.604370" width="31.900330" height="6.380066"/>
 <rect x="232.872284" y="446.604370" width="31.900299" height="6.380066"/>
 <rect x="267.962616" y="446.604370" width="31.900299" height="6.380066"/>
 <rect x="303.052979" y="446.604370" width="31.900299" height="6.380066"/>
 <rect x="338.143311" y="446.604370" width="31.900299" height="6.380066"/>
 <rect x="373.233643" y="446.604370" width="31.900330" height="6.380066"/>
 <rect x="408.323975" y="446.604370" width="31.900330" height="6.380066"/>
 <rect x="443.414337" y="446.604370" width="31.900299" height="6.380066"/>
 <rect x="478.504669" y="446.604370" width="31.900330" height="6.380066"/>
 <rect x="513.595032" y="446.604370" width="31.900269" height="6.380066"/>
 <rect x="548.685364" y="446.604370" width="31.900330" height="6.380066"/>
 <rect x="583.775696" y="446.604370" width="31.900330" height="6.380066"/>
 <rect x="618.866028" y="446.604370" width="31.900330" height="6.380066"/>
 <rect x="653.956421" y="446.604370" width="31.900269" height="6.380066"/>
 <rect x="689.046753" y="446.604370" width="31.900269" height="6.380066"/>
 <rect x="724.137085" y="446.604370" width="31.900269" height="6.380066"/>
 <rect x="759.227417" y="446.604370" width="31.900269" height="6.380066"/>
 <rect x="794.317749" y="446.604370" width="31.900330" height="6.380066"/>
 <rect x="829.408081" y="446.604370" width="31.900330" height="6.380066"/>
 <rect x="1020.809937" y="446.604370" width="3.190063" height="3.190033"/>
 <rect x="1020.809937" y="449.794403" width="3.190063" height="3.190033"/>
 <rect x="1020.809937" y="452.984436" width="3.190063" height="3.190002"/>
 <rect x="162.691589" y="456.174438" width="31.900299" height="6.380066"/>
 <rect x="197.781921" y="456.174438" width="31.900330" height="6.380066"/>
 <rect x="232.872284" y="456.174438" width="31.900299" height="6.380066"/>
 <rect x="267.962616" y="456.174438" width="31.900299" height="6.380066"/>
 <rect x="303.052979" y="456.174438" width="31.900299" height="6.380066"/>
 <rect x="338.143311" y="456.174438" width="31.900299" height="6.380066"/>
 <rect x="373.233643" y="456.174438" width="31.900330" height="6.380066"/>
 <rect x="408.323975" y="456.174438" width="31.900330" height="6.380066"/>
 <rect x="443.414337" y="456.174438" width="31.900299" height="6.380066"/>
 <rect x="478.504669" y="456.174438" width="31.900330" height="6.380066"/>
 <rect x="513.595032" y="456.174438" width="31.900269" height="6.380066"/>
 <rect x="548.685364" y="456.174438" width="31.900330" height="6.380066"/>
 <rect x="583.775696" y="456.174438" width="31.900330" height="6.380066"/>
 <rect x="618.866028" y="456.174438" width="31.900330" height="6.380066"/>
 <rect x="653.956421" y="456.174438" width="31.900269" height="6.380066"/>
 <rect x="689.046753" y="456.174438" width="31.900269" height="6.380066"/>
 <rect x="724.137085" y="456.174438" width="31.900269" height="6.380066"/>
 <rect x="759.227417" y="456.174438" width="31.900269" height="6.380066"/>
 <rect x="794.317749" y="456.174438" width="31.900330" height="6.380066"/>
 <rect x="829.408081" y="456.174438" width="31.900330" height="6.380066"/>
 <rect x="1020.809937" y="456.174438" width="3.190063" height="3.190063"/>
 <rect x="1020.809937" y="459.364502" width="3.190063" height="3.190002"/>
 <rect x="1020.809937" y="462.554504" width="3.190063" height="3.190033"/>
 <rect x="162.691589" y="465.744537" width="31.900299" height="6.380066"/>
 <rect x="197.781921" y="465.744537" width="31.900330" height="6.380066"/>
 <rect x="232.872284" y="465.744537" width="31.900299" height="6.380066"/>
 <rect x="267.962616" y="465.744537" width="31.900299" height="6.380066"/>
 <rect x="303.052979" y="465.744537" width="31.900299" height="6.380066"/>
 <rect x="338.143311" y="465.744537" width="31.900299" height="6.380066"/>
 <rect x="373.233643" y="465.744537" width="31.900330" height="6.380066"/>
 <rect x="408.323975" y="465.744537" width="31.900330" height="6.380066"/>
 <rect x="443.414337" y="465.744537" width="31.900299" height="6.380066"/>
 <rect x="478.504669" y="465.744537" width="31.900330" height="6.380066"/>
 <rect x="513.595032" y="465.744537" width="31.900269" height="6.380066"/>
 <rect x="548.685364" y="465.744537" width="31.900330" height="6.380066"/>
 <rect x="583.775696" y="465.744537" width="31.900330" height="6.380066"/>
 <rect x="618.866028" y="465.744537" width="31.900330" height="6.380066"/>
 <rect x="653.956421" y="465.744537" width="31.900269" height="6.380066"/>
 <rect x="689.046753" y="465.744537" width="31.900269" height="6.380066"/>
 <rect x="724.137085" y="465.744537" width="31.900269" height="6.380066"/>
 <rect x="759.227417" y="465.744537" width="31.900269" height="6.380066"/>
 <rect x="794.317749" y="465.744537" width="31.900330" height="6.380066"/>
 <rect x="829.408081" y="465.744537" width="31.900330" height="6.380066"/>
 <rect x="1020.809937" y="465.744537" width="3.190063" height="3.190033"/>
 <rect x="1020.809937" y="468.934570" width="3.190063" height="3.190033"/>
 <rect x="1020.809937" y="472.124603" width="3.190063" height="3.190033"/>
 <rect x="162.691589" y="475.314636" width="31.900299" height="6.380066"/>
 <rect x="197.781921" y="475.314636" width="31.900330" height="6.380066"/>
 <rect x="232.872284" y="475.314636" width="31.900299" height="6.380066"/>
 <rect x="267.962616" y="475.314636" width="31.900299" height="6.380066"/>
 <rect x="303.052979" y="475.314636" width="31.900299" height="6.380066"/>
 <rect x="338.143311" y="475.314636" width="31.900299" height="6.380066"/>
 <rect x="373.233643" y="475.314636" width="31.900330" height="6.380066"/>
 <rect x="408.323975" y="475.314636" width="31.900330" height="6.380066"/>
 <rect x="443.414337" y="475.314636" width="31.900299" height="6.380066"/>
 <rect x="478.504669" y="475.314636" width="31.900330" height="6.380066"/>
 <rect x="513.595032" y="475.314636" width="31.900269" height="6.380066"/>
 <rect x="548.685364" y="475.314636" width="31.900330" height="6.380066"/>
 <rect x="583.775696" y="475.314636" width="31.900330" height="6.380066"/>
 <rect x="618.866028" y="475.314636" width="31.900330" height="6.380066"/>
 <rect x="653.956421" y="475.314636" width="31.900269" height="6.380066"/>
 <rect x="689.046753" y="475.314636" width="31.900269" height="6.380066"/>
 <rect x="724.137085" y="475.314636" width="31.900269" height="6.380066"/>
 <rect x="759.227417" y="475.314636" width="31.900269" height="6.380066"/>
 <rect x="794.317749" y="475.314636" width="31.900330" height="6.380066"/>
 <rect x="829.408081" y="475.314636" width="31.900330" height="6.380066"/>
 <rect x="1020.809937" y="475.314636" width="3.190063" height="3.190033"/>
 <rect x="1020.809937" y="478.504669" width="3.190063" height="3.190033"/>
 <rect x="1020.809937" y="481.694702" width="3.190063" height="3.190033"/>
 <rect x="162.691589" y="484.884735" width="31.900299" height="6.380066"/>
 <rect x="197.781921" y="484.884735" width="31.900330" height="6.380066"/>
 <rect x="232.872284" y="484.884735" width="31.900299" height="6.380066"/>
 <rect x="267.962616" y="484.884735" width="31.900299" height="6.380066"/>
 <rect x="303.052979" y="484.884735" width="31.900299" height="6.380066"/>
 <rect x="338.143311" y="484.884735" width="31.900299" height="6.380066"/>
 <rect x="373.233643" y="484.884735" width="31.900330" height="6.380066"/>
 <rect x="408.323975" y="484.884735" width="31.900330" height="6.380066"/>
 <rect x="443.414337" y="484.884735" width="31.900299" height="6.380066"/>
 <rect x="478.504669" y="484.884735" width="31.900330" height="6.380066"/>
 <rect x="513.595032" y="484.884735" width="31.900269" height="6.380066"/>
 <rect x="548.685364" y="484.884735" width="31.900330" height="6.380066"/>
 <rect x="583.775696" y="484.884735" width="31.900330" height="6.380066"/>
 <rect x="618.866028" y="484.884735" width="31.900330" height="6.380066"/>
 <rect x="653.956421" y="484.884735" width="31.900269" height="6.380066"/>
 <rect x="689.046753" y="484.884735" width="31.900269" height="6.380066"/>
 <rect x="724.137085" y="484.884735" width="31.900269" height="6.380066"/>
 <rect x="759.227417" y="484.884735" width="31.900269" height="6.380066"/>
 <rect x="794.317749" y="484.884735" width="31.900330" height="6.380066"/>
 <rect x="829.408081" y="484.884735" width="31.900330" height="6.380066"/>
 <rect x="1020.809937" y="484.884735" width="3.190063" height="3.190033"/>
 <rect x="1020.809937" y="488.074768" width="3.190063" height="3.190033"/>
 <rect x="1020.809937" y="491.264801" width="3.190063" height="3.190033"/>
 <rect x="162.691589" y="494.454834" width="31.900299" height="6.380066"/>
 <rect x="197.781921" y="494.454834" width="31.900330" height="6.380066"/>
 <rect x="232.872284" y="494.454834" width="31.900299" height="6.380066"/>
 <rect x="267.962616" y="494.454834" width="31.900299" height="6.380066"/>
 <rect x="303.052979" y="494.454834" width="31.900299" height="6.380066"/>
 <rect x="338.143311" y="494.454834" width="31.900299" height="6.380066"/>
 <rect x="373.233643" y="494.454834" width="31.900330" height="6.380066"/>
 <rect x="408.323975" y="494.454834" width="31.900330" height="6.380066"/>
 <rect x="443.414337" y="494.454834" width="31.900299" height="6.380066"/>
 <rect x="478.504669" y="494.454834" width="31.900330" height="6.380066"/>
 <rect x="513.595032" y="494.454834" width="31.900269" height="6.380066"/>
 <rect x="548.685364" y="494.454834" width="31.900330" height="6.380066"/>
 <rect x="583.775696" y="494.454834" width="31.900330" height="6.380066"/>
 <rect x="618.866028" y="494.454834" width="31.900330" height="6.380066"/>
 <rect x="653.956421" y="494.454834" width="31.900269" height="6.380066"/>
 <rect x="689.046753" y="494.454834" width="31.900269" height="6.380066"/>
 <rect x="724.137085" y="494.454834" width="31.900269" height="6.380066"/>
 <rect x="759.227417" y="494.454834" width="31.900269" height="6.380066"/>
 <rect x="794.317749" y="494.454834" width="31.900330" height="6.380066"/>
 <rect x="829.408081" y="494.454834" width="31.900330" height="6.380066"/>
 <rect x="1020.809937" y="494.454834" width="3.190063" height="3.190033"/>
 <rect x="1020.809937" y="497.644867" width="3.190063" height="3.190033"/>
 <rect x="1020.809937" y="500.834900" width="3.190063" height="3.190033"/>
 <rect x="162.691589" y="504.024933" width="31.900299" height="6.380066"/>
 <rect x="197.781921" y="504.024933" width="31.900330" height="6.380066"/>
 <rect x="232.872284" y="504.024933" width="31.900299" height="6.380066"/>
 <rect x="267.962616" y="504.024933" width="31.900299" height="6.380066"/>
 <rect x="303.052979" y="504.024933" width="31.900299" height="6.380066"/>
 <rect x="338.143311" y="504.024933" width="31.900299" height="6.380066"/>
 <rect x="373.233643" y="504.024933" width="31.900330" height="6.380066"/>
 <rect x="408.323975" y="504.024933" width="31.900330" height="6.380066"/>
 <rect x="443.414337" y="504.024933" width="31.900299" height="6.380066"/>
 <rect x="478.504669" y="504.024933" width="31.900330" height="6.380066"/>
 <rect x="513.595032" y="504.024933" width="31.900269" height="6.380066"/>
 <rect x="548.685364" y="504.024933" width="31.900330" height="6.380066"/>
 <rect x="583.775696" y="504.024933" width="31.900330" height="6.380066"/>
 <rect x="618.866028" y="504.024933" width="31.900330" height="6.380066"/>
 <rect x="653.956421" y="504.024933" width="31.900269" height="6.380066"/>
 <rect x="689.046753" y="504.024933" width="31.900269" height="6.380066"/>
 <rect x="724.137085" y="504.024933" width="31.900269" height="6.380066"/>
 <rect x="759.227417" y="504.024933" width="31.900269" height="6.380066"/>
 <rect x="794.317749" y="504.024933" width="31.900330" height="6.380066"/>
 <rect x="829.408081" y="504.024933" width="31.900330" height="6.380066"/>
 <rect x="1020.809937" y="504.024933" width="3.190063" height="3.190033"/>
 <rect x="1020.809937" y="507.214966" width="3.190063" height="3.190033"/>
 <rect x="1020.809937" y="510.404999" width="3.190063" height="3.190033"/>
 <rect x="162.691589" y="513.595032" width="31.900299" height="6.380066"/>
 <rect x="197.781921" y="513.595032" width="31.900330" height="6.380066"/>
 <rect x="232.872284" y="513.595032" width="31.900299" height="6.380066"/>
 <rect x="267.962616" y="513.595032" width="31.900299" height="6.380066"/>
 <rect x="303.052979" y="513.595032" width="31.900299" height="6.380066"/>
 <rect x="338.143311" y="513.595032" width="31.900299" height="6.380066"/>
 <rect x="373.233643" y="513.595032" width="31.900330" height="6.380066"/>
 <rect x="408.323975" y="513.595032" width="31.900330" height="6.380066"/>
 <rect x="443.414337" y="513.595032" width="31.900299" height="6.380066"/>
 <rect x="478.504669" y="513.595032" width="31.900330" height="6.380066"/>
 <rect x="513.595032" y="513.595032" width="31.900269" height="6.380066"/>
 <rect x="548.685364" y="513.595032" width="31.900330" height="6.380066"/>
 <rect x="583.775696" y="513.595032" width="31.900330" height="6.380066"/>
 <rect x="618.866028" y="513.595032" width="31.900330" height="6.380066"/>
 <rect x="653.956421" y="513.595032" width="31.900269" height="6.380066"/>
 <rect x="689.046753" y="513.595032" width="31.900269" height="6.380066"/>
 <rect x="724.137085" y="513.595032" width="31.900269" height="6.380066"/>
 <rect x="759.227417" y="513.595032" width="31.900269" height="6.380066"/>
 <rect x="794.317749" y="513.595032" width="31.900330" height="6.380066"/>
 <rect x="829.408081" y="513.595032" width="31.900330" height="6.380066"/>
 <rect x="1020.809937" y="513.595032" width="3.190063" height="3.190002"/>
 <rect x="1020.809937" y="516.785034" width="3.190063" height="3.190063"/>
 <rect x="1020.809937" y="519.975098" width="3.190063" height="3.190002"/>
 <rect x="162.691589" y="523.165100" width="31.900299" height="6.380066"/>
 <rect x="197.781921" y="523.165100" width="31.900330" height="6.380066"/>
 <rect x="232.872284" y="523.165100" width="31.900299" height="6.380066"/>
 <rect x="267.962616" y="523.165100" width="31.900299" height="6.380066"/>
 <rect x="303.052979" y="523.165100" width="31.900299" height="6.380066"/>
 <rect x="338.143311" y="523.165100" width="31.900299" height="6.380066"/>
 <rect x="373.233643" y="523.165100" width="31.900330" height="6.380066"/>
 <rect x="408.323975" y="523.165100" width="31.900330" height="6.380066"/>
 <rect x="443.414337" y="523.165100" width="31.900299" height="6.380066"/>
 <rect x="478.504669" y="523.165100" width="31.900330" height="6.380066"/>
 <rect x="513.595032" y="523.165100" width="31.900269" height="6.380066"/>
 <rect x="548.685364" y="523.165100" width="31.900330" height="6.380066"/>
 <rect x="583.775696" y="523.165100" width="31.900330" height="6.380066"/>
 <rect x="618.866028" y="523.165100" width="31.900330" height="6.380066"/>
 <rect x="653.956421" y="523.165100" width="31.900269" height="6.380066"/>
 <rect x="689.046753" y="523.165100" width="31.900269" height="6.380066"/>
 <rect x="724.137085" y="523.165100" width="31.900269" height="6.380066"/>
 <rect x="759.227417" y="523.165100" width="31.900269" height="6.380066"/>
 <rect x="794.317749" y="523.165100" width="31.900330" height="6.380066"/>
 <rect x="829.408081" y="523.165100" width="31.900330" height="6.380066"/>
 <rect x="1020.809937" y="523.165100" width="3.190063" height="3.190063"/>
 <rect x="1020.809937" y="526.355164" width="3.190063" height="3.190002"/>
 <rect x="1020.809937" y="529.545166" width="3.190063" height="3.190063"/>
 <rect x="162.691589" y="532.735229" width="31.900299" height="6.380005"/>
 <rect x="197.781921" y="532.735229" width="31.900330" height="6.380005"/>
 <rect x="232.872284" y="532.735229" width="31.900299" height="6.380005"/>
 <rect x="267.962616" y="532.735229" width="31.900299" height="6.380005"/>
 <rect x="303.052979" y="532.735229" width="31.900299" height="6.380005"/>
 <rect x="338.143311" y="532.735229" width="31.900299" height="6.380005"/>
 <rect x="373.233643" y="532.735229" width="31.900330" height="6.380005"/>
 <rect x="408.323975" y="532.735229" width="31.900330" height="6.380005"/>
 <rect x="443.414337" y="532.735229" width="31.900299" height="6.380005"/>
 <rect x="478.504669" y="532.735229" width="31.900330" height="6.380005"/>
 <rect x="513.595032" y="532.735229" width="31.900269" height="6.380005"/>
 <rect x="548.685364" y="532.735229" width="31.900330" height="6.380005"/>
 <rect x="583.775696" y="532.735229" width="31.900330" height="6.380005"/>
 <rect x="618.866028" y="532.735229" width="31.900330" height="6.380005"/>
 <rect x="653.956421" y="532.735229" width="31.900269" height="6.380005"/>
 <rect x="689.046753" y="532.735229" width="31.900269" height="6.380005"/>
 <rect x="724.137085" y="532.735229" width="31.900269" height="6.380005"/>
 <rect x="759.227417" y="532.735229" width="31.900269" height="6.380005"/>
 <rect x="794.317749" y="532.735229" width="31.900330" height="6.380005"/>
 <rect x="829.408081" y="532.735229" width="31.900330" height="6.380005"/>
 <rect x="1020.809937" y="532.735229" width="3.190063" height="3.190002"/>
 <rect x="1020.809937" y="535.925232" width="3.190063" height="3.190002"/>
 <rect x="1020.809937" y="539.115234" width="3.190063" height="3.190063"/>
 <rect x="162.691589" y="542.305298" width="31.900299" height="6.380066"/>
 <rect x="197.781921" y="542.305298" width="31.900330" height="6.380066"/>
 <rect x="232.872284" y="542.305298" width="31.900299" height="6.380066"/>
 <rect x="267.962616" y="542.305298" width="31.900299" height="6.380066"/>
 <rect x="303.052979" y="542.305298" width="31.900299" height="6.380066"/>
 <rect x="338.143311" y="542.305298" width="31.900299" height="6.380066"/>
 <rect x="373.233643" y="542.305298" width="31.900330" height="6.380066"/>
 <rect x="408.323975" y="542.305298" width="31.900330" height="6.380066"/>
 <rect x="443.414337" y="542.305298" width="31.900299" height="6.380066"/>
 <rect x="478.504669" y="542.305298" width="31.900330" height="6.380066"/>
 <rect x="513.595032" y="542.305298" width="31.900269" height="6.380066"/>
 <rect x="548.685364" y="542.305298" width="31.900330" height="6.380066"/>
 <rect x="583.775696" y="542.305298" width="31.900330" height="6.380066"/>
 <rect x="618.866028" y="542.305298" width="31.900330" height="6.380066"/>
 <rect x="653.956421" y="542.305298" width="31.900269" height="6.380066"/>
 <rect x="689.046753" y="542.305298" width="31.900269" height="6.380066"/>
 <rect x="724.137085" y="542.305298" width="31.900269" height="6.380066"/>
 <rect x="759.227417" y="542.305298" width="31.900269" height="6.380066"/>
 <rect x="794.317749" y="542.305298" width="31.900330" height="6.380066"/>
 <rect x="829.408081" y="542.305298" width="31.900330" height="6.380066"/>
 <rect x="1020.809937" y="542.305298" width="3.190063" height="3.190002"/>
 <rect x="1020.809937" y="545.495300" width="3.190063" height="3.190063"/>
 <rect x="1020.809937" y="548.685364" width="3.190063" height="3.190002"/>
 <rect x="162.691589" y="551.875366" width="31.900299" height="6.380066"/>
 <rect x="197.781921" y="551.875366" width="31.900330" height="6.380066"/>
 <rect x="232.872284" y="551.875366" width="31.900299" height="6.380066"/>
 <rect x="267.962616" y="551.875366" width="31.900299" height="6.380066"/>
 <rect x="303.052979" y="551.875366" width="31.900299" height="6.380066"/>
 <rect x="338.143311" y="551.875366" width="31.900299" height="6.380066"/>
 <rect x="373.233643" y="551.875366" width="31.900330" height="6.380066"/>
 <rect x="408.323975" y="551.875366" width="31.900330" height="6.380066"/>
 <rect x="443.414337" y="551.875366" width="31.900299" height="6.380066"/>
 <rect x="478.504669" y="551.875366" width="31.900330" height="6.380066"/>
 <rect x="513.595032" y="551.875366" width="31.900269" height="6.380066"/>
 <rect x="548.685364" y="551.875366" width="31.900330" height="6.380066"/>
 <rect x="583.775696" y="551.875366" width="31.900330" height="6.380066"/>
 <rect x="618.866028" y="551.875366" width="31.900330" height="6.380066"/>
 <rect x="653.956421" y="551.875366" width="31.900269" height="6.380066"/>
 <rect x="689.046753" y="551.875366" width="31.900269" height="6.380066"/>
 <rect x="724.137085" y="551.875366" width="31.900269" height="6.380066"/>
 <rect x="759.227417" y="551.875366" width="31.900269" height="6.380066"/>
 <rect x="794.317749" y="551.875366" width="31.900330" height="6.380066"/>
 <rect x="829.408081" y="551.875366" width="31.900330" height="6.380066"/>
 <rect x="1020.809937" y="551.875366" width="3.190063" height="3.190063"/>
 <rect x="1020.809937" y="555.065430" width="3.190063" height="3.190002"/>
 <rect x="1020.809937" y="558.255432" width="3.190063" height="3.190063"/>
 <rect x="162.691589" y="561.445496" width="31.900299" height="6.380066"/>
 <rect x="197.781921" y="561.445496" width="31.900330" height="6.380066"/>
 <rect x="232.872284" y="561.445496" width="31.900299" height="6.380066"/>
 <rect x="267.962616" y="561.445496" width="31.900299" height="6.380066"/>
 <rect x="303.052979" y="561.445496" width="31.900299" height="6.380066"/>
 <rect x="338.143311" y="561.445496" width="31.900299" height="6.380066"/>
 <rect x="373.233643" y="561.445496" width="31.900330" height="6.380066"/>
 <rect x="408.323975" y="561.445496" width="31.900330" height="6.380066"/>
 <rect x="443.414337" y="561.445496" width="31.900299" height="6.380066"/>
 <rect x="478.504669" y="561.445496" width="31.900330" height="6.380066"/>
 <rect x="513.595032" y="561.445496" width="31.900269" height="6.380066"/>
 <rect x="548.685364" y="561.445496" width="31.900330" height="6.380066"/>
 <rect x="583.775696" y="561.445496" width="31.900330" height="6.380066"/>
 <rect x="618.866028" y="561.445496" width="31.900330" height="6.380066"/>
 <rect x="653.956421" y="561.445496" width="31.900269" height="6.380066"/>
 <rect x="689.046753" y="561.445496" width="31.900269" height="6.380066"/>
 <rect x="724.137085" y="561.445496" width="31.900269" height="6.380066"/>
 <rect x="759.227417" y="561.445496" width="31.900269" height="6.380066"/>
 <rect x="794.317749" y="561.445496" width="31.900330" height="6.380066"/>
 <rect x="829.408081" y="561.445496" width="31.900330" height="6.380066"/>
 <rect x="1020.809937" y="561.445496" width="3.190063" height="3.190002"/>
 <rect x="1020.809937" y="564.635498" width="3.190063" height="3.190063"/>
 <rect x="1020.809937" y="567.825562" width="3.190063" height="3.190002"/>
 <rect x="162.691589" y="571.015564" width="31.900299" height="6.380066"/>
 <rect x="197.781921" y="571.015564" width="31.900330" height="6.380066"/>
 <rect x="232.872284" y="571.015564" width="31.900299" height="6.380066"/>
 <rect x="267.962616" y="571.015564" width="31.900299" height="6.380066"/>
 <rect x="303.052979" y="571.015564" width="31.900299" height="6.380066"/>
 <rect x="338.143311" y="571.015564" width="31.900299" height="6.380066"/>
 <rect x="373.233643" y="571.015564" width="31.900330" height="6.380066"/>
 <rect x="408.323975" y="571.015564" width="31.900330" height="6.380066"/>
 <rect x="443.414337" y="571.015564" width="31.900299" height="6.380066"/>
 <rect x="478.504669" y="571.015564" width="31.900330" height="6.380066"/>
 <rect x="513.595032" y="571.015564" width="31.900269" height="6.380066"/>
 <rect x="548.685364" y="571.015564" width="31.900330" height="6.380066"/>
 <rect x="583.775696" y="571.015564" width="31.900330" height="6.380066"/>
 <rect x="618.866028" y="571.015564" width="31.900330" height="6.380066"/>
 <rect x="653.956421" y="571.015564" width="31.900269" height="6.380066"/>
 <rect x="689.046753" y="571.015564" width="31.900269" height="6.380066"/>
 <rect x="724.137085" y="571.015564" width="31.900269" height="6.380066"/>
 <rect x="759.227417" y="571.015564" width="31.900269" height="6.380066"/>
 <rect x="794.317749" y="571.015564" width="31.900330" height="6.380066"/>
 <rect x="829.408081" y="571.015564" width="31.900330" height="6.380066"/>
 <rect x="1020.809937" y="571.015564" width="3.190063" height="3.190063"/>
 <rect x="1020.809937" y="574.205627" width="3.190063" height="3.190002"/>
 <rect x="1020.809937" y="577.395630" width="3.190063" height="3.190063"/>
 <rect x="162.691589" y="580.585693" width="31.900299" height="6.380005"/>
 <rect x="197.781921" y="580.585693" width="31.900330" height="6.380005"/>
 <rect x="232.872284" y="580.585693" width="31.900299" height="6.380005"/>
 <rect x="267.962616" y="580.585693" width="31.900299" height="6.380005"/>
 <rect x="303.052979" y="580.585693" width="31.900299" height="6.380005"/>
 <rect x="338.143311" y="580.585693" width="31.900299" height="6.380005"/>
 <rect x="373.233643" y="580.585693" width="31.900330" height="6.380005"/>
 <rect x="408.323975" y="580.585693" width="31.900330" height="6.380005"/>
 <rect x="443.414337" y="580.585693" width="31.900299" height="6.380005"/>
 <rect x="478.504669" y="580.585693" width="31.900330" height="6.380005"/>
 <rect x="513.595032" y="580.585693" width="31.900269" height="6.380005"/>
 <rect x="548.685364" y="580.585693" width="31.900330" height="6.380005"/>
 <rect x="583.775696" y="580.585693" width="31.900330" height="6.380005"/>
 <rect x="618.866028" y="580.585693" width="31.900330" height="6.380005"/>
 <rect x="653.956421" y="580.585693" width="31.900269" height="6.380005"/>
 <rect x="689.046753" y="580.585693" width="31.900269" height="6.380005"/>
 <rect x="724.137085" y="580.585693" width="31.900269" height="6.380005"/>
 <rect x="759.227417" y="580.585693" width="31.900269" height="6.380005"/>
 <rect x="794.317749" y="580.585693" width="31.900330" height="6.380005"/>
 <rect x="829.408081" y="580.585693" width="31.900330" height="6.380005"/>
 <rect x="1020.809937" y="580.585693" width="3.190063" height="3.190002"/>
 <rect x="1020.809937" y="583.775696" width="3.190063" height="3.190002"/>
 <rect x="1020.809937" y="586.965698" width="3.190063" height="3.190063"/>
 <rect x="162.691589" y="590.155762" width="31.900299" height="6.380066"/>
 <rect x="197.781921" y="590.155762" width="31.900330" height="6.380066"/>
 <rect x="232.872284" y="590.155762" width="31.900299" height="6.380066"/>
 <rect x="267.962616" y="590.155762" width="31.900299" height="6.380066"/>
 <rect x="303.052979" y="590.155762" width="31.900299" height="6.380066"/>
 <rect x="338.143311" y="590.155762" width="31.900299" height="6.380066"/>
 <rect x="373.233643" y="590.155762" width="31.900330" height="6.380066"/>
 <rect x="408.323975" y="590.155762" width="31.900330" height="6.380066"/>
 <rect x="443.414337" y="590.155762" width="31.900299" height="6.380066"/>
 <rect x="478.504669" y="590.155762" width="31.900330" height="6.380066"/>
 <rect x="513.595032" y="590.155762" width="31.900269" height="6.380066"/>
 <rect x="548.685364" y="590.155762" width="31.900330" height="6.380066"/>
 <rect x="583.775696" y="590.155762" width="31.900330" height="6.380066"/>
 <rect x="618.866028" y="590.155762" width="31.900330" height="6.380066"/>
 <rect x="653.956421" y="590.155762" width="31.900269" height="6.380066"/>
 <rect x="689.046753" y="590.155762" width="31.900269" height="6.380066"/>
 <rect x="724.137085" y="590.155762" width="31.900269" height="6.380066"/>
 <rect x="759.227417" y="590.155762" width="31.900269" height="6.380066"/>
 <rect x="794.317749" y="590.155762" width="31.900330" height="6.380066"/>
 <rect x="829.408081" y="590.155762" width="31.900330" height="6.380066"/>
 <rect x="1020.809937" y="590.155762" width="3.190063" height="3.190063"/>
 <rect x="1020.809937" y="593.345825" width="3.190063" height="3.190002"/>
 <rect x="1020.809937" y="596.535828" width="3.190063" height="3.190002"/>
 <rect x="162.691589" y="599.725830" width="31.900299" height="6.380066"/>
 <rect x="197.781921" y="599.725830" width="31.900330" height="6.380066"/>
 <rect x="232.872284" y="599.725830" width="31.900299" height="6.380066"/>
 <rect x="267.962616" y="599.725830" width="31.900299" height="6.380066"/>
 <rect x="303.052979" y="599.725830" width="31.900299" height="6.380066"/>
 <rect x="338.143311" y="599.725830" width="31.900299" height="6.380066"/>
 <rect x="373.233643" y="599.725830" width="31.900330" height="6.380066"/>
 <rect x="408.323975" y="599.725830" width="31.900330" height="6.380066"/>
 <rect x="443.414337" y="599.725830" width="31.900299" height="6.380066"/>
 <rect x="478.504669" y="599.725830" width="31.900330" height="6.380066"/>
 <rect x="513.595032" y="599.725830" width="31.900269" height="6.380066"/>
 <rect x="548.685364" y="599.725830" width="31.900330" height="6.380066"/>
 <rect x="583.775696" y="599.725830" width="31.900330" height="6.380066"/>
 <rect x="618.866028" y="599.725830" width="31.900330" height="6.380066"/>
 <rect x="653.956421" y="599.725830" width="31.900269" height="6.380066"/>
 <rect x="689.046753" y="599.725830" width="31.900269" height="6.380066"/>
 <rect x="724.137085" y="599.725830" width="31.900269" height="6.380066"/>
 <rect x="759.227417" y="599.725830" width="31.900269" height="6.380066"/>
 <rect x="794.317749" y="599.725830" width="31.900330" height="6.380066"/>
 <rect x="829.408081" y="599.725830" width="31.900330" height="6.380066"/>
 <rect x="1020.809937" y="599.725830" width="3.190063" height="3.190063"/>
 <rect x="1020.809937" y="602.915894" width="3.190063" height="3.190002"/>
 <rect x="1020.809937" y="606.105896" width="3.190063" height="3.190063"/>
 <rect x="162.691589" y="609.295959" width="31.900299" height="6.380066"/>
 <rect x="197.781921" y="609.295959" width="31.900330" height="6.380066"/>
 <rect x="232.872284" y="609.295959" width="31.900299" height="6.380066"/>
 <rect x="267.962616" y="609.295959" width="31.900299" height="6.380066"/>
 <rect x="303.052979" y="609.295959" width="31.900299" height="6.380066"/>
 <rect x="338.143311" y="609.295959" width="31.900299" height="6.380066"/>
 <rect x="373.233643" y="609.295959" width="31.900330" height="6.380066"/>
 <rect x="408.323975" y="609.295959" width="31.900330" height="6.380066"/>
 <rect x="443.414337" y="609.295959" width="31.900299" height="6.380066"/>
 <rect x="478.504669" y="609.295959" width="31.900330" height="6.380066"/>
 <rect x="513.595032" y="609.295959" width="31.900269" height="6.380066"/>
 <rect x="548.685364" y="609.295959" width="31.900330" height="6.380066"/>
 <rect x="583.775696" y="609.295959" width="31.900330" height="6.380066"/>
 <rect x="618.866028" y="609.295959" width="31.900330" height="6.380066"/>
 <rect x="653.956421" y="609.295959" width="31.900269" height="6.380066"/>
 <rect x="689.046753" y="609.295959" width="31.900269" height="6.380066"/>
 <rect x="724.137085" y="609.295959" width="31.900269" height="6.380066"/>
 <rect x="759.227417" y="609.295959" width="31.900269" height="6.380066"/>
 <rect x="794.317749" y="609.295959" width="31.900330" height="6.380066"/>
 <rect x="829.408081" y="609.295959" width="31.900330" height="6.380066"/>
 <rect x="1020.809937" y="609.295959" width="3.190063" height="3.190002"/>
 <rect x="1020.809937" y="612.485962" width="3.190063" height="3.190063"/>
 <rect x="1020.809937" y="615.676025" width="3.190063" height="3.190002"/>
 <rect x="162.691589" y="618.866028" width="31.900299" height="6.380066"/>
 <rect x="197.781921" y="618.866028" width="31.900330" height="6.380066"/>
 <rect x="232.872284" y="618.866028" width="31.900299" height="6.380066"/>
 <rect x="267.962616" y="618.866028" width="31.900299" height="6.380066"/>
 <rect x="303.052979" y="618.866028" width="31.900299" height="6.380066"/>
 <rect x="338.143311" y="618.866028" width="31.900299" height="6.380066"/>
 <rect x="373.233643" y="618.866028" width="31.900330" height="6.380066"/>
 <rect x="408.323975" y="618.866028" width="31.900330" height="6.380066"/>
 <rect x="443.414337" y="618.866028" width="31.900299" height="6.380066"/>
 <rect x="478.504669" y="618.866028" width="31.900330" height="6.380066"/>
 <rect x="513.595032" y="618.866028" width="31.900269" height="6.380066"/>
 <rect x="548.685364" y="618.866028" width="31.900330" height="6.380066"/>
 <rect x="583.775696" y="618.866028" width="31.900330" height="6.380066"/>
 <rect x="618.866028" y="618.866028" width="31.900330" height="6.380066"/>
 <rect x="653.956421" y="618.866028" width="31.900269" height="6.380066"/>
 <rect x="689.046753" y="618.866028" width="31.900269" height="6.380066"/>
 <rect x="724.137085" y="618.866028" width="31.900269" height="6.380066"/>
 <rect x="759.227417" y="618.866028" width="31.900269" height="6.380066"/>
 <rect x="794.317749" y="618.866028" width="31.900330" height="6.380066"/>
 <rect x="829.408081" y="618.866028" width="31.900330" height="6.380066"/>
 <rect x="1020.809937" y="618.866028" width="3.190063" height="3.190063"/>
 <rect x="1020.809937" y="622.056091" width="3.190063" height="3.190002"/>
 <rect x="1020.809937" y="625.246094" width="3.190063" height="3.190063"/>
 <rect x="162.691589" y="628.436157" width="31.900299" height="6.380066"/>
 <rect x="197.781921" y="628.436157" width="31.900330" height="6.380066"/>
 <rect x="232.872284" y="628.436157" width="31.900299" height="6.380066"/>
 <rect x="267.962616" y="628.436157" width="31.900299" height="6.380066"/>
 <rect x="303.052979" y="628.436157" width="31.900299" height="6.380066"/>
 <rect x="338.143311" y="628.436157" width="31.900299" height="6.380066"/>
 <rect x="373.233643" y="628.436157" width="31.900330" height="6.380066"/>
 <rect x="408.323975" y="628.436157" width="31.900330" height="6.380066"/>
 <rect x="443.414337" y="628.436157" width="31.900299" height="6.380066"/>
 <rect x="478.504669" y="628.436157" width="31.900330" height="6.380066"/>
 <rect x="513.595032" y="628.436157" width="31.900269" height="6.380066"/>
 <rect x="548.685364" y="628.436157" width="31.900330" height="6.380066"/>
 <rect x="583.775696" y="628.436157" width="31.900330" height="6.380066"/>
 <rect x="618.866028" y="628.436157" width="31.900330" height="6.380066"/>
 <rect x="653.956421" y="628.436157" width="31.900269" height="6.380066"/>
 <rect x="689.046753" y="628.436157" width="31.900269" height="6.380066"/>
 <rect x="724.137085" y="628.436157" width="31.900269" height="6.380066"/>
 <rect x="759.227417" y="628.436157" width="31.900269" height="6.380066"/>
 <rect x="794.317749" y="628.436157" width="31.900330" height="6.380066"/>
 <rect x="829.408081" y="628.436157" width="31.900330" height="6.380066"/>
 <rect x="1020.809937" y="628.436157" width="3.190063" height="3.190002"/>
 <rect x="1020.809937" y="631.626160" width="3.190063" height="3.190063"/>
 <rect x="1020.809937" y="634.816223" width="3.190063" height="3.190002"/>
 <rect x="162.691589" y="638.006226" width="31.900299" height="6.380066"/>
 <rect x="197.781921" y="638.006226" width="31.900330" height="6.380066"/>
 <rect x="232.872284" y="638.006226" width="31.900299" height="6.380066"/>
 <rect x="267.962616" y="638.006226" width="31.900299" height="6.380066"/>
 <rect x="303.052979" y="638.006226" width="31.900299" height="6.380066"/>
 <rect x="338.143311" y="638.006226" width="31.900299" height="6.380066"/>
 <rect x="373.233643" y="638.006226" width="31.900330" height="6.380066"/>
 <rect x="408.323975" y="638.006226" width="31.900330" height="6.380066"/>
 <rect x="443.414337" y="638.006226" width="31.900299" height="6.380066"/>
 <rect x="478.504669" y="638.006226" width="31.900330" height="6.380066"/>
 <rect x="513.595032" y="638.006226" width="31.900269" height="6.380066"/>
 <rect x="548.685364" y="638.006226" width="31.900330" height="6.380066"/>
 <rect x="583.775696" y="638.006226" width="31.900330" height="6.380066"/>
 <rect x="618.866028" y="638.006226" width="31.900330" height="6.380066"/>
 <rect x="653.956421" y="638.006226" width="31.900269" height="6.380066"/>
 <rect x="689.046753" y="638.006226" width="31.900269" height="6.380066"/>
 <rect x="724.137085" y="638.006226" width="31.900269" height="6.380066"/>
 <rect x="759.227417" y="638.006226" width="31.900269" height="6.380066"/>
 <rect x="794.317749" y="638.006226" width="31.900330" height="6.380066"/>
 <rect x="829.408081" y="638.006226" width="31.900330" height="6.380066"/>
 <rect x="1020.809937" y="638.006226" width="3.190063" height="3.190063"/>
 <rect x="1020.809937" y="641.196289" width="3.190063" height="3.190002"/>
 <rect x="1020.809937" y="644.386292" width="3.190063" height="3.190002"/>
 <rect x="162.691589" y="647.576294" width="31.900299" height="6.380127"/>
 <rect x="197.781921" y="647.576294" width="31.900330" height="6.380127"/>
 <rect x="232.872284" y="647.576294" width="31.900299" height="6.380127"/>
 <rect x="267.962616" y="647.576294" width="31.900299" height="6.380127"/>
 <rect x="303.052979" y="647.576294" width="31.900299" height="6.380127"/>
 <rect x="338.143311" y="647.576294" width="31.900299" height="6.380127"/>
 <rect x="373.233643" y="647.576294" width="31.900330" height="6.380127"/>
 <rect x="408.323975" y="647.576294" width="31.900330" height="6.380127"/>
 <rect x="443.414337" y="647.576294" width="31.900299" height="6.380127"/>
 <rect x="478.504669" y="647.576294" width="31.900330" height="6.380127"/>
 <rect x="513.595032" y="647.576294" width="31.900269" height="6.380127"/>
 <rect x="548.685364" y="647.576294" width="31.900330" height="6.380127"/>
 <rect x="583.775696" y="647.576294" width="31.900330" height="6.380127"/>
 <rect x="618.866028" y="647.576294" width="31.900330" height="6.380127"/>
 <rect x="653.956421" y="647.576294" width="31.900269" height="6.380127"/>
 <rect x="689.046753" y="647.576294" width="31.900269" height="6.380127"/>
 <rect x="724.137085" y="647.576294" width="31.900269" height="6.380127"/>
 <rect x="759.227417" y="647.576294" width="31.900269" height="6.380127"/>
 <rect x="794.317749" y="647.576294" width="31.900330" height="6.380127"/>
 <rect x="829.408081" y="647.576294" width="31.900330" height="6.380127"/>
 <rect x="1020.809937" y="647.576294" width="3.190063" height="3.190063"/>
 <rect x="1020.809937" y="650.766357" width="3.190063" height="3.190063"/>
 <rect x="1020.809937" y="653.956421" width="3.190063" height="3.190002"/>
 <rect x="162.691589" y="657.146423" width="31.900299" height="6.380066"/>
 <rect x="197.781921" y="657.146423" width="31.900330" height="6.380066"/>
 <rect x="232.872284" y="657.146423" width="31.900299" height="6.380066"/>
 <rect x="267.962616" y="657.146423" width="31.900299" height="6.380066"/>
 <rect x="303.052979" y="657.146423" width="31.900299" height="6.380066"/>
 <rect x="338.143311" y="657.146423" width="31.900299" height="6.380066"/>
 <rect x="373.233643" y="657.146423" width="31.900330" height="6.380066"/>
 <rect x="408.323975" y="657.146423" width="31.900330" height="6.380066"/>
 <rect x="443.414337" y="657.146423" width="31.900299" height="6.380066"/>
 <rect x="478.504669" y="657.146423" width="31.900330" height="6.380066"/>
 <rect x="513.595032" y="657.146423" width="31.900269" height="6.380066"/>
 <rect x="548.685364" y="657.146423" width="31.900330" height="6.380066"/>
 <rect x="583.775696" y="657.146423" width="31.900330" height="6.380066"/>
 <rect x="618.866028" y="657.146423" width="31.900330" height="6.380066"/>
 <rect x="653.956421" y="657.146423" width="31.900269" height="6.380066"/>
 <rect x="689.046753" y="657.146423" width="31.900269" height="6.380066"/>
 <rect x="724.137085" y="657.146423" width="31.900269" height="6.380066"/>
 <rect x="759.227417" y="657.146423" width="31.900269" height="6.380066"/>
 <rect x="794.317749" y="657.146423" width="31.900330" height="6.380066"/>
 <rect x="829.408081" y="657.146423" width="31.900330" height="6.380066"/>
 <rect x="1020.809937" y="657.146423" width="3.190063" height="3.190002"/>
 <rect x="1020.809937" y="660.336426" width="3.190063" height="3.190063"/>
 <rect x="1020.809937" y="663.526489" width="3.190063" height="3.190002"/>
 <rect x="162.691589" y="666.716492" width="31.900299" height="6.380066"/>
 <rect x="197.781921" y="666.716492" width="31.900330" height="6.380066"/>
 <rect x="232.872284" y="666.716492" width="31.900299" height="6.380066"/>
 <rect x="267.962616" y="666.716492" width="31.900299" height="6.380066"/>
 <rect x="303.052979" y="666.716492" width="31.900299" height="6.380066"/>
 <rect x="338.143311" y="666.716492" width="31.900299" height="6.380066"/>
 <rect x="373.233643" y="666.716492" width="31.900330" height="6.380066"/>
 <rect x="408.323975" y="666.716492" width="31.900330" height="6.380066"/>
 <rect x="443.414337" y="666.716492" width="31.900299" height="6.380066"/>
 <rect x="478.504669" y="666.716492" width="31.900330" height="6.380066"/>
 <rect x="513.595032" y="666.716492" width="31.900269" height="6.380066"/>
 <rect x="548.685364" y="666.716492" width="31.900330" height="6.380066"/>
 <rect x="583.775696" y="666.716492" width="31.900330" height="6.380066"/>
 <rect x="618.866028" y="666.716492" width="31.900330" height="6.380066"/>
 <rect x="653.956421" y="666.716492" width="31.900269" height="6.380066"/>
 <rect x="689.046753" y="666.716492" width="31.900269" height="6.380066"/>
 <rect x="724.137085" y="666.716492" width="31.900269" height="6.380066"/>
 <rect x="759.227417" y="666.716492" width="31.900269" height="6.380066"/>
 <rect x="794.317749" y="666.716492" width="31.900330" height="6.380066"/>
 <rect x="829.408081" y="666.716492" width="31.900330" height="6.380066"/>
 <rect x="1020.809937" y="666.716492" width="3.190063" height="3.190063"/>
 <rect x="1020.809937" y="669.906555" width="3.190063" height="3.190002"/>
 <rect x="1020.809937" y="673.096558" width="3.190063" height="3.190063"/>
 <rect x="162.691589" y="676.286621" width="31.900299" height="6.380066"/>
 <rect x="197.781921" y="676.286621" width="31.900330" height="6.380066"/>
 <rect x="232.872284" y="676.286621" width="31.900299" height="6.380066"/>
 <rect x="267.962616" y="676.286621" width="31.900299" height="6.380066"/>
 <rect x="303.052979" y="676.286621" width="31.900299" height="6.380066"/>
 <rect x="338.143311" y="676.286621" width="31.900299" height="6.380066"/>
 <rect x="373.233643" y="676.286621" width="31.900330" height="6.380066"/>
 <rect x="408.323975" y="676.286621" width="31.900330" height="6.380066"/>
 <rect x="443.414337" y="676.286621" width="31.900299" height="6.380066"/>
 <rect x="478.504669" y="676.286621" width="31.900330" height="6.380066"/>
 <rect x="513.595032" y="676.286621" width="31.900269" height="6.380066"/>
 <rect x="548.685364" y="676.286621" width="31.900330" height="6.380066"/>
 <rect x="583.775696" y="676.286621" width="31.900330" height="6.380066"/>
 <rect x="618.866028" y="676.286621" width="31.900330" height="6.380066"/>
 <rect x="653.956421" y="676.286621" width="31.900269" height="6.380066"/>
 <rect x="689.046753" y="676.286621" width="31.900269" height="6.380066"/>
 <rect x="724.137085" y="676.286621" width="31.900269" height="6.380066"/>
 <rect x="759.227417" y="676.286621" width="31.900269" height="6.380066"/>
 <rect x="794.317749" y="676.286621" width="31.900330" height="6.380066"/>
 <rect x="829.408081" y="676.286621" width="31.900330" height="6.380066"/>
 <rect x="1020.809937" y="676.286621" width="3.190063" height="3.190002"/>
 <rect x="1020.809937" y="679.476624" width="3.190063" height="3.190063"/>
 <rect x="1020.809937" y="682.666687" width="3.190063" height="3.190002"/>
 <rect x="162.691589" y="685.856689" width="31.900299" height="6.380066"/>
 <rect x="197.781921" y="685.856689" width="31.900330" height="6.380066"/>
 <rect x="232.872284" y="685.856689" width="31.900299" height="6.380066"/>
 <rect x="267.962616" y="685.856689" width="31.900299" height="6.380066"/>
 <rect x="303.052979" y="685.856689" width="31.900299" height="6.380066"/>
 <rect x="338.143311" y="685.856689" width="31.900299" height="6.380066"/>
 <rect x="373.233643" y="685.856689" width="31.900330" height="6.380066"/>
 <rect x="408.323975" y="685.856689" width="31.900330" height="6.380066"/>
 <rect x="443.414337" y="685.856689" width="31.900299" height="6.380066"/>
 <rect x="478.504669" y="685.856689" width="31.900330" height="6.380066"/>
 <rect x="513.595032" y="685.856689" width="31.900269" height="6.380066"/>
 <rect x="548.685364" y="685.856689" width="31.900330" height="6.380066"/>
 <rect x="583.775696" y="685.856689" width="31.900330" height="6.380066"/>
 <rect x="618.866028" y="685.856689" width="31.900330" height="6.380066"/>
 <rect x="653.956421" y="685.856689" width="31.900269" height="6.380066"/>
 <rect x="689.046753" y="685.856689" width="31.900269" height="6.380066"/>
 <rect x="724.137085" y="685.856689" width="31.900269" height="6.380066"/>
 <rect x="759.227417" y="685.856689" width="31.900269" height="6.380066"/>
 <rect x="794.317749" y="685.856689" width="31.900330" height="6.380066"/>
 <rect x="829.408081" y="685.856689" width="31.900330" height="6.380066"/>
 <rect x="1020.809937" y="685.856689" width="3.190063" height="3.190063"/>
 <rect x="1020.809937" y="689.046753" width="3.190063" height="3.190002"/>
 <rect x="1020.809937" y="692.236755" width="3.190063" height="3.190002"/>
 <rect x="162.691589" y="695.426758" width="31.900299" height="6.380127"/>
 <rect x="197.781921" y="695.426758" width="31.900330" height="6.380127"/>
 <rect x="232.872284" y="695.426758" width="31.900299" height="6.380127"/>
 <rect x="267.962616" y="695.426758" width="31.900299" height="6.380127"/>
 <rect x="303.052979" y="695.426758" width="31.900299" height="6.380127"/>
 <rect x="338.143311" y="695.426758" width="31.900299" height="6.380127"/>
 <rect x="373.233643" y="695.426758" width="31.900330" height="6.380127"/>
 <rect x="408.323975" y="695.426758" width="31.900330" height="6.380127"/>
 <rect x="443.414337" y="695.426758" width="31.900299" height="6.380127"/>
 <rect x="478.504669" y="695.426758" width="31.900330" height="6.380127"/>
 <rect x="513.595032" y="695.426758" width="31.900269" height="6.380127"/>
 <rect x="548.685364" y="695.426758" width="31.900330" height="6.380127"/>
 <rect x="583.775696" y="695.426758" width="31.900330" height="6.380127"/>
 <rect x="618.866028" y="695.426758" width="31.900330" height="6.380127"/>
 <rect x="653.956421" y="695.426758" width="31.900269" height="6.380127"/>
 <rect x="689.046753" y="695.426758" width="31.900269" height="6.380127"/>
 <rect x="724.137085" y="695.426758" width="31.900269" height="6.380127"/>
 <rect x="759.227417" y="695.426758" width="31.900269" height="6.380127"/>
 <rect x="794.317749" y="695.426758" width="31.900330" height="6.380127"/>
 <rect x="829.408081" y="695.426758" width="31.900330" height="6.380127"/>
 <rect x="1020.809937" y="695.426758" width="3.190063" height="3.190063"/>
 <rect x="1020.809937" y="698.616821" width="3.190063" height="3.190063"/>
 <rect x="1020.809937" y="701.806885" width="3.190063" height="3.190002"/>
 <rect x="3.190033" y="704.996887" width="3.190033" height="3.190002"/>
 <rect x="6.380066" y="704.996887" width="3.190033" height="3.190002"/>
 <rect x="9.570099" y="704.996887" width="3.190033" height="3.190002"/>
 <rect x="12.760132" y="704.996887" width="3.190033" height="3.190002"/>
 <rect x="15.950165" y="704.996887" width="3.190033" height="3.190002"/>
 <rect x="19.140198" y="704.996887" width="3.190033" height="3.190002"/>
 <rect x="22.330231" y="704.996887" width="3.190033" height="3.190002"/>
 <rect x="25.520264" y="704.996887" width="3.190002" height="3.190002"/>
 <rect x="28.710266" y="704.996887" width="3.190033" height="3.190002"/>
 <rect x="31.900299" y="704.996887" width="3.190033" height="3.190002"/>
 <rect x="35.090332" y="704.996887" width="3.190033" height="3.190002"/>
 <rect x="38.280365" y="704.996887" width="3.190033" height="3.190002"/>
 <rect x="41.470398" y="704.996887" width="3.190033" height="3.190002"/>
 <rect x="44.660431" y="704.996887" width="3.190033" height="3.190002"/>
 <rect x="47.850464" y="704.996887" width="3.190033" height="3.190002"/>
 <rect x="51.040497" y="704.996887" width="3.190033" height="3.190002"/>
 <rect x="54.230530" y="704.996887" width="3.190033" height="3.190002"/>
 <rect x="57.420563" y="704.996887" width="3.190033" height="3.190002"/>
 <rect x="60.610596" y="704.996887" width="3.190033" height="3.190002"/>
 <rect x="63.800629" y="704.996887" width="3.190033" height="3.190002"/>
 <rect x="66.990662" y="704.996887" width="3.190033" height="3.190002"/>
 <rect x="70.180695" y="704.996887" width="3.190033" height="3.190002"/>
 <rect x="73.370728" y="704.996887" width="3.190033" height="3.190002"/>
 <rect x="76.560760" y="704.996887" width="3.190033" height="3.190002"/>
 <rect x="79.750793" y="704.996887" width="3.190002" height="3.190002"/>
 <rect x="82.940796" y="704.996887" width="3.190033" height="3.190002"/>
 <rect x="86.130829" y="704.996887" width="3.190033" height="3.190002"/>
 <rect x="89.320862" y="704.996887" width="3.190033" height="3.190002"/>
 <rect x="92.510895" y="704.996887" width="3.190033" height="3.190002"/>
 <rect x="95.700928" y="704.996887" width="3.190033" height="3.190002"/>
 <rect x="98.890961" y="704.996887" width="3.190033" height="3.190002"/>
 <rect x="102.080994" y="704.996887" width="3.190033" height="3.190002"/>
 <rect x="105.271027" y="704.996887" width="3.190033" height="3.190002"/>
 <rect x="108.461060" y="704.996887" width="3.190033" height="3.190002"/>
 <rect x="111.651093" y="704.996887" width="3.190033" height="3.190002"/>
 <rect x="114.841125" y="704.996887" width="3.190033" height="3.190002"/>
 <rect x="118.031158" y="704.996887" width="3.190033" height="3.190002"/>
 <rect x="121.221191" y="704.996887" width="3.190033" height="3.190002"/>
 <rect x="124.411224" y="704.996887" width="3.190033" height="3.190002"/>
 <rect x="127.601257" y="704.996887" width="3.190033" height="3.190002"/>
 <rect x="130.791290" y="704.996887" width="3.190033" height="3.190002"/>
 <rect x="133.981323" y="704.996887" width="3.190002" height="3.190002"/>
 <rect x="137.171326" y="704.996887" width="3.190033" height="3.190002"/>
 <rect x="140.361359" y="704.996887" width="3.190033" height="3.190002"/>
 <rect x="143.551392" y="704.996887" width="3.190033" height="3.190002"/>
 <rect x="146.741425" y="704.996887" width="3.190033" height="3.190002"/>
 <rect x="149.931458" y="704.996887" width="3.190033" height="3.190002"/>
 <rect x="153.121490" y="704.996887" width="3.190033" height="3.190002"/>
 <rect x="156.311523" y="704.996887" width="3.190033" height="3.190002"/>
 <rect x="159.501556" y="704.996887" width="3.190033" height="3.190002"/>
 <rect x="162.691589" y="704.996887" width="3.190033" height="3.190002"/>
 <rect x="165.881622" y="704.996887" width="3.190033" height="3.190002"/>
 <rect x="169.071655" y="704.996887" width="3.190033" height="3.190002"/>
 <rect x="172.261688" y="704.996887" width="3.190033" height="3.190002"/>
 <rect x="175.451721" y="704.996887" width="3.190033" height="3.190002"/>
 <rect x="178.641754" y="704.996887" width="3.190033" height="3.190002"/>
 <rect x="181.831787" y="704.996887" width="3.190033" height="3.190002"/>
 <rect x="185.021820" y="704.996887" width="3.190033" height="3.190002"/>
 <rect x="188.211853" y="704.996887" width="3.190002" height="3.190002"/>
 <rect x="191.401855" y="704.996887" width="3.190033" height="3.190002"/>
 <rect x="194.591888" y="704.996887" width="3.190033" height="3.190002"/>
 <rect x="197.781921" y="704.996887" width="3.190033" height="3.190002"/>
 <rect x="200.971954" y="704.996887" width="3.190033" height="3.190002"/>
 <rect x="204.161987" y="704.996887" width="3.190033" height="3.190002"/>
 <rect x="207.352020" y="704.996887" width="3.190033" height="3.190002"/>
 <rect x="210.542053" y="704.996887" width="3.190033" height="3.190002"/>
 <rect x="213.732086" y="704.996887" width="3.190033" height="3.190002"/>
 <rect x="216.922119" y="704.996887" width="3.190033" height="3.190002"/>
 <rect x="220.112152" y="704.996887" width="3.190033" height="3.190002"/>
 <rect x="223.302185" y="704.996887" width="3.190033" height="3.190002"/>
 <rect x="226.492218" y="704.996887" width="3.190033" height="3.190002"/>
 <rect x="229.682251" y="704.996887" width="3.190033" height="3.190002"/>
 <rect x="232.872284" y="704.996887" width="3.190033" height="3.190002"/>
 <rect x="236.062317" y="704.996887" width="3.190033" height="3.190002"/>
 <rect x="239.252350" y="704.996887" width="3.190033" height="3.190002"/>
 <rect x="242.442383" y="704.996887" width="3.190002" height="3.190002"/>
 <rect x="245.632385" y="704.996887" width="3.190033" height="3.190002"/>
 <rect x="248.822418" y="704.996887" width="3.190033" height="3.190002"/>
 <rect x="252.012451" y="704.996887" width="3.190033" height="3.190002"/>
 <rect x="255.202484" y="704.996887" width="3.190033" height="3.190002"/>
 <rect x="258.392517" y="704.996887" width="3.190033" height="3.190002"/>
 <rect x="261.582550" y="704.996887" width="3.190033" height="3.190002"/>
 <rect x="264.772583" y="704.996887" width="3.190033" height="3.190002"/>
 <rect x="267.962616" y="704.996887" width="3.190033" height="3.190002"/>
 <rect x="271.152649" y="704.996887" width="3.190033" height="3.190002"/>
 <rect x="274.342682" y="704.996887" width="3.190033" height="3.190002"/>
 <rect x="277.532715" y="704.996887" width="3.190033" height="3.190002"/>
 <rect x="280.722748" y="704.996887" width="3.190033" height="3.190002"/>
 <rect x="283.912781" y="704.996887" width="3.190002" height="3.190002"/>
 <rect x="287.102783" y="704.996887" width="3.190063" height="3.190002"/>
 <rect x="290.292847" y="704.996887" width="3.190002" height="3.190002"/>
 <rect x="293.482849" y="704.996887" width="3.190063" height="3.190002"/>
 <rect x="296.672913" y="704.996887" width="3.190002" height="3.190002"/>
 <rect x="299.862915" y="704.996887" width="3.190063" height="3.190002"/>
 <rect x="303.052979" y="704.996887" width="3.190002" height="3.190002"/>
 <rect x="306.242981" y="704.996887" width="3.190063" height="3.190002"/>
 <rect x="309.433044" y="704.996887" width="3.190002" height="3.190002"/>
 <rect x="312.623047" y="704.996887" width="3.190033" height="3.190002"/>
 <rect x="315.813080" y="704.996887" width="3.190033" height="3.190002"/>
 <rect x="319.003113" y="704.996887" width="3.190033" height="3.190002"/>
 <rect x="322.193146" y="704.996887" width="3.190033" height="3.190002"/>
 <rect x="325.383179" y="704.996887" width="3.190033" height="3.190002"/>
 <rect x="328.573212" y="704.996887" width="3.190033" height="3.190002"/>
 <rect x="331.763245" y="704.996887" width="3.190033" height="3.190002"/>
 <rect x="334.953278" y="704.996887" width="3.190033" height="3.190002"/>
 <rect x="338.143311" y="704.996887" width="3.190002" height="3.190002"/>
 <rect x="341.333313" y="704.996887" width="3.190063" height="3.190002"/>
 <rect x="344.523376" y="704.996887" width="3.190002" height="3.190002"/>
 <rect x="347.713379" y="704.996887" width="3.190063" height="3.190002"/>
 <rect x="350.903442" y="704.996887" width="3.190002" height="3.190002"/>
 <rect x="354.093445" y="704.996887" width="3.190063" height="3.190002"/>
 <rect x="357.283508" y="704.996887" width="3.190002" height="3.190002"/>
 <rect x="360.473511" y="704.996887" width="3.190063" height="3.190002"/>
 <rect x="363.663574" y="704.996887" width="3.190002" height="3.190002"/>
 <rect x="366.853577" y="704.996887" width="3.190033" height="3.190002"/>
 <rect x="370.043610" y="704.996887" width="3.190033" height="3.190002"/>
 <rect x="373.233643" y="704.996887" width="3.190033" height="3.190002"/>
 <rect x="376.423676" y="704.996887" width="3.190033" height="3.190002"/>
 <rect x="379.613708" y="704.996887" width="3.190033" height="3.190002"/>
 <rect x="382.803741" y="704.996887" width="3.190033" height="3.190002"/>
 <rect x="385.993774" y="704.996887" width="3.190033" height="3.190002"/>
 <rect x="389.183807" y="704.996887" width="3.190033" height="3.190002"/>
 <rect x="392.373840" y="704.996887" width="3.190033" height="3.190002"/>
 <rect x="395.563873" y="704.996887" width="3.190033" height="3.190002"/>
 <rect x="398.753906" y="704.996887" width="3.190002" height="3.190002"/>
 <rect x="401.943909" y="704.996887" width="3.190063" height="3.190002"/>
 <rect x="405.133972" y="704.996887" width="3.190002" height="3.190002"/>
 <rect x="408.323975" y="704.996887" width="3.190033" height="3.190002"/>
 <rect x="411.514008" y="704.996887" width="3.190033" height="3.190002"/>
 <rect x="414.704041" y="704.996887" width="3.190033" height="3.190002"/>
 <rect x="417.894073" y="704.996887" width="3.190033" height="3.190002"/>
 <rect x="421.084106" y="704.996887" width="3.190033" height="3.190002"/>
 <rect x="424.274139" y="704.996887" width="3.190033" height="3.190002"/>
 <rect x="427.464172" y="704.996887" width="3.190033" height="3.190002"/>
 <rect x="430.654205" y="704.996887" width="3.190033" height="3.190002"/>
 <rect x="433.844238" y="704.996887" width="3.190033" height="3.190002"/>
 <rect x="437.034271" y="704.996887" width="3.190033" height="3.190002"/>
 <rect x="440.224304" y="704.996887" width="3.190033" height="3.190002"/>
 <rect x="443.414337" y="704.996887" width="3.190033" height="3.190002"/>
 <rect x="446.604370" y="704.996887" width="3.190033" height="3.190002"/>
 <rect x="449.794403" y="704.996887" width="3.190033" height="3.190002"/>
 <rect x="452.984436" y="704.996887" width="3.190002" height="3.190002"/>
 <rect x="456.174438" y="704.996887" width="3.190063" height="3.190002"/>
 <rect x="459.364502" y="704.996887" width="3.190002" height="3.190002"/>
 <rect x="462.554504" y="704.996887" width="3.190033" height="3.190002"/>
 <rect x="465.744537" y="704.996887" width="3.190033" height="3.190002"/>
 <rect x="468.934570" y="704.996887" width="3.190033" height="3.190002"/>
 <rect x="472.124603" y="704.996887" width="3.190033" height="3.190002"/>
 <rect x="475.314636" y="704.996887" width="3.190033" height="3.190002"/>
 <rect x="478.504669" y="704.996887" width="3.190033" height="3.190002"/>
 <rect x="481.694702" y="704.996887" width="3.190033" height="3.190002"/>
 <rect x="484.884735" y="704.996887" width="3.190033" height="3.190002"/>
 <rect x="488.074768" y="704.996887" width="3.190033" height="3.190002"/>
 <rect x="491.264801" y="704.996887" width="3.190033" height="3.190002"/>
 <rect x="494.454834" y="704.996887" width="3.190033" height="3.190002"/>
 <rect x="497.644867" y="704.996887" width="3.190033" height="3.190002"/>
 <rect x="500.834900" y="704.996887" width="3.190033" height="3.190002"/>
 <rect x="504.024933" y="704.996887" width="3.190033" height="3.190002"/>
 <rect x="507.214966" y="704.996887" width="3.190033" height="3.190002"/>
 <rect x="510.404999" y="704.996887" width="3.190033" height="3.190002"/>
 <rect x="513.595032" y="704.996887" width="3.190002" height="3.190002"/>
 <rect x="516.785034" y="704.996887" width="3.190063" height="3.190002"/>
 <rect x="519.975098" y="704.996887" width="3.190002" height="3.190002"/>
 <rect x="523.165100" y="704.996887" width="3.190063" height="3.190002"/>
 <rect x="526.355164" y="704.996887" width="3.190002" height="3.190002"/>
 <rect x="529.545166" y="704.996887" width="3.190063" height="3.190002"/>
 <rect x="532.735229" y="704.996887" width="3.190002" height="3.190002"/>
 <rect x="535.925232" y="704.996887" width="3.190002" height="3.190002"/>
 <rect x="539.115234" y="704.996887" width="3.190063" height="3.190002"/>
 <rect x="542.305298" y="704.996887" width="3.190002" height="3.190002"/>
 <rect x="545.495300" y="704.996887" width="3.190063" height="3.190002"/>
 <rect x="548.685364" y="704.996887" width="3.190002" height="3.190002"/>
 <rect x="551.875366" y="704.996887" width="3.190063" height="3.190002"/>
 <rect x="555.065430" y="704.996887" width="3.190002" height="3.190002"/>
 <rect x="558.255432" y="704.996887" width="3.190063" height="3.190002"/>
 <rect x="561.445496" y="704.996887" width="3.190002" height="3.190002"/>
 <rect x="564.635498" y="704.996887" width="3.190063" height="3.190002"/>
 <rect x="567.825562" y="704.996887" width="3.190002" height="3.190002"/>
 <rect x="571.015564" y="704.996887" width="3.190063" height="3.190002"/>
 <rect x="574.205627" y="704.996887" width="3.190002" height="3.190002"/>
 <rect x="577.395630" y="704.996887" width="3.190063" height="3.190002"/>
 <rect x="580.585693" y="704.996887" width="3.190002" height="3.190002"/>
 <rect x="583.775696" y="704.996887" width="3.190002" height="3.190002"/>
 <rect x="586.965698" y="704.996887" width="3.190063" height="3.190002"/>
 <rect x="590.155762" y="704.996887" width="3.190063" height="3.190002"/>
 <rect x="593.345825" y="704.996887" width="3.190002" height="3.190002"/>
 <rect x="596.535828" y="704.996887" width="3.190002" height="3.190002"/>
 <rect x="599.725830" y="704.996887" width="3.190063" height="3.190002"/>
 <rect x="602.915894" y="704.996887" width="3.190002" height="3.190002"/>
 <rect x="606.105896" y="704.996887" width="3.190063" height="3.190002"/>
 <rect x="609.295959" y="704.996887" width="3.190002" height="3.190002"/>
 <rect x="612.485962" y="704.996887" width="3.190063" height="3.190002"/>
 <rect x="615.676025" y="704.996887" width="3.190002" height="3.190002"/>
 <rect x="618.866028" y="704.996887" width="3.190063" height="3.190002"/>
 <rect x="622.056091" y="704.996887" width="3.190002" height="3.190002"/>
 <rect x="625.246094" y="704.996887" width="3.190063" height="3.190002"/>
 <rect x="628.436157" y="704.996887" width="3.190002" height="3.190002"/>
 <rect x="631.626160" y="704.996887" width="3.190063" height="3.190002"/>
 <rect x="634.816223" y="704.996887" width="3.190002" height="3.190002"/>
 <rect x="638.006226" y="704.996887" width="3.190063" height="3.190002"/>
 <rect x="641.196289" y="704.996887" width="3.190002" height="3.190002"/>
 <rect x="644.386292" y="704.996887" width="3.190002" height="3.190002"/>
 <rect x="647.576294" y="704.996887" width="3.190063" height="3.190002"/>
 <rect x="650.766357" y="704.996887" width="3.190063" height="3.190002"/>
 <rect x="653.956421" y="704.996887" width="3.190002" height="3.190002"/>
 <rect x="657.146423" y="704.996887" width="3.190002" height="3.190002"/>
 <rect x="660.336426" y="704.996887" width="3.190063" height="3.190002"/>
 <rect x="663.526489" y="704.996887" width="3.190002" height="3.190002"/>
 <rect x="666.716492" y="704.996887" width="3.190063" height="3.190002"/>
 <rect x="669.906555" y="704.996887" width="3.190002" height="3.190002"/>
 <rect x="673.096558" y="704.996887" width="3.190063" height="3.190002"/>
 <rect x="676.286621" y="704.996887" width="3.190002" height="3.190002"/>
 <rect x="679.476624" y="704.996887" width="3.190063" height="3.190002"/>
 <rect x="682.666687" y="704.996887" width="3.190002" height="3.190002"/>
 <rect x="685.856689" y="704.996887" width="3.190063" height="3.190002"/>
 <rect x="689.046753" y="704.996887" width="3.190002" height="3.190002"/>
 <rect x="692.236755" y="704.996887" width="3.190002" height="3.190002"/>
 <rect x="695.426758" y="704.996887" width="3.190063" height="3.190002"/>
 <rect x="698.616821" y="704.996887" width="3.190063" height="3.190002"/>
 <rect x="701.806885" y="704.996887" width="3.190002" height="3.190002"/>
 <rect x="704.996887" y="704.996887" width="3.190002" height="3.190002"/>
 <rect x="708.186890" y="704.996887" width="3.190063" height="3.190002"/>
 <rect x="711.376953" y="704.996887" width="3.190002" height="3.190002"/>
 <rect x="714.566956" y="704.996887" width="3.190063" height="3.190002"/>
 <rect x="717.757019" y="704.996887" width="3.190002" height="3.190002"/>
 <rect x="720.947021" y="704.996887" width="3.190063" height="3.190002"/>
 <rect x="724.137085" y="704.996887" width="3.190002" height="3.190002"/>
 <rect x="727.327087" y="704.996887" width="3.190063" height="3.190002"/>
 <rect x="730.517151" y="704.996887" width="3.190002" height="3.190002"/>
 <rect x="733.707153" y="704.996887" width="3.190063" height="3.190002"/>
 <rect x="736.897217" y="704.996887" width="3.190002" height="3.190002"/>
 <rect x="740.087219" y="704.996887" width="3.190002" height="3.190002"/>
 <rect x="743.277222" y="704.996887" width="3.190063" height="3.190002"/>
 <rect x="746.467285" y="704.996887" width="3.190063" height="3.190002"/>
 <rect x="749.657349" y="704.996887" width="3.190002" height="3.190002"/>
 <rect x="752.847351" y="704.996887" width="3.190002" height="3.190002"/>
 <rect x="756.037354" y="704.996887" width="3.190063" height="3.190002"/>
 <rect x="759.227417" y="704.996887" width="3.190063" height="3.190002"/>
 <rect x="762.417480" y="704.996887" width="3.190002" height="3.190002"/>
 <rect x="765.607483" y="704.996887" width="3.190002" height="3.190002"/>
 <rect x="768.797485" y="704.996887" width="3.190063" height="3.190002"/>
 <rect x="771.987549" y="704.996887" width="3.190063" height="3.190002"/>
 <rect x="775.177612" y="704.996887" width="3.190002" height="3.190002"/>
 <rect x="778.367615" y="704.996887" width="3.190002" height="3.190002"/>
 <rect x="781.557617" y="704.996887" width="3.190063" height="3.190002"/>
 <rect x="784.747681" y="704.996887" width="3.190002" height="3.190002"/>
 <rect x="787.937683" y="704.996887" width="3.190002" height="3.190002"/>
 <rect x="791.127686" y="704.996887" width="3.190063" height="3.190002"/>
 <rect x="794.317749" y="704.996887" width="3.190063" height="3.190002"/>
 <rect x="797.507812" y="704.996887" width="3.190002" height="3.190002"/>
 <rect x="800.697815" y="704.996887" width="3.190002" height="3.190002"/>
 <rect x="803.887817" y="704.996887" width="3.190063" height="3.190002"/>
 <rect x="807.077881" y="704.996887" width="3.190063" height="3.190002"/>
 <rect x="810.267944" y="704.996887" width="3.190002" height="3.190002"/>
 <rect x="813.457947" y="704.996887" width="3.190002" height="3.190002"/>
 <rect x="816.647949" y="704.996887" width="3.190063" height="3.190002"/>
 <rect x="819.838013" y="704.996887" width="3.190063" height="3.190002"/>
 <rect x="823.028076" y="704.996887" width="3.190002" height="3.190002"/>
 <rect x="826.218079" y="704.996887" width="3.190002" height="3.190002"/>
 <rect x="829.408081" y="704.996887" width="3.190063" height="3.190002"/>
 <rect x="832.598145" y="704.996887" width="3.190002" height="3.190002"/>
 <rect x="835.788147" y="704.996887" width="3.190002" height="3.190002"/>
 <rect x="838.978149" y="704.996887" width="3.190063" height="3.190002"/>
 <rect x="842.168213" y="704.996887" width="3.190063" height="3.190002"/>
 <rect x="845.358276" y="704.996887" width="3.190002" height="3.190002"/>
 <rect x="848.548279" y="704.996887" width="3.190002" height="3.190002"/>
 <rect x="851.738281" y="704.996887" width="3.190063" height="3.190002"/>
 <rect x="854.928345" y="704.996887" width="3.190063" height="3.190002"/>
 <rect x="858.118408" y="704.996887" width="3.190002" height="3.190002"/>
 <rect x="861.308411" y="704.996887" width="3.190002" height="3.190002"/>
 <rect x="864.498413" y="704.996887" width="3.190063" height="3.190002"/>
 <rect x="867.688477" y="704.996887" width="3.190063" height="3.190002"/>
 <rect x="870.878540" y="704.996887" width="3.190002" height="3.190002"/>
 <rect x="874.068542" y="704.996887" width="3.190002" height="3.190002"/>
 <rect x="877.258545" y="704.996887" width="3.190063" height="3.190002"/>
 <rect x="880.448608" y="704.996887" width="3.190063" height="3.190002"/>
 <rect x="883.638672" y="704.996887" width="3.190002" height="3.190002"/>
 <rect x="886.828674" y="704.996887" width="3.190002" height="3.190002"/>
 <rect x="890.018677" y="704.996887" width="3.190063" height="3.190002"/>
 <rect x="893.208740" y="704.996887" width="3.190002" height="3.190002"/>
 <rect x="896.398743" y="704.996887" width="3.190002" height="3.190002"/>
 <rect x="899.588745" y="704.996887" width="3.190063" height="3.190002"/>
 <rect x="902.778809" y="704.996887" width="3.190063" height="3.190002"/>
 <rect x="905.968872" y="704.996887" width="3.190002" height="3.190002"/>
 <rect x="909.158875" y="704.996887" width="3.190002" height="3.190002"/>
 <rect x="912.348877" y="704.996887" width="3.190063" height="3.190002"/>
 <rect x="915.538940" y="704.996887" width="3.190063" height="3.190002"/>
 <rect x="918.729004" y="704.996887" width="3.190002" height="3.190002"/>
 <rect x="921.919006" y="704.996887" width="3.190002" height="3.190002"/>
 <rect x="925.109009" y="704.996887" width="3.190063" height="3.190002"/>
 <rect x="928.299072" y="704.996887" width="3.190063" height="3.190002"/>
 <rect x="931.489136" y="704.996887" width="3.190002" height="3.190002"/>
 <rect x="934.679138" y="704.996887" width="3.190002" height="3.190002"/>
 <rect x="937.869141" y="704.996887" width="3.190063" height="3.190002"/>
 <rect x="941.059204" y="704.996887" width="3.190002" height="3.190002"/>
 <rect x="944.249207" y="704.996887" width="3.190002" height="3.190002"/>
 <rect x="947.439209" y="704.996887" width="3.190063" height="3.190002"/>
 <rect x="950.629272" y="704.996887" width="3.190063" height="3.190002"/>
 <rect x="953.819336" y="704.996887" width="3.190002" height="3.190002"/>
 <rect x="957.009338" y="704.996887" width="3.190002" height="3.190002"/>
 <rect x="960.199341" y="704.996887" width="3.190063" height="3.190002"/>
 <rect x="963.389404" y="704.996887" width="3.190063" height="3.190002"/>
 <rect x="966.579468" y="704.996887" width="3.190002" height="3.190002"/>
 <rect x="969.769470" y="704.996887" width="3.190002" height="3.190002"/>
 <rect x="972.959473" y="704.996887" width="3.190063" height="3.190002"/>
 <rect x="976.149536" y="704.996887" width="3.190063" height="3.190002"/>
 <rect x="979.339600" y="704.996887" width="3.190002" height="3.190002"/>
 <rect x="982.529602" y="704.996887" width="3.190002" height="3.190002"/>
 <rect x="985.719604" y="704.996887" width="3.190063" height="3.190002"/>
 <rect x="988.909668" y="704.996887" width="3.190063" height="3.190002"/>
 <rect x="992.099731" y="704.996887" width="3.190002" height="3.190002"/>
 <rect x="995.289734" y="704.996887" width="3.190002" height="3.190002"/>
 <rect x="998.479736" y="704.996887" width="3.190063" height="3.190002"/>
 <rect x="1001.669800" y="704.996887" width="3.190002" height="3.190002"/>
 <rect x="1004.859802" y="704.996887" width="3.190002" height="3.190002"/>
 <rect x="1008.049805" y="704.996887" width="3.190063" height="3.190002"/>
 <rect x="1011.239868" y="704.996887" width="3.190063" height="3.190002"/>
 <rect x="1014.429932" y="704.996887" width="3.190002" height="3.190002"/>
 <rect x="1017.619934" y="704.996887" width="3.190002" height="3.190002"/>
 <rect x="1020.809937" y="704.996887" width="3.190063" height="3.190002"/>
</g>
</svg>