<svg xmlns="http://www.w3.org/2000/svg" version="1.1" width = "1027" height = "1027" viewBox = "-1 -1 1026 1026"  preserveAspectRatio = "none">
<rect x="0.000000" y="0.000000" width="1024.00000000" height="1024.00000000" style="fill:rgb(0,0,0);" /><rect x="0.000000" y="265.035278" width="1024.00000000" height="493.92944336" style="fill:rgb(229,229,229);" /><g style="fill:rgb(0,127,0);">
 <rect x="0.000000" y="265.035278" width="3.011780" height="493.929443"/>
 <rect x="3.011780" y="265.035278" width="1020.988220" height="3.011780"/>
 <rect x="1020.988220" y="268.047058" width="3.011780" height="3.011780"/>
 <rect x="1020.988220" y="271.058838" width="3.011780" height="3.011749"/>
 <rect x="153.600006" y="274.070587" width="30.117645" height="6.023529"/>
 <rect x="189.741180" y="274.070587" width="30.117645" height="6.023529"/>
 <rect x="225.882355" y="274.070587" width="30.117645" height="6.023529"/>
 <rect x="262.023529" y="274.070587" width="30.117645" height="6.023529"/>
 <rect x="298.164703" y="274.070587" width="30.117645" height="6.023529"/>
 <rect x="334.305878" y="274.070587" width="30.117645" height="6.023529"/>
 <rect x="370.447052" y="274.070587" width="30.117645" height="6.023529"/>
 <rect x="406.588226" y="274.070587" width="30.117645" height="6.023529"/>
 <rect x="442.729401" y="274.070587" width="30.117645" height="6.023529"/>
 <rect x="478.870575" y="274.070587" width="30.117645" height="6.023529"/>
 <rect x="515.011780" y="274.070587" width="30.117615" height="6.023529"/>
 <rect x="551.152954" y="274.070587" width="30.117615" height="6.023529"/>
 <rect x="587.294128" y="274.070587" width="30.117615" height="6.023529"/>
 <rect x="623.435303" y="274.070587" width="30.117676" height="6.023529"/>
 <rect x="659.576477" y="274.070587" width="30.117615" height="6.023529"/>
 <rect x="695.717651" y="274.070587" width="30.117676" height="6.023529"/>
 <rect x="731.858826" y="274.070587" width="30.117615" height="6.023529"/>
 <rect x="768.000000" y="274.070587" width="30.117676" height="6.023529"/>
 <rect x="804.141174" y="274.070587" width="30.117615" height="6.023529"/>
 <rect x="840.282349" y="274.070587" width="30.117676" height="6.023529"/>
 <rect x="1020.988220" y="274.070587" width="3.011780" height="3.011749"/>
 <rect x="1020.988220" y="277.082336" width="3.011780" height="3.011780"/>
 <rect x="1020.988220" y="280.094116" width="3.011780" height="3.011780"/>
 <rect x="1020.988220" y="283.105896" width="3.011780" height="3.011749"/>
 <rect x="153.600006" y="286.117645" width="30.117645" height="6.023529"/>
 <rect x="189.741180" y="286.117645" width="30.117645" height="6.023529"/>
 <rect x="225.882355" y="286.117645" width="30.117645" height="6.023529"/>
 <rect x="262.023529" y="286.117645" width="30.117645" height="6.023529"/>
 <rect x="298.164703" y="286.117645" width="30.117645" height="6.023529"/>
 <rect x="334.305878" y="286.117645" width="30.117645" height="6.023529"/>
 <rect x="370.447052" y="286.117645" width="30.117645" height="6.023529"/>
 <rect x="406.588226" y="286.117645" width="30.117645" height="6.023529"/>
 <rect x="442.729401" y="286.117645" width="30.117645" height="6.023529"/>
 <rect x="478.870575" y="286.117645" width="30.117645" height="6.023529"/>
 <rect x="515.011780" y="286.117645" width="30.117615" height="6.023529"/>
 <rect x="551.152954" y="286.117645" width="30.117615" height="6.023529"/>
 <rect x="587.294128" y="286.117645" width="30.117615" height="6.023529"/>
 <rect x="623.435303" y="286.117645" width="30.117676" height="6.023529"/>
 <rect x="659.576477" y="286.117645" width="30.117615" height="6.023529"/>
 <rect x="695.717651" y="286.117645" width="30.117676" height="6.023529"/>
 <rect x="731.858826" y="286.117645" width="30.117615" height="6.023529"/>
 <rect x="768.000000" y="286.117645" width="30.117676" height="6.023529"/>
 <rect x="804.141174" y="286.117645" width="30.117615" height="6.023529"/>
 <rect x="840.282349" y="286.117645" width="30.117676" height="6.023529"/>
 <rect x="1020.988220" y="286.117645" width="3.011780" height="3.011749"/>
 <rect x="1020.988220" y="289.129395" width="3.011780" height="3.011780"/>
 <rect x="1020.988220" y="292.141174" width="3.011780" height="3.011780"/>
 <rect x="1020.988220" y="295.152954" width="3.011780" height="3.011749"/>
 <rect x="153.600006" y="298.164703" width="30.117645" height="6.023529"/>
 <rect x="189.741180" y="298.164703" width="30.117645" height="6.023529"/>
 <rect x="225.882355" y="298.164703" width="30.117645" height="6.023529"/>
 <rect x="262.023529" y="298.164703" width="30.117645" height="6.023529"/>
 <rect x="298.164703" y="298.164703" width="30.117645" height="6.023529"/>
 <rect x="334.305878" y="298.164703" width="30.117645" height="6.023529"/>
 <rect x="370.447052" y="298.164703" width="30.117645" height="6.023529"/>
 <rect x="406.588226" y="298.164703" width="30.117645" height="6.023529"/>
 <rect x="442.729401" y="298.164703" width="30.117645" height="6.023529"/>
 <rect x="478.870575" y="298.164703" width="30.117645" height="6.023529"/>
 <rect x="515.011780" y="298.164703" width="30.117615" height="6.023529"/>
 <rect x="551.152954" y="298.164703" width="30.117615" height="6.023529"/>
 <rect x="587.294128" y="298.164703" width="30.117615" height="6.023529"/>
 <rect x="623.435303" y="298.164703" width="30.117676" height="6.023529"/>
 <rect x="659.576477" y="298.164703" width="30.117615" height="6.023529"/>
 <rect x="695.717651" y="298.164703" width="30.117676" height="6.023529"/>
 <rect x="731.858826" y="298.164703" width="30.117615" height="6.023529"/>
 <rect x="768.000000" y="298.164703" width="30.117676" height="6.023529"/>
 <rect x="804.141174" y="298.164703" width="30.117615" height="6.023529"/>
 <rect x="840.282349" y="298.164703" width="30.117676" height="6.023529"/>
 <rect x="1020.988220" y="298.164703" width="3.011780" height="3.011749"/>
 <rect x="1020.988220" y="301.176453" width="3.011780" height="3.011780"/>
 <rect x="1020.988220" y="304.188232" width="3.011780" height="3.011780"/>
 <rect x="1020.988220" y="307.200012" width="3.011780" height="3.011749"/>
 <rect x="153.600006" y="310.211761" width="30.117645" height="6.023529"/>
 <rect x="189.741180" y="310.211761" width="30.117645" height="6.023529"/>
 <rect x="225.882355" y="310.211761" width="30.117645" height="6.023529"/>
 <rect x="262.023529" y="310.211761" width="30.117645" height="6.023529"/>
 <rect x="298.164703" y="310.211761" width="30.117645" height="6.023529"/>
 <rect x="334.305878" y="310.211761" width="30.117645" height="6.023529"/>
 <rect x="370.447052" y="310.211761" width="30.117645" height="6.023529"/>
 <rect x="406.588226" y="310.211761" width="30.117645" height="6.023529"/>
 <rect x="442.729401" y="310.211761" width="30.117645" height="6.023529"/>
 <rect x="478.870575" y="310.211761" width="30.117645" height="6.023529"/>
 <rect x="515.011780" y="310.211761" width="30.117615" height="6.023529"/>
 <rect x="551.152954" y="310.211761" width="30.117615" height="6.023529"/>
 <rect x="587.294128" y="310.211761" width="30.117615" height="6.023529"/>
 <rect x="623.435303" y="310.211761" width="30.117676" height="6.023529"/>
 <rect x="659.576477" y="310.211761" width="30.117615" height="6.023529"/>
 <rect x="695.717651" y="310.211761" width="30.117676" height="6.023529"/>
 <rect x="731.858826" y="310.211761" width="30.117615" height="6.023529"/>
 <rect x="768.000000" y="310.211761" width="30.117676" height="6.023529"/>
 <rect x="804.141174" y="310.211761" width="30.117615" height="6.023529"/>
 <rect x="840.282349" y="310.211761" width="30.117676" height="6.023529"/>
 <rect x="1020.988220" y="310.211761" width="3.011780" height="3.011749"/>
 <rect x="1020.988220" y="313.223511" width="3.011780" height="3.011780"/>
 <rect x="1020.988220" y="316.235291" width="3.011780" height="3.011780"/>
 <rect x="1020.988220" y="319.247070" width="3.011780" height="3.011749"/>
 <rect x="153.600006" y="322.258820" width="30.117645" height="6.023529"/>
 <rect x="189.741180" y="322.258820" width="30.117645" height="6.023529"/>
 <rect x="225.882355" y="322.258820" width="30.117645" height="6.023529"/>
 <rect x="262.023529" y="322.258820" width="30.117645" height="6.023529"/>
 <rect x="298.164703" y="322.258820" width="30.117645" height="6.023529"/>
 <rect x="334.305878" y="322.258820" width="30.117645" height="6.023529"/>
 <rect x="370.447052" y="322.258820" width="30.117645" height="6.023529"/>
 <rect x="406.588226" y="322.258820" width="30.117645" height="6.023529"/>
 <rect x="442.729401" y="322.258820" width="30.117645" height="6.023529"/>
 <rect x="478.870575" y="322.258820" width="30.117645" height="6.023529"/>
 <rect x="515.011780" y="322.258820" width="30.117615" height="6.023529"/>
 <rect x="551.152954" y="322.258820" width="30.117615" height="6.023529"/>
 <rect x="587.294128" y="322.258820" width="30.117615" height="6.023529"/>
 <rect x="623.435303" y="322.258820" width="30.117676" height="6.023529"/>
 <rect x="659.576477" y="322.258820" width="30.117615" height="6.023529"/>
 <rect x="695.717651" y="322.258820" width="30.117676" height="6.023529"/>
 <rect x="731.858826" y="322.258820" width="30.117615" height="6.023529"/>
 <rect x="768.000000" y="322.258820" width="30.117676" height="6.023529"/>
 <rect x="804.141174" y="322.258820" width="30.117615" height="6.023529"/>
 <rect x="840.282349" y="322.258820" width="30.117676" height="6.023529"/>
 <rect x="1020.988220" y="322.258820" width="3.011780" height="3.011749"/>
 <rect x="1020.988220" y="325.270569" width="3.011780" height="3.011780"/>
 <rect x="1020.988220" y="328.282349" width="3.011780" height="3.011780"/>
 <rect x="1020.988220" y="331.294128" width="3.011780" height="3.011749"/>
 <rect x="153.600006" y="334.305878" width="30.117645" height="6.023529"/>
 <rect x="189.741180" y="334.305878" width="30.117645" height="6.023529"/>
 <rect x="225.882355" y="334.305878" width="30.117645" height="6.023529"/>
 <rect x="262.023529" y="334.305878" width="30.117645" height="6.023529"/>
 <rect x="298.164703" y="334.305878" width="30.117645" height="6.023529"/>
 <rect x="334.305878" y="334.305878" width="30.117645" height="6.023529"/>
 <rect x="370.447052" y="334.305878" width="30.117645" height="6.023529"/>
 <rect x="406.588226" y="334.305878" width="30.117645" height="6.023529"/>
 <rect x="442.729401" y="334.305878" width="30.117645" height="6.023529"/>
 <rect x="478.870575" y="334.305878" width="30.117645" height="6.023529"/>
 <rect x="515.011780" y="334.305878" width="30.117615" height="6.023529"/>
 <rect x="551.152954" y="334.305878" width="30.117615" height="6.023529"/>
 <rect x="587.294128" y="334.305878" width="30.117615" height="6.023529"/>
 <rect x="623.435303" y="334.305878" width="30.117676" height="6.023529"/>
 <rect x="659.576477" y="334.305878" width="30.117615" height="6.023529"/>
 <rect x="695.717651" y="334.305878" width="30.117676" height="6.023529"/>
 <rect x="731.858826" y="334.305878" width="30.117615" height="6.023529"/>
 <rect x="768.000000" y="334.305878" width="30.117676" height="6.023529"/>
 <rect x="804.141174" y="334.305878" width="30.117615" height="6.023529"/>
 <rect x="840.282349" y="334.305878" width="30.117676" height="6.023529"/>
 <rect x="1020.988220" y="334.305878" width="3.011780" height="3.011749"/>
 <rect x="1020.988220" y="337.317627" width="3.011780" height="3.011780"/>
 <rect x="1020.988220" y="340.329407" width="3.011780" height="3.011780"/>
 <rect x="1020.988220" y="343.341187" width="3.011780" height="3.011749"/>
 <rect x="153.600006" y="346.352936" width="30.117645" height="6.023529"/>
 <rect x="189.741180" y="346.352936" width="30.117645" height="6.023529"/>
 <rect x="225.882355" y="346.352936" width="30.117645" height="6.023529"/>
 <rect x="262.023529" y="346.352936" width="30.117645" height="6.023529"/>
 <rect x="298.164703" y="346.352936" width="30.117645" height="6.023529"/>
 <rect x="334.305878" y="346.352936" width="30.117645" height="6.023529"/>
 <rect x="370.447052" y="346.352936" width="30.117645" height="6.023529"/>
 <rect x="406.588226" y="346.352936" width="30.117645" height="6.023529"/>
 <rect x="442.729401" y="346.352936" width="30.117645" height="6.023529"/>
 <rect x="478.870575" y="346.352936" width="30.117645" height="6.023529"/>
 <rect x="515.011780" y="346.352936" width="30.117615" height="6.023529"/>
 <rect x="551.152954" y="346.352936" width="30.117615" height="6.023529"/>
 <rect x="587.294128" y="346.352936" width="30.117615" height="6.023529"/>
 <rect x="623.435303" y="346.352936" width="30.117676" height="6.023529"/>
 <rect x="659.576477" y="346.352936" width="30.117615" height="6.023529"/>
 <rect x="695.717651" y="346.352936" width="30.117676" height="6.023529"/>
 <rect x="731.858826" y="346.352936" width="30.117615" height="6.023529"/>
 <rect x="768.000000" y="346.352936" width="30.117676" height="6.023529"/>
 <rect x="804.141174" y="346.352936" width="30.117615" height="6.023529"/>
 <rect x="840.282349" y="346.352936" width="30.117676" height="6.023529"/>
 <rect x="1020.988220" y="346.352936" width="3.011780" height="3.011749"/>
 <rect x="1020.988220" y="349.364685" width="3.011780" height="3.011780"/>
 <rect x="1020.988220" y="352.376465" width="3.011780" height="3.011780"/>
 <rect x="1020.988220" y="355.388245" width="3.011780" height="3.011749"/>
 <rect x="153.600006" y="358.399994" width="30.117645" height="6.023529"/>
 <rect x="189.741180" y="358.399994" width="30.117645" height="6.023529"/>
 <rect x="225.882355" y="358.399994" width="30.117645" height="6.023529"/>
 <rect x="262.023529" y="358.399994" width="30.117645" height="6.023529"/>
 <rect x="298.164703" y="358.399994" width="30.117645" height="6.023529"/>
 <rect x="334.305878" y="358.399994" width="30.117645" height="6.023529"/>
 <rect x="370.447052" y="358.399994" width="30.117645" height="6.023529"/>
 <rect x="406.588226" y="358.399994" width="30.117645" height="6.023529"/>
 <rect x="442.729401" y="358.399994" width="30.117645" height="6.023529"/>
 <rect x="478.870575" y="358.399994" width="30.117645" height="6.023529"/>
 <rect x="515.011780" y="358.399994" width="30.117615" height="6.023529"/>
 <rect x="551.152954" y="358.399994" width="30.117615" height="6.023529"/>
 <rect x="587.294128" y="358.399994" width="30.117615" height="6.023529"/>
 <rect x="623.435303" y="358.399994" width="30.117676" height="6.023529"/>
 <rect x="659.576477" y="358.399994" width="30.117615" height="6.023529"/>
 <rect x="695.717651" y="358.399994" width="30.117676" height="6.023529"/>
 <rect x="731.858826" y="358.399994" width="30.117615" height="6.023529"/>
 <rect x="768.000000" y="358.399994" width="30.117676" height="6.023529"/>
 <rect x="804.141174" y="358.399994" width="30.117615" height="6.023529"/>
 <rect x="840.282349" y="358.399994" width="30.117676" height="6.023529"/>
 <rect x="1020.988220" y="358.399994" width="3.011780" height="3.011749"/>
 <rect x="1020.988220" y="361.411743" width="3.011780" height="3.011780"/>
 <rect x="1020.988220" y="364.423523" width="3.011780" height="3.011780"/>
 <rect x="1020.988220" y="367.435303" width="3.011780" height="3.011749"/>
 <rect x="153.600006" y="370.447052" width="30.117645" height="6.023529"/>
 <rect x="189.741180" y="370.447052" width="30.117645" height="6.023529"/>
 <rect x="225.882355" y="370.447052" width="30.117645" height="6.023529"/>
 <rect x="262.023529" y="370.447052" width="30.117645" height="6.023529"/>
 <rect x="298.164703" y="370.447052" width="30.117645" height="6.023529"/>
 <rect x="334.305878" y="370.447052" width="30.117645" height="6.023529"/>
 <rect x="370.447052" y="370.447052" width="30.117645" height="6.023529"/>
 <rect x="406.588226" y="370.447052" width="30.117645" height="6.023529"/>
 <rect x="442.729401" y="370.447052" width="30.117645" height="6.023529"/>
 <rect x="478.870575" y="370.447052" width="30.117645" height="6.023529"/>
 <rect x="515.011780" y="370.447052" width="30.117615" height="6.023529"/>
 <rect x="551.152954" y="370.447052" width="30.117615" height="6.023529"/>
 <rect x="587.294128" y="370.447052" width="30.117615" height="6.023529"/>
 <rect x="623.435303" y="370.447052" width="30.117676" height="6.023529"/>
 <rect x="659.576477" y="370.447052" width="30.117615" height="6.023529"/>
 <rect x="695.717651" y="370.447052" width="30.117676" height="6.023529"/>
 <rect x="731.858826" y="370.447052" width="30.117615" height="6.023529"/>
 <rect x="768.000000" y="370.447052" width="30.117676" height="6.023529"/>
 <rect x="804.141174" y="370.447052" width="30.117615" height="6.023529"/>
 <rect x="840.282349" y="370.447052" width="30.117676" height="6.023529"/>
 <rect x="1020.988220" y="370.447052" width="3.011780" height="3.011749"/>
 <rect x="1020.988220" y="373.458801" width="3.011780" height="3.011780"/>
 <rect x="1020.988220" y="376.470581" width="3.011780" height="3.011780"/>
 <rect x="1020.988220" y="379.482361" width="3.011780" height="3.011749"/>
 <rect x="153.600006" y="382.494110" width="30.117645" height="6.023529"/>
 <rect x="189.741180" y="382.494110" width="30.117645" height="6.023529"/>
 <rect x="225.882355" y="382.494110" width="30.117645" height="6.023529"/>
 <rect x="262.023529" y="382.494110" width="30.117645" height="6.023529"/>
 <rect x="298.164703" y="382.494110" width="30.117645" height="6.023529"/>
 <rect x="334.305878" y="382.494110" width="30.117645" height="6.023529"/>
 <rect x="370.447052" y="382.494110" width="30.117645" height="6.023529"/>
 <rect x="406.588226" y="382.494110" width="30.117645" height="6.023529"/>
 <rect x="442.729401" y="382.494110" width="30.117645" height="6.023529"/>
 <rect x="478.870575" y="382.494110" width="30.117645" height="6.023529"/>
 <rect x="515.011780" y="382.494110" width="30.117615" height="6.023529"/>
 <rect x="551.152954" y="382.494110" width="30.117615" height="6.023529"/>
 <rect x="587.294128" y="382.494110" width="30.117615" height="6.023529"/>
 <rect x="623.435303" y="382.494110" width="30.117676" height="6.023529"/>
 <rect x="659.576477" y="382.494110" width="30.117615" height="6.023529"/>
 <rect x="695.717651" y="382.494110" width="30.117676" height="6.023529"/>
 <rect x="731.858826" y="382.494110" width="30.117615" height="6.023529"/>
 <rect x="768.000000" y="382.494110" width="30.117676" height="6.023529"/>
 <rect x="804.141174" y="382.494110" width="30.117615" height="6.023529"/>
 <rect x="840.282349" y="382.494110" width="30.117676" height="6.023529"/>
 <rect x="1020.988220" y="382.494110" width="3.011780" height="3.011780"/>
 <rect x="1020.988220" y="385.505890" width="3.011780" height="3.011749"/>
 <rect x="1020.988220" y="388.517639" width="3.011780" height="3.011780"/>
 <rect x="1020.988220" y="391.529419" width="3.011780" height="3.011749"/>
 <rect x="153.600006" y="394.541168" width="30.117645" height="6.023529"/>
 <rect x="189.741180" y="394.541168" width="30.117645" height="6.023529"/>
 <rect x="225.882355" y="394.541168" width="30.117645" height="6.023529"/>
 <rect x="262.023529" y="394.541168" width="30.117645" height="6.023529"/>
 <rect x="298.164703" y="394.541168" width="30.117645" height="6.023529"/>
 <rect x="334.305878" y="394.541168" width="30.117645" height="6.023529"/>
 <rect x="370.447052" y="394.541168" width="30.117645" height="6.023529"/>
 <rect x="406.588226" y="394.541168" width="30.117645" height="6.023529"/>
 <rect x="442.729401" y="394.541168" width="30.117645" height="6.023529"/>
 <rect x="478.870575" y="394.541168" width="30.117645" height="6.023529"/>
 <rect x="515.011780" y="394.541168" width="30.117615" height="6.023529"/>
 <rect x="551.152954" y="394.541168" width="30.117615" height="6.023529"/>
 <rect x="587.294128" y="394.541168" width="30.117615" height="6.023529"/>
 <rect x="623.435303" y="394.541168" width="30.117676" height="6.023529"/>
 <rect x="659.576477" y="394.541168" width="30.117615" height="6.023529"/>
 <rect x="695.717651" y="394.541168" width="30.117676" height="6.023529"/>
 <rect x="731.858826" y="394.541168" width="30.117615" height="6.023529"/>
 <rect x="768.000000" y="394.541168" width="30.117676" height="6.023529"/>
 <rect x="804.141174" y="394.541168" width="30.117615" height="6.023529"/>
 <rect x="840.282349" y="394.541168" width="30.117676" height="6.023529"/>
 <rect x="1020.988220" y="394.541168" width="3.011780" height="3.011780"/>
 <rect x="1020.988220" y="397.552948" width="3.011780" height="3.011749"/>
 <rect x="1020.988220" y="400.564697" width="3.011780" height="3.011780"/>
 <rect x="1020.988220" y="403.576477" width="3.011780" height="3.011749"/>
 <rect x="153.600006" y="406.588226" width="30.117645" height="6.023529"/>
 <rect x="189.741180" y="406.588226" width="30.117645" height="6.023529"/>
 <rect x="225.882355" y="406.588226" width="30.117645" height="6.023529"/>
 <rect x="262.023529" y="406.588226" width="30.117645" height="6.023529"/>
 <rect x="298.164703" y="406.588226" width="30.117645" height="6.023529"/>
 <rect x="334.305878" y="406.588226" width="30.117645" height="6.023529"/>
 <rect x="370.447052" y="406.588226" width="30.117645" height="6.023529"/>
 <rect x="406.588226" y="406.588226" width="30.117645" height="6.023529"/>
 <rect x="442.729401" y="406.588226" width="30.117645" height="6.023529"/>
 <rect x="478.870575" y="406.588226" width="30.117645" height="6.023529"/>
 <rect x="515.011780" y="406.588226" width="30.117615" height="6.023529"/>
 <rect x="551.152954" y="406.588226" width="30.117615" height="6.023529"/>
 <rect x="587.294128" y="406.588226" width="30.117615" height="6.023529"/>
 <rect x="623.435303" y="406.588226" width="30.117676" height="6.023529"/>
 <rect x="659.576477" y="406.588226" width="30.117615" height="6.023529"/>
 <rect x="695.717651" y="406.588226" width="30.117676" height="6.023529"/>
 <rect x="731.858826" y="406.588226" width="30.117615" height="6.023529"/>
 <rect x="768.000000" y="406.588226" width="30.117676" height="6.023529"/>
 <rect x="804.141174" y="406.588226" width="30.117615" height="6.023529"/>
 <rect x="840.282349" y="406.588226" width="30.117676" height="6.023529"/>
 <rect x="1020.988220" y="406.588226" width="3.011780" height="3.011780"/>
 <rect x="1020.988220" y="409.600006" width="3.011780" height="3.011749"/>
 <rect x="1020.988220" y="412.611755" width="3.011780" height="3.011780"/>
 <rect x="1020.988220" y="415.623535" width="3.011780" height="3.011749"/>
 <rect x="153.600006" y="418.635284" width="30.117645" height="6.023529"/>
 <rect x="189.741180" y="418.635284" width="30.117645" height="6.023529"/>
 <rect x="225.882355" y="418.635284" width="30.117645" height="6.023529"/>
 <rect x="262.023529" y="418.635284" width="30.117645" height="6.023529"/>
 <rect x="298.164703" y="418.635284" width="30.117645" height="6.023529"/>
 <rect x="334.305878" y="418.635284" width="30.117645" height="6.023529"/>
 <rect x="370.447052" y="418.635284" width="30.117645" height="6.023529"/>
 <rect x="406.588226" y="418.635284" width="30.117645" height="6.023529"/>
 <rect x="442.729401" y="418.635284" width="30.117645" height="6.023529"/>
 <rect x="478.870575" y="418.635284" width="30.117645" height="6.023529"/>
 <rect x="515.011780" y="418.635284" width="30.117615" height="6.023529"/>
 <rect x="551.152954" y="418.635284" width="30.117615" height="6.023529"/>
 <rect x="587.294128" y="418.635284" width="30.117615" height="6.023529"/>
 <rect x="623.435303" y="418.635284" width="30.117676" height="6.023529"/>
 <rect x="659.576477" y="418.635284" width="30.117615" height="6.023529"/>
 <rect x="695.717651" y="418.635284" width="30.117676" height="6.023529"/>
 <rect x="731.858826" y="418.635284" width="30.117615" height="6.023529"/>
 <rect x="768.000000" y="418.635284" width="30.117676" height="6.023529"/>
 <rect x="804.141174" y="418.635284" width="30.117615" height="6.023529"/>
 <rect x="840.282349" y="418.635284" width="30.117676" height="6.023529"/>
 <rect x="1020.988220" y="418.635284" width="3.011780" height="3.011780"/>
 <rect x="1020.988220" y="421.647064" width="3.011780" height="3.011749"/>
 <rect x="1020.988220" y="424.658813" width="3.011780" height="3.011780"/>
 <rect x="1020.988220" y="427.670593" width="3.011780" height="3.011749"/>
 <rect x="153.600006" y="430.682343" width="30.117645" height="6.023529"/>
 <rect x="189.741180" y="430.682343" width="30.117645" height="6.023529"/>
 <rect x="225.882355" y="430.682343" width="30.117645" height="6.023529"/>
 <rect x="262.023529" y="430.682343" width="30.117645" height="6.023529"/>
 <rect x="298.164703" y="430.682343" width="30.117645" height="6.023529"/>
 <rect x="334.305878" y="430.682343" width="30.117645" height="6.023529"/>
 <rect x="370.447052" y="430.682343" width="30.117645" height="6.023529"/>
 <rect x="406.588226" y="430.682343" width="30.117645" height="6.023529"/>
 <rect x="442.729401" y="430.682343" width="30.117645" height="6.023529"/>
 <rect x="478.870575" y="430.682343" width="30.117645" height="6.023529"/>
 <rect x="515.011780" y="430.682343" width="30.117615" height="6.023529"/>
 <rect x="551.152954" y="430.682343" width="30.117615" height="6.023529"/>
 <rect x="587.294128" y="430.682343" width="30.117615" height="6.023529"/>
 <rect x="623.435303" y="430.682343" width="30.117676" height="6.023529"/>
 <rect x="659.576477" y="430.682343" width="30.117615" height="6.023529"/>
 <rect x="695.717651" y="430.682343" width="30.117676" height="6.023529"/>
 <rect x="731.858826" y="430.682343" width="30.117615" height="6.023529"/>
 <rect x="768.000000" y="430.682343" width="30.117676" height="6.023529"/>
 <rect x="804.141174" y="430.682343" width="30.117615" height="6.023529"/>
 <rect x="840.282349" y="430.682343" width="30.117676" height="6.023529"/>
 <rect x="1020.988220" y="430.682343" width="3.011780" height="3.011780"/>
 <rect x="1020.988220" y="433.694122" width="3.011780" height="3.011749"/>
 <rect x="1020.988220" y="436.705872" width="3.011780" height="3.011780"/>
 <rect x="1020.988220" y="439.717651" width="3.011780" height="3.011749"/>
 <rect x="153.600006" y="442.729401" width="30.117645" height="6.023529"/>
 <rect x="189.741180" y="442.729401" width="30.117645" height="6.023529"/>
 <rect x="225.882355" y="442.729401" width="30.117645" height="6.023529"/>
 <rect x="262.023529" y="442.729401" width="30.117645" height="6.023529"/>
 <rect x="298.164703" y="442.729401" width="30.117645" height="6.023529"/>
 <rect x="334.305878" y="442.729401" width="30.117645" height="6.023529"/>
 <rect x="370.447052" y="442.729401" width="30.117645" height="6.023529"/>
 <rect x="406.588226" y="442.729401" width="30.117645" height="6.023529"/>
 <rect x="442.729401" y="442.729401" width="30.117645" height="6.023529"/>
 <rect x="478.870575" y="442.729401" width="30.117645" height="6.023529"/>
 <rect x="515.011780" y="442.729401" width="30.117615" height="6.023529"/>
 <rect x="551.152954" y="442.729401" width="30.117615" height="6.023529"/>
 <rect x="587.294128" y="442.729401" width="30.117615" height="6.023529"/>
 <rect x="623.435303" y="442.729401" width="30.117676" height="6.023529"/>
 <rect x="659.576477" y="442.729401" width="30.117615" height="6.023529"/>
 <rect x="695.717651" y="442.729401" width="30.117676" height="6.023529"/>
 <rect x="731.858826" y="442.729401" width="30.117615" height="6.023529"/>
 <rect x="768.000000" y="442.729401" width="30.117676" height="6.023529"/>
 <rect x="804.141174" y="442.729401" width="30.117615" height="6.023529"/>
 <rect x="840.282349" y="442.729401" width="30.117676" height="6.023529"/>
 <rect x="1020.988220" y="442.729401" width="3.011780" height="3.011780"/>
 <rect x="1020.988220" y="445.741180" width="3.011780" height="3.011749"/>
 <rect x="1020.988220" y="448.752930" width="3.011780" height="3.011780"/>
 <rect x="1020.988220" y="451.764709" width="3.011780" height="3.011749"/>
 <rect x="153.600006" y="454.776459" width="30.117645" height="6.023529"/>
 <rect x="189.741180" y="454.776459" width="30.117645" height="6.023529"/>
 <rect x="225.882355" y="454.776459" width="30.117645" height="6.023529"/>
 <rect x="262.023529" y="454.776459" width="30.117645" height="6.023529"/>
 <rect x="298.164703" y="454.776459" width="30.117645" height="6.023529"/>
 <rect x="334.305878" y="454.776459" width="30.117645" height="6.023529"/>
 <rect x="370.447052" y="454.776459" width="30.117645" height="6.023529"/>
 <rect x="406.588226" y="454.776459" width="30.117645" height="6.023529"/>
 <rect x="442.729401" y="454.776459" width="30.117645" height="6.023529"/>
 <rect x="478.870575" y="454.776459" width="30.117645" height="6.023529"/>
 <rect x="515.011780" y="454.776459" width="30.117615" height="6.023529"/>
 <rect x="551.152954" y="454.776459" width="30.117615" height="6.023529"/>
 <rect x="587.294128" y="454.776459" width="30.117615" height="6.023529"/>
 <rect x="623.435303" y="454.776459" width="30.117676" height="6.023529"/>
 <rect x="659.576477" y="454.776459" width="30.117615" height="6.023529"/>
 <rect x="695.717651" y="454.776459" width="30.117676" height="6.023529"/>
 <rect x="731.858826" y="454.776459" width="30.117615" height="6.023529"/>
 <rect x="768.000000" y="454.776459" width="30.117676" height="6.023529"/>
 <rect x="804.141174" y="454.776459" width="30.117615" height="6.023529"/>
 <rect x="840.282349" y="454.776459" width="30.117676" height="6.023529"/>
 <rect x="1020.988220" y="454.776459" width="3.011780" height="3.011780"/>
 <rect x="1020.988220" y="457.788239" width="3.011780" height="3.011749"/>
 <rect x="1020.988220" y="460.799988" width="3.011780" height="3.011780"/>
 <rect x="1020.988220" y="463.811768" width="3.011780" height="3.011749"/>
 <rect x="153.600006" y="466.823517" width="30.117645" height="6.023529"/>
 <rect x="189.741180" y="466.823517" width="30.117645" height="6.023529"/>
 <rect x="225.882355" y="466.823517" width="30.117645" height="6.023529"/>
 <rect x="262.023529" y="466.823517" width="30.117645" height="6.023529"/>
 <rect x="298.164703" y="466.823517" width="30.117645" height="6.023529"/>
 <rect x="334.305878" y="466.823517" width="30.117645" height="6.023529"/>
 <rect x="370.447052" y="466.823517" width="30.117645" height="6.023529"/>
 <rect x="406.588226" y="466.823517" width="30.117645" height="6.023529"/>
 <rect x="442.729401" y="466.823517" width="30.117645" height="6.023529"/>
 <rect x="478.870575" y="466.823517" width="30.117645" height="6.023529"/>
 <rect x="515.011780" y="466.823517" width="30.117615" height="6.023529"/>
 <rect x="551.152954" y="466.823517" width="30.117615" height="6.023529"/>
 <rect x="587.294128" y="466.823517" width="30.117615" height="6.023529"/>
 <rect x="623.435303" y="466.823517" width="30.117676" height="6.023529"/>
 <rect x="659.576477" y="466.823517" width="30.117615" height="6.023529"/>
 <rect x="695.717651" y="466.823517" width="30.117676" height="6.023529"/>
 <rect x="731.858826" y="466.823517" width="30.117615" height="6.023529"/>
 <rect x="768.000000" y="466.823517" width="30.117676" height="6.023529"/>
 <rect x="804.141174" y="466.823517" width="30.117615" height="6.023529"/>
 <rect x="840.282349" y="466.823517" width="30.117676" height="6.023529"/>
 <rect x="1020.988220" y="466.823517" width="3.011780" height="3.011780"/>
 <rect x="1020.988220" y="469.835297" width="3.011780" height="3.011749"/>
 <rect x="1020.988220" y="472.847046" width="3.011780" height="3.011780"/>
 <rect x="1020.988220" y="475.858826" width="3.011780" height="3.011749"/>
 <rect x="153.600006" y="478.870575" width="30.117645" height="6.023529"/>
 <rect x="189.741180" y="478.870575" width="30.117645" height="6.023529"/>
 <rect x="225.882355" y="478.870575" width="30.117645" height="6.023529"/>
 <rect x="262.023529" y="478.870575" width="30.117645" height="6.023529"/>
 <rect x="298.164703" y="478.870575" width="30.117645" height="6.023529"/>
 <rect x="334.305878" y="478.870575" width="30.117645" height="6.023529"/>
 <rect x="370.447052" y="478.870575" width="30.117645" height="6.023529"/>
 <rect x="406.588226" y="478.870575" width="30.117645" height="6.023529"/>
 <rect x="442.729401" y="478.870575" width="30.117645" height="6.023529"/>
 <rect x="478.870575" y="478.870575" width="30.117645" height="6.023529"/>
 <rect x="515.011780" y="478.870575" width="30.117615" height="6.023529"/>
 <rect x="551.152954" y="478.870575" width="30.117615" height="6.023529"/>
 <rect x="587.294128" y="478.870575" width="30.117615" height="6.023529"/>
 <rect x="623.435303" y="478.870575" width="30.117676" height="6.023529"/>
 <rect x="659.576477" y="478.870575" width="30.117615" height="6.023529"/>
 <rect x="695.717651" y="478.870575" width="30.117676" height="6.023529"/>
 <rect x="731.858826" y="478.870575" width="30.117615" height="6.023529"/>
 <rect x="768.000000" y="478.870575" width="30.117676" height="6.023529"/>
 <rect x="804.141174" y="478.870575" width="30.117615" height="6.023529"/>
 <rect x="840.282349" y="478.870575" width="30.117676" height="6.023529"/>
 <rect x="1020.988220" y="478.870575" width="3.011780" height="3.011780"/>
 <rect x="1020.988220" y="481.882355" width="3.011780" height="3.011749"/>
 <rect x="1020.988220" y="484.894104" width="3.011780" height="3.011780"/>
 <rect x="1020.988220" y="487.905884" width="3.011780" height="3.011749"/>
 <rect x="153.600006" y="490.917633" width="30.117645" height="6.023529"/>
 <rect x="189.741180" y="490.917633" width="30.117645" height="6.023529"/>
 <rect x="225.882355" y="490.917633" width="30.117645" height="6.023529"/>
 <rect x="262.023529" y="490.917633" width="30.117645" height="6.023529"/>
 <rect x="298.164703" y="490.917633" width="30.117645" height="6.023529"/>
 <rect x="334.305878" y="490.917633" width="30.117645" height="6.023529"/>
 <rect x="370.447052" y="490.917633" width="30.117645" height="6.023529"/>
 <rect x="406.588226" y="490.917633" width="30.117645" height="6.023529"/>
 <rect x="442.729401" y="490.917633" width="30.117645" height="6.023529"/>
 <rect x="478.870575" y="490.917633" width="30.117645" height="6.023529"/>
 <rect x="515.011780" y="490.917633" width="30.117615" height="6.023529"/>
 <rect x="551.152954" y="490.917633" width="30.117615" height="6.023529"/>
 <rect x="587.294128" y="490.917633" width="30.117615" height="6.023529"/>
 <rect x="623.435303" y="490.917633" width="30.117676" height="6.023529"/>
 <rect x="659.576477" y="490.917633" width="30.117615" height="6.023529"/>
 <rect x="695.717651" y="490.917633" width="30.117676" height="6.023529"/>
 <rect x="731.858826" y="490.917633" width="30.117615" height="6.023529"/>
 <rect x="768.000000" y="490.917633" width="30.117676" height="6.023529"/>
 <rect x="804.141174" y="490.917633" width="30.117615" height="6.023529"/>
 <rect x="840.282349" y="490.917633" width="30.117676" height="6.023529"/>
 <rect x="1020.988220" y="490.917633" width="3.011780" height="3.011780"/>
 <rect x="1020.988220" y="493.929413" width="3.011780" height="3.011749"/>
 <rect x="1020.988220" y="496.941162" width="3.011780" height="3.011780"/>
 <rect x="1020.988220" y="499.952942" width="3.011780" height="3.011749"/>
 <rect x="153.600006" y="502.964691" width="30.117645" height="6.023529"/>
 <rect x="189.741180" y="502.964691" width="30.117645" height="6.023529"/>
 <rect x="225.882355" y="502.964691" width="30.117645" height="6.023529"/>
 <rect x="262.023529" y="502.964691" width="30.117645" height="6.023529"/>
 <rect x="298.164703" y="502.964691" width="30.117645" height="6.023529"/>
 <rect x="334.305878" y="502.964691" width="30.117645" height="6.023529"/>
 <rect x="370.447052" y="502.964691" width="30.117645" height="6.023529"/>
 <rect x="406.588226" y="502.964691" width="30.117645" height="6.023529"/>
 <rect x="442.729401" y="502.964691" width="30.117645" height="6.023529"/>
 <rect x="478.870575" y="502.964691" width="30.117645" height="6.023529"/>
 <rect x="515.011780" y="502.964691" width="30.117615" height="6.023529"/>
 <rect x="551.152954" y="502.964691" width="30.117615" height="6.023529"/>
 <rect x="587.294128" y="502.964691" width="30.117615" height="6.023529"/>
 <rect x="623.435303" y="502.964691" width="30.117676" height="6.023529"/>
 <rect x="659.576477" y="502.964691" width="30.117615" height="6.023529"/>
 <rect x="695.717651" y="502.964691" width="30.117676" height="6.023529"/>
 <rect x="731.858826" y="502.964691" width="30.117615" height="6.023529"/>
 <rect x="768.000000" y="502.964691" width="30.117676" height="6.023529"/>
 <rect x="804.141174" y="502.964691" width="30.117615" height="6.023529"/>
 <rect x="840.282349" y="502.964691" width="30.117676" height="6.023529"/>
 <rect x="1020.988220" y="502.964691" width="3.011780" height="3.011780"/>
 <rect x="1020.988220" y="505.976471" width="3.011780" height="3.011749"/>
 <rect x="1020.988220" y="508.988220" width="3.011780" height="3.011780"/>
 <rect x="1020.988220" y="512.000000" width="3.011780" height="3.011780"/>
 <rect x="153.600006" y="515.011780" width="30.117645" height="6.023499"/>
 <rect x="189.741180" y="515.011780" width="30.117645" height="6.023499"/>
 <rect x="225.882355" y="515.011780" width="30.117645" height="6.023499"/>
 <rect x="262.023529" y="515.011780" width="30.117645" height="6.023499"/>
 <rect x="298.164703" y="515.011780" width="30.117645" height="6.023499"/>
 <rect x="334.305878" y="515.011780" width="30.117645" height="6.023499"/>
 <rect x="370.447052" y="515.011780" width="30.117645" height="6.023499"/>
 <rect x="406.588226" y="515.011780" width="30.117645" height="6.023499"/>
 <rect x="442.729401" y="515.011780" width="30.117645" height="6.023499"/>
 <rect x="478.870575" y="515.011780" width="30.117645" height="6.023499"/>
 <rect x="515.011780" y="515.011780" width="30.117615" height="6.023499"/>
 <rect x="551.152954" y="515.011780" width="30.117615" height="6.023499"/>
 <rect x="587.294128" y="515.011780" width="30.117615" height="6.023499"/>
 <rect x="623.435303" y="515.011780" width="30.117676" height="6.023499"/>
 <rect x="659.576477" y="515.011780" width="30.117615" height="6.023499"/>
 <rect x="695.717651" y="515.011780" width="30.117676" height="6.023499"/>
 <rect x="731.858826" y="515.011780" width="30.117615" height="6.023499"/>
 <rect x="768.000000" y="515.011780" width="30.117676" height="6.023499"/>
 <rect x="804.141174" y="515.011780" width="30.117615" height="6.023499"/>
 <rect x="840.282349" y="515.011780" width="30.117676" height="6.023499"/>
 <rect x="1020.988220" y="515.011780" width="3.011780" height="3.011780"/>
 <rect x="1020.988220" y="518.023560" width="3.011780" height="3.011719"/>
 <rect x="1020.988220" y="521.035278" width="3.011780" height="3.011780"/>
 <rect x="1020.988220" y="524.047058" width="3.011780" height="3.011780"/>
 <rect x="153.600006" y="527.058838" width="30.117645" height="6.023499"/>
 <rect x="189.741180" y="527.058838" width="30.117645" height="6.023499"/>
 <rect x="225.882355" y="527.058838" width="30.117645" height="6.023499"/>
 <rect x="262.023529" y="527.058838" width="30.117645" height="6.023499"/>
 <rect x="298.164703" y="527.058838" width="30.117645" height="6.023499"/>
 <rect x="334.305878" y="527.058838" width="30.117645" height="6.023499"/>
 <rect x="370.447052" y="527.058838" width="30.117645" height="6.023499"/>
 <rect x="406.588226" y="527.058838" width="30.117645" height="6.023499"/>
 <rect x="442.729401" y="527.058838" width="30.117645" height="6.023499"/>
 <rect x="478.870575" y="527.058838" width="30.117645" height="6.023499"/>
 <rect x="515.011780" y="527.058838" width="30.117615" height="6.023499"/>
 <rect x="551.152954" y="527.058838" width="30.117615" height="6.023499"/>
 <rect x="587.294128" y="527.058838" width="30.117615" height="6.023499"/>
 <rect x="623.435303" y="527.058838" width="30.117676" height="6.023499"/>
 <rect x="659.576477" y="527.058838" width="30.117615" height="6.023499"/>
 <rect x="695.717651" y="527.058838" width="30.117676" height="6.023499"/>
 <rect x="731.858826" y="527.058838" width="30.117615" height="6.023499"/>
 <rect x="768.000000" y="527.058838" width="30.117676" height="6.023499"/>
 <rect x="804.141174" y="527.058838" width="30.117615" height="6.023499"/>
 <rect x="840.282349" y="527.058838" width="30.117676" height="6.023499"/>
 <rect x="1020.988220" y="527.058838" width="3.011780" height="3.011780"/>
 <rect x="1020.988220" y="530.070618" width="3.011780" height="3.011719"/>
 <rect x="1020.988220" y="533.082336" width="3.011780" height="3.011780"/>
 <rect x="1020.988220" y="536.094116" width="3.011780" height="3.011780"/>
 <rect x="153.600006" y="539.105896" width="30.117645" height="6.023499"/>
 <rect x="189.741180" y="539.105896" width="30.117645" height="6.023499"/>
 <rect x="225.882355" y="539.105896" width="30.117645" height="6.023499"/>
 <rect x="262.023529" y="539.105896" width="30.117645" height="6.023499"/>
 <rect x="298.164703" y="539.105896" width="30.117645" height="6.023499"/>
 <rect x="334.305878" y="539.105896" width="30.117645" height="6.023499"/>
 <rect x="370.447052" y="539.105896" width="30.117645" height="6.023499"/>
 <rect x="406.588226" y="539.105896" width="30.117645" height="6.023499"/>
 <rect x="442.729401" y="539.105896" width="30.117645" height="6.023499"/>
 <rect x="478.870575" y="539.105896" width="30.117645" height="6.023499"/>
 <rect x="515.011780" y="539.105896" width="30.117615" height="6.023499"/>
 <rect x="551.152954" y="539.105896" width="30.117615" height="6.023499"/>
 <rect x="587.294128" y="539.105896" width="30.117615" height="6.023499"/>
 <rect x="623.435303" y="539.105896" width="30.117676" height="6.023499"/>
 <rect x="659.576477" y="539.105896" width="30.117615" height="6.023499"/>
 <rect x="695.717651" y="539.105896" width="30.117676" height="6.023499"/>
 <rect x="731.858826" y="539.105896" width="30.117615" height="6.023499"/>
 <rect x="768.000000" y="539.105896" width="30.117676" height="6.023499"/>
 <rect x="804.141174" y="539.105896" width="30.117615" height="6.023499"/>
 <rect x="840.282349" y="539.105896" width="30.117676" height="6.023499"/>
 <rect x="1020.988220" y="539.105896" width="3.011780" height="3.011780"/>
 <rect x="1020.988220" y="542.117676" width="3.011780" height="3.011719"/>
 <rect x="1020.988220" y="545.129395" width="3.011780" height="3.011780"/>
 <rect x="1020.988220" y="548.141174" width="3.011780" height="3.011780"/>
 <rect x="153.600006" y="551.152954" width="30.117645" height="6.023499"/>
 <rect x="189.741180" y="551.152954" width="30.117645" height="6.023499"/>
 <rect x="225.882355" y="551.152954" width="30.117645" height="6.023499"/>
 <rect x="262.023529" y="551.152954" width="30.117645" height="6.023499"/>
 <rect x="298.164703" y="551.152954" width="30.117645" height="6.023499"/>
 <rect x="334.305878" y="551.152954" width="30.117645" height="6.023499"/>
 <rect x="370.447052" y="551.152954" width="30.117645" height="6.023499"/>
 <rect x="406.588226" y="551.152954" width="30.117645" height="6.023499"/>
 <rect x="442.729401" y="551.152954" width="30.117645" height="6.023499"/>
 <rect x="478.870575" y="551.152954" width="30.117645" height="6.023499"/>
 <rect x="515.011780" y="551.152954" width="30.117615" height="6.023499"/>
 <rect x="551.152954" y="551.152954" width="30.117615" height="6.023499"/>
 <rect x="587.294128" y="551.152954" width="30.117615" height="6.023499"/>
 <rect x="623.435303" y="551.152954" width="30.117676" height="6.023499"/>
 <rect x="659.576477" y="551.152954" width="30.117615" height="6.023499"/>
 <rect x="695.717651" y="551.152954" width="30.117676" height="6.023499"/>
 <rect x="731.858826" y="551.152954" width="30.117615" height="6.023499"/>
 <rect x="768.000000" y="551.152954" width="30.117676" height="6.023499"/>
 <rect x="804.141174" y="551.152954" width="30.117615" height="6.023499"/>
 <rect x="840.282349" y="551.152954" width="30.117676" height="6.023499"/>
 <rect x="1020.988220" y="551.152954" width="3.011780" height="3.011780"/>
 <rect x="1020.988220" y="554.164734" width="3.011780" height="3.011719"/>
 <rect x="1020.988220" y="557.176453" width="3.011780" height="3.011780"/>
 <rect x="1020.988220" y="560.188232" width="3.011780" height="3.011780"/>
 <rect x="153.600006" y="563.200012" width="30.117645" height="6.023499"/>
 <rect x="189.741180" y="563.200012" width="30.117645" height="6.023499"/>
 <rect x="225.882355" y="563.200012" width="30.117645" height="6.023499"/>
 <rect x="262.023529" y="563.200012" width="30.117645" height="6.023499"/>
 <rect x="298.164703" y="563.200012" width="30.117645" height="6.023499"/>
 <rect x="334.305878" y="563.200012" width="30.117645" height="6.023499"/>
 <rect x="370.447052" y="563.200012" width="30.117645" height="6.023499"/>
 <rect x="406.588226" y="563.200012" width="30.117645" height="6.023499"/>
 <rect x="442.729401" y="563.200012" width="30.117645" height="6.023499"/>
 <rect x="478.870575" y="563.200012" width="30.117645" height="6.023499"/>
 <rect x="515.011780" y="563.200012" width="30.117615" height="6.023499"/>
 <rect x="551.152954" y="563.200012" width="30.117615" height="6.023499"/>
 <rect x="587.294128" y="563.200012" width="30.117615" height="6.023499"/>
 <rect x="623.435303" y="563.200012" width="30.117676" height="6.023499"/>
 <rect x="659.576477" y="563.200012" width="30.117615" height="6.023499"/>
 <rect x="695.717651" y="563.200012" width="30.117676" height="6.023499"/>
 <rect x="731.858826" y="563.200012" width="30.117615" height="6.023499"/>
 <rect x="768.000000" y="563.200012" width="30.117676" height="6.023499"/>
 <rect x="804.141174" y="563.200012" width="30.117615" height="6.023499"/>
 <rect x="840.282349" y="563.200012" width="30.117676" height="6.023499"/>
 <rect x="1020.988220" y="563.200012" width="3.011780" height="3.011780"/>
 <rect x="1020.988220" y="566.211792" width="3.011780" height="3.011719"/>
 <rect x="1020.988220" y="569.223511" width="3.011780" height="3.011780"/>
 <rect x="1020.988220" y="572.235291" width="3.011780" height="3.011780"/>
 <rect x="153.600006" y="575.247070" width="30.117645" height="6.023499"/>
 <rect x="189.741180" y="575.247070" width="30.117645" height="6.023499"/>
 <rect x="225.882355" y="575.247070" width="30.117645" height="6.023499"/>
 <rect x="262.023529" y="575.247070" width="30.117645" height="6.023499"/>
 <rect x="298.164703" y="575.247070" width="30.117645" height="6.023499"/>
 <rect x="334.305878" y="575.247070" width="30.117645" height="6.023499"/>
 <rect x="370.447052" y="575.247070" width="30.117645" height="6.023499"/>
 <rect x="406.588226" y="575.247070" width="30.117645" height="6.023499"/>
 <rect x="442.729401" y="575.247070" width="30.117645" height="6.023499"/>
 <rect x="478.870575" y="575.247070" width="30.117645" height="6.023499"/>
 <rect x="515.011780" y="575.247070" width="30.117615" height="6.023499"/>
 <rect x="551.152954" y="575.247070" width="30.117615" height="6.023499"/>
 <rect x="587.294128" y="575.247070" width="30.117615" height="6.023499"/>
 <rect x="623.435303" y="575.247070" width="30.117676" height="6.023499"/>
 <rect x="659.576477" y="575.247070" width="30.117615" height="6.023499"/>
 <rect x="695.717651" y="575.247070" width="30.117676" height="6.023499"/>
 <rect x="731.858826" y="575.247070" width="30.117615" height="6.023499"/>
 <rect x="768.000000" y="575.247070" width="30.117676" height="6.023499"/>
 <rect x="804.141174" y="575.247070" width="30.117615" height="6.023499"/>
 <rect x="840.282349" y="575.247070" width="30.117676" height="6.023499"/>
 <rect x="1020.988220" y="575.247070" width="3.011780" height="3.011780"/>
 <rect x="1020.988220" y="578.258850" width="3.011780" height="3.011719"/>
 <rect x="1020.988220" y="581.270569" width="3.011780" height="3.011780"/>
 <rect x="1020.988220" y="584.282349" width="3.011780" height="3.011780"/>
 <rect x="153.600006" y="587.294128" width="30.117645" height="6.023499"/>
 <rect x="189.741180" y="587.294128" width="30.117645" height="6.023499"/>
 <rect x="225.882355" y="587.294128" width="30.117645" height="6.023499"/>
 <rect x="262.023529" y="587.294128" width="30.117645" height="6.023499"/>
 <rect x="298.164703" y="587.294128" width="30.117645" height="6.023499"/>
 <rect x="334.305878" y="587.294128" width="30.117645" height="6.023499"/>
 <rect x="370.447052" y="587.294128" width="30.117645" height="6.023499"/>
 <rect x="406.588226" y="587.294128" width="30.117645" height="6.023499"/>
 <rect x="442.729401" y="587.294128" width="30.117645" height="6.023499"/>
 <rect x="478.870575" y="587.294128" width="30.117645" height="6.023499"/>
 <rect x="515.011780" y="587.294128" width="30.117615" height="6.023499"/>
 <rect x="551.152954" y="587.294128" width="30.117615" height="6.023499"/>
 <rect x="587.294128" y="587.294128" width="30.117615" height="6.023499"/>
 <rect x="623.435303" y="587.294128" width="30.117676" height="6.023499"/>
 <rect x="659.576477" y="587.294128" width="30.117615" height="6.023499"/>
 <rect x="695.717651" y="587.294128" width="30.117676" height="6.023499"/>
 <rect x="731.858826" y="587.294128" width="30.117615" height="6.023499"/>
 <rect x="768.000000" y="587.294128" width="30.117676" height="6.023499"/>
 <rect x="804.141174" y="587.294128" width="30.117615" height="6.023499"/>
 <rect x="840.282349" y="587.294128" width="30.117676" height="6.023499"/>
 <rect x="1020.988220" y="587.294128" width="3.011780" height="3.011780"/>
 <rect x="1020.988220" y="590.305908" width="3.011780" height="3.011719"/>
 <rect x="1020.988220" y="593.317627" width="3.011780" height="3.011780"/>
 <rect x="1020.988220" y="596.329407" width="3.011780" height="3.011780"/>
 <rect x="153.600006" y="599.341187" width="30.117645" height="6.023499"/>
 <rect x="189.741180" y="599.341187" width="30.117645" height="6.023499"/>
 <rect x="225.882355" y="599.341187" width="30.117645" height="6.023499"/>
 <rect x="262.023529" y="599.341187" width="30.117645" height="6.023499"/>
 <rect x="298.164703" y="599.341187" width="30.117645" height="6.023499"/>
 <rect x="334.305878" y="599.341187" width="30.117645" height="6.023499"/>
 <rect x="370.447052" y="599.341187" width="30.117645" height="6.023499"/>
 <rect x="406.588226" y="599.341187" width="30.117645" height="6.023499"/>
 <rect x="442.729401" y="599.341187" width="30.117645" height="6.023499"/>
 <rect x="478.870575" y="599.341187" width="30.117645" height="6.023499"/>
 <rect x="515.011780" y="599.341187" width="30.117615" height="6.023499"/>
 <rect x="551.152954" y="599.341187" width="30.117615" height="6.023499"/>
 <rect x="587.294128" y="599.341187" width="30.117615" height="6.023499"/>
 <rect x="623.435303" y="599.341187" width="30.117676" height="6.023499"/>
 <rect x="659.576477" y="599.341187" width="30.117615" height="6.023499"/>
 <rect x="695.717651" y="599.341187" width="30.117676" height="6.023499"/>
 <rect x="731.858826" y="599.341187" width="30.117615" height="6.023499"/>
 <rect x="768.000000" y="599.341187" width="30.117676" height="6.023499"/>
 <rect x="804.141174" y="599.341187" width="30.117615" height="6.023499"/>
 <rect x="840.282349" y="599.341187" width="30.117676" height="6.023499"/>
 <rect x="1020.988220" y="599.341187" width="3.011780" height="3.011780"/>
 <rect x="1020.988220" y="602.352966" width="3.011780" height="3.011719"/>
 <rect x="1020.988220" y="605.364685" width="3.011780" height="3.011780"/>
 <rect x="1020.988220" y="608.376465" width="3.011780" height="3.011780"/>
 <rect x="153.600006" y="611.388245" width="30.117645" height="6.023499"/>
 <rect x="189.741180" y="611.388245" width="30.117645" height="6.023499"/>
 <rect x="225.882355" y="611.388245" width="30.117645" height="6.023499"/>
 <rect x="262.023529" y="611.388245" width="30.117645" height="6.023499"/>
 <rect x="298.164703" y="611.388245" width="30.117645" height="6.023499"/>
 <rect x="334.305878" y="611.388245" width="30.117645" height="6.023499"/>
 <rect x="370.447052" y="611.388245" width="30.117645" height="6.023499"/>
 <rect x="406.588226" y="611.388245" width="30.117645" height="6.023499"/>
 <rect x="442.729401" y="611.388245" width="30.117645" height="6.023499"/>
 <rect x="478.870575" y="611.388245" width="30.117645" height="6.023499"/>
 <rect x="515.011780" y="611.388245" width="30.117615" height="6.023499"/>
 <rect x="551.152954" y="611.388245" width="30.117615" height="6.023499"/>
 <rect x="587.294128" y="611.388245" width="30.117615" height="6.023499"/>
 <rect x="623.435303" y="611.388245" width="30.117676" height="6.023499"/>
 <rect x="659.576477" y="611.388245" width="30.117615" height="6.023499"/>
 <rect x="695.717651" y="611.388245" width="30.117676" height="6.023499"/>
 <rect x="731.858826" y="611.388245" width="30.117615" height="6.023499"/>
 <rect x="768.000000" y="611.388245" width="30.117676" height="6.023499"/>
 <rect x="804.141174" y="611.388245" width="30.117615" height="6.023499"/>
 <rect x="840.282349" y="611.388245" width="30.117676" height="6.023499"/>
 <rect x="1020.988220" y="611.388245" width="3.011780" height="3.011780"/>
 <rect x="1020.988220" y="614.400024" width="3.011780" height="3.011719"/>
 <rect x="1020.988220" y="617.411743" width="3.011780" height="3.011780"/>
 <rect x="1020.988220" y="620.423523" width="3.011780" height="3.011780"/>
 <rect x="153.600006" y="623.435303" width="30.117645" height="6.023499"/>
 <rect x="189.741180" y="623.435303" width="30.117645" height="6.023499"/>
 <rect x="225.882355" y="623.435303" width="30.117645" height="6.023499"/>
 <rect x="262.023529" y="623.435303" width="30.117645" height="6.023499"/>
 <rect x="298.164703" y="623.435303" width="30.117645" height="6.023499"/>
 <rect x="334.305878" y="623.435303" width="30.117645" height="6.023499"/>
 <rect x="370.447052" y="623.435303" width="30.117645" height="6.023499"/>
 <rect x="406.588226" y="623.435303" width="30.117645" height="6.023499"/>
 <rect x="442.729401" y="623.435303" width="30.117645" height="6.023499"/>
 <rect x="478.870575" y="623.435303" width="30.117645" height="6.023499"/>
 <rect x="515.011780" y="623.435303" width="30.117615" height="6.023499"/>
 <rect x="551.152954" y="623.435303" width="30.117615" height="6.023499"/>
 <rect x="587.294128" y="623.435303" width="30.117615" height="6.023499"/>
 <rect x="623.435303" y="623.435303" width="30.117676" height="6.023499"/>
 <rect x="659.576477" y="623.435303" width="30.117615" height="6.023499"/>
 <rect x="695.717651" y="623.435303" width="30.117676" height="6.023499"/>
 <rect x="731.858826" y="623.435303" width="30.117615" height="6.023499"/>
 <rect x="768.000000" y="623.435303" width="30.117676" height="6.023499"/>
 <rect x="804.141174" y="623.435303" width="30.117615" height="6.023499"/>
 <rect x="840.282349" y="623.435303" width="30.117676" height="6.023499"/>
 <rect x="1020.988220" y="623.435303" width="3.011780" height="3.011780"/>
 <rect x="1020.988220" y="626.447083" width="3.011780" height="3.011719"/>
 <rect x="1020.988220" y="629.458801" width="3.011780" height="3.011780"/>
 <rect x="1020.988220" y="632.470581" width="3.011780" height="3.011780"/>
 <rect x="153.600006" y="635.482361" width="30.117645" height="6.023499"/>
 <rect x="189.741180" y="635.482361" width="30.117645" height="6.023499"/>
 <rect x="225.882355" y="635.482361" width="30.117645" height="6.023499"/>
 <rect x="262.023529" y="635.482361" width="30.117645" height="6.023499"/>
 <rect x="298.164703" y="635.482361" width="30.117645" height="6.023499"/>
 <rect x="334.305878" y="635.482361" width="30.117645" height="6.023499"/>
 <rect x="370.447052" y="635.482361" width="30.117645" height="6.023499"/>
 <rect x="406.588226" y="635.482361" width="30.117645" height="6.023499"/>
 <rect x="442.729401" y="635.482361" width="30.117645" height="6.023499"/>
 <rect x="478.870575" y="635.482361" width="30.117645" height="6.023499"/>
 <rect x="515.011780" y="635.482361" width="30.117615" height="6.023499"/>
 <rect x="551.152954" y="635.482361" width="30.117615" height="6.023499"/>
 <rect x="587.294128" y="635.482361" width="30.117615" height="6.023499"/>
 <rect x="623.435303" y="635.482361" width="30.117676" height="6.023499"/>
 <rect x="659.576477" y="635.482361" width="30.117615" height="6.023499"/>
 <rect x="695.717651" y="635.482361" width="30.117676" height="6.023499"/>
 <rect x="731.858826" y="635.482361" width="30.117615" height="6.023499"/>
 <rect x="768.000000" y="635.482361" width="30.117676" height="6.023499"/>
 <rect x="804.141174" y="635.482361" width="30.117615" height="6.023499"/>
 <rect x="840.282349" y="635.482361" width="30.117676" height="6.023499"/>
 <rect x="1020.988220" y="635.482361" width="3.011780" height="3.011780"/>
 <rect x="1020.988220" y="638.494141" width="3.011780" height="3.011719"/>
 <rect x="1020.988220" y="641.505859" width="3.011780" height="3.011780"/>
 <rect x="1020.988220" y="644.517639" width="3.011780" height="3.011780"/>
 <rect x="153.600006" y="647.529419" width="30.117645" height="6.023560"/>
 <rect x="189.741180" y="647.529419" width="30.117645" height="6.023560"/>
 <rect x="225.882355" y="647.529419" width="30.117645" height="6.023560"/>
 <rect x="262.023529" y="647.529419" width="30.117645" height="6.023560"/>
 <rect x="298.164703" y="647.529419" width="30.117645" height="6.023560"/>
 <rect x="334.305878" y="647.529419" width="30.117645" height="6.023560"/>
 <rect x="370.447052" y="647.529419" width="30.117645" height="6.023560"/>
 <rect x="406.588226" y="647.529419" width="30.117645" height="6.023560"/>
 <rect x="442.729401" y="647.529419" width="30.117645" height="6.023560"/>
 <rect x="478.870575" y="647.529419" width="30.117645" height="6.023560"/>
 <rect x="515.011780" y="647.529419" width="30.117615" height="6.023560"/>
 <rect x="551.152954" y="647.529419" width="30.117615" height="6.023560"/>
 <rect x="587.294128" y="647.529419" width="30.117615" height="6.023560"/>
 <rect x="623.435303" y="647.529419" width="30.117676" height="6.023560"/>
 <rect x="659.576477" y="647.529419" width="30.117615" height="6.023560"/>
 <rect x="695.717651" y="647.529419" width="30.117676" height="6.023560"/>
 <rect x="731.858826" y="647.529419" width="30.117615" height="6.023560"/>
 <rect x="768.000000" y="647.529419" width="30.117676" height="6.023560"/>
 <rect x="804.141174" y="647.529419" width="30.117615" height="6.023560"/>
 <rect x="840.282349" y="647.529419" width="30.117676" height="6.023560"/>
 <rect x="1020.988220" y="647.529419" width="3.011780" height="3.011780"/>
 <rect x="1020.988220" y="650.541199" width="3.011780" height="3.011780"/>
 <rect x="1020.988220" y="653.552979" width="3.011780" height="3.011719"/>
 <rect x="1020.988220" y="656.564697" width="3.011780" height="3.011780"/>
 <rect x="153.600006" y="659.576477" width="30.117645" height="6.023499"/>
 <rect x="189.741180" y="659.576477" width="30.117645" height="6.023499"/>
 <rect x="225.882355" y="659.576477" width="30.117645" height="6.023499"/>
 <rect x="262.023529" y="659.576477" width="30.117645" height="6.023499"/>
 <rect x="298.164703" y="659.576477" width="30.117645" height="6.023499"/>
 <rect x="334.305878" y="659.576477" width="30.117645" height="6.023499"/>
 <rect x="370.447052" y="659.576477" width="30.117645" height="6.023499"/>
 <rect x="406.588226" y="659.576477" width="30.117645" height="6.023499"/>
 <rect x="442.729401" y="659.576477" width="30.117645" height="6.023499"/>
 <rect x="478.870575" y="659.576477" width="30.117645" height="6.023499"/>
 <rect x="515.011780" y="659.576477" width="30.117615" height="6.023499"/>
 <rect x="551.152954" y="659.576477" width="30.117615" height="6.023499"/>
 <rect x="587.294128" y="659.576477" width="30.117615" height="6.023499"/>
 <rect x="623.435303" y="659.576477" width="30.117676" height="6.023499"/>
 <rect x="659.576477" y="659.576477" width="30.117615" height="6.023499"/>
 <rect x="695.717651" y="659.576477" width="30.117676" height="6.023499"/>
 <rect x="731.858826" y="659.576477" width="30.117615" height="6.023499"/>
 <rect x="768.000000" y="659.576477" width="30.117676" height="6.023499"/>
 <rect x="804.141174" y="659.576477" width="30.117615" height="6.023499"/>
 <rect x="840.282349" y="659.576477" width="30.117676" height="6.023499"/>
 <rect x="1020.988220" y="659.576477" width="3.011780" height="3.011780"/>
 <rect x="1020.988220" y="662.588257" width="3.011780" height="3.011719"/>
 <rect x="1020.988220" y="665.599976" width="3.011780" height="3.011780"/>
 <rect x="1020.988220" y="668.611755" width="3.011780" height="3.011780"/>
 <rect x="153.600006" y="671.623535" width="30.117645" height="6.023560"/>
 <rect x="189.741180" y="671.623535" width="30.117645" height="6.023560"/>
 <rect x="225.882355" y="671.623535" width="30.117645" height="6.023560"/>
 <rect x="262.023529" y="671.623535" width="30.117645" height="6.023560"/>
 <rect x="298.164703" y="671.623535" width="30.117645" height="6.023560"/>
 <rect x="334.305878" y="671.623535" width="30.117645" height="6.023560"/>
 <rect x="370.447052" y="671.623535" width="30.117645" height="6.023560"/>
 <rect x="406.588226" y="671.623535" width="30.117645" height="6.023560"/>
 <rect x="442.729401" y="671.623535" width="30.117645" height="6.023560"/>
 <rect x="478.870575" y="671.623535" width="30.117645" height="6.023560"/>
 <rect x="515.011780" y="671.623535" width="30.117615" height="6.023560"/>
 <rect x="551.152954" y="671.623535" width="30.117615" height="6.023560"/>
 <rect x="587.294128" y="671.623535" width="30.117615" height="6.023560"/>
 <rect x="623.435303" y="671.623535" width="30.117676" height="6.023560"/>
 <rect x="659.576477" y="671.623535" width="30.117615" height="6.023560"/>
 <rect x="695.717651" y="671.623535" width="30.117676" height="6.023560"/>
 <rect x="731.858826" y="671.623535" width="30.117615" height="6.023560"/>
 <rect x="768.000000" y="671.623535" width="30.117676" height="6.023560"/>
 <rect x="804.141174" y="671.623535" width="30.117615" height="6.023560"/>
 <rect x="840.282349" y="671.623535" width="30.117676" height="6.023560"/>
 <rect x="1020.988220" y="671.623535" width="3.011780" height="3.011780"/>
 <rect x="1020.988220" y="674.635315" width="3.011780" height="3.011780"/>
 <rect x="1020.988220" y="677.647095" width="3.011780" height="3.011719"/>
 <rect x="1020.988220" y="680.658813" width="3.011780" height="3.011780"/>
 <rect x="153.600006" y="683.670593" width="30.117645" height="6.023499"/>
 <rect x="189.741180" y="683.670593" width="30.117645" height="6.023499"/>
 <rect x="225.882355" y="683.670593" width="30.117645" height="6.023499"/>
 <rect x="262.023529" y="683.670593" width="30.117645" height="6.023499"/>
 <rect x="298.164703" y="683.670593" width="30.117645" height="6.023499"/>
 <rect x="334.305878" y="683.670593" width="30.117645" height="6.023499"/>
 <rect x="370.447052" y="683.670593" width="30.117645" height="6.023499"/>
 <rect x="406.588226" y="683.670593" width="30.117645" height="6.023499"/>
 <rect x="442.729401" y="683.670593" width="30.117645" height="6.023499"/>
 <rect x="478.870575" y="683.670593" width="30.117645" height="6.023499"/>
 <rect x="515.011780" y="683.670593" width="30.117615" height="6.023499"/>
 <rect x="551.152954" y="683.670593" width="30.117615" height="6.023499"/>
 <rect x="587.294128" y="683.670593" width="30.117615" height="6.023499"/>
 <rect x="623.435303" y="683.670593" width="30.117676" height="6.023499"/>
 <rect x="659.576477" y="683.670593" width="30.117615" height="6.023499"/>
 <rect x="695.717651" y="683.670593" width="30.117676" height="6.023499"/>
 <rect x="731.858826" y="683.670593" width="30.117615" height="6.023499"/>
 <rect x="768.000000" y="683.670593" width="30.117676" height="6.023499"/>
 <rect x="804.141174" y="683.670593" width="30.117615" height="6.023499"/>
 <rect x="840.282349" y="683.670593" width="30.117676" height="6.023499"/>
 <rect x="1020.988220" y="683.670593" width="3.011780" height="3.011780"/>
 <rect x="1020.988220" y="686.682373" width="3.011780" height="3.011719"/>
 <rect x="1020.988220" y="689.694092" width="3.011780" height="3.011780"/>
 <rect x="1020.988220" y="692.705872" width="3.011780" height="3.011780"/>
 <rect x="153.600006" y="695.717651" width="30.117645" height="6.023560"/>
 <rect x="189.741180" y="695.717651" width="30.117645" height="6.023560"/>
 <rect x="225.882355" y="695.717651" width="30.117645" height="6.023560"/>
 <rect x="262.023529" y="695.717651" width="30.117645" height="6.023560"/>
 <rect x="298.164703" y="695.717651" width="30.117645" height="6.023560"/>
 <rect x="334.305878" y="695.717651" width="30.117645" height="6.023560"/>
 <rect x="370.447052" y="695.717651" width="30.117645" height="6.023560"/>
 <rect x="406.588226" y="695.717651" width="30.117645" height="6.023560"/>
 <rect x="442.729401" y="695.717651" width="30.117645" height="6.023560"/>
 <rect x="478.870575" y="695.717651" width="30.117645" height="6.023560"/>
 <rect x="515.011780" y="695.717651" width="30.117615" height="6.023560"/>
 <rect x="551.152954" y="695.717651" width="30.117615" height="6.023560"/>
 <rect x="587.294128" y="695.717651" width="30.117615" height="6.023560"/>
 <rect x="623.435303" y="695.717651" width="30.117676" height="6.023560"/>
 <rect x="659.576477" y="695.717651" width="30.117615" height="6.023560"/>
 <rect x="695.717651" y="695.717651" width="30.117676" height="6.023560"/>
 <rect x="731.858826" y="695.717651" width="30.117615" height="6.023560"/>
 <rect x="768.000000" y="695.717651" width="30.117676" height="6.023560"/>
 <rect x="804.141174" y="695.717651" width="30.117615" height="6.023560"/>
 <rect x="840.282349" y="695.717651" width="30.117676" height="6.023560"/>
 <rect x="1020.988220" y="695.717651" width="3.011780" height="3.011780"/>
 <rect x="1020.988220" y="698.729431" width="3.011780" height="3.011780"/>
 <rect x="1020.988220" y="701.741211" width="3.011780" height="3.011719"/>
 <rect x="1020.988220" y="704.752930" width="3.011780" height="3.011780"/>
 <rect x="153.600006" y="707.764709" width="30.117645" height="6.023499"/>
 <rect x="189.741180" y="707.764709" width="30.117645" height="6.023499"/>
 <rect x="225.882355" y="707.764709" width="30.117645" height="6.023499"/>
 <rect x="262.023529" y="707.764709" width="30.117645" height="6.023499"/>
 <rect x="298.164703" y="707.764709" width="30.117645" height="6.023499"/>
 <rect x="334.305878" y="707.764709" width="30.117645" height="6.023499"/>
 <rect x="370.447052" y="707.764709" width="30.117645" height="6.023499"/>
 <rect x="406.588226" y="707.764709" width="30.117645" height="6.023499"/>
 <rect x="442.729401" y="707.764709" width="30.117645" height="6.023499"/>
 <rect x="478.870575" y="707.764709" width="30.117645" height="6.023499"/>
 <rect x="515.011780" y="707.764709" width="30.117615" height="6.023499"/>
 <rect x="551.152954" y="707.764709" width="30.117615" height="6.023499"/>
 <rect x="587.294128" y="707.764709" width="30.117615" height="6.023499"/>
 <rect x="623.435303" y="707.764709" width="30.117676" height="6.023499"/>
 <rect x="659.576477" y="707.764709" width="30.117615" height="6.023499"/>
 <rect x="695.717651" y="707.764709" width="30.117676" height="6.023499"/>
 <rect x="731.858826" y="707.764709" width="30.117615" height="6.023499"/>
 <rect x="768.000000" y="707.764709" width="30.117676" height="6.023499"/>
 <rect x="804.141174" y="707.764709" width="30.117615" height="6.023499"/>
 <rect x="840.282349" y="707.764709" width="30.117676" height="6.023499"/>
 <rect x="1020.988220" y="707.764709" width="3.011780" height="3.011780"/>
 <rect x="1020.988220" y="710.776489" width="3.011780" height="3.011719"/>
 <rect x="1020.988220" y="713.788208" width="3.011780" height="3.011780"/>
 <rect x="1020.988220" y="716.799988" width="3.011780" height="3.011780"/>
 <rect x="153.600006" y="719.811768" width="30.117645" height="6.023560"/>
 <rect x="189.741180" y="719.811768" width="30.117645" height="6.023560"/>
 <rect x="225.882355" y="719.811768" width="30.117645" height="6.023560"/>
 <rect x="262.023529" y="719.811768" width="30.117645" height="6.023560"/>
 <rect x="298.164703" y="719.811768" width="30.117645" height="6.023560"/>
 <rect x="334.305878" y="719.811768" width="30.117645" height="6.023560"/>
 <rect x="370.447052" y="719.811768" width="30.117645" height="6.023560"/>
 <rect x="406.588226" y="719.811768" width="30.117645" height="6.023560"/>
 <rect x="442.729401" y="719.811768" width="30.117645" height="6.023560"/>
 <rect x="478.870575" y="719.811768" width="30.117645" height="6.023560"/>
 <rect x="515.011780" y="719.811768" width="30.117615" height="6.023560"/>
 <rect x="551.152954" y="719.811768" width="30.117615" height="6.023560"/>
 <rect x="587.294128" y="719.811768" width="30.117615" height="6.023560"/>
 <rect x="623.435303" y="719.811768" width="30.117676" height="6.023560"/>
 <rect x="659.576477" y="719.811768" width="30.117615" height="6.023560"/>
 <rect x="695.717651" y="719.811768" width="30.117676" height="6.023560"/>
 <rect x="731.858826" y="719.811768" width="30.117615" height="6.023560"/>
 <rect x="768.000000" y="719.811768" width="30.117676" height="6.023560"/>
 <rect x="804.141174" y="719.811768" width="30.117615" height="6.023560"/>
 <rect x="840.282349" y="719.811768" width="30.117676" height="6.023560"/>
 <rect x="1020.988220" y="719.811768" width="3.011780" height="3.011780"/>
 <rect x="1020.988220" y="722.823547" width="3.011780" height="3.011780"/>
 <rect x="1020.988220" y="725.835327" width="3.011780" height="3.011719"/>
 <rect x="1020.988220" y="728.847046" width="3.011780" height="3.011780"/>
 <rect x="153.600006" y="731.858826" width="30.117645" height="6.023499"/>
 <rect x="189.741180" y="731.858826" width="30.117645" height="6.023499"/>
 <rect x="225.882355" y="731.858826" width="30.117645" height="6.023499"/>
 <rect x="262.023529" y="731.858826" width="30.117645" height="6.023499"/>
 <rect x="298.164703" y="731.858826" width="30.117645" height="6.023499"/>
 <rect x="334.305878" y="731.858826" width="30.117645" height="6.023499"/>
 <rect x="370.447052" y="731.858826" width="30.117645" height="6.023499"/>
 <rect x="406.588226" y="731.858826" width="30.117645" height="6.023499"/>
 <rect x="442.729401" y="731.858826" width="30.117645" height="6.023499"/>
 <rect x="478.870575" y="731.858826" width="30.117645" height="6.023499"/>
 <rect x="515.011780" y="731.858826" width="30.117615" height="6.023499"/>
 <rect x="551.152954" y="731.858826" width="30.117615" height="6.023499"/>
 <rect x="587.294128" y="731.858826" width="30.117615" height="6.023499"/>
 <rect x="623.435303" y="731.858826" width="30.117676" height="6.023499"/>
 <rect x="659.576477" y="731.858826" width="30.117615" height="6.023499"/>
 <rect x="695.717651" y="731.858826" width="30.117676" height="6.023499"/>
 <rect x="731.858826" y="731.858826" width="30.117615" height="6.023499"/>
 <rect x="768.000000" y="731.858826" width="30.117676" height="6.023499"/>
 <rect x="804.141174" y="731.858826" width="30.117615" height="6.023499"/>
 <rect x="840.282349" y="731.858826" width="30.117676" height="6.023499"/>
 <rect x="1020.988220" y="731.858826" width="3.011780" height="3.011780"/>
 <rect x="1020.988220" y="734.870605" width="3.011780" height="3.011719"/>
 <rect x="1020.988220" y="737.882324" width="3.011780" height="3.011780"/>
 <rect x="1020.988220" y="740.894104" width="3.011780" height="3.011780"/>
 <rect x="153.600006" y="743.905884" width="30.117645" height="6.023560"/>
 <rect x="189.741180" y="743.905884" width="30.117645" height="6.023560"/>
 <rect x="225.882355" y="743.905884" width="30.117645" height="6.023560"/>
 <rect x="262.023529" y="743.905884" width="30.117645" height="6.023560"/>
 <rect x="298.164703" y="743.905884" width="30.117645" height="6.023560"/>
 <rect x="334.305878" y="743.905884" width="30.117645" height="6.023560"/>
 <rect x="370.447052" y="743.905884" width="30.117645" height="6.023560"/>
 <rect x="406.588226" y="743.905884" width="30.117645" height="6.023560"/>
 <rect x="442.729401" y="743.905884" width="30.117645" height="6.023560"/>
 <rect x="478.870575" y="743.905884" width="30.117645" height="6.023560"/>
 <rect x="515.011780" y="743.905884" width="30.117615" height="6.023560"/>
 <rect x="551.152954" y="743.905884" width="30.117615" height="6.023560"/>
 <rect x="587.294128" y="743.905884" width="30.117615" height="6.023560"/>
 <rect x="623.435303" y="743.905884" width="30.117676" height="6.023560"/>
 <rect x="659.576477" y="743.905884" width="30.117615" height="6.023560"/>
 <rect x="695.717651" y="743.905884" width="30.117676" height="6.023560"/>
 <rect x="731.858826" y="743.905884" width="30.117615" height="6.023560"/>
 <rect x="768.000000" y="743.905884" width="30.117676" height="6.023560"/>
 <rect x="804.141174" y="743.905884" width="30.117615" height="6.023560"/>
 <rect x="840.282349" y="743.905884" width="30.117676" height="6.023560"/>
 <rect x="1020.988220" y="743.905884" width="3.011780" height="3.011780"/>
 <rect x="1020.988220" y="746.917664" width="3.011780" height="3.011780"/>
 <rect x="1020.988220" y="749.929443" width="3.011780" height="3.011719"/>
 <rect x="1020.988220" y="752.941162" width="3.011780" height="3.011780"/>
 <rect x="3.011780" y="755.952942" width="3.011749" height="3.011780"/>
 <rect x="6.023529" y="755.952942" width="3.011780" height="3.011780"/>
 <rect x="9.035309" y="755.952942" width="3.011749" height="3.011780"/>
 <rect x="12.047058" y="755.952942" width="3.011780" height="3.011780"/>
 <rect x="15.058838" y="755.952942" width="3.011749" height="3.011780"/>
 <rect x="18.070587" y="755.952942" width="3.011780" height="3.011780"/>
 <rect x="21.082367" y="755.952942" width="3.011749" height="3.011780"/>
 <rect x="24.094116" y="755.952942" width="3.011780" height="3.011780"/>
 <rect x="27.105896" y="755.952942" width="3.011749" height="3.011780"/>
 <rect x="30.117645" y="755.952942" width="3.011780" height="3.011780"/>
 <rect x="33.129425" y="755.952942" width="3.011749" height="3.011780"/>
 <rect x="36.141174" y="755.952942" width="3.011780" height="3.011780"/>
 <rect x="39.152954" y="755.952942" width="3.011749" height="3.011780"/>
 <rect x="42.164703" y="755.952942" width="3.011780" height="3.011780"/>
 <rect x="45.176483" y="755.952942" width="3.011749" height="3.011780"/>
 <rect x="48.188232" y="755.952942" width="3.011780" height="3.011780"/>
 <rect x="51.200012" y="755.952942" width="3.011749" height="3.011780"/>
 <rect x="54.211761" y="755.952942" width="3.011780" height="3.011780"/>
 <rect x="57.223541" y="755.952942" width="3.011749" height="3.011780"/>
 <rect x="60.235291" y="755.952942" width="3.011780" height="3.011780"/>
 <rect x="63.247070" y="755.952942" width="3.011749" height="3.011780"/>
 <rect x="66.258820" y="755.952942" width="3.011780" height="3.011780"/>
 <rect x="69.270599" y="755.952942" width="3.011749" height="3.011780"/>
 <rect x="72.282349" y="755.952942" width="3.011780" height="3.011780"/>
 <rect x="75.294128" y="755.952942" width="3.011749" height="3.011780"/>
 <rect x="78.305878" y="755.952942" width="3.011780" height="3.011780"/>
 <rect x="81.317657" y="755.952942" width="3.011749" height="3.011780"/>
 <rect x="84.329407" y="755.952942" width="3.011780" height="3.011780"/>
 <rect x="87.341187" y="755.952942" width="3.011749" height="3.011780"/>
 <rect x="90.352936" y="755.952942" width="3.011780" height="3.011780"/>
 <rect x="93.364716" y="755.952942" width="3.011749" height="3.011780"/>
 <rect x="96.376465" y="755.952942" width="3.011780" height="3.011780"/>
 <rect x="99.388245" y="755.952942" width="3.011749" height="3.011780"/>
 <rect x="102.399994" y="755.952942" width="3.011780" height="3.011780"/>
 <rect x="105.411774" y="755.952942" width="3.011749" height="3.011780"/>
 <rect x="108.423523" y="755.952942" width="3.011780" height="3.011780"/>
 <rect x="111.435303" y="755.952942" width="3.011749" height="3.011780"/>
 <rect x="114.447052" y="755.952942" width="3.011780" height="3.011780"/>
 <rect x="117.458832" y="755.952942" width="3.011749" height="3.011780"/>
 <rect x="120.470581" y="755.952942" width="3.011780" height="3.011780"/>
 <rect x="123.482361" y="755.952942" width="3.011749" height="3.011780"/>
 <rect x="126.494110" y="755.952942" width="3.011780" height="3.011780"/>
 <rect x="129.505890" y="755.952942" width="3.011749" height="3.011780"/>
 <rect x="132.517639" y="755.952942" width="3.011780" height="3.011780"/>
 <rect x="135.529419" y="755.952942" width="3.011749" height="3.011780"/>
 <rect x="138.541168" y="755.952942" width="3.011780" height="3.011780"/>
 <rect x="141.552948" y="755.952942" width="3.011749" height="3.011780"/>
 <rect x="144.564697" y="755.952942" width="3.011780" height="3.011780"/>
 <rect x="147.576477" y="755.952942" width="3.011749" height="3.011780"/>
 <rect x="150.588226" y="755.952942" width="3.011780" height="3.011780"/>
 <rect x="153.600006" y="755.952942" width="3.011749" height="3.011780"/>
 <rect x="156.611755" y="755.952942" width="3.011780" height="3.011780"/>
 <rect x="159.623535" y="755.952942" width="3.011749" height="3.011780"/>
 <rect x="162.635284" y="755.952942" width="3.011780" height="3.011780"/>
 <rect x="165.647064" y="755.952942" width="3.011749" height="3.011780"/>
 <rect x="168.658813" y="755.952942" width="3.011780" height="3.011780"/>
 <rect x="171.670593" y="755.952942" width="3.011749" height="3.011780"/>
 <rect x="174.682343" y="755.952942" width="3.011780" height="3.011780"/>
 <rect x="177.694122" y="755.952942" width="3.011749" height="3.011780"/>
 <rect x="180.705872" y="755.952942" width="3.011780" height="3.011780"/>
 <rect x="183.717651" y="755.952942" width="3.011749" height="3.011780"/>
 <rect x="186.729401" y="755.952942" width="3.011780" height="3.011780"/>
 <rect x="189.741180" y="755.952942" width="3.011749" height="3.011780"/>
 <rect x="192.752930" y="755.952942" width="3.011780" height="3.011780"/>
 <rect x="195.764709" y="755.952942" width="3.011749" height="3.011780"/>
 <rect x="198.776459" y="755.952942" width="3.011780" height="3.011780"/>
 <rect x="201.788239" y="755.952942" width="3.011749" height="3.011780"/>
 <rect x="204.799988" y="755.952942" width="3.011780" height="3.011780"/>
 <rect x="207.811768" y="755.952942" width="3.011749" height="3.011780"/>
 <rect x="210.823517" y="755.952942" width="3.011780" height="3.011780"/>
 <rect x="213.835297" y="755.952942" width="3.011749" height="3.011780"/>
 <rect x="216.847046" y="755.952942" width="3.011780" height="3.011780"/>
 <rect x="219.858826" y="755.952942" width="3.011749" height="3.011780"/>
 <rect x="222.870575" y="755.952942" width="3.011780" height="3.011780"/>
 <rect x="225.882355" y="755.952942" width="3.011749" height="3.011780"/>
 <rect x="228.894104" y="755.952942" width="3.011780" height="3.011780"/>
 <rect x="231.905884" y="755.952942" width="3.011749" height="3.011780"/>
 <rect x="234.917633" y="755.952942" width="3.011780" height="3.011780"/>
 <rect x="237.929413" y="755.952942" width="3.011749" height="3.011780"/>
 <rect x="240.941162" y="755.952942" width="3.011780" height="3.011780"/>
 <rect x="243.952942" y="755.952942" width="3.011749" height="3.011780"/>
 <rect x="246.964691" y="755.952942" width="3.011780" height="3.011780"/>
 <rect x="249.976471" y="755.952942" width="3.011749" height="3.011780"/>
 <rect x="252.988220" y="755.952942" width="3.011780" height="3.011780"/>
 <rect x="256.000000" y="755.952942" width="3.011780" height="3.011780"/>
 <rect x="259.011780" y="755.952942" width="3.011749" height="3.011780"/>
 <rect x="262.023529" y="755.952942" width="3.011749" height="3.011780"/>
 <rect x="265.035278" y="755.952942" width="3.011780" height="3.011780"/>
 <rect x="268.047058" y="755.952942" width="3.011780" height="3.011780"/>
 <rect x="271.058838" y="755.952942" width="3.011749" height="3.011780"/>
 <rect x="274.070587" y="755.952942" width="3.011749" height="3.011780"/>
 <rect x="277.082336" y="755.952942" width="3.011780" height="3.011780"/>
 <rect x="280.094116" y="755.952942" width="3.011780" height="3.011780"/>
 <rect x="283.105896" y="755.952942" width="3.011749" height="3.011780"/>
 <rect x="286.117645" y="755.952942" width="3.011749" height="3.011780"/>
 <rect x="289.129395" y="755.952942" width="3.011780" height="3.011780"/>
 <rect x="292.141174" y="755.952942" width="3.011780" height="3.011780"/>
 <rect x="295.152954" y="755.952942" width="3.011749" height="3.011780"/>
 <rect x="298.164703" y="755.952942" width="3.011749" height="3.011780"/>
 <rect x="301.176453" y="755.952942" width="3.011780" height="3.011780"/>
 <rect x="304.188232" y="755.952942" width="3.011780" height="3.011780"/>
 <rect x="307.200012" y="755.952942" width="3.011749" height="3.011780"/>
 <rect x="310.211761" y="755.952942" width="3.011749" height="3.011780"/>
 <rect x="313.223511" y="755.952942" width="3.011780" height="3.011780"/>
 <rect x="316.235291" y="755.952942" width="3.011780" height="3.011780"/>
 <rect x="319.247070" y="755.952942" width="3.011749" height="3.011780"/>
 <rect x="322.258820" y="755.952942" width="3.011749" height="3.011780"/>
 <rect x="325.270569" y="755.952942" width="3.011780" height="3.011780"/>
 <rect x="328.282349" y="755.952942" width="3.011780" height="3.011780"/>
 <rect x="331.294128" y="755.952942" width="3.011749" height="3.011780"/>
 <rect x="334.305878" y="755.952942" width="3.011749" height="3.011780"/>
 <rect x="337.317627" y="755.952942" width="3.011780" height="3.011780"/>
 <rect x="340.329407" y="755.952942" width="3.011780" height="3.011780"/>
 <rect x="343.341187" y="755.952942" width="3.011749" height="3.011780"/>
 <rect x="346.352936" y="755.952942" width="3.011749" height="3.011780"/>
 <rect x="349.364685" y="755.952942" width="3.011780" height="3.011780"/>
 <rect x="352.376465" y="755.952942" width="3.011780" height="3.011780"/>
 <rect x="355.388245" y="755.952942" width="3.011749" height="3.011780"/>
 <rect x="358.399994" y="755.952942" width="3.011749" height="3.011780"/>
 <rect x="361.411743" y="755.952942" width="3.011780" height="3.011780"/>
 <rect x="364.423523" y="755.952942" width="3.011780" height="3.011780"/>
 <rect x="367.435303" y="755.952942" width="3.011749" height="3.011780"/>
 <rect x="370.447052" y="755.952942" width="3.011749" height="3.011780"/>
 <rect x="373.458801" y="755.952942" width="3.011780" height="3.011780"/>
 <rect x="376.470581" y="755.952942" width="3.011780" height="3.011780"/>
 <rect x="379.482361" y="755.952942" width="3.011749" height="3.011780"/>
 <rect x="382.494110" y="755.952942" width="3.011780" height="3.011780"/>
 <rect x="385.505890" y="755.952942" width="3.011749" height="3.011780"/>
 <rect x="388.517639" y="755.952942" width="3.011780" height="3.011780"/>
 <rect x="391.529419" y="755.952942" width="3.011749" height="3.011780"/>
 <rect x="394.541168" y="755.952942" width="3.011780" height="3.011780"/>
 <rect x="397.552948" y="755.952942" width="3.011749" height="3.011780"/>
 <rect x="400.564697" y="755.952942" width="3.011780" height="3.011780"/>
 <rect x="403.576477" y="755.952942" width="3.011749" height="3.011780"/>
 <rect x="406.588226" y="755.952942" width="3.011780" height="3.011780"/>
 <rect x="409.600006" y="755.952942" width="3.011749" height="3.011780"/>
 <rect x="412.611755" y="755.952942" width="3.011780" height="3.011780"/>
 <rect x="415.623535" y="755.952942" width="3.011749" height="3.011780"/>
 <rect x="418.635284" y="755.952942" width="3.011780" height="3.011780"/>
 <rect x="421.647064" y="755.952942" width="3.011749" height="3.011780"/>
 <rect x="424.658813" y="755.952942" width="3.011780" height="3.011780"/>
 <rect x="427.670593" y="755.952942" width="3.011749" height="3.011780"/>
 <rect x="430.682343" y="755.952942" width="3.011780" height="3.011780"/>
 <rect x="433.694122" y="755.952942" width="3.011749" height="3.011780"/>
 <rect x="436.705872" y="755.952942" width="3.011780" height="3.011780"/>
 <rect x="439.717651" y="755.952942" width="3.011749" height="3.011780"/>
 <rect x="442.729401" y="755.952942" width="3.011780" height="3.011780"/>
 <rect x="445.741180" y="755.952942" width="3.011749" height="3.011780"/>
 <rect x="448.752930" y="755.952942" width="3.011780" height="3.011780"/>
 <rect x="451.764709" y="755.952942" width="3.011749" height="3.011780"/>
 <rect x="454.776459" y="755.952942" width="3.011780" height="3.011780"/>
 <rect x="457.788239" y="755.952942" width="3.011749" height="3.011780"/>
 <rect x="460.799988" y="755.952942" width="3.011780" height="3.011780"/>
 <rect x="463.811768" y="755.952942" width="3.011749" height="3.011780"/>
 <rect x="466.823517" y="755.952942" width="3.011780" height="3.011780"/>
 <rect x="469.835297" y="755.952942" width="3.011749" height="3.011780"/>
 <rect x="472.847046" y="755.952942" width="3.011780" height="3.011780"/>
 <rect x="475.858826" y="755.952942" width="3.011749" height="3.011780"/>
 <rect x="478.870575" y="755.952942" width="3.011780" height="3.011780"/>
 <rect x="481.882355" y="755.952942" width="3.011749" height="3.011780"/>
 <rect x="484.894104" y="755.952942" width="3.011780" height="3.011780"/>
 <rect x="487.905884" y="755.952942" width="3.011749" height="3.011780"/>
 <rect x="490.917633" y="755.952942" width="3.011780" height="3.011780"/>
 <rect x="493.929413" y="755.952942" width="3.011749" height="3.011780"/>
 <rect x="496.941162" y="755.952942" width="3.011780" height="3.011780"/>
 <rect x="499.952942" y="755.952942" width="3.011749" height="3.011780"/>
 <rect x="502.964691" y="755.952942" width="3.011780" height="3.011780"/>
 <rect x="505.976471" y="755.952942" width="3.011749" height="3.011780"/>
 <rect x="508.988220" y="755.952942" width="3.011780" height="3.011780"/>
 <rect x="512.000000" y="755.952942" width="3.011780" height="3.011780"/>
 <rect x="515.011780" y="755.952942" width="3.011780" height="3.011780"/>
 <rect x="518.023560" y="755.952942" width="3.011719" height="3.011780"/>
 <rect x="521.035278" y="755.952942" width="3.011780" height="3.011780"/>
 <rect x="524.047058" y="755.952942" width="3.011780" height="3.011780"/>
 <rect x="527.058838" y="755.952942" width="3.011780" height="3.011780"/>
 <rect x="530.070618" y="755.952942" width="3.011719" height="3.011780"/>
 <rect x="533.082336" y="755.952942" width="3.011780" height="3.011780"/>
 <rect x="536.094116" y="755.952942" width="3.011780" height="3.011780"/>
 <rect x="539.105896" y="755.952942" width="3.011780" height="3.011780"/>
 <rect x="542.117676" y="755.952942" width="3.011719" height="3.011780"/>
 <rect x="545.129395" y="755.952942" width="3.011780" height="3.011780"/>
 <rect x="548.141174" y="755.952942" width="3.011780" height="3.011780"/>
 <rect x="551.152954" y="755.952942" width="3.011780" height="3.011780"/>
 <rect x="554.164734" y="755.952942" width="3.011719" height="3.011780"/>
 <rect x="557.176453" y="755.952942" width="3.011780" height="3.011780"/>
 <rect x="560.188232" y="755.952942" width="3.011780" height="3.011780"/>
 <rect x="563.200012" y="755.952942" width="3.011780" height="3.011780"/>
 <rect x="566.211792" y="755.952942" width="3.011719" height="3.011780"/>
 <rect x="569.223511" y="755.952942" width="3.011780" height="3.011780"/>
 <rect x="572.235291" y="755.952942" width="3.011780" height="3.011780"/>
 <rect x="575.247070" y="755.952942" width="3.011780" height="3.011780"/>
 <rect x="578.258850" y="755.952942" width="3.011719" height="3.011780"/>
 <rect x="581.270569" y="755.952942" width="3.011780" height="3.011780"/>
 <rect x="584.282349" y="755.952942" width="3.011780" height="3.011780"/>
 <rect x="587.294128" y="755.952942" width="3.011780" height="3.011780"/>
 <rect x="590.305908" y="755.952942" width="3.011719" height="3.011780"/>
 <rect x="593.317627" y="755.952942" width="3.011780" height="3.011780"/>
 <rect x="596.329407" y="755.952942" width="3.011780" height="3.011780"/>
 <rect x="599.341187" y="755.952942" width="3.011780" height="3.011780"/>
 <rect x="602.352966" y="755.952942" width="3.011719" height="3.011780"/>
 <rect x="605.364685" y="755.952942" width="3.011780" height="3.011780"/>
 <rect x="608.376465" y="755.952942" width="3.011780" height="3.011780"/>
 <rect x="611.388245" y="755.952942" width="3.011780" height="3.011780"/>
 <rect x="614.400024" y="755.952942" width="3.011719" height="3.011780"/>
 <rect x="617.411743" y="755.952942" width="3.011780" height="3.011780"/>
 <rect x="620.423523" y="755.952942" width="3.011780" height="3.011780"/>
 <rect x="623.435303" y="755.952942" width="3.011780" height="3.011780"/>
 <rect x="626.447083" y="755.952942" width="3.011719" height="3.011780"/>
 <rect x="629.458801" y="755.952942" width="3.011780" height="3.011780"/>
 <rect x="632.470581" y="755.952942" width="3.011780" height="3.011780"/>
 <rect x="635.482361" y="755.952942" width="3.011780" height="3.011780"/>
 <rect x="638.494141" y="755.952942" width="3.011719" height="3.011780"/>
 <rect x="641.505859" y="755.952942" width="3.011780" height="3.011780"/>
 <rect x="644.517639" y="755.952942" width="3.011780" height="3.011780"/>
 <rect x="647.529419" y="755.952942" width="3.011780" height="3.011780"/>
 <rect x="650.541199" y="755.952942" width="3.011780" height="3.011780"/>
 <rect x="653.552979" y="755.952942" width="3.011719" height="3.011780"/>
 <rect x="656.564697" y="755.952942" width="3.011780" height="3.011780"/>
 <rect x="659.576477" y="755.952942" width="3.011780" height="3.011780"/>
 <rect x="662.588257" y="755.952942" width="3.011719" height="3.011780"/>
 <rect x="665.599976" y="755.952942" width="3.011780" height="3.011780"/>
 <rect x="668.611755" y="755.952942" width="3.011780" height="3.011780"/>
 <rect x="671.623535" y="755.952942" width="3.011780" height="3.011780"/>
 <rect x="674.635315" y="755.952942" width="3.011780" height="3.011780"/>
 <rect x="677.647095" y="755.952942" width="3.011719" height="3.011780"/>
 <rect x="680.658813" y="755.952942" width="3.011780" height="3.011780"/>
 <rect x="683.670593" y="755.952942" width="3.011780" height="3.011780"/>
 <rect x="686.682373" y="755.952942" width="3.011719" height="3.011780"/>
 <rect x="689.694092" y="755.952942" width="3.011780" height="3.011780"/>
 <rect x="692.705872" y="755.952942" width="3.011780" height="3.011780"/>
 <rect x="695.717651" y="755.952942" width="3.011780" height="3.011780"/>
 <rect x="698.729431" y="755.952942" width="3.011780" height="3.011780"/>
 <rect x="701.741211" y="755.952942" width="3.011719" height="3.011780"/>
 <rect x="704.752930" y="755.952942" width="3.011780" height="3.011780"/>
 <rect x="707.764709" y="755.952942" width="3.011780" height="3.011780"/>
 <rect x="710.776489" y="755.952942" width="3.011719" height="3.011780"/>
 <rect x="713.788208" y="755.952942" width="3.011780" height="3.011780"/>
 <rect x="716.799988" y="755.952942" width="3.011780" height="3.011780"/>
 <rect x="719.811768" y="755.952942" width="3.011780" height="3.011780"/>
 <rect x="722.823547" y="755.952942" width="3.011780" height="3.011780"/>
 <rect x="725.835327" y="755.952942" width="3.011719" height="3.011780"/>
 <rect x="728.847046" y="755.952942" width="3.011780" height="3.011780"/>
 <rect x="731.858826" y="755.952942" width="3.011780" height="3.011780"/>
 <rect x="734.870605" y="755.952942" width="3.011719" height="3.011780"/>
 <rect x="737.882324" y="755.952942" width="3.011780" height="3.011780"/>
 <rect x="740.894104" y="755.952942" width="3.011780" height="3.011780"/>
 <rect x="743.905884" y="755.952942" width="3.011780" height="3.011780"/>
 <rect x="746.917664" y="755.952942" width="3.011780" height="3.011780"/>
 <rect x="749.929443" y="755.952942" width="3.011719" height="3.011780"/>
 <rect x="752.941162" y="755.952942" width="3.011780" height="3.011780"/>
 <rect x="755.952942" y="755.952942" width="3.011780" height="3.011780"/>
 <rect x="758.964722" y="755.952942" width="3.011719" height="3.011780"/>
 <rect x="761.976440" y="755.952942" width="3.011780" height="3.011780"/>
 <rect x="764.988220" y="755.952942" width="3.011780" height="3.011780"/>
 <rect x="768.000000" y="755.952942" width="3.011780" height="3.011780"/>
 <rect x="771.011780" y="755.952942" width="3.011780" height="3.011780"/>
 <rect x="774.023560" y="755.952942" width="3.011719" height="3.011780"/>
 <rect x="777.035278" y="755.952942" width="3.011780" height="3.011780"/>
 <rect x="780.047058" y="755.952942" width="3.011780" height="3.011780"/>
 <rect x="783.058838" y="755.952942" width="3.011719" height="3.011780"/>
 <rect x="786.070557" y="755.952942" width="3.011841" height="3.011780"/>
 <rect x="789.082397" y="755.952942" width="3.011719" height="3.011780"/>
 <rect x="792.094116" y="755.952942" width="3.011780" height="3.011780"/>
 <rect x="795.105896" y="755.952942" width="3.011780" height="3.011780"/>
 <rect x="798.117676" y="755.952942" width="3.011719" height="3.011780"/>
 <rect x="801.129395" y="755.952942" width="3.011780" height="3.011780"/>
 <rect x="804.141174" y="755.952942" width="3.011780" height="3.011780"/>
 <rect x="807.152954" y="755.952942" width="3.011719" height="3.011780"/>
 <rect x="810.164673" y="755.952942" width="3.011841" height="3.011780"/>
 <rect x="813.176514" y="755.952942" width="3.011719" height="3.011780"/>
 <rect x="816.188232" y="755.952942" width="3.011780" height="3.011780"/>
 <rect x="819.200012" y="755.952942" width="3.011780" height="3.011780"/>
 <rect x="822.211792" y="755.952942" width="3.011719" height="3.011780"/>
 <rect x="825.223511" y="755.952942" width="3.011780" height="3.011780"/>
 <rect x="828.235291" y="755.952942" width="3.011780" height="3.011780"/>
 <rect x="831.247070" y="755.952942" width="3.011719" height="3.011780"/>
 <rect x="834.258789" y="755.952942" width="3.011841" height="3.011780"/>
 <rect x="837.270630" y="755.952942" width="3.011719" height="3.011780"/>
 <rect x="840.282349" y="755.952942" width="3.011780" height="3.011780"/>
 <rect x="843.294128" y="755.952942" width="3.011780" height="3.011780"/>
 <rect x="846.305908" y="755.952942" width="3.011719" height="3.011780"/>
 <rect x="849.317627" y="755.952942" width="3.011780" height="3.011780"/>
 <rect x="852.329407" y="755.952942" width="3.011780" height="3.011780"/>
 <rect x="855.341187" y="755.952942" width="3.011719" height="3.011780"/>
 <rect x="858.352905" y="755.952942" width="3.011841" height="3.011780"/>
 <rect x="861.364746" y="755.952942" width="3.011719" height="3.011780"/>
 <rect x="864.376465" y="755.952942" width="3.011780" height="3.011780"/>
 <rect x="867.388245" y="755.952942" width="3.011780" height="3.011780"/>
 <rect x="870.400024" y="755.952942" width="3.011719" height="3.011780"/>
 <rect x="873.411743" y="755.952942" width="3.011780" height="3.011780"/>
 <rect x="876.423523" y="755.952942" width="3.011780" height="3.011780"/>
 <rect x="879.435303" y="755.952942" width="3.011719" height="3.011780"/>
 <rect x="882.447021" y="755.952942" width="3.011841" height="3.011780"/>
 <rect x="885.458862" y="755.952942" width="3.011719" height="3.011780"/>
 <rect x="888.470581" y="755.952942" width="3.011780" height="3.011780"/>
 <rect x="891.482361" y="755.952942" width="3.011780" height="3.011780"/>
 <rect x="894.494141" y="755.952942" width="3.011719" height="3.011780"/>
 <rect x="897.505859" y="755.952942" width="3.011780" height="3.011780"/>
 <rect x="900.517639" y="755.952942" width="3.011780" height="3.011780"/>
 <rect x="903.529419" y="755.952942" width="3.011719" height="3.011780"/>
 <rect x="906.541138" y="755.952942" width="3.011841" height="3.011780"/>
 <rect x="909.552979" y="755.952942" width="3.011719" height="3.011780"/>
 <rect x="912.564697" y="755.952942" width="3.011780" height="3.011780"/>
 <rect x="915.576477" y="755.952942" width="3.011780" height="3.011780"/>
 <rect x="918.588257" y="755.952942" width="3.011719" height="3.011780"/>
 <rect x="921.599976" y="755.952942" width="3.011780" height="3.011780"/>
 <rect x="924.611755" y="755.952942" width="3.011780" height="3.011780"/>
 <rect x="927.623535" y="755.952942" width="3.011719" height="3.011780"/>
 <rect x="930.635254" y="755.952942" width="3.011841" height="3.011780"/>
 <rect x="933.647095" y="755.952942" width="3.011719" height="3.011780"/>
 <rect x="936.658813" y="755.952942" width="3.011780" height="3.011780"/>
 <rect x="939.670593" y="755.952942" width="3.011780" height="3.011780"/>
 <rect x="942.682373" y="755.952942" width="3.011719" height="3.011780"/>
 <rect x="945.694092" y="755.952942" width="3.011780" height="3.011780"/>
 <rect x="948.705872" y="755.952942" width="3.011780" height="3.011780"/>
 <rect x="951.717651" y="755.952942" width="3.011719" height="3.011780"/>
 <rect x="954.729370" y="755.952942" width="3.011841" height="3.011780"/>
 <rect x="957.741211" y="755.952942" width="3.011719" height="3.011780"/>
 <rect x="960.752930" y="755.952942" width="3.011780" height="3.011780"/>
 <rect x="963.764709" y="755.952942" width="3.011780" height="3.011780"/>
 <rect x="966.776489" y="755.952942" width="3.011719" height="3.011780"/>
 <rect x="969.788208" y="755.952942" width="3.011780" height="3.011780"/>
 <rect x="972.799988" y="755.952942" width="3.011780" height="3.011780"/>
 <rect x="975.811768" y="755.952942" width="3.011719" height="3.011780"/>
 <rect x="978.823486" y="755.952942" width="3.011841" height="3.011780"/>
 <rect x="981.835327" y="755.952942" width="3.011719" height="3.011780"/>
 <rect x="984.847046" y="755.952942" width="3.011780" height="3.011780"/>
 <rect x="987.858826" y="755.952942" width="3.011780" height="3.011780"/>
 <rect x="990.870605" y="755.952942" width="3.011719" height="3.011780"/>
 <rect x="993.882324" y="755.952942" width="3.011780" height="3.011780"/>
 <rect x="996.894104" y="755.952942" width="3.011780" height="3.011780"/>
 <rect x="999.905884" y="755.952942" width="3.011719" height="3.011780"/>
 <rect x="1002.917603" y="755.952942" width="3.011841" height="3.011780"/>
 <rect x="1005.929443" y="755.952942" width="3.011719" height="3.011780"/>
 <rect x="1008.941162" y="755.952942" width="3.011780" height="3.011780"/>
 <rect x="1011.952942" y="755.952942" width="3.011780" height="3.011780"/>
 <rect x="1014.964722" y="755.952942" width="3.011719" height="3.011780"/>
 <rect x="1017.976440" y="755.952942" width="3.011780" height="3.011780"/>
 <rect x="1020.988220" y="755.952942" width="3.011780" height="3.011780"/>
</g>
</svg>