<svg xmlns="http://www.w3.org/2000/svg" version="1.1" width = "1027" height = "1027" viewBox = "-1 -1 1026 1026"  preserveAspectRatio = "none">
<rect x="0.000000" y="0.000000" width="1024.00000000" height="1024.00000000" style="fill:rgb(0,0,0);" /><rect x="0.000000" y="259.011780" width="1024.00000000" height="505.97644043" style="fill:rgb(229,229,229);" /><g style="fill:rgb(0,127,0);">
 <rect x="0.000000" y="259.011780" width="6.023529" height="505.976440"/>
 <rect x="6.023529" y="259.011780" width="1017.976440" height="6.023499"/>
 <rect x="1017.976440" y="265.035278" width="6.023560" height="6.023560"/>
 <rect x="1017.976440" y="271.058838" width="6.023560" height="6.023499"/>
 <rect x="156.611755" y="277.082336" width="60.235291" height="12.047058"/>
 <rect x="228.894104" y="277.082336" width="60.235291" height="12.047058"/>
 <rect x="301.176453" y="277.082336" width="60.235291" height="12.047058"/>
 <rect x="373.458801" y="277.082336" width="60.235321" height="12.047058"/>
 <rect x="445.741180" y="277.082336" width="60.235291" height="12.047058"/>
 <rect x="518.023560" y="277.082336" width="60.235291" height="12.047058"/>
 <rect x="590.305908" y="277.082336" width="60.235291" height="12.047058"/>
 <rect x="662.588257" y="277.082336" width="60.235291" height="12.047058"/>
 <rect x="734.870605" y="277.082336" width="60.235291" height="12.047058"/>
 <rect x="807.152954" y="277.082336" width="60.235291" height="12.047058"/>
 <rect x="1017.976440" y="277.082336" width="6.023560" height="6.023560"/>
 <rect x="1017.976440" y="283.105896" width="6.023560" height="6.023499"/>
 <rect x="1017.976440" y="289.129395" width="6.023560" height="6.023560"/>
 <rect x="1017.976440" y="295.152954" width="6.023560" height="6.023499"/>
 <rect x="156.611755" y="301.176453" width="60.235291" height="12.047058"/>
 <rect x="228.894104" y="301.176453" width="60.235291" height="12.047058"/>
 <rect x="301.176453" y="301.176453" width="60.235291" height="12.047058"/>
 <rect x="373.458801" y="301.176453" width="60.235321" height="12.047058"/>
 <rect x="445.741180" y="301.176453" width="60.235291" height="12.047058"/>
 <rect x="518.023560" y="301.176453" width="60.235291" height="12.047058"/>
 <rect x="590.305908" y="301.176453" width="60.235291" height="12.047058"/>
 <rect x="662.588257" y="301.176453" width="60.235291" height="12.047058"/>
 <rect x="734.870605" y="301.176453" width="60.235291" height="12.047058"/>
 <rect x="807.152954" y="301.176453" width="60.235291" height="12.047058"/>
 <rect x="1017.976440" y="301.176453" width="6.023560" height="6.023560"/>
 <rect x="1017.976440" y="307.200012" width="6.023560" height="6.023499"/>
 <rect x="1017.976440" y="313.223511" width="6.023560" height="6.023560"/>
 <rect x="1017.976440" y="319.247070" width="6.023560" height="6.023499"/>
 <rect x="156.611755" y="325.270569" width="60.235291" height="12.047058"/>
 <rect x="228.894104" y="325.270569" width="60.235291" height="12.047058"/>
 <rect x="301.176453" y="325.270569" width="60.235291" height="12.047058"/>
 <rect x="373.458801" y="325.270569" width="60.235321" height="12.047058"/>
 <rect x="445.741180" y="325.270569" width="60.235291" height="12.047058"/>
 <rect x="518.023560" y="325.270569" width="60.235291" height="12.047058"/>
 <rect x="590.305908" y="325.270569" width="60.235291" height="12.047058"/>
 <rect x="662.588257" y="325.270569" width="60.235291" height="12.047058"/>
 <rect x="734.870605" y="325.270569" width="60.235291" height="12.047058"/>
 <rect x="807.152954" y="325.270569" width="60.235291" height="12.047058"/>
 <rect x="1017.976440" y="325.270569" width="6.023560" height="6.023560"/>
 <rect x="1017.976440" y="331.294128" width="6.023560" height="6.023499"/>
 <rect x="1017.976440" y="337.317627" width="6.023560" height="6.023560"/>
 <rect x="1017.976440" y="343.341187" width="6.023560" height="6.023499"/>
 <rect x="156.611755" y="349.364685" width="60.235291" height="12.047058"/>
 <rect x="228.894104" y="349.364685" width="60.235291" height="12.047058"/>
 <rect x="301.176453" y="349.364685" width="60.235291" height="12.047058"/>
 <rect x="373.458801" y="349.364685" width="60.235321" height="12.047058"/>
 <rect x="445.741180" y="349.364685" width="60.235291" height="12.047058"/>
 <rect x="518.023560" y="349.364685" width="60.235291" height="12.047058"/>
 <rect x="590.305908" y="349.364685" width="60.235291" height="12.047058"/>
 <rect x="662.588257" y="349.364685" width="60.235291" height="12.047058"/>
 <rect x="734.870605" y="349.364685" width="60.235291" height="12.047058"/>
 <rect x="807.152954" y="349.364685" width="60.235291" height="12.047058"/>
 <rect x="1017.976440" y="349.364685" width="6.023560" height="6.023560"/>
 <rect x="1017.976440" y="355.388245" width="6.023560" height="6.023499"/>
 <rect x="1017.976440" y="361.411743" width="6.023560" height="6.023560"/>
 <rect x="1017.976440" y="367.435303" width="6.023560" height="6.023499"/>
 <rect x="156.611755" y="373.458801" width="60.235291" height="12.047089"/>
 <rect x="228.894104" y="373.458801" width="60.235291" height="12.047089"/>
 <rect x="301.176453" y="373.458801" width="60.235291" height="12.047089"/>
 <rect x="373.458801" y="373.458801" width="60.235321" height="12.047089"/>
 <rect x="445.741180" y="373.458801" width="60.235291" height="12.047089"/>
 <rect x="518.023560" y="373.458801" width="60.235291" height="12.047089"/>
 <rect x="590.305908" y="373.458801" width="60.235291" height="12.047089"/>
 <rect x="662.588257" y="373.458801" width="60.235291" height="12.047089"/>
 <rect x="734.870605" y="373.458801" width="60.235291" height="12.047089"/>
 <rect x="807.152954" y="373.458801" width="60.235291" height="12.047089"/>
 <rect x="1017.976440" y="373.458801" width="6.023560" height="6.023560"/>
 <rect x="1017.976440" y="379.482361" width="6.023560" height="6.023529"/>
 <rect x="1017.976440" y="385.505890" width="6.023560" height="6.023529"/>
 <rect x="1017.976440" y="391.529419" width="6.023560" height="6.023529"/>
 <rect x="156.611755" y="397.552948" width="60.235291" height="12.047058"/>
 <rect x="228.894104" y="397.552948" width="60.235291" height="12.047058"/>
 <rect x="301.176453" y="397.552948" width="60.235291" height="12.047058"/>
 <rect x="373.458801" y="397.552948" width="60.235321" height="12.047058"/>
 <rect x="445.741180" y="397.552948" width="60.235291" height="12.047058"/>
 <rect x="518.023560" y="397.552948" width="60.235291" height="12.047058"/>
 <rect x="590.305908" y="397.552948" width="60.235291" height="12.047058"/>
 <rect x="662.588257" y="397.552948" width="60.235291" height="12.047058"/>
 <rect x="734.870605" y="397.552948" width="60.235291" height="12.047058"/>
 <rect x="807.152954" y="397.552948" width="60.235291" height="12.047058"/>
 <rect x="1017.976440" y="397.552948" width="6.023560" height="6.023529"/>
 <rect x="1017.976440" y="403.576477" width="6.023560" height="6.023529"/>
 <rect x="1017.976440" y="409.600006" width="6.023560" height="6.023529"/>
 <rect x="1017.976440" y="415.623535" width="6.023560" height="6.023529"/>
 <rect x="156.611755" y="421.647064" width="60.235291" height="12.047058"/>
 <rect x="228.894104" y="421.647064" width="60.235291" height="12.047058"/>
 <rect x="301.176453" y="421.647064" width="60.235291" height="12.047058"/>
 <rect x="373.458801" y="421.647064" width="60.235321" height="12.047058"/>
 <rect x="445.741180" y="421.647064" width="60.235291" height="12.047058"/>
 <rect x="518.023560" y="421.647064" width="60.235291" height="12.047058"/>
 <rect x="590.305908" y="421.647064" width="60.235291" height="12.047058"/>
 <rect x="662.588257" y="421.647064" width="60.235291" height="12.047058"/>
 <rect x="734.870605" y="421.647064" width="60.235291" height="12.047058"/>
 <rect x="807.152954" y="421.647064" width="60.235291" height="12.047058"/>
 <rect x="1017.976440" y="421.647064" width="6.023560" height="6.023529"/>
 <rect x="1017.976440" y="427.670593" width="6.023560" height="6.023529"/>
 <rect x="1017.976440" y="433.694122" width="6.023560" height="6.023529"/>
 <rect x="1017.976440" y="439.717651" width="6.023560" height="6.023529"/>
 <rect x="156.611755" y="445.741180" width="60.235291" height="12.047058"/>
 <rect x="228.894104" y="445.741180" width="60.235291" height="12.047058"/>
 <rect x="301.176453" y="445.741180" width="60.235291" height="12.047058"/>
 <rect x="373.458801" y="445.741180" width="60.235321" height="12.047058"/>
 <rect x="445.741180" y="445.741180" width="60.235291" height="12.047058"/>
 <rect x="518.023560" y="445.741180" width="60.235291" height="12.047058"/>
 <rect x="590.305908" y="445.741180" width="60.235291" height="12.047058"/>
 <rect x="662.588257" y="445.741180" width="60.235291" height="12.047058"/>
 <rect x="734.870605" y="445.741180" width="60.235291" height="12.047058"/>
 <rect x="807.152954" y="445.741180" width="60.235291" height="12.047058"/>
 <rect x="1017.976440" y="445.741180" width="6.023560" height="6.023529"/>
 <rect x="1017.976440" y="451.764709" width="6.023560" height="6.023529"/>
 <rect x="1017.976440" y="457.788239" width="6.023560" height="6.023529"/>
 <rect x="1017.976440" y="463.811768" width="6.023560" height="6.023529"/>
 <rect x="156.611755" y="469.835297" width="60.235291" height="12.047058"/>
 <rect x="228.894104" y="469.835297" width="60.235291" height="12.047058"/>
 <rect x="301.176453" y="469.835297" width="60.235291" height="12.047058"/>
 <rect x="373.458801" y="469.835297" width="60.235321" height="12.047058"/>
 <rect x="445.741180" y="469.835297" width="60.235291" height="12.047058"/>
 <rect x="518.023560" y="469.835297" width="60.235291" height="12.047058"/>
 <rect x="590.305908" y="469.835297" width="60.235291" height="12.047058"/>
 <rect x="662.588257" y="469.835297" width="60.235291" height="12.047058"/>
 <rect x="734.870605" y="469.835297" width="60.235291" height="12.047058"/>
 <rect x="807.152954" y="469.835297" width="60.235291" height="12.047058"/>
 <rect x="1017.976440" y="469.835297" width="6.023560" height="6.023529"/>
 <rect x="1017.976440" y="475.858826" width="6.023560" height="6.023529"/>
 <rect x="1017.976440" y="481.882355" width="6.023560" height="6.023529"/>
 <rect x="1017.976440" y="487.905884" width="6.023560" height="6.023529"/>
 <rect x="156.611755" y="493.929413" width="60.235291" height="12.047058"/>
 <rect x="228.894104" y="493.929413" width="60.235291" height="12.047058"/>
 <rect x="301.176453" y="493.929413" width="60.235291" height="12.047058"/>
 <rect x="373.458801" y="493.929413" width="60.235321" height="12.047058"/>
 <rect x="445.741180" y="493.929413" width="60.235291" height="12.047058"/>
 <rect x="518.023560" y="493.929413" width="60.235291" height="12.047058"/>
 <rect x="590.305908" y="493.929413" width="60.235291" height="12.047058"/>
 <rect x="662.588257" y="493.929413" width="60.235291" height="12.047058"/>
 <rect x="734.870605" y="493.929413" width="60.235291" height="12.047058"/>
 <rect x="807.152954" y="493.929413" width="60.235291" height="12.047058"/>
 <rect x="1017.976440" y="493.929413" width="6.023560" height="6.023529"/>
 <rect x="1017.976440" y="499.952942" width="6.023560" height="6.023529"/>
 <rect x="1017.976440" y="505.976471" width="6.023560" height="6.023529"/>
 <rect x="1017.976440" y="512.000000" width="6.023560" height="6.023560"/>
 <rect x="156.611755" y="518.023560" width="60.235291" height="12.047058"/>
 <rect x="228.894104" y="518.023560" width="60.235291" height="12.047058"/>
 <rect x="301.176453" y="518.023560" width="60.235291" height="12.047058"/>
 <rect x="373.458801" y="518.023560" width="60.235321" height="12.047058"/>
 <rect x="445.741180" y="518.023560" width="60.235291" height="12.047058"/>
 <rect x="518.023560" y="518.023560" width="60.235291" height="12.047058"/>
 <rect x="590.305908" y="518.023560" width="60.235291" height="12.047058"/>
 <rect x="662.588257" y="518.023560" width="60.235291" height="12.047058"/>
 <rect x="734.870605" y="518.023560" width="60.235291" height="12.047058"/>
 <rect x="807.152954" y="518.023560" width="60.235291" height="12.047058"/>
 <rect x="1017.976440" y="518.023560" width="6.023560" height="6.023499"/>
 <rect x="1017.976440" y="524.047058" width="6.023560" height="6.023560"/>
 <rect x="1017.976440" y="530.070618" width="6.023560" height="6.023499"/>
 <rect x="1017.976440" y="536.094116" width="6.023560" height="6.023560"/>
 <rect x="156.611755" y="542.117676" width="60.235291" height="12.047058"/>
 <rect x="228.894104" y="542.117676" width="60.235291" height="12.047058"/>
 <rect x="301.176453" y="542.117676" width="60.235291" height="12.047058"/>
 <rect x="373.458801" y="542.117676" width="60.235321" height="12.047058"/>
 <rect x="445.741180" y="542.117676" width="60.235291" height="12.047058"/>
 <rect x="518.023560" y="542.117676" width="60.235291" height="12.047058"/>
 <rect x="590.305908" y="542.117676" width="60.235291" height="12.047058"/>
 <rect x="662.588257" y="542.117676" width="60.235291" height="12.047058"/>
 <rect x="734.870605" y="542.117676" width="60.235291" height="12.047058"/>
 <rect x="807.152954" y="542.117676" width="60.235291" height="12.047058"/>
 <rect x="1017.976440" y="542.117676" width="6.023560" height="6.023499"/>
 <rect x="1017.976440" y="548.141174" width="6.023560" height="6.023560"/>
 <rect x="1017.976440" y="554.164734" width="6.023560" height="6.023499"/>
 <rect x="1017.976440" y="560.188232" width="6.023560" height="6.023560"/>
 <rect x="156.611755" y="566.211792" width="60.235291" height="12.047058"/>
 <rect x="228.894104" y="566.211792" width="60.235291" height="12.047058"/>
 <rect x="301.176453" y="566.211792" width="60.235291" height="12.047058"/>
 <rect x="373.458801" y="566.211792" width="60.235321" height="12.047058"/>
 <rect x="445.741180" y="566.211792" width="60.235291" height="12.047058"/>
 <rect x="518.023560" y="566.211792" width="60.235291" height="12.047058"/>
 <rect x="590.305908" y="566.211792" width="60.235291" height="12.047058"/>
 <rect x="662.588257" y="566.211792" width="60.235291" height="12.047058"/>
 <rect x="734.870605" y="566.211792" width="60.235291" height="12.047058"/>
 <rect x="807.152954" y="566.211792" width="60.235291" height="12.047058"/>
 <rect x="1017.976440" y="566.211792" width="6.023560" height="6.023499"/>
 <rect x="1017.976440" y="572.235291" width="6.023560" height="6.023560"/>
 <rect x="1017.976440" y="578.258850" width="6.023560" height="6.023499"/>
 <rect x="1017.976440" y="584.282349" width="6.023560" height="6.023560"/>
 <rect x="156.611755" y="590.305908" width="60.235291" height="12.047058"/>
 <rect x="228.894104" y="590.305908" width="60.235291" height="12.047058"/>
 <rect x="301.176453" y="590.305908" width="60.235291" height="12.047058"/>
 <rect x="373.458801" y="590.305908" width="60.235321" height="12.047058"/>
 <rect x="445.741180" y="590.305908" width="60.235291" height="12.047058"/>
 <rect x="518.023560" y="590.305908" width="60.235291" height="12.047058"/>
 <rect x="590.305908" y="590.305908" width="60.235291" height="12.047058"/>
 <rect x="662.588257" y="590.305908" width="60.235291" height="12.047058"/>
 <rect x="734.870605" y="590.305908" width="60.235291" height="12.047058"/>
 <rect x="807.152954" y="590.305908" width="60.235291" height="12.047058"/>
 <rect x="1017.976440" y="590.305908" width="6.023560" height="6.023499"/>
 <rect x="1017.976440" y="596.329407" width="6.023560" height="6.023560"/>
 <rect x="1017.976440" y="602.352966" width="6.023560" height="6.023499"/>
 <rect x="1017.976440" y="608.376465" width="6.023560" height="6.023560"/>
 <rect x="156.611755" y="614.400024" width="60.235291" height="12.047058"/>
 <rect x="228.894104" y="614.400024" width="60.235291" height="12.047058"/>
 <rect x="301.176453" y="614.400024" width="60.235291" height="12.047058"/>
 <rect x="373.458801" y="614.400024" width="60.235321" height="12.047058"/>
 <rect x="445.741180" y="614.400024" width="60.235291" height="12.047058"/>
 <rect x="518.023560" y="614.400024" width="60.235291" height="12.047058"/>
 <rect x="590.305908" y="614.400024" width="60.235291" height="12.047058"/>
 <rect x="662.588257" y="614.400024" width="60.235291" height="12.047058"/>
 <rect x="734.870605" y="614.400024" width="60.235291" height="12.047058"/>
 <rect x="807.152954" y="614.400024" width="60.235291" height="12.047058"/>
 <rect x="1017.976440" y="614.400024" width="6.023560" height="6.023499"/>
 <rect x="1017.976440" y="620.423523" width="6.023560" height="6.023560"/>
 <rect x="1017.976440" y="626.447083" width="6.023560" height="6.023499"/>
 <rect x="1017.976440" y="632.470581" width="6.023560" height="6.023560"/>
 <rect x="156.611755" y="638.494141" width="60.235291" height="12.047058"/>
 <rect x="228.894104" y="638.494141" width="60.235291" height="12.047058"/>
 <rect x="301.176453" y="638.494141" width="60.235291" height="12.047058"/>
 <rect x="373.458801" y="638.494141" width="60.235321" height="12.047058"/>
 <rect x="445.741180" y="638.494141" width="60.235291" height="12.047058"/>
 <rect x="518.023560" y="638.494141" width="60.235291" height="12.047058"/>
 <rect x="590.305908" y="638.494141" width="60.235291" height="12.047058"/>
 <rect x="662.588257" y="638.494141" width="60.235291" height="12.047058"/>
 <rect x="734.870605" y="638.494141" width="60.235291" height="12.047058"/>
 <rect x="807.152954" y="638.494141" width="60.235291" height="12.047058"/>
 <rect x="1017.976440" y="638.494141" width="6.023560" height="6.023499"/>
 <rect x="1017.976440" y="644.517639" width="6.023560" height="6.023560"/>
 <rect x="1017.976440" y="650.541199" width="6.023560" height="6.023499"/>
 <rect x="1017.976440" y="656.564697" width="6.023560" height="6.023560"/>
 <rect x="156.611755" y="662.588257" width="60.235291" height="12.047058"/>
 <rect x="228.894104" y="662.588257" width="60.235291" height="12.047058"/>
 <rect x="301.176453" y="662.588257" width="60.235291" height="12.047058"/>
 <rect x="373.458801" y="662.588257" width="60.235321" height="12.047058"/>
 <rect x="445.741180" y="662.588257" width="60.235291" height="12.047058"/>
 <rect x="518.023560" y="662.588257" width="60.235291" height="12.047058"/>
 <rect x="590.305908" y="662.588257" width="60.235291" height="12.047058"/>
 <rect x="662.588257" y="662.588257" width="60.235291" height="12.047058"/>
 <rect x="734.870605" y="662.588257" width="60.235291" height="12.047058"/>
 <rect x="807.152954" y="662.588257" width="60.235291" height="12.047058"/>
 <rect x="1017.976440" y="662.588257" width="6.023560" height="6.023499"/>
 <rect x="1017.976440" y="668.611755" width="6.023560" height="6.023560"/>
 <rect x="1017.976440" y="674.635315" width="6.023560" height="6.023499"/>
 <rect x="1017.976440" y="680.658813" width="6.023560" height="6.023560"/>
 <rect x="156.611755" y="686.682373" width="60.235291" height="12.047058"/>
 <rect x="228.894104" y="686.682373" width="60.235291" height="12.047058"/>
 <rect x="301.176453" y="686.682373" width="60.235291" height="12.047058"/>
 <rect x="373.458801" y="686.682373" width="60.235321" height="12.047058"/>
 <rect x="445.741180" y="686.682373" width="60.235291" height="12.047058"/>
 <rect x="518.023560" y="686.682373" width="60.235291" height="12.047058"/>
 <rect x="590.305908" y="686.682373" width="60.235291" height="12.047058"/>
 <rect x="662.588257" y="686.682373" width="60.235291" height="12.047058"/>
 <rect x="734.870605" y="686.682373" width="60.235291" height="12.047058"/>
 <rect x="807.152954" y="686.682373" width="60.235291" height="12.047058"/>
 <rect x="1017.976440" y="686.682373" width="6.023560" height="6.023499"/>
 <rect x="1017.976440" y="692.705872" width="6.023560" height="6.023560"/>
 <rect x="1017.976440" y="698.729431" width="6.023560" height="6.023499"/>
 <rect x="1017.976440" y="704.752930" width="6.023560" height="6.023560"/>
 <rect x="156.611755" y="710.776489" width="60.235291" height="12.047058"/>
 <rect x="228.894104" y="710.776489" width="60.235291" height="12.047058"/>
 <rect x="301.176453" y="710.776489" width="60.235291" height="12.047058"/>
 <rect x="373.458801" y="710.776489" width="60.235321" height="12.047058"/>
 <rect x="445.741180" y="710.776489" width="60.235291" height="12.047058"/>
 <rect x="518.023560" y="710.776489" width="60.235291" height="12.047058"/>
 <rect x="590.305908" y="710.776489" width="60.235291" height="12.047058"/>
 <rect x="662.588257" y="710.776489" width="60.235291" height="12.047058"/>
 <rect x="734.870605" y="710.776489" width="60.235291" height="12.047058"/>
 <rect x="807.152954" y="710.776489" width="60.235291" height="12.047058"/>
 <rect x="1017.976440" y="710.776489" width="6.023560" height="6.023499"/>
 <rect x="1017.976440" y="716.799988" width="6.023560" height="6.023560"/>
 <rect x="1017.976440" y="722.823547" width="6.023560" height="6.023499"/>
 <rect x="1017.976440" y="728.847046" width="6.023560" height="6.023560"/>
 <rect x="156.611755" y="734.870605" width="60.235291" height="12.047058"/>
 <rect x="228.894104" y="734.870605" width="60.235291" height="12.047058"/>
 <rect x="301.176453" y="734.870605" width="60.235291" height="12.047058"/>
 <rect x="373.458801" y="734.870605" width="60.235321" height="12.047058"/>
 <rect x="445.741180" y="734.870605" width="60.235291" height="12.047058"/>
 <rect x="518.023560" y="734.870605" width="60.235291" height="12.047058"/>
 <rect x="590.305908" y="734.870605" width="60.235291" height="12.047058"/>
 <rect x="662.588257" y="734.870605" width="60.235291" height="12.047058"/>
 <rect x="734.870605" y="734.870605" width="60.235291" height="12.047058"/>
 <rect x="807.152954" y="734.870605" width="60.235291" height="12.047058"/>
 <rect x="1017.976440" y="734.870605" width="6.023560" height="6.023499"/>
 <rect x="1017.976440" y="740.894104" width="6.023560" height="6.023560"/>
 <rect x="1017.976440" y="746.917664" width="6.023560" height="6.023499"/>
 <rect x="1017.976440" y="752.941162" width="6.023560" height="6.023560"/>
 <rect x="6.023529" y="758.964722" width="6.023529" height="6.023499"/>
 <rect x="12.047058" y="758.964722" width="6.023529" height="6.023499"/>
 <rect x="18.070587" y="758.964722" width="6.023529" height="6.023499"/>
 <rect x="24.094116" y="758.964722" width="6.023529" height="6.023499"/>
 <rect x="30.117645" y="758.964722" width="6.023529" height="6.023499"/>
 <rect x="36.141174" y="758.964722" width="6.023529" height="6.023499"/>
 <rect x="42.164703" y="758.964722" width="6.023529" height="6.023499"/>
 <rect x="48.188232" y="758.964722" width="6.023529" height="6.023499"/>
 <rect x="54.211761" y="758.964722" width="6.023529" height="6.023499"/>
 <rect x="60.235291" y="758.964722" width="6.023529" height="6.023499"/>
 <rect x="66.258820" y="758.964722" width="6.023529" height="6.023499"/>
 <rect x="72.282349" y="758.964722" width="6.023529" height="6.023499"/>
 <rect x="78.305878" y="758.964722" width="6.023529" height="6.023499"/>
 <rect x="84.329407" y="758.964722" width="6.023529" height="6.023499"/>
 <rect x="90.352936" y="758.964722" width="6.023529" height="6.023499"/>
 <rect x="96.376465" y="758.964722" width="6.023529" height="6.023499"/>
 <rect x="102.399994" y="758.964722" width="6.023529" height="6.023499"/>
 <rect x="108.423523" y="758.964722" width="6.023529" height="6.023499"/>
 <rect x="114.447052" y="758.964722" width="6.023529" height="6.023499"/>
 <rect x="120.470581" y="758.964722" width="6.023529" height="6.023499"/>
 <rect x="126.494110" y="758.964722" width="6.023529" height="6.023499"/>
 <rect x="132.517639" y="758.964722" width="6.023529" height="6.023499"/>
 <rect x="138.541168" y="758.964722" width="6.023529" height="6.023499"/>
 <rect x="144.564697" y="758.964722" width="6.023529" height="6.023499"/>
 <rect x="150.588226" y="758.964722" width="6.023529" height="6.023499"/>
 <rect x="156.611755" y="758.964722" width="6.023529" height="6.023499"/>
 <rect x="162.635284" y="758.964722" width="6.023529" height="6.023499"/>
 <rect x="168.658813" y="758.964722" width="6.023529" height="6.023499"/>
 <rect x="174.682343" y="758.964722" width="6.023529" height="6.023499"/>
 <rect x="180.705872" y="758.964722" width="6.023529" height="6.023499"/>
 <rect x="186.729401" y="758.964722" width="6.023529" height="6.023499"/>
 <rect x="192.752930" y="758.964722" width="6.023529" height="6.023499"/>
 <rect x="198.776459" y="758.964722" width="6.023529" height="6.023499"/>
 <rect x="204.799988" y="758.964722" width="6.023529" height="6.023499"/>
 <rect x="210.823517" y="758.964722" width="6.023529" height="6.023499"/>
 <rect x="216.847046" y="758.964722" width="6.023529" height="6.023499"/>
 <rect x="222.870575" y="758.964722" width="6.023529" height="6.023499"/>
 <rect x="228.894104" y="758.964722" width="6.023529" height="6.023499"/>
 <rect x="234.917633" y="758.964722" width="6.023529" height="6.023499"/>
 <rect x="240.941162" y="758.964722" width="6.023529" height="6.023499"/>
 <rect x="246.964691" y="758.964722" width="6.023529" height="6.023499"/>
 <rect x="252.988220" y="758.964722" width="6.023560" height="6.023499"/>
 <rect x="259.011780" y="758.964722" width="6.023499" height="6.023499"/>
 <rect x="265.035278" y="758.964722" width="6.023560" height="6.023499"/>
 <rect x="271.058838" y="758.964722" width="6.023499" height="6.023499"/>
 <rect x="277.082336" y="758.964722" width="6.023560" height="6.023499"/>
 <rect x="283.105896" y="758.964722" width="6.023499" height="6.023499"/>
 <rect x="289.129395" y="758.964722" width="6.023560" height="6.023499"/>
 <rect x="295.152954" y="758.964722" width="6.023499" height="6.023499"/>
 <rect x="301.176453" y="758.964722" width="6.023560" height="6.023499"/>
 <rect x="307.200012" y="758.964722" width="6.023499" height="6.023499"/>
 <rect x="313.223511" y="758.964722" width="6.023560" height="6.023499"/>
 <rect x="319.247070" y="758.964722" width="6.023499" height="6.023499"/>
 <rect x="325.270569" y="758.964722" width="6.023560" height="6.023499"/>
 <rect x="331.294128" y="758.964722" width="6.023499" height="6.023499"/>
 <rect x="337.317627" y="758.964722" width="6.023560" height="6.023499"/>
 <rect x="343.341187" y="758.964722" width="6.023499" height="6.023499"/>
 <rect x="349.364685" y="758.964722" width="6.023560" height="6.023499"/>
 <rect x="355.388245" y="758.964722" width="6.023499" height="6.023499"/>
 <rect x="361.411743" y="758.964722" width="6.023560" height="6.023499"/>
 <rect x="367.435303" y="758.964722" width="6.023499" height="6.023499"/>
 <rect x="373.458801" y="758.964722" width="6.023560" height="6.023499"/>
 <rect x="379.482361" y="758.964722" width="6.023529" height="6.023499"/>
 <rect x="385.505890" y="758.964722" width="6.023529" height="6.023499"/>
 <rect x="391.529419" y="758.964722" width="6.023529" height="6.023499"/>
 <rect x="397.552948" y="758.964722" width="6.023529" height="6.023499"/>
 <rect x="403.576477" y="758.964722" width="6.023529" height="6.023499"/>
 <rect x="409.600006" y="758.964722" width="6.023529" height="6.023499"/>
 <rect x="415.623535" y="758.964722" width="6.023529" height="6.023499"/>
 <rect x="421.647064" y="758.964722" width="6.023529" height="6.023499"/>
 <rect x="427.670593" y="758.964722" width="6.023529" height="6.023499"/>
 <rect x="433.694122" y="758.964722" width="6.023529" height="6.023499"/>
 <rect x="439.717651" y="758.964722" width="6.023529" height="6.023499"/>
 <rect x="445.741180" y="758.964722" width="6.023529" height="6.023499"/>
 <rect x="451.764709" y="758.964722" width="6.023529" height="6.023499"/>
 <rect x="457.788239" y="758.964722" width="6.023529" height="6.023499"/>
 <rect x="463.811768" y="758.964722" width="6.023529" height="6.023499"/>
 <rect x="469.835297" y="758.964722" width="6.023529" height="6.023499"/>
 <rect x="475.858826" y="758.964722" width="6.023529" height="6.023499"/>
 <rect x="481.882355" y="758.964722" width="6.023529" height="6.023499"/>
 <rect x="487.905884" y="758.964722" width="6.023529" height="6.023499"/>
 <rect x="493.929413" y="758.964722" width="6.023529" height="6.023499"/>
 <rect x="499.952942" y="758.964722" width="6.023529" height="6.023499"/>
 <rect x="505.976471" y="758.964722" width="6.023529" height="6.023499"/>
 <rect x="512.000000" y="758.964722" width="6.023560" height="6.023499"/>
 <rect x="518.023560" y="758.964722" width="6.023499" height="6.023499"/>
 <rect x="524.047058" y="758.964722" width="6.023560" height="6.023499"/>
 <rect x="530.070618" y="758.964722" width="6.023499" height="6.023499"/>
 <rect x="536.094116" y="758.964722" width="6.023560" height="6.023499"/>
 <rect x="542.117676" y="758.964722" width="6.023499" height="6.023499"/>
 <rect x="548.141174" y="758.964722" width="6.023560" height="6.023499"/>
 <rect x="554.164734" y="758.964722" width="6.023499" height="6.023499"/>
 <rect x="560.188232" y="758.964722" width="6.023560" height="6.023499"/>
 <rect x="566.211792" y="758.964722" width="6.023499" height="6.023499"/>
 <rect x="572.235291" y="758.964722" width="6.023560" height="6.023499"/>
 <rect x="578.258850" y="758.964722" width="6.023499" height="6.023499"/>
 <rect x="584.282349" y="758.964722" width="6.023560" height="6.023499"/>
 <rect x="590.305908" y="758.964722" width="6.023499" height="6.023499"/>
 <rect x="596.329407" y="758.964722" width="6.023560" height="6.023499"/>
 <rect x="602.352966" y="758.964722" width="6.023499" height="6.023499"/>
 <rect x="608.376465" y="758.964722" width="6.023560" height="6.023499"/>
 <rect x="614.400024" y="758.964722" width="6.023499" height="6.023499"/>
 <rect x="620.423523" y="758.964722" width="6.023560" height="6.023499"/>
 <rect x="626.447083" y="758.964722" width="6.023499" height="6.023499"/>
 <rect x="632.470581" y="758.964722" width="6.023560" height="6.023499"/>
 <rect x="638.494141" y="758.964722" width="6.023499" height="6.023499"/>
 <rect x="644.517639" y="758.964722" width="6.023560" height="6.023499"/>
 <rect x="650.541199" y="758.964722" width="6.023499" height="6.023499"/>
 <rect x="656.564697" y="758.964722" width="6.023560" height="6.023499"/>
 <rect x="662.588257" y="758.964722" width="6.023499" height="6.023499"/>
 <rect x="668.611755" y="758.964722" width="6.023560" height="6.023499"/>
 <rect x="674.635315" y="758.964722" width="6.023499" height="6.023499"/>
 <rect x="680.658813" y="758.964722" width="6.023560" height="6.023499"/>
 <rect x="686.682373" y="758.964722" width="6.023499" height="6.023499"/>
 <rect x="692.705872" y="758.964722" width="6.023560" height="6.023499"/>
 <rect x="698.729431" y="758.964722" width="6.023499" height="6.023499"/>
 <rect x="704.752930" y="758.964722" width="6.023560" height="6.023499"/>
 <rect x="710.776489" y="758.964722" width="6.023499" height="6.023499"/>
 <rect x="716.799988" y="758.964722" width="6.023560" height="6.023499"/>
 <rect x="722.823547" y="758.964722" width="6.023499" height="6.023499"/>
 <rect x="728.847046" y="758.964722" width="6.023560" height="6.023499"/>
 <rect x="734.870605" y="758.964722" width="6.023499" height="6.023499"/>
 <rect x="740.894104" y="758.964722" width="6.023560" height="6.023499"/>
 <rect x="746.917664" y="758.964722" width="6.023499" height="6.023499"/>
 <rect x="752.941162" y="758.964722" width="6.023560" height="6.023499"/>
 <rect x="758.964722" y="758.964722" width="6.023499" height="6.023499"/>
 <rect x="764.988220" y="758.964722" width="6.023560" height="6.023499"/>
 <rect x="771.011780" y="758.964722" width="6.023499" height="6.023499"/>
 <rect x="777.035278" y="758.964722" width="6.023560" height="6.023499"/>
 <rect x="783.058838" y="758.964722" width="6.023560" height="6.023499"/>
 <rect x="789.082397" y="758.964722" width="6.023499" height="6.023499"/>
 <rect x="795.105896" y="758.964722" width="6.023499" height="6.023499"/>
 <rect x="801.129395" y="758.964722" width="6.023560" height="6.023499"/>
 <rect x="807.152954" y="758.964722" width="6.023560" height="6.023499"/>
 <rect x="813.176514" y="758.964722" width="6.023499" height="6.023499"/>
 <rect x="819.200012" y="758.964722" width="6.023499" height="6.023499"/>
 <rect x="825.223511" y="758.964722" width="6.023560" height="6.023499"/>
 <rect x="831.247070" y="758.964722" width="6.023560" height="6.023499"/>
 <rect x="837.270630" y="758.964722" width="6.023499" height="6.023499"/>
 <rect x="843.294128" y="758.964722" width="6.023499" height="6.023499"/>
 <rect x="849.317627" y="758.964722" width="6.023560" height="6.023499"/>
 <rect x="855.341187" y="758.964722" width="6.023560" height="6.023499"/>
 <rect x="861.364746" y="758.964722" width="6.023499" height="6.023499"/>
 <rect x="867.388245" y="758.964722" width="6.023499" height="6.023499"/>
 <rect x="873.411743" y="758.964722" width="6.023560" height="6.023499"/>
 <rect x="879.435303" y="758.964722" width="6.023560" height="6.023499"/>
 <rect x="885.458862" y="758.964722" width="6.023499" height="6.023499"/>
 <rect x="891.482361" y="758.964722" width="6.023499" height="6.023499"/>
 <rect x="897.505859" y="758.964722" width="6.023560" height="6.023499"/>
 <rect x="903.529419" y="758.964722" width="6.023560" height="6.023499"/>
 <rect x="909.552979" y="758.964722" width="6.023499" height="6.023499"/>
 <rect x="915.576477" y="758.964722" width="6.023499" height="6.023499"/>
 <rect x="921.599976" y="758.964722" width="6.023560" height="6.023499"/>
 <rect x="927.623535" y="758.964722" width="6.023560" height="6.023499"/>
 <rect x="933.647095" y="758.964722" width="6.023499" height="6.023499"/>
 <rect x="939.670593" y="758.964722" width="6.023499" height="6.023499"/>
 <rect x="945.694092" y="758.964722" width="6.023560" height="6.023499"/>
 <rect x="951.717651" y="758.964722" width="6.023560" height="6.023499"/>
 <rect x="957.741211" y="758.964722" width="6.023499" height="6.023499"/>
 <rect x="963.764709" y="758.964722" width="6.023499" height="6.023499"/>
 <rect x="969.788208" y="758.964722" width="6.023560" height="6.023499"/>
 <rect x="975.811768" y="758.964722" width="6.023560" height="6.023499"/>
 <rect x="981.835327" y="758.964722" width="6.023499" height="6.023499"/>
 <rect x="987.858826" y="758.964722" width="6.023499" height="6.023499"/>
 <rect x="993.882324" y="758.964722" width="6.023560" height="6.023499"/>
 <rect x="999.905884" y="758.964722" width="6.023560" height="6.023499"/>
 <rect x="1005.929443" y="758.964722" width="6.023499" height="6.023499"/>
 <rect x="1011.952942" y="758.964722" width="6.023499" height="6.023499"/>
 <rect x="1017.976440" y="758.964722" width="6.023560" height="6.023499"/>
</g>
</svg>