<svg xmlns="http://www.w3.org/2000/svg" version="1.1" width = "1027" height = "1027" viewBox = "-1 -1 1026 1026"  preserveAspectRatio = "none">
<rect x="0.000000" y="0.000000" width="1024.00000000" height="1024.00000000" style="fill:rgb(0,0,0);" /><rect x="0.000000" y="311.652161" width="1024.00000000" height="400.69567871" style="fill:rgb(229,229,229);" /><g style="fill:rgb(0,127,0);">
 <rect x="0.000000" y="311.652161" width="6.360260" height="400.695679"/>
 <rect x="6.360260" y="311.652161" width="1017.639771" height="6.360260"/>
 <rect x="1017.639771" y="318.012421" width="6.360229" height="6.360260"/>
 <rect x="165.366455" y="324.372681" width="63.602478" height="12.720490"/>
 <rect x="235.329193" y="324.372681" width="63.602478" height="12.720490"/>
 <rect x="305.291931" y="324.372681" width="63.602478" height="12.720490"/>
 <rect x="375.254639" y="324.372681" width="63.602509" height="12.720490"/>
 <rect x="445.217407" y="324.372681" width="63.602478" height="12.720490"/>
 <rect x="515.180115" y="324.372681" width="63.602478" height="12.720490"/>
 <rect x="585.142883" y="324.372681" width="63.602478" height="12.720490"/>
 <rect x="655.105591" y="324.372681" width="63.602478" height="12.720490"/>
 <rect x="725.068359" y="324.372681" width="63.602417" height="12.720490"/>
 <rect x="795.031067" y="324.372681" width="63.602478" height="12.720490"/>
 <rect x="1017.639771" y="324.372681" width="6.360229" height="6.360229"/>
 <rect x="1017.639771" y="330.732910" width="6.360229" height="6.360260"/>
 <rect x="1017.639771" y="337.093170" width="6.360229" height="6.360260"/>
 <rect x="165.366455" y="343.453430" width="63.602478" height="12.720490"/>
 <rect x="235.329193" y="343.453430" width="63.602478" height="12.720490"/>
 <rect x="305.291931" y="343.453430" width="63.602478" height="12.720490"/>
 <rect x="375.254639" y="343.453430" width="63.602509" height="12.720490"/>
 <rect x="445.217407" y="343.453430" width="63.602478" height="12.720490"/>
 <rect x="515.180115" y="343.453430" width="63.602478" height="12.720490"/>
 <rect x="585.142883" y="343.453430" width="63.602478" height="12.720490"/>
 <rect x="655.105591" y="343.453430" width="63.602478" height="12.720490"/>
 <rect x="725.068359" y="343.453430" width="63.602417" height="12.720490"/>
 <rect x="795.031067" y="343.453430" width="63.602478" height="12.720490"/>
 <rect x="1017.639771" y="343.453430" width="6.360229" height="6.360229"/>
 <rect x="1017.639771" y="349.813660" width="6.360229" height="6.360260"/>
 <rect x="1017.639771" y="356.173920" width="6.360229" height="6.360260"/>
 <rect x="165.366455" y="362.534180" width="63.602478" height="12.720459"/>
 <rect x="235.329193" y="362.534180" width="63.602478" height="12.720459"/>
 <rect x="305.291931" y="362.534180" width="63.602478" height="12.720459"/>
 <rect x="375.254639" y="362.534180" width="63.602509" height="12.720459"/>
 <rect x="445.217407" y="362.534180" width="63.602478" height="12.720459"/>
 <rect x="515.180115" y="362.534180" width="63.602478" height="12.720459"/>
 <rect x="585.142883" y="362.534180" width="63.602478" height="12.720459"/>
 <rect x="655.105591" y="362.534180" width="63.602478" height="12.720459"/>
 <rect x="725.068359" y="362.534180" width="63.602417" height="12.720459"/>
 <rect x="795.031067" y="362.534180" width="63.602478" height="12.720459"/>
 <rect x="1017.639771" y="362.534180" width="6.360229" height="6.360229"/>
 <rect x="1017.639771" y="368.894409" width="6.360229" height="6.360229"/>
 <rect x="1017.639771" y="375.254639" width="6.360229" height="6.360291"/>
 <rect x="165.366455" y="381.614929" width="63.602478" height="12.720459"/>
 <rect x="235.329193" y="381.614929" width="63.602478" height="12.720459"/>
 <rect x="305.291931" y="381.614929" width="63.602478" height="12.720459"/>
 <rect x="375.254639" y="381.614929" width="63.602509" height="12.720459"/>
 <rect x="445.217407" y="381.614929" width="63.602478" height="12.720459"/>
 <rect x="515.180115" y="381.614929" width="63.602478" height="12.720459"/>
 <rect x="585.142883" y="381.614929" width="63.602478" height="12.720459"/>
 <rect x="655.105591" y="381.614929" width="63.602478" height="12.720459"/>
 <rect x="725.068359" y="381.614929" width="63.602417" height="12.720459"/>
 <rect x="795.031067" y="381.614929" width="63.602478" height="12.720459"/>
 <rect x="1017.639771" y="381.614929" width="6.360229" height="6.360229"/>
 <rect x="1017.639771" y="387.975159" width="6.360229" height="6.360229"/>
 <rect x="1017.639771" y="394.335388" width="6.360229" height="6.360260"/>
 <rect x="165.366455" y="400.695648" width="63.602478" height="12.720490"/>
 <rect x="235.329193" y="400.695648" width="63.602478" height="12.720490"/>
 <rect x="305.291931" y="400.695648" width="63.602478" height="12.720490"/>
 <rect x="375.254639" y="400.695648" width="63.602509" height="12.720490"/>
 <rect x="445.217407" y="400.695648" width="63.602478" height="12.720490"/>
 <rect x="515.180115" y="400.695648" width="63.602478" height="12.720490"/>
 <rect x="585.142883" y="400.695648" width="63.602478" height="12.720490"/>
 <rect x="655.105591" y="400.695648" width="63.602478" height="12.720490"/>
 <rect x="725.068359" y="400.695648" width="63.602417" height="12.720490"/>
 <rect x="795.031067" y="400.695648" width="63.602478" height="12.720490"/>
 <rect x="1017.639771" y="400.695648" width="6.360229" height="6.360260"/>
 <rect x="1017.639771" y="407.055908" width="6.360229" height="6.360229"/>
 <rect x="1017.639771" y="413.416138" width="6.360229" height="6.360260"/>
 <rect x="165.366455" y="419.776398" width="63.602478" height="12.720490"/>
 <rect x="235.329193" y="419.776398" width="63.602478" height="12.720490"/>
 <rect x="305.291931" y="419.776398" width="63.602478" height="12.720490"/>
 <rect x="375.254639" y="419.776398" width="63.602509" height="12.720490"/>
 <rect x="445.217407" y="419.776398" width="63.602478" height="12.720490"/>
 <rect x="515.180115" y="419.776398" width="63.602478" height="12.720490"/>
 <rect x="585.142883" y="419.776398" width="63.602478" height="12.720490"/>
 <rect x="655.105591" y="419.776398" width="63.602478" height="12.720490"/>
 <rect x="725.068359" y="419.776398" width="63.602417" height="12.720490"/>
 <rect x="795.031067" y="419.776398" width="63.602478" height="12.720490"/>
 <rect x="1017.639771" y="419.776398" width="6.360229" height="6.360260"/>
 <rect x="1017.639771" y="426.136658" width="6.360229" height="6.360229"/>
 <rect x="1017.639771" y="432.496887" width="6.360229" height="6.360260"/>
 <rect x="165.366455" y="438.857147" width="63.602478" height="12.720490"/>
 <rect x="235.329193" y="438.857147" width="63.602478" height="12.720490"/>
 <rect x="305.291931" y="438.857147" width="63.602478" height="12.720490"/>
 <rect x="375.254639" y="438.857147" width="63.602509" height="12.720490"/>
 <rect x="445.217407" y="438.857147" width="63.602478" height="12.720490"/>
 <rect x="515.180115" y="438.857147" width="63.602478" height="12.720490"/>
 <rect x="585.142883" y="438.857147" width="63.602478" height="12.720490"/>
 <rect x="655.105591" y="438.857147" width="63.602478" height="12.720490"/>
 <rect x="725.068359" y="438.857147" width="63.602417" height="12.720490"/>
 <rect x="795.031067" y="438.857147" width="63.602478" height="12.720490"/>
 <rect x="1017.639771" y="438.857147" width="6.360229" height="6.360260"/>
 <rect x="1017.639771" y="445.217407" width="6.360229" height="6.360229"/>
 <rect x="1017.639771" y="451.577637" width="6.360229" height="6.360260"/>
 <rect x="165.366455" y="457.937897" width="63.602478" height="12.720490"/>
 <rect x="235.329193" y="457.937897" width="63.602478" height="12.720490"/>
 <rect x="305.291931" y="457.937897" width="63.602478" height="12.720490"/>
 <rect x="375.254639" y="457.937897" width="63.602509" height="12.720490"/>
 <rect x="445.217407" y="457.937897" width="63.602478" height="12.720490"/>
 <rect x="515.180115" y="457.937897" width="63.602478" height="12.720490"/>
 <rect x="585.142883" y="457.937897" width="63.602478" height="12.720490"/>
 <rect x="655.105591" y="457.937897" width="63.602478" height="12.720490"/>
 <rect x="725.068359" y="457.937897" width="63.602417" height="12.720490"/>
 <rect x="795.031067" y="457.937897" width="63.602478" height="12.720490"/>
 <rect x="1017.639771" y="457.937897" width="6.360229" height="6.360229"/>
 <rect x="1017.639771" y="464.298126" width="6.360229" height="6.360260"/>
 <rect x="1017.639771" y="470.658386" width="6.360229" height="6.360260"/>
 <rect x="165.366455" y="477.018646" width="63.602478" height="12.720490"/>
 <rect x="235.329193" y="477.018646" width="63.602478" height="12.720490"/>
 <rect x="305.291931" y="477.018646" width="63.602478" height="12.720490"/>
 <rect x="375.254639" y="477.018646" width="63.602509" height="12.720490"/>
 <rect x="445.217407" y="477.018646" width="63.602478" height="12.720490"/>
 <rect x="515.180115" y="477.018646" width="63.602478" height="12.720490"/>
 <rect x="585.142883" y="477.018646" width="63.602478" height="12.720490"/>
 <rect x="655.105591" y="477.018646" width="63.602478" height="12.720490"/>
 <rect x="725.068359" y="477.018646" width="63.602417" height="12.720490"/>
 <rect x="795.031067" y="477.018646" width="63.602478" height="12.720490"/>
 <rect x="1017.639771" y="477.018646" width="6.360229" height="6.360229"/>
 <rect x="1017.639771" y="483.378876" width="6.360229" height="6.360260"/>
 <rect x="1017.639771" y="489.739136" width="6.360229" height="6.360229"/>
 <rect x="165.366455" y="496.099365" width="63.602478" height="12.720520"/>
 <rect x="235.329193" y="496.099365" width="63.602478" height="12.720520"/>
 <rect x="305.291931" y="496.099365" width="63.602478" height="12.720520"/>
 <rect x="375.254639" y="496.099365" width="63.602509" height="12.720520"/>
 <rect x="445.217407" y="496.099365" width="63.602478" height="12.720520"/>
 <rect x="515.180115" y="496.099365" width="63.602478" height="12.720520"/>
 <rect x="585.142883" y="496.099365" width="63.602478" height="12.720520"/>
 <rect x="655.105591" y="496.099365" width="63.602478" height="12.720520"/>
 <rect x="725.068359" y="496.099365" width="63.602417" height="12.720520"/>
 <rect x="795.031067" y="496.099365" width="63.602478" height="12.720520"/>
 <rect x="1017.639771" y="496.099365" width="6.360229" height="6.360260"/>
 <rect x="1017.639771" y="502.459625" width="6.360229" height="6.360260"/>
 <rect x="1017.639771" y="508.819885" width="6.360229" height="6.360229"/>
 <rect x="165.366455" y="515.180115" width="63.602478" height="12.720520"/>
 <rect x="235.329193" y="515.180115" width="63.602478" height="12.720520"/>
 <rect x="305.291931" y="515.180115" width="63.602478" height="12.720520"/>
 <rect x="375.254639" y="515.180115" width="63.602509" height="12.720520"/>
 <rect x="445.217407" y="515.180115" width="63.602478" height="12.720520"/>
 <rect x="515.180115" y="515.180115" width="63.602478" height="12.720520"/>
 <rect x="585.142883" y="515.180115" width="63.602478" height="12.720520"/>
 <rect x="655.105591" y="515.180115" width="63.602478" height="12.720520"/>
 <rect x="725.068359" y="515.180115" width="63.602417" height="12.720520"/>
 <rect x="795.031067" y="515.180115" width="63.602478" height="12.720520"/>
 <rect x="1017.639771" y="515.180115" width="6.360229" height="6.360229"/>
 <rect x="1017.639771" y="521.540344" width="6.360229" height="6.360291"/>
 <rect x="1017.639771" y="527.900635" width="6.360229" height="6.360229"/>
 <rect x="165.366455" y="534.260864" width="63.602478" height="12.720520"/>
 <rect x="235.329193" y="534.260864" width="63.602478" height="12.720520"/>
 <rect x="305.291931" y="534.260864" width="63.602478" height="12.720520"/>
 <rect x="375.254639" y="534.260864" width="63.602509" height="12.720520"/>
 <rect x="445.217407" y="534.260864" width="63.602478" height="12.720520"/>
 <rect x="515.180115" y="534.260864" width="63.602478" height="12.720520"/>
 <rect x="585.142883" y="534.260864" width="63.602478" height="12.720520"/>
 <rect x="655.105591" y="534.260864" width="63.602478" height="12.720520"/>
 <rect x="725.068359" y="534.260864" width="63.602417" height="12.720520"/>
 <rect x="795.031067" y="534.260864" width="63.602478" height="12.720520"/>
 <rect x="1017.639771" y="534.260864" width="6.360229" height="6.360229"/>
 <rect x="1017.639771" y="540.621094" width="6.360229" height="6.360291"/>
 <rect x="1017.639771" y="546.981384" width="6.360229" height="6.360229"/>
 <rect x="165.366455" y="553.341614" width="63.602478" height="12.720520"/>
 <rect x="235.329193" y="553.341614" width="63.602478" height="12.720520"/>
 <rect x="305.291931" y="553.341614" width="63.602478" height="12.720520"/>
 <rect x="375.254639" y="553.341614" width="63.602509" height="12.720520"/>
 <rect x="445.217407" y="553.341614" width="63.602478" height="12.720520"/>
 <rect x="515.180115" y="553.341614" width="63.602478" height="12.720520"/>
 <rect x="585.142883" y="553.341614" width="63.602478" height="12.720520"/>
 <rect x="655.105591" y="553.341614" width="63.602478" height="12.720520"/>
 <rect x="725.068359" y="553.341614" width="63.602417" height="12.720520"/>
 <rect x="795.031067" y="553.341614" width="63.602478" height="12.720520"/>
 <rect x="1017.639771" y="553.341614" width="6.360229" height="6.360229"/>
 <rect x="1017.639771" y="559.701843" width="6.360229" height="6.360291"/>
 <rect x="1017.639771" y="566.062134" width="6.360229" height="6.360229"/>
 <rect x="165.366455" y="572.422363" width="63.602478" height="12.720520"/>
 <rect x="235.329193" y="572.422363" width="63.602478" height="12.720520"/>
 <rect x="305.291931" y="572.422363" width="63.602478" height="12.720520"/>
 <rect x="375.254639" y="572.422363" width="63.602509" height="12.720520"/>
 <rect x="445.217407" y="572.422363" width="63.602478" height="12.720520"/>
 <rect x="515.180115" y="572.422363" width="63.602478" height="12.720520"/>
 <rect x="585.142883" y="572.422363" width="63.602478" height="12.720520"/>
 <rect x="655.105591" y="572.422363" width="63.602478" height="12.720520"/>
 <rect x="725.068359" y="572.422363" width="63.602417" height="12.720520"/>
 <rect x="795.031067" y="572.422363" width="63.602478" height="12.720520"/>
 <rect x="1017.639771" y="572.422363" width="6.360229" height="6.360229"/>
 <rect x="1017.639771" y="578.782593" width="6.360229" height="6.360291"/>
 <rect x="1017.639771" y="585.142883" width="6.360229" height="6.360229"/>
 <rect x="165.366455" y="591.503113" width="63.602478" height="12.720520"/>
 <rect x="235.329193" y="591.503113" width="63.602478" height="12.720520"/>
 <rect x="305.291931" y="591.503113" width="63.602478" height="12.720520"/>
 <rect x="375.254639" y="591.503113" width="63.602509" height="12.720520"/>
 <rect x="445.217407" y="591.503113" width="63.602478" height="12.720520"/>
 <rect x="515.180115" y="591.503113" width="63.602478" height="12.720520"/>
 <rect x="585.142883" y="591.503113" width="63.602478" height="12.720520"/>
 <rect x="655.105591" y="591.503113" width="63.602478" height="12.720520"/>
 <rect x="725.068359" y="591.503113" width="63.602417" height="12.720520"/>
 <rect x="795.031067" y="591.503113" width="63.602478" height="12.720520"/>
 <rect x="1017.639771" y="591.503113" width="6.360229" height="6.360229"/>
 <rect x="1017.639771" y="597.863342" width="6.360229" height="6.360291"/>
 <rect x="1017.639771" y="604.223633" width="6.360229" height="6.360229"/>
 <rect x="165.366455" y="610.583862" width="63.602478" height="12.720459"/>
 <rect x="235.329193" y="610.583862" width="63.602478" height="12.720459"/>
 <rect x="305.291931" y="610.583862" width="63.602478" height="12.720459"/>
 <rect x="375.254639" y="610.583862" width="63.602509" height="12.720459"/>
 <rect x="445.217407" y="610.583862" width="63.602478" height="12.720459"/>
 <rect x="515.180115" y="610.583862" width="63.602478" height="12.720459"/>
 <rect x="585.142883" y="610.583862" width="63.602478" height="12.720459"/>
 <rect x="655.105591" y="610.583862" width="63.602478" height="12.720459"/>
 <rect x="725.068359" y="610.583862" width="63.602417" height="12.720459"/>
 <rect x="795.031067" y="610.583862" width="63.602478" height="12.720459"/>
 <rect x="1017.639771" y="610.583862" width="6.360229" height="6.360229"/>
 <rect x="1017.639771" y="616.944092" width="6.360229" height="6.360229"/>
 <rect x="1017.639771" y="623.304321" width="6.360229" height="6.360291"/>
 <rect x="165.366455" y="629.664612" width="63.602478" height="12.720459"/>
 <rect x="235.329193" y="629.664612" width="63.602478" height="12.720459"/>
 <rect x="305.291931" y="629.664612" width="63.602478" height="12.720459"/>
 <rect x="375.254639" y="629.664612" width="63.602509" height="12.720459"/>
 <rect x="445.217407" y="629.664612" width="63.602478" height="12.720459"/>
 <rect x="515.180115" y="629.664612" width="63.602478" height="12.720459"/>
 <rect x="585.142883" y="629.664612" width="63.602478" height="12.720459"/>
 <rect x="655.105591" y="629.664612" width="63.602478" height="12.720459"/>
 <rect x="725.068359" y="629.664612" width="63.602417" height="12.720459"/>
 <rect x="795.031067" y="629.664612" width="63.602478" height="12.720459"/>
 <rect x="1017.639771" y="629.664612" width="6.360229" height="6.360229"/>
 <rect x="1017.639771" y="636.024841" width="6.360229" height="6.360229"/>
 <rect x="1017.639771" y="642.385071" width="6.360229" height="6.360291"/>
 <rect x="165.366455" y="648.745361" width="63.602478" height="12.720459"/>
 <rect x="235.329193" y="648.745361" width="63.602478" height="12.720459"/>
 <rect x="305.291931" y="648.745361" width="63.602478" height="12.720459"/>
 <rect x="375.254639" y="648.745361" width="63.602509" height="12.720459"/>
 <rect x="445.217407" y="648.745361" width="63.602478" height="12.720459"/>
 <rect x="515.180115" y="648.745361" width="63.602478" height="12.720459"/>
 <rect x="585.142883" y="648.745361" width="63.602478" height="12.720459"/>
 <rect x="655.105591" y="648.745361" width="63.602478" height="12.720459"/>
 <rect x="725.068359" y="648.745361" width="63.602417" height="12.720459"/>
 <rect x="795.031067" y="648.745361" width="63.602478" height="12.720459"/>
 <rect x="1017.639771" y="648.745361" width="6.360229" height="6.360229"/>
 <rect x="1017.639771" y="655.105591" width="6.360229" height="6.360229"/>
 <rect x="1017.639771" y="661.465820" width="6.360229" height="6.360229"/>
 <rect x="165.366455" y="667.826050" width="63.602478" height="12.720520"/>
 <rect x="235.329193" y="667.826050" width="63.602478" height="12.720520"/>
 <rect x="305.291931" y="667.826050" width="63.602478" height="12.720520"/>
 <rect x="375.254639" y="667.826050" width="63.602509" height="12.720520"/>
 <rect x="445.217407" y="667.826050" width="63.602478" height="12.720520"/>
 <rect x="515.180115" y="667.826050" width="63.602478" height="12.720520"/>
 <rect x="585.142883" y="667.826050" width="63.602478" height="12.720520"/>
 <rect x="655.105591" y="667.826050" width="63.602478" height="12.720520"/>
 <rect x="725.068359" y="667.826050" width="63.602417" height="12.720520"/>
 <rect x="795.031067" y="667.826050" width="63.602478" height="12.720520"/>
 <rect x="1017.639771" y="667.826050" width="6.360229" height="6.360291"/>
 <rect x="1017.639771" y="674.186340" width="6.360229" height="6.360229"/>
 <rect x="1017.639771" y="680.546570" width="6.360229" height="6.360291"/>
 <rect x="165.366455" y="686.906860" width="63.602478" height="12.720459"/>
 <rect x="235.329193" y="686.906860" width="63.602478" height="12.720459"/>
 <rect x="305.291931" y="686.906860" width="63.602478" height="12.720459"/>
 <rect x="375.254639" y="686.906860" width="63.602509" height="12.720459"/>
 <rect x="445.217407" y="686.906860" width="63.602478" height="12.720459"/>
 <rect x="515.180115" y="686.906860" width="63.602478" height="12.720459"/>
 <rect x="585.142883" y="686.906860" width="63.602478" height="12.720459"/>
 <rect x="655.105591" y="686.906860" width="63.602478" height="12.720459"/>
 <rect x="725.068359" y="686.906860" width="63.602417" height="12.720459"/>
 <rect x="795.031067" y="686.906860" width="63.602478" height="12.720459"/>
 <rect x="1017.639771" y="686.906860" width="6.360229" height="6.360229"/>
 <rect x="1017.639771" y="693.267090" width="6.360229" height="6.360229"/>
 <rect x="1017.639771" y="699.627319" width="6.360229" height="6.360229"/>
 <rect x="6.360260" y="705.987549" width="6.360229" height="6.360291"/>
 <rect x="12.720490" y="705.987549" width="6.360260" height="6.360291"/>
 <rect x="19.080750" y="705.987549" width="6.360229" height="6.360291"/>
 <rect x="25.440979" y="705.987549" width="6.360260" height="6.360291"/>
 <rect x="31.801239" y="705.987549" width="6.360260" height="6.360291"/>
 <rect x="38.161499" y="705.987549" width="6.360229" height="6.360291"/>
 <rect x="44.521729" y="705.987549" width="6.360260" height="6.360291"/>
 <rect x="50.881989" y="705.987549" width="6.360260" height="6.360291"/>
 <rect x="57.242249" y="705.987549" width="6.360229" height="6.360291"/>
 <rect x="63.602478" y="705.987549" width="6.360260" height="6.360291"/>
 <rect x="69.962738" y="705.987549" width="6.360229" height="6.360291"/>
 <rect x="76.322968" y="705.987549" width="6.360260" height="6.360291"/>
 <rect x="82.683228" y="705.987549" width="6.360260" height="6.360291"/>
 <rect x="89.043488" y="705.987549" width="6.360229" height="6.360291"/>
 <rect x="95.403717" y="705.987549" width="6.360260" height="6.360291"/>
 <rect x="101.763977" y="705.987549" width="6.360260" height="6.360291"/>
 <rect x="108.124237" y="705.987549" width="6.360229" height="6.360291"/>
 <rect x="114.484467" y="705.987549" width="6.360260" height="6.360291"/>
 <rect x="120.844727" y="705.987549" width="6.360229" height="6.360291"/>
 <rect x="127.204956" y="705.987549" width="6.360260" height="6.360291"/>
 <rect x="133.565216" y="705.987549" width="6.360260" height="6.360291"/>
 <rect x="139.925476" y="705.987549" width="6.360229" height="6.360291"/>
 <rect x="146.285706" y="705.987549" width="6.360260" height="6.360291"/>
 <rect x="152.645966" y="705.987549" width="6.360260" height="6.360291"/>
 <rect x="159.006226" y="705.987549" width="6.360229" height="6.360291"/>
 <rect x="165.366455" y="705.987549" width="6.360260" height="6.360291"/>
 <rect x="171.726715" y="705.987549" width="6.360229" height="6.360291"/>
 <rect x="178.086945" y="705.987549" width="6.360260" height="6.360291"/>
 <rect x="184.447205" y="705.987549" width="6.360260" height="6.360291"/>
 <rect x="190.807465" y="705.987549" width="6.360229" height="6.360291"/>
 <rect x="197.167694" y="705.987549" width="6.360260" height="6.360291"/>
 <rect x="203.527954" y="705.987549" width="6.360229" height="6.360291"/>
 <rect x="209.888184" y="705.987549" width="6.360260" height="6.360291"/>
 <rect x="216.248444" y="705.987549" width="6.360260" height="6.360291"/>
 <rect x="222.608704" y="705.987549" width="6.360229" height="6.360291"/>
 <rect x="228.968933" y="705.987549" width="6.360260" height="6.360291"/>
 <rect x="235.329193" y="705.987549" width="6.360260" height="6.360291"/>
 <rect x="241.689453" y="705.987549" width="6.360229" height="6.360291"/>
 <rect x="248.049683" y="705.987549" width="6.360260" height="6.360291"/>
 <rect x="254.409943" y="705.987549" width="6.360260" height="6.360291"/>
 <rect x="260.770203" y="705.987549" width="6.360229" height="6.360291"/>
 <rect x="267.130432" y="705.987549" width="6.360229" height="6.360291"/>
 <rect x="273.490662" y="705.987549" width="6.360291" height="6.360291"/>
 <rect x="279.850952" y="705.987549" width="6.360229" height="6.360291"/>
 <rect x="286.211182" y="705.987549" width="6.360229" height="6.360291"/>
 <rect x="292.571411" y="705.987549" width="6.360260" height="6.360291"/>
 <rect x="298.931671" y="705.987549" width="6.360260" height="6.360291"/>
 <rect x="305.291931" y="705.987549" width="6.360229" height="6.360291"/>
 <rect x="311.652161" y="705.987549" width="6.360260" height="6.360291"/>
 <rect x="318.012421" y="705.987549" width="6.360260" height="6.360291"/>
 <rect x="324.372681" y="705.987549" width="6.360229" height="6.360291"/>
 <rect x="330.732910" y="705.987549" width="6.360260" height="6.360291"/>
 <rect x="337.093170" y="705.987549" width="6.360260" height="6.360291"/>
 <rect x="343.453430" y="705.987549" width="6.360229" height="6.360291"/>
 <rect x="349.813660" y="705.987549" width="6.360260" height="6.360291"/>
 <rect x="356.173920" y="705.987549" width="6.360260" height="6.360291"/>
 <rect x="362.534180" y="705.987549" width="6.360229" height="6.360291"/>
 <rect x="368.894409" y="705.987549" width="6.360229" height="6.360291"/>
 <rect x="375.254639" y="705.987549" width="6.360291" height="6.360291"/>
 <rect x="381.614929" y="705.987549" width="6.360229" height="6.360291"/>
 <rect x="387.975159" y="705.987549" width="6.360229" height="6.360291"/>
 <rect x="394.335388" y="705.987549" width="6.360260" height="6.360291"/>
 <rect x="400.695648" y="705.987549" width="6.360260" height="6.360291"/>
 <rect x="407.055908" y="705.987549" width="6.360229" height="6.360291"/>
 <rect x="413.416138" y="705.987549" width="6.360260" height="6.360291"/>
 <rect x="419.776398" y="705.987549" width="6.360260" height="6.360291"/>
 <rect x="426.136658" y="705.987549" width="6.360229" height="6.360291"/>
 <rect x="432.496887" y="705.987549" width="6.360260" height="6.360291"/>
 <rect x="438.857147" y="705.987549" width="6.360260" height="6.360291"/>
 <rect x="445.217407" y="705.987549" width="6.360229" height="6.360291"/>
 <rect x="451.577637" y="705.987549" width="6.360260" height="6.360291"/>
 <rect x="457.937897" y="705.987549" width="6.360229" height="6.360291"/>
 <rect x="464.298126" y="705.987549" width="6.360260" height="6.360291"/>
 <rect x="470.658386" y="705.987549" width="6.360260" height="6.360291"/>
 <rect x="477.018646" y="705.987549" width="6.360229" height="6.360291"/>
 <rect x="483.378876" y="705.987549" width="6.360260" height="6.360291"/>
 <rect x="489.739136" y="705.987549" width="6.360229" height="6.360291"/>
 <rect x="496.099365" y="705.987549" width="6.360260" height="6.360291"/>
 <rect x="502.459625" y="705.987549" width="6.360260" height="6.360291"/>
 <rect x="508.819885" y="705.987549" width="6.360229" height="6.360291"/>
 <rect x="515.180115" y="705.987549" width="6.360229" height="6.360291"/>
 <rect x="521.540344" y="705.987549" width="6.360291" height="6.360291"/>
 <rect x="527.900635" y="705.987549" width="6.360229" height="6.360291"/>
 <rect x="534.260864" y="705.987549" width="6.360229" height="6.360291"/>
 <rect x="540.621094" y="705.987549" width="6.360291" height="6.360291"/>
 <rect x="546.981384" y="705.987549" width="6.360229" height="6.360291"/>
 <rect x="553.341614" y="705.987549" width="6.360229" height="6.360291"/>
 <rect x="559.701843" y="705.987549" width="6.360291" height="6.360291"/>
 <rect x="566.062134" y="705.987549" width="6.360229" height="6.360291"/>
 <rect x="572.422363" y="705.987549" width="6.360229" height="6.360291"/>
 <rect x="578.782593" y="705.987549" width="6.360291" height="6.360291"/>
 <rect x="585.142883" y="705.987549" width="6.360229" height="6.360291"/>
 <rect x="591.503113" y="705.987549" width="6.360229" height="6.360291"/>
 <rect x="597.863342" y="705.987549" width="6.360291" height="6.360291"/>
 <rect x="604.223633" y="705.987549" width="6.360229" height="6.360291"/>
 <rect x="610.583862" y="705.987549" width="6.360229" height="6.360291"/>
 <rect x="616.944092" y="705.987549" width="6.360229" height="6.360291"/>
 <rect x="623.304321" y="705.987549" width="6.360291" height="6.360291"/>
 <rect x="629.664612" y="705.987549" width="6.360229" height="6.360291"/>
 <rect x="636.024841" y="705.987549" width="6.360229" height="6.360291"/>
 <rect x="642.385071" y="705.987549" width="6.360291" height="6.360291"/>
 <rect x="648.745361" y="705.987549" width="6.360229" height="6.360291"/>
 <rect x="655.105591" y="705.987549" width="6.360229" height="6.360291"/>
 <rect x="661.465820" y="705.987549" width="6.360229" height="6.360291"/>
 <rect x="667.826050" y="705.987549" width="6.360291" height="6.360291"/>
 <rect x="674.186340" y="705.987549" width="6.360229" height="6.360291"/>
 <rect x="680.546570" y="705.987549" width="6.360291" height="6.360291"/>
 <rect x="686.906860" y="705.987549" width="6.360229" height="6.360291"/>
 <rect x="693.267090" y="705.987549" width="6.360229" height="6.360291"/>
 <rect x="699.627319" y="705.987549" width="6.360229" height="6.360291"/>
 <rect x="705.987549" y="705.987549" width="6.360291" height="6.360291"/>
 <rect x="712.347839" y="705.987549" width="6.360229" height="6.360291"/>
 <rect x="718.708069" y="705.987549" width="6.360291" height="6.360291"/>
 <rect x="725.068359" y="705.987549" width="6.360229" height="6.360291"/>
 <rect x="731.428589" y="705.987549" width="6.360229" height="6.360291"/>
 <rect x="737.788818" y="705.987549" width="6.360229" height="6.360291"/>
 <rect x="744.149048" y="705.987549" width="6.360291" height="6.360291"/>
 <rect x="750.509338" y="705.987549" width="6.360229" height="6.360291"/>
 <rect x="756.869568" y="705.987549" width="6.360229" height="6.360291"/>
 <rect x="763.229797" y="705.987549" width="6.360291" height="6.360291"/>
 <rect x="769.590088" y="705.987549" width="6.360229" height="6.360291"/>
 <rect x="775.950317" y="705.987549" width="6.360229" height="6.360291"/>
 <rect x="782.310547" y="705.987549" width="6.360229" height="6.360291"/>
 <rect x="788.670776" y="705.987549" width="6.360291" height="6.360291"/>
 <rect x="795.031067" y="705.987549" width="6.360229" height="6.360291"/>
 <rect x="801.391296" y="705.987549" width="6.360291" height="6.360291"/>
 <rect x="807.751587" y="705.987549" width="6.360229" height="6.360291"/>
 <rect x="814.111816" y="705.987549" width="6.360229" height="6.360291"/>
 <rect x="820.472046" y="705.987549" width="6.360229" height="6.360291"/>
 <rect x="826.832275" y="705.987549" width="6.360229" height="6.360291"/>
 <rect x="833.192505" y="705.987549" width="6.360291" height="6.360291"/>
 <rect x="839.552795" y="705.987549" width="6.360291" height="6.360291"/>
 <rect x="845.913086" y="705.987549" width="6.360229" height="6.360291"/>
 <rect x="852.273315" y="705.987549" width="6.360229" height="6.360291"/>
 <rect x="858.633545" y="705.987549" width="6.360229" height="6.360291"/>
 <rect x="864.993774" y="705.987549" width="6.360229" height="6.360291"/>
 <rect x="871.354004" y="705.987549" width="6.360291" height="6.360291"/>
 <rect x="877.714294" y="705.987549" width="6.360229" height="6.360291"/>
 <rect x="884.074524" y="705.987549" width="6.360291" height="6.360291"/>
 <rect x="890.434814" y="705.987549" width="6.360229" height="6.360291"/>
 <rect x="896.795044" y="705.987549" width="6.360229" height="6.360291"/>
 <rect x="903.155273" y="705.987549" width="6.360229" height="6.360291"/>
 <rect x="909.515503" y="705.987549" width="6.360229" height="6.360291"/>
 <rect x="915.875732" y="705.987549" width="6.360291" height="6.360291"/>
 <rect x="922.236023" y="705.987549" width="6.360291" height="6.360291"/>
 <rect x="928.596313" y="705.987549" width="6.360229" height="6.360291"/>
 <rect x="934.956543" y="705.987549" width="6.360229" height="6.360291"/>
 <rect x="941.316772" y="705.987549" width="6.360229" height="6.360291"/>
 <rect x="947.677002" y="705.987549" width="6.360229" height="6.360291"/>
 <rect x="954.037231" y="705.987549" width="6.360291" height="6.360291"/>
 <rect x="960.397522" y="705.987549" width="6.360229" height="6.360291"/>
 <rect x="966.757751" y="705.987549" width="6.360291" height="6.360291"/>
 <rect x="973.118042" y="705.987549" width="6.360229" height="6.360291"/>
 <rect x="979.478271" y="705.987549" width="6.360229" height="6.360291"/>
 <rect x="985.838501" y="705.987549" width="6.360229" height="6.360291"/>
 <rect x="992.198730" y="705.987549" width="6.360291" height="6.360291"/>
 <rect x="998.559021" y="705.987549" width="6.360229" height="6.360291"/>
 <rect x="1004.919250" y="705.987549" width="6.360291" height="6.360291"/>
 <rect x="1011.279541" y="705.987549" width="6.360229" height="6.360291"/>
 <rect x="1017.639771" y="705.987549" width="6.360229" height="6.360291"/>
</g>
</svg>